<?xml version="1.0" encoding="utf-8"?>
<!-- Generator: Adobe Illustrator 16.0.0, SVG Export Plug-In . SVG Version: 6.00 Build 0)  -->
<!DOCTYPE svg PUBLIC "-//W3C//DTD SVG 1.1//EN" "http://www.w3.org/Graphics/SVG/1.1/DTD/svg11.dtd">
<svg version="1.1" id="Layer_1" xmlns="http://www.w3.org/2000/svg" xmlns:xlink="http://www.w3.org/1999/xlink" x="0px" y="0px"
	 width="180px" height="180px" viewBox="0 0 180 180" enable-background="new 0 0 180 180" xml:space="preserve">
<g opacity="0.7">
	<path fill="#6FA9DB" d="M54.924,121.521c-0.205,0.549-0.413,1.096-0.615,1.646c-1.33,3.625-2.664,7.249-3.983,10.879
		c-0.104,0.286-0.251,0.372-0.543,0.368c-1.188-0.016-2.375-0.018-3.562,0c-0.303,0.005-0.436-0.104-0.536-0.382
		c-1.487-4.082-2.985-8.159-4.478-12.24c-0.046-0.127-0.104-0.239-0.228-0.369c0,0.265,0,0.481,0,0.696c0,3.92,0,7.841,0,11.763
		c0,0.525,0,0.525-0.545,0.525c-1.284,0-2.568-0.011-3.852,0.007c-0.322,0.004-0.426-0.08-0.426-0.417
		c0.01-5.826,0.01-11.652,0.001-17.479c0-0.314,0.072-0.431,0.411-0.43c2.318,0.016,4.637,0.012,6.956,0.003
		c0.268-0.001,0.376,0.093,0.467,0.341c1.276,3.543,2.566,7.078,3.853,10.616c0.056,0.154,0.121,0.306,0.217,0.552
		c0.171-0.455,0.315-0.828,0.452-1.207c1.192-3.307,2.386-6.611,3.568-9.925c0.099-0.276,0.229-0.38,0.53-0.378
		c2.277,0.014,4.555,0.014,6.832,0c0.327-0.002,0.413,0.092,0.413,0.42c-0.011,5.826-0.01,11.651-0.001,17.479
		c0.001,0.322-0.072,0.432-0.41,0.427c-1.325-0.019-2.651-0.019-3.976-0.001c-0.346,0.006-0.44-0.096-0.439-0.439
		c0.011-4.072,0.005-8.145,0.003-12.217c0-0.066,0-0.134,0-0.201C54.998,121.544,54.961,121.532,54.924,121.521z"/>
	<path fill="#6FA9DB" d="M159.344,127.078c0.105-0.09,0.063-0.207,0.063-0.311c0.003-3.396,0.012-6.791-0.007-10.188
		c-0.004-0.412,0.121-0.501,0.51-0.494c1.326,0.023,2.652,0.018,3.977,0.004c0.295-0.004,0.372,0.088,0.372,0.376
		c-0.008,5.869-0.007,11.737,0,17.607c0,0.251-0.071,0.338-0.327,0.337c-1.779-0.01-3.563-0.01-5.344,0
		c-0.216,0.001-0.324-0.102-0.429-0.26c-1.271-1.922-2.545-3.84-3.817-5.76c-1.144-1.727-2.285-3.451-3.434-5.174
		c-0.057-0.087-0.1-0.199-0.262-0.236c0,0.18,0,0.35,0,0.519c0,3.479-0.006,6.959,0.008,10.438c0,0.349-0.069,0.483-0.453,0.477
		c-1.34-0.023-2.68-0.018-4.02-0.002c-0.295,0.004-0.408-0.063-0.406-0.385c0.01-5.854,0.007-11.707,0-17.559
		c0-0.283,0.072-0.383,0.367-0.38c1.836,0.013,3.672,0.013,5.51-0.003c0.271-0.001,0.396,0.139,0.521,0.325
		c1.278,1.916,2.557,3.832,3.834,5.748c1.034,1.55,2.063,3.104,3.1,4.649C159.172,126.906,159.204,127.04,159.344,127.078z"/>
	<path fill="#6FA9DB" d="M114.664,148.809c0-2.887,0.004-5.771-0.008-8.656c-0.002-0.37,0.089-0.504,0.482-0.504
		c4.875,0.013,9.748,0.011,14.621,0.002c0.311,0,0.436,0.058,0.428,0.408c-0.024,1.117-0.024,2.236,0,3.354
		c0.008,0.341-0.105,0.422-0.42,0.421c-3.216-0.009-6.431-0.007-9.646-0.011c-0.572,0-0.572-0.005-0.572,0.548
		c0.001,0.636,0.025,1.271-0.008,1.904c-0.021,0.369,0.087,0.466,0.455,0.465c3.119-0.016,6.239-0.008,9.358-0.008
		c0.552,0,0.549,0,0.547,0.553c-0.002,1.064-0.014,2.127,0.007,3.189c0.008,0.33-0.091,0.42-0.419,0.42
		c-3.148-0.013-6.297,0-9.444-0.018c-0.397-0.002-0.526,0.104-0.506,0.508c0.035,0.635,0.047,1.271-0.002,1.903
		c-0.032,0.452,0.14,0.517,0.536,0.515c3.16-0.015,6.32-0.01,9.48-0.008c0.682,0,0.62-0.088,0.621,0.617
		c0.004,1.063-0.007,2.126,0.008,3.188c0.002,0.271-0.076,0.351-0.351,0.351c-4.931-0.011-9.856-0.011-14.787,0.002
		c-0.372,0.002-0.39-0.165-0.39-0.449C114.666,154.605,114.664,151.706,114.664,148.809z"/>
	<path fill="#6FA9DB" d="M63.591,125.229c0-2.899,0.005-5.801-0.008-8.699c-0.001-0.342,0.085-0.44,0.434-0.44
		c4.887,0.013,9.773,0.013,14.66,0c0.331,0,0.417,0.091,0.411,0.418c-0.021,1.132-0.017,2.265-0.002,3.396
		c0.003,0.293-0.082,0.361-0.376,0.358c-3.258-0.014-6.516-0.003-9.773-0.016c-0.361-0.003-0.482,0.092-0.465,0.462
		c0.029,0.675,0.023,1.354,0,2.029c-0.012,0.328,0.091,0.422,0.42,0.42c3.135-0.012,6.269-0.008,9.404-0.008
		c0.528,0,0.528,0,0.528,0.537c0,1.049-0.018,2.099,0.009,3.146c0.01,0.391-0.084,0.514-0.494,0.512
		c-3.135-0.018-6.27-0.004-9.404-0.018c-0.356-0.001-0.483,0.08-0.465,0.453c0.032,0.662,0.026,1.326,0.001,1.988
		c-0.014,0.366,0.076,0.5,0.478,0.496c3.202-0.018,6.402-0.01,9.604-0.01c0.527,0,0.527,0.001,0.527,0.546
		c0,1.078-0.008,2.154,0.006,3.231c0.003,0.283-0.069,0.38-0.37,0.38c-4.916-0.011-9.831-0.013-14.747,0.004
		c-0.382,0-0.383-0.173-0.382-0.449C63.592,131.055,63.591,128.141,63.591,125.229z"/>
	<path fill="#6FA9DB" d="M36.164,148.822c0-2.898,0.006-5.799-0.008-8.697c-0.001-0.367,0.112-0.477,0.469-0.477
		c4.874,0.011,9.747,0.011,14.621,0c0.354,0,0.443,0.117,0.438,0.453c-0.019,1.09-0.022,2.182,0.001,3.271
		c0.008,0.377-0.126,0.461-0.478,0.459c-3.229-0.012-6.457-0.001-9.685-0.018c-0.366-0.002-0.478,0.09-0.462,0.459
		c0.03,0.676,0.028,1.353,0,2.028c-0.014,0.351,0.101,0.438,0.441,0.437c3.134-0.012,6.269,0.002,9.402-0.02
		c0.434-0.003,0.53,0.122,0.518,0.534c-0.031,1.035-0.009,2.071-0.009,3.104c0,0.527,0,0.527-0.549,0.527
		c-3.106,0-6.212,0.008-9.319-0.01c-0.383-0.002-0.502,0.102-0.484,0.486c0.031,0.646,0.035,1.298-0.001,1.943
		c-0.023,0.42,0.135,0.495,0.519,0.494c3.188-0.015,6.376-0.008,9.564-0.007c0.534,0,0.534,0,0.534,0.548
		c0,1.076-0.009,2.153,0.005,3.229c0.003,0.289-0.082,0.379-0.375,0.379c-4.915-0.01-9.83-0.01-14.745,0.002
		c-0.348,0-0.405-0.126-0.404-0.434C36.167,154.621,36.164,151.723,36.164,148.822z"/>
	<path fill="#6FA9DB" d="M138.619,157.943c-2.063,0-3.764-0.006-5.461,0.008c-0.289,0.002-0.377-0.082-0.374-0.372
		c0.017-1.117,0.021-2.237,0-3.354c-0.007-0.348,0.1-0.438,0.44-0.438c3.078,0.014,6.155,0.009,9.234,0.008
		c0.331,0,0.658,0.002,0.973-0.145c0.609-0.281,0.911-0.784,0.851-1.461c-0.054-0.59-0.472-1.071-1.067-1.229
		c-0.283-0.074-0.574-0.071-0.865-0.071c-1.533-0.007-3.065,0.014-4.598-0.023c-1.38-0.035-2.671-0.399-3.756-1.301
		c-0.893-0.738-1.438-1.701-1.639-2.838c-0.293-1.664-0.117-3.25,0.914-4.651c1.17-1.582,2.824-2.274,4.721-2.355
		c3.49-0.153,6.984-0.032,10.477-0.065c0.307-0.004,0.359,0.078,0.225,0.361c-0.555,1.172-1.1,2.346-1.618,3.531
		c-0.16,0.365-0.44,0.279-0.696,0.28c-2.48,0.007-4.966,0.005-7.449,0.002c-0.361,0-0.717,0.028-1.045,0.203
		c-0.537,0.284-0.796,0.771-0.742,1.405c0.045,0.537,0.426,0.983,0.973,1.164c0.279,0.092,0.561,0.133,0.854,0.133
		c1.562,0.002,3.12-0.004,4.682,0.02c1.043,0.018,2.063,0.208,2.994,0.698c1.106,0.582,1.916,1.454,2.256,2.673
		c0.559,1.988,0.392,3.891-0.889,5.582c-0.998,1.314-2.402,1.958-4.006,2.146C142.094,158.076,140.17,157.883,138.619,157.943z"/>
	<path fill="#6FA9DB" d="M161.177,139.656c1.753,0,3.505,0.005,5.259-0.006c0.342-0.002,0.412,0.06,0.254,0.39
		c-0.547,1.146-1.074,2.298-1.592,3.457c-0.113,0.256-0.262,0.335-0.533,0.334c-2.551-0.009-5.104-0.003-7.656,0
		c-0.319,0-0.631,0.021-0.93,0.157c-0.551,0.253-0.867,0.752-0.84,1.349c0.03,0.606,0.385,1.069,0.965,1.263
		c0.276,0.094,0.56,0.135,0.853,0.137c1.687,0.011,3.37-0.057,5.053,0.035c1.072,0.057,2.095,0.313,3.015,0.902
		c1.213,0.778,1.881,1.898,2.088,3.314c0.209,1.435,0.049,2.813-0.666,4.087c-0.827,1.476-2.155,2.274-3.766,2.663
		c-0.688,0.164-1.388,0.211-2.094,0.207c-3.064-0.004-6.13-0.002-9.193-0.002c-0.565,0-0.565,0-0.565-0.584
		c0-1.036,0.015-2.071-0.011-3.105c-0.008-0.359,0.08-0.47,0.457-0.468c3.091,0.016,6.183,0.008,9.273,0.009
		c0.305,0,0.604-0.012,0.891-0.145c0.6-0.28,0.901-0.784,0.849-1.424c-0.054-0.625-0.454-1.101-1.079-1.266
		c-0.271-0.07-0.545-0.076-0.822-0.076c-1.547-0.003-3.093,0.022-4.638-0.021c-1.379-0.038-2.671-0.41-3.759-1.302
		c-0.957-0.787-1.486-1.834-1.668-3.049c-0.256-1.711,0.019-3.309,1.134-4.683c0.969-1.194,2.282-1.78,3.769-2.04
		c0.615-0.107,1.236-0.127,1.855-0.133C158.441,139.646,159.809,139.656,161.177,139.656z"/>
	<path fill="#6FA9DB" d="M74.919,157.879c-0.177,0.104-0.331,0.063-0.475,0.063c-1.809,0.006-3.617-0.004-5.426,0.012
		c-0.307,0.004-0.514-0.089-0.709-0.318c-1.434-1.678-2.875-3.348-4.314-5.02c-0.063-0.073-0.141-0.137-0.192-0.217
		c-0.146-0.226-0.252-0.17-0.404,0.01c-0.856,1.01-1.725,2.009-2.588,3.013c-0.665,0.772-1.328,1.55-1.993,2.322
		c-0.099,0.116-0.206,0.207-0.383,0.207c-1.96-0.013-3.92-0.015-5.88-0.021c-0.01,0-0.021-0.014-0.078-0.051
		c0.285-0.33,0.564-0.656,0.85-0.979c2.343-2.642,4.685-5.282,7.037-7.916c0.193-0.213,0.185-0.334-0.003-0.545
		c-2.511-2.806-5.013-5.619-7.514-8.432c-0.075-0.084-0.244-0.146-0.161-0.296c0.063-0.112,0.203-0.054,0.307-0.054
		c1.864-0.006,3.728,0,5.591-0.008c0.243,0,0.407,0.08,0.566,0.267c1.417,1.653,2.852,3.295,4.264,4.953
		c0.226,0.267,0.346,0.241,0.555-0.001c1.39-1.624,2.794-3.234,4.181-4.861c0.216-0.254,0.436-0.363,0.774-0.359
		c1.752,0.017,3.506,0.006,5.259,0.01c0.119,0.001,0.284-0.063,0.348,0.056c0.086,0.158-0.104,0.237-0.185,0.328
		c-2.436,2.742-4.876,5.479-7.323,8.214c-0.212,0.238-0.282,0.383-0.023,0.672c2.517,2.817,5.012,5.654,7.514,8.486
		C74.647,157.564,74.778,157.717,74.919,157.879z"/>
	<path fill="#6FA9DB" d="M121.059,116.096c1.021,0.002,2.043,0.01,3.063-0.005c0.278-0.004,0.385,0.062,0.38,0.365
		c-0.02,1.188-0.02,2.375-0.001,3.563c0.005,0.313-0.089,0.394-0.397,0.392c-1.779-0.009-3.563-0.015-5.342,0.017
		c-1.023,0.018-1.986,0.28-2.813,0.937c-0.872,0.692-1.305,1.629-1.477,2.688c-0.156,0.988-0.123,1.979,0.109,2.958
		c0.436,1.833,1.922,3.058,3.807,3.189c1.09,0.075,2.178,0.046,3.268,0.049c0.316,0.002,0.352,0.082,0.222,0.354
		c-0.558,1.153-1.101,2.314-1.649,3.473c-0.074,0.156-0.127,0.334-0.367,0.334c-1.559,0.005-3.115,0.039-4.635-0.434
		c-2.599-0.809-4.396-2.469-5.199-5.062c-0.846-2.729-0.822-5.479,0.359-8.128c0.922-2.07,2.532-3.422,4.688-4.139
		c1.724-0.569,3.5-0.563,5.281-0.553C120.59,116.098,120.823,116.096,121.059,116.096z"/>
	<path fill="#6FA9DB" d="M101.986,125.205c0-2.898,0.007-5.798-0.008-8.696c-0.002-0.334,0.094-0.422,0.416-0.419
		c1.365,0.016,2.731,0.016,4.099,0c0.327-0.005,0.422,0.094,0.421,0.422c-0.01,5.826-0.01,11.651,0,17.479
		c0.001,0.327-0.092,0.427-0.421,0.423c-1.367-0.018-2.734-0.018-4.101,0c-0.338,0.005-0.414-0.104-0.412-0.428
		C101.993,131.061,101.986,128.133,101.986,125.205z"/>
	<path fill="#6FA9DB" d="M113.118,157.779c-1.859-2.021-3.72-4.041-5.58-6.059c-0.347-0.376-0.351-0.363,0.138-0.501
		c1.73-0.487,3.075-1.46,3.862-3.116c0.569-1.199,0.69-2.465,0.444-3.756c-0.379-2-1.557-3.361-3.426-4.141
		c-1.176-0.488-2.412-0.553-3.66-0.553c-2.596,0-5.19,0-7.787,0c-0.606,0-1.215,0.007-1.823-0.002
		c-0.265-0.004-0.371,0.093-0.358,0.367c0.021,0.439,0.016,0.883,0.016,1.322c0.002,5.412,0.002,10.822-0.006,16.233
		c0,0.288,0.073,0.376,0.365,0.374c1.395-0.014,2.789-0.018,4.184,0.001c0.328,0.005,0.382-0.109,0.377-0.406
		c-0.014-1.696-0.006-3.396-0.006-5.091c0-0.896,0.004-0.85,0.877-0.912c0.666-0.049,1.076,0.197,1.496,0.697
		c1.545,1.837,3.143,3.63,4.724,5.438c0.114,0.131,0.218,0.271,0.437,0.271c1.918-0.008,3.838-0.006,5.815-0.006
		C113.152,157.848,113.143,157.807,113.118,157.779z M106.035,147.32c-0.354,0.131-0.723,0.176-1.098,0.175
		c-0.746-0.003-1.492-0.001-2.236-0.001c-0.814,0-1.629-0.012-2.443,0.006c-0.294,0.006-0.414-0.059-0.406-0.387
		c0.021-0.979,0.017-1.959,0.004-2.938c-0.004-0.269,0.08-0.359,0.354-0.355c1.572,0.013,3.145,0.006,4.717,0.012
		c0.65,0.002,1.262,0.124,1.747,0.609C107.575,145.343,107.234,146.886,106.035,147.32z"/>
	<path fill="#6FA9DB" d="M100.292,134.07c-1.8-1.963-3.603-3.922-5.401-5.885c-0.361-0.395-0.354-0.388,0.143-0.531
		c1.334-0.387,2.476-1.057,3.301-2.207c0.682-0.947,1.021-1.998,1.07-3.16c0.07-1.661-0.362-3.139-1.547-4.34
		c-1.289-1.309-2.926-1.807-4.696-1.829c-3.504-0.043-7.01-0.017-10.516-0.027c-0.295-0.003-0.374,0.099-0.373,0.38
		c0.014,2.77,0.018,5.539,0.021,8.312c0.003,3.077,0.006,6.155-0.005,9.233c-0.001,0.308,0.084,0.401,0.396,0.397
		c1.367-0.017,2.733-0.019,4.101,0.001c0.354,0.006,0.404-0.133,0.403-0.439c-0.013-1.822,0.003-3.645-0.015-5.467
		c-0.004-0.384,0.08-0.568,0.498-0.516c0.231,0.029,0.473,0.027,0.703,0c0.41-0.047,0.681,0.107,0.951,0.426
		c1.632,1.906,3.29,3.79,4.932,5.689c0.188,0.218,0.386,0.308,0.675,0.306c1.284-0.015,2.567-0.007,3.853-0.007
		c0.563,0,1.124,0,1.789,0C100.43,134.234,100.365,134.148,100.292,134.07z M92.791,123.906c-0.934,0.104-1.871,0.018-2.588,0.046
		c-1.032,0-1.846-0.007-2.658,0.005c-0.268,0.004-0.369-0.087-0.367-0.357c0.009-1.007,0.01-2.015-0.002-3.021
		c-0.004-0.266,0.116-0.331,0.35-0.326c1.723,0.029,3.447-0.059,5.167,0.053c1.027,0.064,1.806,0.831,1.818,1.787
		C94.523,123.075,93.852,123.786,92.791,123.906z"/>
	<path fill="#6FA9DB" d="M35.089,134.011c-0.766-1.694-1.515-3.397-2.266-5.102c-1.842-4.175-3.684-8.349-5.517-12.527
		c-0.102-0.231-0.236-0.291-0.472-0.291c-1.876,0.009-3.753,0.013-5.63-0.003c-0.3-0.001-0.429,0.11-0.544,0.372
		c-1.552,3.534-3.114,7.063-4.674,10.595c-1.019,2.307-2.038,4.613-3.059,6.92c-0.191,0.434-0.196,0.433,0.281,0.433
		c1.519,0,3.037-0.007,4.555,0.007c0.275,0.002,0.419-0.076,0.524-0.339c0.408-1.024,0.849-2.037,1.257-3.062
		c0.098-0.248,0.226-0.326,0.485-0.324c2.581,0.01,5.162,0.012,7.743-0.004c0.308,0,0.436,0.116,0.543,0.377
		c0.412,1.008,0.853,2.004,1.261,3.014c0.106,0.264,0.25,0.344,0.525,0.338c0.772-0.02,1.546-0.007,2.318-0.007
		c0.801,0,1.602-0.011,2.402,0.005C35.157,134.417,35.238,134.342,35.089,134.011z M26.229,126.682
		c-1.53-0.004-3.06-0.002-4.589-0.002c-0.352,0-0.205-0.197-0.14-0.354c0.713-1.701,1.425-3.402,2.144-5.102
		c0.078-0.187,0.114-0.397,0.309-0.58c0.823,1.959,1.627,3.873,2.435,5.787C26.465,126.611,26.433,126.682,26.229,126.682z"/>
	<path fill="#6FA9DB" d="M144.665,133.977c-0.966-2.182-1.933-4.361-2.896-6.543c-1.621-3.67-3.244-7.342-4.854-11.016
		c-0.115-0.261-0.271-0.331-0.537-0.327c-0.925,0.015-1.851,0.005-2.774,0.005c-0.896,0-1.795,0.021-2.69-0.01
		c-0.367-0.013-0.54,0.121-0.679,0.441c-0.51,1.205-1.039,2.404-1.569,3.604c-2.046,4.628-4.093,9.255-6.149,13.878
		c-0.164,0.367-0.043,0.404,0.287,0.402c1.52-0.011,3.036-0.015,4.557,0.003c0.304,0.003,0.438-0.104,0.545-0.375
		c0.397-0.999,0.828-1.984,1.227-2.984c0.11-0.272,0.258-0.367,0.551-0.367c2.568,0.013,5.137,0.013,7.705,0
		c0.278,0,0.422,0.09,0.525,0.346c0.415,1.009,0.859,2.004,1.268,3.015c0.111,0.28,0.254,0.368,0.547,0.366
		c1.559-0.014,3.119-0.007,4.681-0.007C144.854,134.406,144.854,134.4,144.665,133.977z M135.712,126.684
		c-0.729-0.013-1.462-0.004-2.19-0.004c-0.719,0-1.435-0.009-2.15,0.004c-0.299,0.006-0.402-0.049-0.266-0.371
		c0.756-1.771,1.496-3.553,2.244-5.328c0.041-0.092,0.039-0.25,0.18-0.246c0.134,0.004,0.135,0.156,0.175,0.25
		c0.749,1.775,1.489,3.556,2.243,5.328C136.061,126.587,136.023,126.688,135.712,126.684z"/>
	<path fill="#6FA9DB" d="M92.777,144.846c-0.229-1.834-1.119-3.268-2.706-4.236c-1.232-0.752-2.605-0.947-4.016-0.949
		c-3.313-0.01-6.626-0.003-9.94-0.003c-0.533,0-0.533,0-0.533,0.557c0,2.858,0,5.716,0,8.573c0,2.913,0.003,5.824-0.006,8.738
		c-0.001,0.309,0.06,0.434,0.405,0.429c1.366-0.021,2.734-0.019,4.1,0c0.314,0.004,0.396-0.09,0.393-0.396
		c-0.014-1.686,0.009-3.369-0.018-5.054c-0.007-0.438,0.137-0.528,0.543-0.524c1.767,0.021,3.534,0.018,5.302,0.008
		c1.781-0.01,3.415-0.479,4.735-1.728C92.598,148.783,93.034,146.911,92.777,144.846z M86.001,147.82
		c-0.868,0.037-1.738,0.007-2.607,0.007c0,0.004,0,0.007,0,0.01c-0.869,0-1.738-0.005-2.608,0.005
		c-0.241,0.002-0.334-0.059-0.33-0.328c0.019-1.091,0.019-2.18,0.002-3.271c-0.005-0.327,0.096-0.429,0.425-0.425
		c1.573,0.016,3.145,0.005,4.716,0.01c0.867,0.003,1.651,0.193,2.093,1.048C88.404,146.254,87.551,147.757,86.001,147.82z"/>
</g>
<g opacity="0.7">
	<path fill="#6FA9DB" d="M67.025,28.061c-0.188,0.505-0.38,1.009-0.566,1.515c-1.224,3.336-2.452,6.672-3.666,10.013
		c-0.096,0.263-0.231,0.342-0.5,0.339c-1.093-0.015-2.186-0.015-3.278,0c-0.279,0.004-0.401-0.095-0.494-0.352
		c-1.368-3.757-2.747-7.51-4.122-11.266c-0.042-0.117-0.096-0.22-0.209-0.339c0,0.243,0,0.443,0,0.641c0,3.608,0,7.217,0,10.827
		c0,0.483,0,0.483-0.502,0.483c-1.181,0-2.363-0.009-3.545,0.006c-0.296,0.003-0.392-0.074-0.392-0.384
		c0.009-5.362,0.009-10.725,0.001-16.087c0-0.291,0.066-0.396,0.378-0.396c2.134,0.014,4.268,0.011,6.402,0.003
		c0.247-0.001,0.346,0.084,0.43,0.313c1.175,3.261,2.362,6.516,3.546,9.772c0.051,0.142,0.111,0.282,0.2,0.508
		c0.158-0.419,0.29-0.763,0.416-1.111c1.097-3.043,2.196-6.086,3.284-9.135c0.091-0.255,0.21-0.35,0.488-0.348
		c2.096,0.012,4.192,0.012,6.288,0c0.301-0.002,0.38,0.083,0.38,0.386c-0.01,5.363-0.009,10.724,0,16.086
		c0,0.297-0.066,0.397-0.377,0.393c-1.22-0.017-2.439-0.017-3.659-0.001c-0.318,0.005-0.405-0.088-0.404-0.405
		c0.01-3.748,0.004-7.496,0.003-11.244c0-0.062,0-0.123,0-0.185C67.093,28.083,67.059,28.072,67.025,28.061z"/>
	<path fill="#6FA9DB" d="M163.134,33.177c0.097-0.083,0.058-0.191,0.058-0.285c0.002-3.126,0.012-6.251-0.006-9.376
		c-0.004-0.379,0.11-0.461,0.469-0.455c1.222,0.022,2.441,0.016,3.66,0.004c0.271-0.004,0.343,0.081,0.343,0.346
		c-0.007,5.402-0.007,10.803,0,16.206c0,0.231-0.065,0.311-0.302,0.31c-1.639-0.008-3.279-0.008-4.918,0
		c-0.199,0.001-0.299-0.092-0.396-0.238c-1.169-1.769-2.342-3.535-3.515-5.301c-1.051-1.589-2.104-3.176-3.159-4.762
		c-0.052-0.08-0.093-0.184-0.24-0.219c0,0.166,0,0.322,0,0.478c0,3.203-0.005,6.405,0.007,9.607c0,0.321-0.063,0.446-0.417,0.439
		c-1.231-0.022-2.466-0.017-3.698-0.002c-0.271,0.003-0.377-0.057-0.375-0.354c0.01-5.387,0.006-10.774,0-16.16
		c0-0.262,0.066-0.353,0.34-0.35c1.688,0.011,3.379,0.011,5.07-0.003c0.25-0.001,0.364,0.127,0.479,0.299
		c1.177,1.764,2.354,3.527,3.528,5.291c0.951,1.426,1.898,2.856,2.854,4.279C162.977,33.019,163.005,33.142,163.134,33.177z"/>
	<path fill="#6FA9DB" d="M122.01,53.177c0-2.656,0.004-5.312-0.007-7.967c-0.002-0.341,0.082-0.464,0.444-0.464
		c4.486,0.012,8.972,0.01,13.457,0.002c0.285-0.001,0.4,0.052,0.394,0.376c-0.022,1.028-0.022,2.058,0,3.087
		c0.007,0.313-0.097,0.388-0.387,0.387c-2.959-0.008-5.918-0.006-8.877-0.01c-0.526,0-0.526-0.003-0.526,0.504
		c0.001,0.585,0.023,1.17-0.007,1.752c-0.021,0.341,0.08,0.429,0.419,0.428c2.87-0.014,5.743-0.007,8.614-0.007
		c0.507,0,0.504,0,0.503,0.509c-0.003,0.979-0.014,1.958,0.006,2.936c0.007,0.305-0.084,0.387-0.386,0.386
		c-2.898-0.011-5.796,0-8.692-0.015c-0.367-0.002-0.484,0.095-0.466,0.467c0.032,0.583,0.043,1.17-0.002,1.752
		c-0.029,0.416,0.129,0.475,0.493,0.474c2.91-0.014,5.818-0.009,8.727-0.007c0.629,0,0.571-0.081,0.572,0.568
		c0.003,0.979-0.007,1.957,0.006,2.935c0.003,0.249-0.068,0.322-0.32,0.322c-4.537-0.009-9.074-0.01-13.61,0.002
		c-0.343,0.001-0.357-0.152-0.357-0.414C122.012,58.513,122.01,55.844,122.01,53.177z"/>
	<path fill="#6FA9DB" d="M75.002,31.473c0-2.668,0.005-5.338-0.007-8.007c-0.001-0.313,0.079-0.405,0.399-0.405
		c4.498,0.011,8.995,0.011,13.494,0c0.305,0,0.385,0.083,0.379,0.385c-0.02,1.041-0.017,2.083-0.002,3.126
		c0.002,0.269-0.076,0.332-0.348,0.33c-2.998-0.013-5.997-0.003-8.995-0.015c-0.332-0.002-0.443,0.084-0.428,0.425
		c0.027,0.621,0.021,1.246,0,1.868c-0.011,0.302,0.084,0.389,0.388,0.387c2.885-0.01,5.77-0.006,8.654-0.006
		c0.486,0,0.486,0,0.486,0.494c0,0.965-0.016,1.931,0.008,2.897c0.01,0.358-0.076,0.473-0.454,0.471
		c-2.885-0.016-5.771-0.003-8.655-0.016c-0.328-0.001-0.445,0.074-0.428,0.418c0.03,0.609,0.024,1.22,0.001,1.83
		c-0.013,0.337,0.07,0.459,0.44,0.457c2.946-0.016,5.893-0.009,8.84-0.009c0.484,0,0.484,0,0.484,0.502
		c0,0.992-0.008,1.982,0.006,2.974c0.004,0.262-0.063,0.35-0.341,0.35c-4.524-0.009-9.048-0.011-13.573,0.003
		c-0.352,0-0.353-0.159-0.352-0.413C75.003,36.836,75.002,34.154,75.002,31.473z"/>
	<path fill="#6FA9DB" d="M49.758,53.19c0-2.667,0.005-5.336-0.008-8.005c-0.001-0.338,0.103-0.438,0.432-0.438
		c4.486,0.009,8.971,0.009,13.457,0c0.326,0,0.408,0.108,0.403,0.417c-0.017,1.004-0.021,2.008,0.001,3.012
		c0.007,0.347-0.117,0.424-0.44,0.422c-2.971-0.011-5.942,0-8.914-0.016c-0.336-0.001-0.44,0.083-0.425,0.422
		c0.027,0.622,0.025,1.245,0,1.868c-0.013,0.322,0.093,0.402,0.406,0.401c2.884-0.011,5.77,0.001,8.653-0.017
		c0.399-0.003,0.488,0.112,0.477,0.492c-0.028,0.953-0.008,1.906-0.008,2.858c0,0.485,0,0.485-0.505,0.485
		c-2.859,0-5.718,0.006-8.577-0.009c-0.353-0.002-0.463,0.093-0.446,0.448c0.028,0.595,0.032,1.194-0.001,1.79
		c-0.021,0.386,0.125,0.456,0.478,0.455c2.935-0.013,5.869-0.007,8.803-0.006c0.492,0,0.492,0,0.492,0.504
		c0,0.991-0.008,1.982,0.005,2.973c0.003,0.265-0.075,0.348-0.345,0.348c-4.524-0.009-9.047-0.009-13.571,0.002
		c-0.32,0-0.373-0.116-0.372-0.399C49.761,58.527,49.758,55.858,49.758,53.19z"/>
	<path fill="#6FA9DB" d="M144.059,61.586c-1.898,0-3.463-0.005-5.025,0.006c-0.268,0.002-0.348-0.076-0.346-0.342
		c0.017-1.028,0.021-2.06,0-3.087c-0.006-0.32,0.092-0.405,0.405-0.404c2.834,0.013,5.667,0.008,8.501,0.007
		c0.305,0,0.605,0.001,0.896-0.132c0.561-0.26,0.838-0.723,0.781-1.346c-0.049-0.542-0.435-0.986-0.982-1.13
		c-0.262-0.068-0.527-0.067-0.797-0.067c-1.41-0.005-2.821,0.013-4.23-0.021c-1.271-0.032-2.459-0.368-3.457-1.196
		c-0.822-0.68-1.324-1.566-1.508-2.613c-0.27-1.532-0.107-2.991,0.842-4.281c1.075-1.456,2.598-2.093,4.344-2.168
		c3.213-0.141,6.43-0.031,9.644-0.06c0.281-0.004,0.331,0.072,0.206,0.333c-0.51,1.078-1.014,2.158-1.489,3.25
		c-0.147,0.336-0.405,0.257-0.642,0.258c-2.283,0.006-4.57,0.004-6.855,0.001c-0.334,0-0.66,0.026-0.963,0.188
		c-0.492,0.263-0.73,0.709-0.683,1.294c0.041,0.494,0.392,0.905,0.896,1.071c0.256,0.084,0.516,0.122,0.784,0.122
		c1.437,0.001,2.872-0.004,4.31,0.017c0.961,0.016,1.897,0.192,2.756,0.643c1.02,0.536,1.765,1.338,2.076,2.46
		c0.515,1.83,0.359,3.581-0.817,5.138c-0.919,1.211-2.211,1.802-3.687,1.976C147.257,61.708,145.484,61.529,144.059,61.586z"/>
	<path fill="#6FA9DB" d="M164.82,44.753c1.613,0,3.227,0.004,4.841-0.005c0.313-0.001,0.379,0.055,0.233,0.359
		c-0.504,1.053-0.99,2.115-1.465,3.182c-0.104,0.235-0.242,0.309-0.492,0.308c-2.349-0.008-4.696-0.003-7.047,0
		c-0.295,0-0.58,0.018-0.855,0.145c-0.506,0.233-0.799,0.692-0.771,1.241c0.027,0.559,0.354,0.984,0.887,1.162
		c0.256,0.085,0.516,0.124,0.785,0.125c1.551,0.01,3.103-0.051,4.65,0.033c0.986,0.052,1.928,0.288,2.773,0.831
		c1.117,0.716,1.73,1.748,1.922,3.051c0.191,1.32,0.045,2.59-0.612,3.762c-0.763,1.358-1.983,2.094-3.466,2.451
		c-0.633,0.152-1.277,0.194-1.928,0.191c-2.82-0.004-5.643-0.002-8.461-0.002c-0.521,0-0.521,0-0.521-0.538
		c0-0.954,0.014-1.907-0.009-2.858c-0.009-0.331,0.071-0.433,0.42-0.431c2.845,0.014,5.69,0.007,8.536,0.008
		c0.279,0,0.556-0.011,0.818-0.133c0.551-0.258,0.83-0.722,0.78-1.311c-0.049-0.575-0.418-1.012-0.993-1.164
		c-0.248-0.064-0.502-0.07-0.757-0.07c-1.424-0.003-2.847,0.021-4.269-0.019c-1.271-0.035-2.459-0.377-3.461-1.198
		c-0.881-0.724-1.366-1.688-1.534-2.806c-0.235-1.574,0.018-3.044,1.044-4.309c0.893-1.099,2.102-1.638,3.469-1.877
		c0.566-0.1,1.139-0.117,1.708-0.122C162.305,44.746,163.563,44.753,164.82,44.753z"/>
	<path fill="#6FA9DB" d="M85.428,61.526c-0.163,0.096-0.304,0.058-0.437,0.058c-1.665,0.004-3.33-0.004-4.994,0.01
		c-0.282,0.003-0.473-0.082-0.652-0.293c-1.32-1.544-2.646-3.082-3.971-4.62c-0.058-0.067-0.129-0.126-0.177-0.199
		c-0.134-0.208-0.232-0.156-0.372,0.008c-0.788,0.929-1.588,1.849-2.382,2.773c-0.612,0.711-1.223,1.425-1.834,2.137
		c-0.091,0.108-0.189,0.19-0.353,0.19c-1.804-0.011-3.608-0.013-5.412-0.019c-0.009,0-0.019-0.012-0.072-0.046
		c0.262-0.304,0.52-0.604,0.783-0.901c2.157-2.43,4.312-4.862,6.477-7.285c0.177-0.197,0.17-0.309-0.003-0.502
		c-2.311-2.582-4.614-5.172-6.916-7.76c-0.069-0.078-0.225-0.134-0.148-0.272c0.058-0.104,0.187-0.049,0.283-0.049
		c1.716-0.004,3.431,0,5.146-0.006c0.223,0,0.375,0.073,0.521,0.245c1.305,1.522,2.625,3.032,3.925,4.559
		c0.208,0.245,0.318,0.223,0.51-0.001c1.279-1.495,2.572-2.977,3.848-4.474c0.199-0.234,0.402-0.334,0.713-0.332
		c1.613,0.015,3.227,0.005,4.84,0.009c0.11,0.001,0.262-0.058,0.32,0.051c0.08,0.146-0.095,0.218-0.17,0.302
		c-2.241,2.524-4.488,5.044-6.739,7.56c-0.196,0.22-0.26,0.352-0.021,0.619c2.315,2.593,4.613,5.204,6.916,7.811
		C85.178,61.236,85.299,61.376,85.428,61.526z"/>
	<path fill="#6FA9DB" d="M127.896,23.068c0.939,0.001,1.881,0.008,2.818-0.004c0.258-0.004,0.354,0.057,0.35,0.336
		c-0.017,1.093-0.017,2.186,0,3.279c0.004,0.288-0.082,0.362-0.365,0.36c-1.639-0.008-3.279-0.012-4.917,0.016
		c-0.942,0.016-1.828,0.258-2.589,0.861c-0.803,0.637-1.201,1.5-1.358,2.476c-0.146,0.91-0.114,1.822,0.101,2.723
		c0.4,1.687,1.77,2.814,3.504,2.936c1.004,0.07,2.004,0.042,3.006,0.045c0.293,0.002,0.324,0.075,0.205,0.325
		c-0.514,1.063-1.012,2.131-1.52,3.196c-0.068,0.145-0.115,0.308-0.337,0.308c-1.435,0.004-2.868,0.036-4.267-0.399
		c-2.393-0.743-4.045-2.271-4.785-4.658c-0.779-2.511-0.758-5.044,0.33-7.481c0.85-1.905,2.332-3.149,4.314-3.808
		c1.586-0.525,3.221-0.519,4.86-0.509C127.464,23.07,127.68,23.068,127.896,23.068z"/>
	<path fill="#6FA9DB" d="M110.342,31.453c0-2.669,0.006-5.336-0.008-8.004c-0.001-0.307,0.087-0.388,0.383-0.385
		c1.258,0.013,2.516,0.013,3.771,0c0.303-0.004,0.39,0.085,0.389,0.388c-0.009,5.362-0.009,10.724,0,16.087
		c0.001,0.301-0.085,0.393-0.389,0.389c-1.258-0.015-2.516-0.016-3.773,0c-0.311,0.004-0.381-0.096-0.379-0.393
		C110.348,36.841,110.342,34.147,110.342,31.453z"/>
	<path fill="#6FA9DB" d="M120.587,61.435c-1.711-1.86-3.423-3.72-5.136-5.577c-0.319-0.346-0.322-0.335,0.127-0.461
		c1.593-0.448,2.83-1.344,3.555-2.868c0.524-1.104,0.637-2.27,0.41-3.458c-0.35-1.84-1.434-3.094-3.154-3.811
		c-1.08-0.449-2.219-0.508-3.367-0.508c-2.39-0.001-4.778,0-7.168,0c-0.56,0-1.119,0.005-1.679-0.002
		c-0.243-0.004-0.342,0.085-0.331,0.338c0.021,0.405,0.016,0.813,0.016,1.218c0.002,4.981,0.004,9.961-0.006,14.941
		c0,0.265,0.067,0.346,0.338,0.344c1.283-0.013,2.565-0.015,3.85,0.001c0.303,0.004,0.352-0.101,0.348-0.374
		c-0.013-1.562-0.006-3.125-0.006-4.686c0-0.825,0.004-0.781,0.807-0.839c0.613-0.045,0.992,0.182,1.377,0.643
		c1.424,1.69,2.894,3.34,4.349,5.004c0.104,0.119,0.2,0.25,0.399,0.25c1.767-0.007,3.533-0.004,5.354-0.004
		C120.619,61.496,120.607,61.459,120.587,61.435z M114.068,51.809c-0.327,0.12-0.666,0.161-1.012,0.16c-0.686-0.002-1.371,0-2.059,0
		c-0.749,0-1.499-0.011-2.249,0.005c-0.271,0.005-0.381-0.054-0.374-0.355c0.021-0.901,0.016-1.803,0.003-2.704
		c-0.003-0.247,0.074-0.331,0.325-0.328c1.447,0.012,2.895,0.006,4.342,0.011c0.6,0.001,1.16,0.114,1.607,0.561
		C115.484,49.987,115.172,51.408,114.068,51.809z"/>
	<path fill="#6FA9DB" d="M108.782,39.612c-1.657-1.806-3.315-3.61-4.972-5.417c-0.334-0.362-0.328-0.356,0.129-0.489
		c1.229-0.355,2.279-0.973,3.039-2.032c0.627-0.872,0.939-1.839,0.985-2.908c0.063-1.529-0.334-2.888-1.425-3.995
		c-1.186-1.204-2.691-1.663-4.321-1.684c-3.228-0.04-6.454-0.014-9.68-0.025c-0.271-0.003-0.345,0.09-0.343,0.35
		c0.012,2.548,0.017,5.098,0.018,7.649c0.004,2.833,0.006,5.666-0.004,8.5c-0.001,0.282,0.076,0.369,0.363,0.366
		c1.26-0.015,2.518-0.017,3.775,0.001c0.324,0.005,0.37-0.123,0.37-0.405c-0.012-1.677,0.005-3.354-0.013-5.031
		c-0.005-0.354,0.072-0.524,0.458-0.475c0.213,0.028,0.435,0.025,0.646,0c0.377-0.042,0.627,0.1,0.877,0.392
		c1.5,1.754,3.027,3.488,4.537,5.237c0.174,0.2,0.355,0.283,0.621,0.281c1.184-0.013,2.363-0.006,3.547-0.006
		c0.518,0,1.033,0,1.646,0C108.908,39.763,108.85,39.685,108.782,39.612z M101.879,30.257c-0.859,0.097-1.725,0.016-2.383,0.042
		c-0.95,0-1.698-0.006-2.448,0.004c-0.243,0.004-0.34-0.08-0.338-0.33c0.011-0.926,0.011-1.854-0.002-2.78
		c-0.001-0.245,0.108-0.305,0.321-0.3c1.587,0.027,3.174-0.053,4.759,0.048c0.944,0.06,1.661,0.766,1.673,1.646
		C103.475,29.492,102.854,30.146,101.879,30.257z"/>
	<path fill="#6FA9DB" d="M48.769,39.557c-0.705-1.56-1.395-3.128-2.086-4.695c-1.696-3.842-3.391-7.684-5.078-11.53
		c-0.094-0.213-0.217-0.268-0.434-0.268c-1.727,0.007-3.454,0.011-5.182-0.003c-0.276-0.001-0.395,0.102-0.501,0.342
		c-1.428,3.253-2.867,6.5-4.302,9.751c-0.938,2.123-1.875,4.246-2.816,6.369c-0.176,0.398-0.18,0.397,0.259,0.397
		c1.398,0,2.795-0.006,4.193,0.006c0.253,0.002,0.386-0.07,0.482-0.312c0.376-0.943,0.781-1.875,1.157-2.818
		c0.09-0.228,0.208-0.299,0.446-0.298c2.376,0.009,4.751,0.011,7.127-0.002c0.283-0.001,0.401,0.107,0.5,0.346
		c0.379,0.928,0.785,1.845,1.16,2.774c0.098,0.243,0.23,0.316,0.484,0.311c0.711-0.017,1.423-0.006,2.134-0.006
		c0.737,0,1.474-0.009,2.21,0.004C48.832,39.931,48.906,39.862,48.769,39.557z M40.614,32.812c-1.409-0.003-2.816-0.001-4.224-0.001
		c-0.324,0-0.188-0.182-0.128-0.326c0.656-1.566,1.312-3.131,1.973-4.695c0.072-0.171,0.105-0.366,0.285-0.534
		c0.758,1.803,1.498,3.565,2.241,5.328C40.831,32.747,40.802,32.812,40.614,32.812z"/>
	<path fill="#6FA9DB" d="M149.623,39.525c-0.889-2.007-1.777-4.014-2.666-6.021c-1.492-3.379-2.984-6.758-4.469-10.139
		c-0.105-0.24-0.247-0.305-0.493-0.301c-0.853,0.012-1.704,0.004-2.554,0.004c-0.826,0-1.653,0.019-2.479-0.009
		c-0.338-0.012-0.497,0.112-0.624,0.407c-0.47,1.109-0.957,2.213-1.444,3.316c-1.883,4.26-3.768,8.518-5.66,12.773
		c-0.15,0.338-0.039,0.372,0.265,0.37c1.397-0.01,2.795-0.013,4.192,0.003c0.279,0.002,0.402-0.096,0.502-0.345
		c0.367-0.919,0.764-1.827,1.129-2.747c0.102-0.251,0.236-0.339,0.508-0.338c2.363,0.011,4.729,0.011,7.092,0
		c0.256,0,0.387,0.082,0.482,0.317c0.383,0.929,0.793,1.844,1.166,2.775c0.104,0.258,0.234,0.339,0.504,0.337
		c1.435-0.013,2.871-0.006,4.308-0.006C149.798,39.921,149.798,39.916,149.623,39.525z M141.383,32.813
		c-0.672-0.012-1.346-0.003-2.018-0.003c-0.66,0-1.319-0.008-1.979,0.003c-0.274,0.004-0.37-0.045-0.243-0.342
		c0.695-1.631,1.375-3.27,2.064-4.905c0.037-0.084,0.035-0.229,0.165-0.227c0.123,0.004,0.124,0.145,0.16,0.231
		c0.688,1.634,1.372,3.272,2.065,4.904C141.702,32.725,141.669,32.818,141.383,32.813z"/>
	<path fill="#6FA9DB" d="M101.863,49.529c-0.209-1.687-1.027-3.006-2.489-3.898c-1.133-0.692-2.396-0.873-3.692-0.875
		c-3.052-0.008-6.101-0.003-9.15-0.003c-0.491,0-0.491,0-0.491,0.513c0,2.631,0,5.26,0,7.891c0,2.681,0.003,5.361-0.005,8.043
		c-0.002,0.283,0.055,0.398,0.372,0.394c1.258-0.019,2.517-0.017,3.774,0c0.289,0.003,0.363-0.083,0.361-0.363
		c-0.013-1.551,0.008-3.102-0.017-4.651c-0.006-0.403,0.127-0.487,0.5-0.483c1.627,0.019,3.254,0.016,4.881,0.006
		c1.638-0.008,3.144-0.439,4.357-1.589C101.7,53.154,102.102,51.431,101.863,49.529z M95.628,52.269
		c-0.798,0.033-1.601,0.005-2.399,0.005c0,0.004,0,0.006,0,0.009c-0.799,0-1.601-0.004-2.398,0.004
		c-0.223,0.002-0.309-0.054-0.305-0.303c0.017-1.003,0.018-2.005,0.002-3.009c-0.006-0.301,0.088-0.394,0.391-0.39
		c1.447,0.013,2.895,0.003,4.341,0.008c0.798,0.003,1.521,0.178,1.927,0.964C97.839,50.826,97.057,52.209,95.628,52.269z"/>
</g>
</svg>
