<?xml version="1.0" encoding="utf-8"?>
<!-- Generator: Adobe Illustrator 25.2.0, SVG Export Plug-In . SVG Version: 6.00 Build 0)  -->
<svg version="1.1" id="Layer_1" xmlns="http://www.w3.org/2000/svg" xmlns:xlink="http://www.w3.org/1999/xlink" x="0px" y="0px"
	 viewBox="0 0 180 180" style="enable-background:new 0 0 180 180;" xml:space="preserve">
<style type="text/css">
	.st0{opacity:0.65;fill:#FFFFFF;}
</style>
<path class="st0" d="M81.4,103.8c4.8-4.2,7.2-10.4,4.2-18.4c-4.5-10.1-14.7-12.3-27.3-10.2l-4-15.6L44.8,62l4,15.6
	c-2.5,0.6-5.1,1.2-7.6,1.9l-4-15.5l-9.5,2.5l4,15.6c-2,0.6-19.2,5-19.2,5l2.6,10.2c0,0,7-2,6.9-1.8c3.9-1,5.7,0.9,6.6,2.7L39.7,141
	c0.1,1.2-0.1,3.4-2.7,4.1c0.2,0.1-6.9,1.8-6.9,1.8l1,11.9c0,0,17-4.3,19.2-4.9l4.1,15.8l9.5-2.5l-4.1-15.9c2.6-0.6,5.2-1.2,7.6-1.9
	l4.1,15.8l9.5-2.5L76.9,147c14.6-3.6,25-12.8,22.9-26.9C98.4,111.5,89.1,104.5,81.4,103.8z M49.4,109.4l-5.1-19
	c5.4-1.3,21-7.8,25.1,3.7C71.4,106.6,54.7,108,49.4,109.4z M57.1,140l-5.6-20.9c6.4-1.7,26.4-8.8,29.5,3.5
	C83,136.6,63.5,138.3,57.1,140z"/>
<path class="st0" d="M150.1,80.7c2.9-2.6,4.4-6.4,2.6-11.4c-2.8-6.3-9.1-7.6-16.9-6.3l-2.5-9.7l-5.9,1.5l2.5,9.7
	c-1.5,0.4-3.1,0.7-4.7,1.2l-2.5-9.6l-5.9,1.5l2.5,9.7c-1.3,0.4-11.9,3.1-11.9,3.1l1.6,6.3c0,0,4.3-1.2,4.3-1.1
	c2.4-0.6,3.5,0.6,4.1,1.7l6.9,26.5c0.1,0.8-0.1,2.1-1.7,2.5c0.1,0.1-4.3,1.1-4.3,1.1l0.6,7.4c0,0,10.5-2.7,11.9-3l2.5,9.8l5.9-1.5
	l-2.5-9.9c1.6-0.4,3.2-0.8,4.7-1.2l2.5,9.8l5.9-1.5l-2.5-9.8c9.1-2.2,15.5-7.9,14.2-16.7C160.7,85.5,154.9,81.2,150.1,80.7z
	 M130.3,84.2l-3.2-11.8c3.3-0.8,13-4.8,15.5,2.3C143.9,82.4,133.6,83.3,130.3,84.2z M135.1,103.2l-3.5-13c4-1,16.3-5.4,18.3,2.2
	C151.1,101,139,102.1,135.1,103.2z"/>
<path class="st0" d="M98.2,27.9c2.3-2,3.4-5,2-8.8c-2.1-4.9-7.1-5.9-13.1-4.9l-1.9-7.5l-4.6,1.2l1.9,7.5c-1.2,0.3-2.4,0.6-3.7,0.9
	L77,8.8L72.4,10l1.9,7.5c-1,0.3-9.2,2.4-9.2,2.4l1.3,4.9c0,0,3.4-0.9,3.3-0.9c1.9-0.5,2.7,0.4,3.1,1.3l5.3,20.6c0.1,0.6,0,1.6-1.3,2
	c0.1,0-3.3,0.9-3.3,0.9l0.5,5.7c0,0,8.1-2.1,9.2-2.4l2,7.6l4.6-1.2l-2-7.6c1.3-0.3,2.5-0.6,3.7-0.9l1.9,7.6l4.6-1.2l-2-7.6
	c7-1.7,12-6.1,11-12.9C106.3,31.7,101.9,28.3,98.2,27.9z M82.8,30.6l-2.4-9.1c2.6-0.6,10.1-3.7,12,1.8C93.3,29.3,85.4,30,82.8,30.6z
	 M86.5,45.3l-2.7-10c3.1-0.8,12.6-4.2,14.2,1.7C98.9,43.7,89.6,44.5,86.5,45.3z"/>
</svg>
