<?xml version="1.0" encoding="utf-8"?>
<!-- Generator: Adobe Illustrator 16.0.0, SVG Export Plug-In . SVG Version: 6.00 Build 0)  -->
<!DOCTYPE svg PUBLIC "-//W3C//DTD SVG 1.1//EN" "http://www.w3.org/Graphics/SVG/1.1/DTD/svg11.dtd">
<svg version="1.1" id="Layer_1" xmlns="http://www.w3.org/2000/svg" xmlns:xlink="http://www.w3.org/1999/xlink" x="0px" y="0px"
	 width="180px" height="180px" viewBox="0 0 180 180" enable-background="new 0 0 180 180" xml:space="preserve">
<g id="Layer_1_copy_2_1_" display="none">
	<path display="inline" fill="#DB8127" d="M80.354,123.153c0.234-0.079,0.47-0.153,0.713-0.224c3.038-0.822,5.698-2.271,7.753-4.695
		c5.483-6.495,5.204-15.999-0.644-22.236c-3.509-3.74-7.89-6.106-12.588-7.955c-0.779-0.307-0.984-0.623-0.736-1.47
		c1.248-4.23,2.365-8.499,3.666-12.713c0.393-1.275,0.05-1.654-1.13-1.938c-2.121-0.504-4.23-1.096-6.305-1.771
		c-1.105-0.358-1.571-0.191-1.891,1.016c-1.114,4.222-2.374,8.407-3.545,12.617c-0.231,0.838-0.472,1.182-1.451,0.83
		c-1.736-0.628-3.528-1.134-5.321-1.558c-0.9-0.21-0.897-0.583-0.684-1.313c1.227-4.194,2.386-8.409,3.635-12.597
		c0.316-1.063,0.294-1.597-1.009-1.872c-2.172-0.458-4.316-1.095-6.421-1.807c-1.143-0.382-1.568-0.176-1.881,1.003
		c-1.126,4.263-2.386,8.492-3.53,12.753c-0.25,0.912-0.566,1.053-1.466,0.797c-5.526-1.601-11.08-3.117-16.614-4.695
		c-0.725-0.206-1.027-0.125-1.232,0.661c-0.702,2.68-1.453,5.351-2.281,7.998c-0.275,0.879,0.042,1.089,0.763,1.271
		c2.117,0.536,4.237,1.061,6.301,1.8c2.991,1.064,4.199,3.339,3.351,6.351c-3.766,13.342-7.533,26.688-11.297,40.032
		c-0.68,2.409-2.256,3.388-4.669,2.781c-1.916-0.479-3.812-1.043-5.695-1.635c-0.706-0.221-1.012-0.056-1.315,0.616
		c-1.323,2.908-2.656,5.813-4.1,8.664c-0.487,0.971-0.171,1.139,0.674,1.373c5.501,1.546,10.988,3.149,16.492,4.668
		c0.857,0.24,1.034,0.526,0.787,1.38c-1.298,4.431-2.506,8.895-3.805,13.335c-0.245,0.823-0.04,1.102,0.729,1.309
		c2.439,0.644,4.871,1.308,7.278,2.044c0.813,0.241,1.048,0.079,1.274-0.729c1.246-4.537,2.583-9.05,3.836-13.586
		c0.208-0.754,0.455-0.902,1.196-0.661c1.795,0.589,3.611,1.111,5.444,1.587c0.842,0.21,1.003,0.554,0.757,1.373
		c-1.306,4.475-2.558,8.971-3.859,13.442c-0.192,0.664-0.153,0.956,0.604,1.152c2.516,0.665,5.017,1.388,7.511,2.148
		c0.783,0.233,0.978-0.024,1.177-0.751c1.198-4.375,2.487-8.726,3.671-13.107c0.265-1.002,0.553-1.305,1.668-0.98
		c5.278,1.514,10.636,1.992,16.095,0.978c11.087-2.056,20.103-13.61,14.516-26.584c-1.5-3.494-3.593-6.533-6.548-8.916
		C80.303,123.217,80.32,123.162,80.354,123.153z M70.585,137.879c-0.792,3.862-3.353,6.313-7.067,7.531
		c-1.532,0.503-3.124,0.641-4.735,0.596c-4.741-0.045-9.18-1.497-13.621-2.953c-0.675-0.221-1.354-0.438-2.029-0.671
		c-1.848-0.62-1.683-0.266-1.189-2.101c1.599-5.92,3.241-11.827,4.831-17.751c0.22-0.833,0.442-1.129,1.413-0.865
		c4.543,1.24,9.115,2.354,13.416,4.333c1.804,0.825,3.53,1.785,5.079,3.031C69.521,131.298,71.351,134.124,70.585,137.879z
		 M74.404,109.186c-1.06,3.414-3.625,5.476-7.184,6.157c-0.905,0.173-1.821,0.331-2.408,0.275
		c-4.439-0.113-8.277-1.351-12.104-2.619c-2.623-0.871-2.63-0.885-1.9-3.573c1.336-4.942,2.697-9.874,4.021-14.818
		c0.21-0.785,0.439-1.052,1.363-0.806c3.642,0.984,7.339,1.783,10.788,3.384c1.845,0.857,3.57,1.874,5.001,3.339
		C74.374,102.969,75.408,105.926,74.404,109.186z"/>
</g>
<g id="Layer_1_copy_2_2_" display="none">
	<path display="inline" fill="#DB8127" d="M158.225,68.751c0.197-0.066,0.396-0.129,0.599-0.188c2.555-0.691,4.792-1.91,6.52-3.947
		c4.609-5.46,4.375-13.45-0.541-18.694c-2.949-3.144-6.633-5.133-10.584-6.688c-0.655-0.258-0.827-0.523-0.619-1.235
		c1.05-3.557,1.989-7.145,3.082-10.688c0.33-1.072,0.043-1.391-0.949-1.629c-1.783-0.424-3.558-0.921-5.301-1.489
		c-0.929-0.301-1.32-0.161-1.59,0.854c-0.936,3.549-1.995,7.068-2.979,10.607c-0.195,0.704-0.398,0.993-1.221,0.697
		c-1.46-0.528-2.967-0.954-4.475-1.31c-0.757-0.176-0.754-0.49-0.574-1.104c1.032-3.526,2.006-7.069,3.056-10.59
		c0.267-0.895,0.248-1.343-0.848-1.574c-1.825-0.386-3.629-0.92-5.398-1.52c-0.96-0.321-1.318-0.147-1.582,0.843
		c-0.945,3.584-2.004,7.14-2.966,10.722c-0.21,0.767-0.478,0.885-1.233,0.67c-4.646-1.346-9.314-2.621-13.967-3.947
		c-0.609-0.174-0.864-0.105-1.036,0.556c-0.591,2.253-1.222,4.499-1.918,6.724c-0.231,0.739,0.036,0.916,0.643,1.069
		c1.778,0.45,3.562,0.891,5.296,1.513c2.515,0.895,3.53,2.807,2.817,5.339c-3.165,11.216-6.332,22.436-9.498,33.654
		c-0.571,2.025-1.896,2.848-3.925,2.338c-1.609-0.402-3.204-0.877-4.787-1.375c-0.594-0.185-0.852-0.046-1.105,0.518
		c-1.112,2.445-2.233,4.887-3.447,7.284c-0.409,0.816-0.144,0.957,0.567,1.154c4.624,1.299,9.236,2.647,13.864,3.924
		c0.721,0.201,0.869,0.442,0.661,1.16c-1.091,3.725-2.106,7.477-3.198,11.209c-0.206,0.693-0.034,0.928,0.613,1.102
		c2.05,0.541,4.094,1.098,6.118,1.717c0.684,0.203,0.882,0.068,1.071-0.613c1.048-3.813,2.172-7.607,3.224-11.42
		c0.177-0.634,0.383-0.759,1.007-0.557c1.51,0.496,3.036,0.935,4.577,1.335c0.707,0.177,0.844,0.465,0.636,1.155
		c-1.099,3.76-2.15,7.539-3.244,11.301c-0.162,0.557-0.128,0.803,0.509,0.967c2.115,0.559,4.218,1.166,6.313,1.807
		c0.658,0.197,0.822-0.021,0.99-0.631c1.007-3.678,2.091-7.336,3.086-11.02c0.223-0.843,0.465-1.098,1.401-0.824
		c4.438,1.273,8.942,1.674,13.531,0.822c9.322-1.729,16.9-11.443,12.203-22.349c-1.261-2.938-3.021-5.493-5.506-7.496
		C158.183,68.805,158.196,68.759,158.225,68.751z M150.013,81.13c-0.666,3.247-2.818,5.308-5.941,6.332
		c-1.287,0.423-2.625,0.539-3.98,0.501c-3.984-0.038-7.717-1.259-11.45-2.483c-0.567-0.185-1.139-0.367-1.706-0.563
		c-1.554-0.521-1.415-0.224-0.999-1.767c1.343-4.977,2.724-9.942,4.061-14.922c0.186-0.7,0.372-0.95,1.188-0.728
		c3.819,1.042,7.662,1.979,11.278,3.643c1.516,0.693,2.968,1.5,4.27,2.548C149.118,75.598,150.657,77.974,150.013,81.13z
		 M153.224,57.009c-0.892,2.87-3.048,4.604-6.04,5.176c-0.761,0.146-1.53,0.279-2.023,0.232c-3.731-0.095-6.959-1.135-10.176-2.202
		c-2.205-0.732-2.212-0.744-1.598-3.003c1.123-4.155,2.268-8.301,3.379-12.458c0.178-0.66,0.369-0.884,1.146-0.678
		c3.063,0.828,6.17,1.5,9.069,2.845c1.551,0.721,3.001,1.576,4.204,2.807C153.197,51.782,154.067,54.268,153.224,57.009z"/>
</g>
<g display="none">
	<path display="inline" fill-rule="evenodd" clip-rule="evenodd" fill="#2F51A3" d="M69.095,64.77
		c1.092,3.38,1.587,6.894,2.306,10.354c4.252,20.445,8.464,40.901,12.665,61.354c0.081,0.394,0.496,0.849,0,1.258
		c-0.413-0.115-0.691-0.422-0.989-0.704c-1.998-1.888-3.999-3.777-5.983-5.68c-4.959-4.766-9.977-9.466-14.942-14.227
		c-2.225-2.131-4.406-4.314-6.698-6.376c-0.402-0.36-0.897-0.714-0.749-1.396c4.481-14.281,8.97-28.557,13.455-42.833
		C68.359,65.875,68.647,65.28,69.095,64.77z"/>
	<path display="inline" fill-rule="evenodd" clip-rule="evenodd" fill="#2F51A3" d="M69.095,64.77
		c-4.572,14.542-9.146,29.086-13.72,43.63c-0.153,0.491-0.229,1.024-0.671,1.38c-0.032,0.045-0.064,0.09-0.096,0.139
		c-0.409,0.307-0.907,0.307-1.381,0.38c-3.634,0.569-7.273,1.114-10.907,1.692c-8.553,1.361-17.127,2.585-25.677,3.975
		c-0.503,0.08-1.089,0.422-1.533-0.183c3.055-2.928,6.094-5.871,9.167-8.78C38.763,93.286,53.255,79.58,67.752,65.877
		C68.17,65.481,68.506,64.965,69.095,64.77z"/>
	<path display="inline" fill-rule="evenodd" clip-rule="evenodd" fill="#2F51A3" d="M54.704,109.779
		c1.051,0.934,2.124,1.839,3.143,2.807c8.458,8.047,16.903,16.107,25.35,24.169c0.314,0.298,0.717,0.533,0.869,0.98
		c-6.252,0.972-12.501,1.943-18.752,2.91c-6.65,1.024-13.3,2.042-19.95,3.063c-0.289,0.045-0.581,0.045-0.871,0.063
		c-0.452-0.16-0.36-0.547-0.274-0.838c0.314-1.065,0.482-2.167,0.862-3.224c0.874-2.438,1.579-4.933,2.292-7.427
		c0.517-1.812,1.13-3.595,1.65-5.413c0.889-3.098,1.934-6.152,2.864-9.242c0.643-2.132,1.327-4.255,2.003-6.38
		c0.165-0.528,0.296-1.085,0.822-1.405L54.704,109.779z"/>
	<path display="inline" fill-rule="evenodd" clip-rule="evenodd" fill="#2F51A3" d="M54.712,109.842
		c-0.988,3.119-2.098,6.207-2.918,9.37c-0.527,2.03-1.186,4.044-1.854,5.995c-0.762,2.227-1.279,4.532-2.071,6.755
		c-0.809,2.253-1.467,4.62-2.136,6.951c-0.362,1.263-0.736,2.537-1.134,3.797c-0.106,0.338-0.343,0.681-0.106,1.061
		c-0.443,0.284-0.594-0.157-0.799-0.354c-9.385-8.944-18.762-17.899-28.136-26.856c-0.209-0.199-0.39-0.424-0.58-0.645
		c-0.01-0.014,0.011-0.069,0.032-0.086c0.025-0.025,0.067-0.033,0.101-0.048c0.328,0.177,0.657,0.033,0.979-0.017
		c8.802-1.364,17.603-2.74,26.406-4.098C46.567,111.043,50.641,110.449,54.712,109.842z"/>
	<path display="inline" fill-rule="evenodd" clip-rule="evenodd" fill="#2F51A3" d="M43.282,147.62
		c4.688-0.718,9.378-1.439,14.064-2.153c6.305-0.965,12.613-1.923,18.921-2.881c0.396-0.059,0.792-0.101,1.498-0.188
		c-0.453,0.362-0.68,0.561-0.922,0.736c-11.485,8.325-22.97,16.649-34.455,24.977c-2.363,1.712-4.726,3.43-7.092,5.137
		c-0.075,0.052-0.208,0.033-0.313,0.047c-0.166-0.563-0.037-1.1,0.13-1.634c2.369-7.535,4.734-15.073,7.115-22.603
		C42.411,148.474,42.522,147.798,43.282,147.62z"/>
	<path display="inline" fill-rule="evenodd" clip-rule="evenodd" fill="#2F51A3" d="M43.282,147.62
		c-0.399,0.331-0.486,0.818-0.629,1.272c-2.559,8.135-5.113,16.271-7.67,24.402c-0.619-0.902-0.807-1.974-1.157-2.977
		c-5.298-15.195-10.583-30.396-15.87-45.594c-0.108-0.313-0.197-0.635-0.389-1.266c0.798,0.738,1.389,1.266,1.966,1.813
		c7.627,7.225,15.25,14.455,22.875,21.683C42.676,147.205,42.902,147.516,43.282,147.62z"/>
</g>
<g display="none">
	<path display="inline" fill-rule="evenodd" clip-rule="evenodd" fill="#2F51A3" d="M149.955,13.512
		c0.962,2.979,1.399,6.077,2.033,9.127c3.748,18.024,7.462,36.058,11.165,54.09c0.071,0.347,0.437,0.748,0,1.108
		c-0.364-0.102-0.609-0.372-0.872-0.621c-1.762-1.664-3.525-3.33-5.275-5.007c-4.371-4.201-8.795-8.345-13.173-12.542
		c-1.961-1.879-3.884-3.804-5.905-5.621c-0.354-0.318-0.791-0.629-0.659-1.23c3.95-12.59,7.907-25.175,11.86-37.762
		C149.308,14.486,149.561,13.962,149.955,13.512z"/>
	<path display="inline" fill-rule="evenodd" clip-rule="evenodd" fill="#2F51A3" d="M149.955,13.512
		c-4.031,12.82-8.063,25.642-12.095,38.464c-0.136,0.433-0.202,0.903-0.592,1.216c-0.028,0.04-0.058,0.079-0.084,0.122
		c-0.361,0.271-0.8,0.271-1.218,0.335c-3.203,0.502-6.412,0.982-9.615,1.492c-7.54,1.2-15.1,2.279-22.638,3.504
		c-0.442,0.07-0.96,0.372-1.351-0.161c2.694-2.581,5.373-5.176,8.081-7.74c12.771-12.092,25.547-24.175,38.327-36.255
		C149.14,14.139,149.437,13.684,149.955,13.512z"/>
	<path display="inline" fill-rule="evenodd" clip-rule="evenodd" fill="#2F51A3" d="M137.269,53.192
		c0.927,0.823,1.873,1.621,2.771,2.474c7.456,7.094,14.901,14.2,22.349,21.307c0.276,0.263,0.631,0.47,0.766,0.864
		c-5.513,0.857-11.021,1.713-16.532,2.566c-5.862,0.902-11.725,1.8-17.588,2.7c-0.254,0.04-0.512,0.04-0.768,0.055
		c-0.398-0.141-0.317-0.482-0.242-0.739c0.277-0.939,0.426-1.91,0.761-2.842c0.771-2.15,1.392-4.348,2.021-6.547
		c0.455-1.597,0.996-3.169,1.455-4.772c0.783-2.731,1.705-5.424,2.525-8.147c0.565-1.879,1.17-3.751,1.766-5.625
		c0.145-0.465,0.261-0.956,0.725-1.239L137.269,53.192z"/>
	<path display="inline" fill-rule="evenodd" clip-rule="evenodd" fill="#2F51A3" d="M137.275,53.247
		c-0.871,2.75-1.85,5.472-2.572,8.261c-0.465,1.79-1.045,3.565-1.636,5.285c-0.671,1.963-1.128,3.996-1.826,5.955
		c-0.712,1.986-1.293,4.073-1.883,6.128c-0.318,1.113-0.648,2.237-0.998,3.347c-0.095,0.297-0.304,0.6-0.095,0.935
		c-0.392,0.25-0.523-0.139-0.704-0.312c-8.273-7.885-16.54-15.78-24.805-23.676c-0.184-0.175-0.344-0.374-0.512-0.568
		c-0.009-0.013,0.011-0.062,0.029-0.076c0.022-0.023,0.059-0.03,0.089-0.042c0.289,0.156,0.579,0.029,0.863-0.015
		c7.759-1.203,15.518-2.416,23.278-3.613C130.096,54.306,133.687,53.783,137.275,53.247z"/>
	<path display="inline" fill-rule="evenodd" clip-rule="evenodd" fill="#2F51A3" d="M127.199,86.552
		c4.134-0.633,8.268-1.269,12.398-1.898c5.559-0.851,11.12-1.695,16.682-2.54c0.348-0.052,0.698-0.089,1.32-0.166
		c-0.4,0.319-0.6,0.495-0.813,0.649c-10.126,7.339-20.25,14.679-30.375,22.019c-2.084,1.51-4.167,3.023-6.253,4.528
		c-0.067,0.046-0.184,0.029-0.276,0.042c-0.146-0.496-0.032-0.97,0.114-1.44c2.089-6.642,4.174-13.289,6.272-19.926
		C126.431,87.304,126.529,86.708,127.199,86.552z"/>
	<path display="inline" fill-rule="evenodd" clip-rule="evenodd" fill="#2F51A3" d="M127.199,86.552
		c-0.353,0.292-0.429,0.722-0.555,1.122c-2.255,7.171-4.508,14.345-6.762,21.513c-0.546-0.796-0.711-1.74-1.02-2.625
		c-4.672-13.396-9.33-26.796-13.991-40.194c-0.096-0.276-0.174-0.56-0.342-1.116c0.702,0.651,1.224,1.116,1.732,1.598
		c6.724,6.369,13.444,12.743,20.167,19.115C126.664,86.186,126.864,86.46,127.199,86.552z"/>
</g>
<g display="none" opacity="0.7">
	<path display="inline" fill-rule="evenodd" clip-rule="evenodd" fill="#FFFFFF" d="M57.691,113.172
		c4.37-0.721,8.73-1.439,13.162-2.172c-0.409,0.936-0.79,1.811-1.175,2.684c-0.866,1.97-1.74,3.935-2.593,5.91
		c-0.112,0.259-0.26,0.348-0.529,0.387c-4.244,0.615-8.485,1.244-12.728,1.863c-0.204,0.029-0.334,0.084-0.425,0.288
		c-3.917,8.817-7.84,17.632-11.763,26.445c-0.026,0.06-0.05,0.121-0.088,0.214c0.195,0.025,0.365,0.048,0.535,0.07
		c14.577,1.914,29.153,3.84,43.734,5.728c1.505,0.194,2.74,1.594,1.936,3.485c-1.773,4.169-3.619,8.308-5.439,12.455
		c-0.616,1.405-1.766,2.04-3.296,1.839c-22.458-2.95-44.916-5.899-67.373-8.85c-0.159-0.021-0.316-0.041-0.522-0.068
		c5.49-12.425,10.965-24.813,16.481-37.296c-4.435,0.731-8.804,1.45-13.247,2.183c0.595-1.243,1.152-2.408,1.709-3.573
		c0.726-1.52,1.458-3.035,2.167-4.563c0.135-0.29,0.312-0.398,0.623-0.449c4.155-0.676,8.306-1.37,12.46-2.051
		c0.25-0.041,0.393-0.127,0.499-0.367c5.008-11.328,10.023-22.653,15.037-33.979c2.639-5.962,5.279-11.924,7.916-17.887
		c0.649-1.467,1.78-2.108,3.378-1.899c5.621,0.737,11.239,1.503,16.865,2.199c1.795,0.223,2.763,1.829,1.988,3.581
		c-6.409,14.508-12.832,29.011-19.251,43.513C57.717,112.947,57.657,113.022,57.691,113.172z"/>
</g>
<g display="none" opacity="0.7">
	<path display="inline" fill-rule="evenodd" clip-rule="evenodd" fill="#FFFFFF" d="M132.913,59.542
		c3.633-0.599,7.259-1.197,10.942-1.806c-0.341,0.778-0.657,1.505-0.978,2.231c-0.719,1.638-1.445,3.271-2.155,4.914
		c-0.094,0.215-0.216,0.289-0.44,0.321c-3.528,0.512-7.055,1.035-10.581,1.549c-0.17,0.024-0.278,0.07-0.354,0.24
		c-3.256,7.331-6.518,14.659-9.778,21.986c-0.022,0.05-0.042,0.101-0.074,0.178c0.163,0.021,0.304,0.04,0.445,0.059
		c12.119,1.591,24.238,3.192,36.36,4.762c1.251,0.162,2.278,1.325,1.61,2.897c-1.475,3.467-3.009,6.907-4.522,10.355
		c-0.512,1.168-1.468,1.696-2.74,1.529c-18.672-2.453-37.342-4.905-56.014-7.358c-0.132-0.017-0.263-0.034-0.435-0.057
		c4.564-10.33,9.117-20.63,13.703-31.007c-3.688,0.608-7.319,1.206-11.014,1.814c0.494-1.034,0.958-2.002,1.421-2.971
		c0.603-1.264,1.212-2.523,1.802-3.793c0.112-0.241,0.26-0.331,0.519-0.374c3.454-0.562,6.905-1.139,10.359-1.705
		c0.207-0.034,0.326-0.105,0.414-0.305c4.164-9.418,8.334-18.834,12.502-28.25c2.194-4.957,4.39-9.914,6.582-14.872
		c0.539-1.22,1.479-1.753,2.809-1.58c4.674,0.613,9.344,1.25,14.021,1.829c1.493,0.186,2.297,1.521,1.653,2.977
		c-5.328,12.061-10.668,24.12-16.006,36.177C132.934,59.356,132.884,59.418,132.913,59.542z"/>
</g>
<g>
	<path fill-rule="evenodd" clip-rule="evenodd" fill="#DA8128" d="M101.308,135.53c-0.551,0.365-1.082,0.764-1.654,1.096
		c-10.774,6.228-21.553,12.449-32.332,18.672c-2.133,1.231-2.694,1.076-3.945-1.091c-1.772-3.066-3.546-6.132-5.311-9.203
		c-0.829-1.441-0.59-2.325,0.857-3.161c6.687-3.866,13.375-7.725,20.062-11.588c1.322-0.764,1.413-1.104,0.651-2.427
		c-3.811-6.605-7.626-13.21-11.438-19.815c-1.026-1.777-0.825-2.541,0.942-3.563c3.122-1.805,6.244-3.608,9.369-5.408
		c1.594-0.918,2.402-0.713,3.305,0.852c6.401,11.081,12.8,22.162,19.191,33.247c0.234,0.407,0.401,0.853,0.6,1.28
		C101.506,134.79,101.407,135.16,101.308,135.53z"/>
	<path fill-rule="evenodd" clip-rule="evenodd" fill="#DA8128" d="M6.892,109.043c0.524-0.351,1.031-0.731,1.574-1.045
		C19.352,101.705,30.24,95.42,41.13,89.134c1.795-1.037,2.498-0.843,3.552,0.98c1.805,3.122,3.61,6.243,5.407,9.369
		c0.889,1.546,0.66,2.399-0.896,3.3c-6.658,3.85-13.32,7.691-19.979,11.538c-1.323,0.765-1.412,1.097-0.649,2.421
		c3.813,6.605,7.627,13.209,11.439,19.814c1.022,1.772,0.817,2.552-0.942,3.569c-3.121,1.806-6.244,3.609-9.368,5.408
		c-1.597,0.919-2.401,0.709-3.306-0.855c-6.383-11.054-12.766-22.108-19.143-33.166c-0.25-0.433-0.435-0.906-0.65-1.36
		C6.694,109.782,6.793,109.412,6.892,109.043z"/>
	<path fill-rule="evenodd" clip-rule="evenodd" fill="#DA8128" d="M67.344,75.079c0.393,0.419,0.714,0.886,1,1.386
		c1.792,3.125,3.601,6.241,5.398,9.364c0.898,1.56,0.676,2.415-0.859,3.304c-3.228,1.869-6.46,3.733-9.691,5.596
		c-0.555,0.321-1.11,0.655-1.788,0.343c-0.245-0.437-0.094-0.871,0.02-1.298c1.573-5.902,3.155-11.801,4.742-17.7
		c0.115-0.428,0.212-0.875,0.624-1.145C66.974,74.979,67.159,75.029,67.344,75.079z"/>
	<path fill-rule="evenodd" clip-rule="evenodd" fill="#DA8128" d="M46.818,149.505c0.617,0.045,0.954,0.465,1.231,0.944
		c1.965,3.393,3.934,6.785,5.88,10.19c0.708,1.238,0.451,2.161-0.802,2.893c-3.332,1.943-6.677,3.868-10.024,5.787
		c-0.354,0.202-0.757,0.316-1.138,0.472c-0.185-0.05-0.37-0.1-0.555-0.149c-0.221-0.44-0.083-0.873,0.032-1.302
		c1.575-5.902,3.156-11.803,4.744-17.7C46.302,150.213,46.389,149.761,46.818,149.505z"/>
	<path fill-rule="evenodd" clip-rule="evenodd" fill="#DA8128" d="M46.818,149.505c-1.802,6.713-3.604,13.425-5.407,20.137
		c-0.185-0.049-0.37-0.099-0.555-0.148c-0.555-0.66-0.946-1.426-1.375-2.167c-1.692-2.928-3.387-5.854-5.071-8.786
		c-0.751-1.308-0.49-2.273,0.825-3.036c3.257-1.887,6.519-3.767,9.78-5.647C45.574,149.534,46.144,149.245,46.818,149.505z"/>
	<path fill-rule="evenodd" clip-rule="evenodd" fill="#DA8128" d="M66.789,74.93c-1.794,6.715-3.589,13.429-5.385,20.143
		c-0.674-0.102-1.03-0.591-1.338-1.123c-1.901-3.285-3.807-6.569-5.691-9.863c-0.769-1.345-0.511-2.282,0.801-3.042
		c3.312-1.92,6.627-3.833,9.946-5.739c0.354-0.203,0.741-0.35,1.112-0.523C66.419,74.831,66.604,74.88,66.789,74.93z"/>
	<path fill-rule="evenodd" clip-rule="evenodd" fill="#DA8128" d="M56.777,112.291c0.615,0.022,0.962,0.4,1.249,0.897
		c1.968,3.421,3.956,6.83,5.914,10.257c0.661,1.158,0.415,2.081-0.728,2.748c-3.438,2.003-6.89,3.979-10.332,5.976
		c-0.478,0.278-0.943,0.354-1.444,0.093c-0.238-0.438-0.091-0.873,0.022-1.3c1.558-5.844,3.124-11.686,4.695-17.524
		C56.27,113.008,56.369,112.564,56.777,112.291z"/>
	<path fill-rule="evenodd" clip-rule="evenodd" fill="#DA8128" d="M56.777,112.291c-1.781,6.656-3.561,13.314-5.341,19.971
		c-0.636,0.007-0.966-0.419-1.243-0.899c-1.977-3.416-3.959-6.829-5.916-10.256c-0.602-1.055-0.328-2.093,0.714-2.702
		c3.408-1.991,6.832-3.955,10.251-5.927C55.726,112.199,56.224,112.012,56.777,112.291z"/>
</g>
<g>
	<path fill-rule="evenodd" clip-rule="evenodd" fill="#DA8128" d="M162.499,97.356c-0.39,0.259-0.767,0.541-1.173,0.776
		c-7.639,4.416-15.281,8.827-22.923,13.239c-1.513,0.873-1.91,0.763-2.798-0.773c-1.256-2.174-2.515-4.348-3.765-6.524
		c-0.588-1.022-0.419-1.649,0.607-2.242c4.74-2.741,9.482-5.478,14.224-8.217c0.938-0.541,1.003-0.782,0.463-1.72
		c-2.703-4.684-5.408-9.366-8.109-14.05c-0.729-1.26-0.586-1.801,0.667-2.526c2.213-1.279,4.427-2.558,6.643-3.834
		c1.13-0.651,1.704-0.505,2.344,0.604c4.538,7.856,9.075,15.713,13.606,23.573c0.166,0.288,0.285,0.604,0.426,0.907
		C162.64,96.831,162.57,97.095,162.499,97.356z"/>
	<path fill-rule="evenodd" clip-rule="evenodd" fill="#DA8128" d="M95.557,78.576c0.372-0.249,0.73-0.519,1.117-0.741
		c7.717-4.462,15.438-8.918,23.158-13.375c1.272-0.735,1.771-0.598,2.519,0.695c1.28,2.213,2.561,4.426,3.834,6.643
		c0.631,1.096,0.468,1.701-0.635,2.339c-4.722,2.729-9.444,5.454-14.167,8.181c-0.938,0.542-1.001,0.777-0.46,1.716
		c2.703,4.684,5.408,9.365,8.111,14.049c0.724,1.258,0.579,1.81-0.668,2.531c-2.213,1.28-4.427,2.56-6.643,3.835
		c-1.132,0.65-1.702,0.503-2.343-0.606c-4.526-7.838-9.053-15.676-13.574-23.516c-0.178-0.307-0.308-0.643-0.461-0.964
		C95.416,79.101,95.486,78.838,95.557,78.576z"/>
	<path fill-rule="evenodd" clip-rule="evenodd" fill="#DA8128" d="M138.418,54.495c0.279,0.297,0.507,0.628,0.71,0.983
		c1.271,2.215,2.553,4.425,3.827,6.639c0.637,1.106,0.479,1.712-0.608,2.343c-2.289,1.325-4.581,2.647-6.872,3.968
		c-0.393,0.228-0.787,0.465-1.268,0.243c-0.174-0.31-0.066-0.618,0.014-0.92c1.116-4.185,2.236-8.367,3.362-12.549
		c0.082-0.304,0.149-0.62,0.442-0.812C138.156,54.425,138.287,54.46,138.418,54.495z"/>
	<path fill-rule="evenodd" clip-rule="evenodd" fill="#DA8128" d="M123.865,107.265c0.438,0.031,0.677,0.329,0.873,0.67
		c1.394,2.405,2.79,4.811,4.169,7.225c0.502,0.878,0.32,1.533-0.568,2.051c-2.362,1.378-4.733,2.743-7.107,4.104
		c-0.251,0.144-0.536,0.224-0.806,0.335c-0.132-0.036-0.264-0.07-0.395-0.106c-0.157-0.312-0.059-0.619,0.023-0.923
		c1.116-4.185,2.237-8.368,3.363-12.55C123.499,107.767,123.561,107.445,123.865,107.265z"/>
	<path fill-rule="evenodd" clip-rule="evenodd" fill="#DA8128" d="M123.865,107.265c-1.278,4.76-2.556,9.519-3.834,14.277
		c-0.131-0.035-0.262-0.069-0.393-0.105c-0.395-0.468-0.671-1.011-0.976-1.536c-1.199-2.075-2.401-4.151-3.596-6.229
		c-0.533-0.927-0.348-1.612,0.585-2.152c2.31-1.338,4.622-2.671,6.935-4.005C122.983,107.285,123.388,107.08,123.865,107.265z"/>
	<path fill-rule="evenodd" clip-rule="evenodd" fill="#DA8128" d="M138.025,54.389c-1.273,4.761-2.546,9.521-3.818,14.282
		c-0.478-0.072-0.729-0.419-0.948-0.796c-1.349-2.329-2.699-4.657-4.035-6.993c-0.546-0.954-0.363-1.618,0.567-2.157
		c2.349-1.361,4.698-2.717,7.052-4.069c0.252-0.144,0.526-0.248,0.789-0.371C137.763,54.319,137.894,54.354,138.025,54.389z"/>
	<path fill-rule="evenodd" clip-rule="evenodd" fill="#DA8128" d="M130.927,80.879c0.436,0.016,0.683,0.284,0.885,0.636
		c1.396,2.426,2.805,4.843,4.193,7.272c0.469,0.821,0.295,1.476-0.516,1.948c-2.438,1.42-4.886,2.821-7.325,4.236
		c-0.34,0.198-0.669,0.252-1.024,0.066c-0.168-0.31-0.064-0.619,0.016-0.922c1.105-4.144,2.216-8.285,3.329-12.425
		C130.566,81.388,130.637,81.073,130.927,80.879z"/>
	<path fill-rule="evenodd" clip-rule="evenodd" fill="#DA8128" d="M130.927,80.879c-1.263,4.719-2.524,9.44-3.787,14.16
		c-0.45,0.004-0.685-0.298-0.881-0.638c-1.401-2.422-2.808-4.842-4.195-7.271c-0.426-0.748-0.232-1.484,0.507-1.916
		c2.417-1.412,4.845-2.804,7.268-4.202C130.181,80.814,130.535,80.681,130.927,80.879z"/>
</g>
<g>
	<path fill-rule="evenodd" clip-rule="evenodd" fill="#DA8128" d="M85.52,44.734c-0.347,0.23-0.683,0.482-1.044,0.691
		c-6.803,3.933-13.61,7.861-20.416,11.791c-1.347,0.777-1.701,0.679-2.492-0.689c-1.119-1.936-2.24-3.872-3.353-5.811
		c-0.523-0.911-0.373-1.469,0.541-1.997c4.222-2.441,8.445-4.878,12.668-7.318c0.835-0.482,0.893-0.697,0.412-1.532
		c-2.407-4.171-4.816-8.342-7.222-12.513c-0.649-1.122-0.522-1.604,0.594-2.25c1.971-1.139,3.942-2.278,5.916-3.415
		c1.006-0.58,1.518-0.45,2.087,0.538c4.042,6.997,8.083,13.995,12.118,20.994c0.148,0.257,0.254,0.539,0.379,0.808
		C85.645,44.266,85.583,44.5,85.52,44.734z"/>
	<path fill-rule="evenodd" clip-rule="evenodd" fill="#DA8128" d="M25.9,28.008c0.331-0.221,0.65-0.462,0.995-0.66
		c6.873-3.974,13.749-7.942,20.625-11.912c1.133-0.654,1.578-0.533,2.243,0.619c1.141,1.972,2.281,3.942,3.415,5.916
		c0.562,0.977,0.417,1.515-0.565,2.083c-4.205,2.431-8.412,4.857-12.618,7.287c-0.835,0.482-0.891,0.692-0.41,1.528
		c2.408,4.171,4.817,8.341,7.224,12.512c0.645,1.12,0.516,1.612-0.595,2.254c-1.971,1.14-3.942,2.28-5.916,3.416
		c-1.008,0.579-1.516,0.448-2.086-0.54c-4.031-6.981-8.063-13.961-12.089-20.944c-0.158-0.273-0.274-0.572-0.411-0.859
		C25.774,28.475,25.837,28.241,25.9,28.008z"/>
	<path fill-rule="evenodd" clip-rule="evenodd" fill="#DA8128" d="M64.073,6.561c0.249,0.265,0.451,0.56,0.632,0.875
		c1.131,1.973,2.273,3.941,3.409,5.913c0.567,0.985,0.427,1.525-0.542,2.086c-2.039,1.18-4.08,2.357-6.121,3.534
		c-0.35,0.203-0.701,0.414-1.129,0.217c-0.155-0.276-0.059-0.55,0.012-0.82c0.994-3.727,1.992-7.452,2.995-11.177
		c0.073-0.271,0.133-0.552,0.394-0.723C63.84,6.498,63.956,6.529,64.073,6.561z"/>
	<path fill-rule="evenodd" clip-rule="evenodd" fill="#DA8128" d="M51.112,53.558c0.39,0.028,0.603,0.293,0.778,0.597
		c1.241,2.142,2.485,4.284,3.713,6.435c0.447,0.782,0.285,1.365-0.506,1.826c-2.104,1.227-4.216,2.443-6.33,3.655
		c-0.224,0.128-0.478,0.199-0.717,0.298c-0.118-0.032-0.235-0.063-0.352-0.095c-0.14-0.278-0.052-0.552,0.021-0.822
		c0.994-3.727,1.993-7.453,2.995-11.177C50.786,54.005,50.84,53.719,51.112,53.558z"/>
	<path fill-rule="evenodd" clip-rule="evenodd" fill="#DA8128" d="M51.112,53.558c-1.138,4.239-2.276,8.478-3.415,12.716
		c-0.117-0.031-0.233-0.062-0.35-0.094c-0.352-0.417-0.598-0.9-0.869-1.368c-1.068-1.848-2.139-3.697-3.203-5.548
		c-0.475-0.825-0.31-1.436,0.521-1.917c2.057-1.191,4.117-2.379,6.176-3.567C50.327,53.576,50.687,53.394,51.112,53.558z"/>
	<path fill-rule="evenodd" clip-rule="evenodd" fill="#DA8128" d="M63.723,6.466c-1.134,4.241-2.268,8.48-3.401,12.72
		c-0.425-0.064-0.649-0.373-0.844-0.709c-1.201-2.074-2.404-4.147-3.594-6.228c-0.486-0.85-0.324-1.441,0.505-1.921
		c2.092-1.212,4.184-2.42,6.28-3.624c0.224-0.128,0.469-0.221,0.703-0.331C63.489,6.404,63.606,6.436,63.723,6.466z"/>
	<path fill-rule="evenodd" clip-rule="evenodd" fill="#DA8128" d="M57.401,30.059c0.388,0.014,0.608,0.252,0.788,0.566
		c1.243,2.161,2.498,4.313,3.735,6.477c0.417,0.731,0.263,1.314-0.459,1.735c-2.171,1.265-4.351,2.513-6.524,3.773
		c-0.303,0.176-0.596,0.224-0.912,0.059c-0.15-0.276-0.058-0.551,0.014-0.821c0.984-3.69,1.974-7.379,2.965-11.065
		C57.08,30.512,57.143,30.231,57.401,30.059z"/>
	<path fill-rule="evenodd" clip-rule="evenodd" fill="#DA8128" d="M57.401,30.059c-1.125,4.203-2.248,8.407-3.373,12.611
		c-0.401,0.003-0.61-0.265-0.785-0.568c-1.248-2.157-2.5-4.313-3.736-6.476c-0.379-0.667-0.207-1.322,0.451-1.707
		c2.153-1.258,4.315-2.498,6.473-3.743C56.736,30.001,57.052,29.882,57.401,30.059z"/>
</g>
</svg>
