<?xml version="1.0" encoding="utf-8"?>
<!-- Generator: Adobe Illustrator 16.0.0, SVG Export Plug-In . SVG Version: 6.00 Build 0)  -->
<!DOCTYPE svg PUBLIC "-//W3C//DTD SVG 1.1//EN" "http://www.w3.org/Graphics/SVG/1.1/DTD/svg11.dtd">
<svg version="1.1" id="Layer_1" opacity="0.7" xmlns="http://www.w3.org/2000/svg" xmlns:xlink="http://www.w3.org/1999/xlink"
	 x="0px" y="0px" width="180px" height="180px" viewBox="0 0 180 180" enable-background="new 0 0 180 180" xml:space="preserve">
<g>
	<path fill="#DA8128" d="M101.309,135.529c-0.552,0.365-1.082,0.765-1.654,1.097c-10.773,6.228-21.552,12.449-32.333,18.672
		c-2.133,1.231-2.694,1.076-3.945-1.091c-1.772-3.066-3.546-6.132-5.311-9.203c-0.829-1.441-0.59-2.324,0.857-3.161
		c6.687-3.866,13.375-7.725,20.062-11.588c1.322-0.764,1.413-1.104,0.651-2.427c-3.811-6.605-7.626-13.21-11.438-19.814
		c-1.026-1.777-0.825-2.541,0.942-3.563c3.122-1.807,6.244-3.608,9.369-5.408c1.594-0.918,2.402-0.713,3.305,0.854
		c6.401,11.08,12.799,22.162,19.191,33.246c0.233,0.406,0.401,0.854,0.601,1.279C101.506,134.79,101.407,135.16,101.309,135.529z"/>
	<path fill="#DA8128" d="M6.892,109.043c0.524-0.352,1.031-0.73,1.574-1.045C19.352,101.705,30.24,95.42,41.13,89.134
		c1.795-1.037,2.498-0.843,3.552,0.98c1.805,3.122,3.61,6.243,5.407,9.368c0.889,1.547,0.66,2.398-0.896,3.301
		c-6.658,3.85-13.32,7.691-19.979,11.537c-1.323,0.766-1.412,1.098-0.649,2.422c3.813,6.605,7.627,13.209,11.439,19.814
		c1.022,1.771,0.817,2.551-0.942,3.567c-3.121,1.808-6.244,3.608-9.368,5.408c-1.597,0.919-2.401,0.709-3.306-0.855
		c-6.383-11.054-12.766-22.106-19.143-33.165c-0.25-0.434-0.435-0.906-0.65-1.359C6.694,109.782,6.793,109.412,6.892,109.043z"/>
	<path fill="#DA8128" d="M67.344,75.079c0.393,0.419,0.714,0.886,1,1.386c1.792,3.125,3.601,6.241,5.398,9.364
		c0.898,1.56,0.676,2.415-0.859,3.304c-3.228,1.869-6.46,3.733-9.691,5.596c-0.555,0.321-1.11,0.655-1.788,0.345
		c-0.245-0.438-0.094-0.871,0.02-1.3c1.573-5.9,3.155-11.799,4.742-17.698c0.115-0.428,0.212-0.875,0.624-1.145
		C66.974,74.979,67.159,75.029,67.344,75.079z"/>
	<path fill="#DA8128" d="M46.818,149.505c0.617,0.045,0.954,0.466,1.231,0.944c1.965,3.393,3.934,6.785,5.88,10.189
		c0.708,1.237,0.451,2.16-0.802,2.894c-3.332,1.942-6.677,3.868-10.024,5.786c-0.354,0.203-0.757,0.315-1.138,0.473
		c-0.185-0.05-0.37-0.1-0.555-0.148c-0.221-0.439-0.083-0.873,0.032-1.303c1.575-5.902,3.156-11.803,4.744-17.699
		C46.302,150.213,46.389,149.761,46.818,149.505z"/>
	<path fill="#DA8128" d="M46.818,149.505c-1.802,6.713-3.604,13.425-5.407,20.138c-0.185-0.05-0.37-0.1-0.555-0.147
		c-0.555-0.66-0.946-1.427-1.375-2.167c-1.692-2.93-3.387-5.854-5.071-8.786c-0.751-1.31-0.49-2.272,0.825-3.036
		c3.257-1.887,6.519-3.767,9.78-5.646C45.574,149.534,46.144,149.245,46.818,149.505z"/>
	<path fill="#DA8128" d="M66.789,74.93c-1.794,6.715-3.589,13.429-5.385,20.143c-0.674-0.103-1.03-0.591-1.338-1.123
		c-1.901-3.285-3.807-6.569-5.691-9.863c-0.769-1.345-0.511-2.282,0.801-3.042c3.312-1.92,6.627-3.833,9.946-5.739
		c0.354-0.203,0.741-0.35,1.112-0.523C66.419,74.831,66.604,74.88,66.789,74.93z"/>
	<path fill="#DA8128" d="M56.777,112.291c0.615,0.021,0.962,0.4,1.249,0.896c1.968,3.422,3.956,6.83,5.914,10.258
		c0.661,1.158,0.415,2.08-0.728,2.748c-3.438,2.002-6.89,3.979-10.332,5.976c-0.478,0.278-0.943,0.354-1.444,0.093
		c-0.238-0.438-0.091-0.873,0.022-1.3c1.558-5.844,3.124-11.687,4.695-17.524C56.27,113.008,56.369,112.564,56.777,112.291z"/>
	<path fill="#DA8128" d="M56.777,112.291c-1.781,6.656-3.561,13.314-5.341,19.971c-0.636,0.008-0.966-0.419-1.243-0.897
		c-1.977-3.416-3.959-6.829-5.916-10.257c-0.602-1.056-0.328-2.094,0.714-2.703c3.408-1.989,6.832-3.953,10.251-5.926
		C55.726,112.199,56.224,112.012,56.777,112.291z"/>
</g>
<g>
	<path fill="#DA8128" d="M162.499,97.355c-0.39,0.26-0.767,0.541-1.173,0.775c-7.639,4.416-15.281,8.827-22.924,13.239
		c-1.512,0.873-1.909,0.763-2.797-0.772c-1.256-2.175-2.517-4.349-3.767-6.523c-0.588-1.022-0.419-1.649,0.606-2.242
		c4.74-2.741,9.482-5.479,14.225-8.217c0.938-0.541,1.003-0.782,0.463-1.721c-2.701-4.685-5.406-9.367-8.107-14.049
		c-0.729-1.26-0.586-1.801,0.666-2.526c2.213-1.279,4.428-2.558,6.644-3.834c1.13-0.651,1.704-0.505,2.345,0.604
		c4.537,7.856,9.074,15.713,13.605,23.573c0.166,0.288,0.285,0.604,0.426,0.906C162.641,96.831,162.57,97.096,162.499,97.355z"/>
	<path fill="#DA8128" d="M95.557,78.576c0.373-0.249,0.73-0.519,1.117-0.741c7.717-4.462,15.438-8.918,23.158-13.375
		c1.271-0.735,1.771-0.598,2.52,0.695c1.279,2.213,2.562,4.426,3.834,6.643c0.631,1.096,0.467,1.701-0.636,2.339
		c-4.722,2.729-9.444,5.454-14.167,8.181c-0.938,0.542-1.001,0.777-0.46,1.716c2.703,4.684,5.408,9.364,8.111,14.049
		c0.724,1.258,0.579,1.81-0.668,2.53c-2.214,1.281-4.427,2.561-6.644,3.836c-1.133,0.65-1.701,0.503-2.344-0.606
		c-4.525-7.838-9.053-15.676-13.572-23.516c-0.18-0.307-0.31-0.643-0.461-0.964C95.416,79.101,95.486,78.838,95.557,78.576z"/>
	<path fill="#DA8128" d="M138.418,54.495c0.279,0.297,0.507,0.628,0.71,0.983c1.271,2.215,2.554,4.425,3.827,6.639
		c0.637,1.106,0.479,1.712-0.607,2.343c-2.289,1.325-4.582,2.647-6.873,3.968c-0.393,0.228-0.787,0.465-1.268,0.243
		c-0.174-0.31-0.066-0.618,0.014-0.92c1.116-4.185,2.236-8.367,3.362-12.549c0.082-0.304,0.149-0.62,0.442-0.812
		C138.156,54.425,138.287,54.46,138.418,54.495z"/>
	<path fill="#DA8128" d="M123.865,107.266c0.438,0.03,0.677,0.328,0.873,0.67c1.394,2.404,2.789,4.812,4.169,7.226
		c0.502,0.878,0.319,1.532-0.568,2.051c-2.362,1.378-4.733,2.743-7.106,4.104c-0.252,0.145-0.537,0.225-0.807,0.336
		c-0.132-0.036-0.264-0.07-0.395-0.106c-0.157-0.312-0.059-0.619,0.023-0.923c1.114-4.186,2.235-8.368,3.361-12.551
		C123.499,107.768,123.561,107.445,123.865,107.266z"/>
	<path fill="#DA8128" d="M123.865,107.266c-1.278,4.76-2.557,9.52-3.834,14.276c-0.131-0.035-0.262-0.069-0.393-0.104
		c-0.396-0.469-0.673-1.012-0.978-1.537c-1.199-2.073-2.399-4.149-3.597-6.229c-0.532-0.927-0.349-1.611,0.584-2.152
		c2.312-1.338,4.623-2.67,6.937-4.004C122.982,107.285,123.389,107.08,123.865,107.266z"/>
	<path fill="#DA8128" d="M138.025,54.389c-1.273,4.761-2.547,9.521-3.818,14.282c-0.479-0.072-0.729-0.419-0.948-0.796
		c-1.349-2.329-2.698-4.657-4.034-6.993c-0.547-0.954-0.363-1.618,0.566-2.157c2.35-1.361,4.697-2.717,7.052-4.069
		c0.253-0.144,0.526-0.248,0.789-0.371C137.764,54.319,137.895,54.354,138.025,54.389z"/>
	<path fill="#DA8128" d="M130.927,80.879c0.437,0.016,0.683,0.284,0.886,0.636c1.396,2.426,2.806,4.843,4.192,7.272
		c0.47,0.821,0.295,1.476-0.517,1.947c-2.438,1.42-4.885,2.822-7.324,4.236c-0.34,0.197-0.669,0.252-1.023,0.065
		c-0.168-0.312-0.063-0.619,0.017-0.922c1.104-4.144,2.216-8.285,3.327-12.425C130.566,81.388,130.637,81.073,130.927,80.879z"/>
	<path fill="#DA8128" d="M130.927,80.879c-1.263,4.719-2.524,9.44-3.786,14.16c-0.451,0.004-0.686-0.298-0.882-0.639
		c-1.401-2.422-2.808-4.841-4.194-7.271c-0.426-0.748-0.231-1.484,0.506-1.916c2.418-1.412,4.847-2.804,7.27-4.202
		C130.182,80.814,130.535,80.681,130.927,80.879z"/>
</g>
<g>
	<path fill="#DA8128" d="M85.52,44.734c-0.347,0.23-0.683,0.482-1.044,0.691c-6.803,3.933-13.61,7.861-20.416,11.791
		c-1.347,0.777-1.701,0.679-2.492-0.689c-1.119-1.936-2.24-3.872-3.353-5.811c-0.523-0.911-0.373-1.469,0.541-1.997
		c4.222-2.441,8.445-4.878,12.668-7.318c0.835-0.482,0.893-0.697,0.412-1.532c-2.407-4.171-4.816-8.342-7.222-12.513
		c-0.649-1.122-0.522-1.604,0.594-2.25c1.971-1.139,3.942-2.278,5.916-3.415c1.006-0.58,1.518-0.45,2.087,0.538
		c4.042,6.997,8.083,13.995,12.118,20.994c0.148,0.257,0.254,0.539,0.379,0.808C85.645,44.266,85.583,44.5,85.52,44.734z"/>
	<path fill="#DA8128" d="M25.9,28.008c0.331-0.221,0.65-0.462,0.995-0.66c6.873-3.974,13.749-7.942,20.625-11.912
		c1.133-0.654,1.578-0.533,2.243,0.619c1.141,1.972,2.281,3.942,3.415,5.916c0.562,0.977,0.417,1.515-0.565,2.083
		c-4.205,2.431-8.412,4.857-12.618,7.287c-0.835,0.482-0.891,0.692-0.41,1.528c2.408,4.171,4.817,8.341,7.224,12.512
		c0.645,1.12,0.516,1.612-0.595,2.254c-1.971,1.14-3.942,2.28-5.916,3.416c-1.008,0.579-1.516,0.448-2.086-0.54
		c-4.031-6.981-8.063-13.961-12.089-20.944c-0.158-0.273-0.274-0.572-0.411-0.859C25.774,28.475,25.837,28.241,25.9,28.008z"/>
	<path fill="#DA8128" d="M64.073,6.561c0.249,0.265,0.451,0.56,0.632,0.875c1.131,1.973,2.273,3.941,3.409,5.913
		c0.567,0.985,0.427,1.525-0.542,2.086c-2.039,1.18-4.08,2.357-6.121,3.534c-0.35,0.203-0.701,0.414-1.129,0.217
		c-0.155-0.276-0.059-0.55,0.012-0.82c0.994-3.727,1.992-7.452,2.995-11.177c0.073-0.271,0.133-0.552,0.394-0.723
		C63.84,6.498,63.956,6.529,64.073,6.561z"/>
	<path fill="#DA8128" d="M51.112,53.558c0.39,0.028,0.603,0.293,0.778,0.597c1.241,2.142,2.485,4.284,3.713,6.435
		c0.447,0.782,0.285,1.365-0.506,1.826c-2.104,1.227-4.216,2.443-6.33,3.655c-0.224,0.128-0.478,0.199-0.717,0.298
		c-0.118-0.032-0.235-0.063-0.352-0.095c-0.14-0.278-0.052-0.552,0.021-0.822c0.994-3.727,1.993-7.453,2.995-11.177
		C50.786,54.005,50.84,53.719,51.112,53.558z"/>
	<path fill="#DA8128" d="M51.112,53.558c-1.138,4.239-2.276,8.478-3.415,12.716c-0.117-0.031-0.233-0.062-0.35-0.094
		c-0.352-0.417-0.598-0.9-0.869-1.368c-1.068-1.848-2.139-3.697-3.203-5.548c-0.475-0.825-0.31-1.436,0.521-1.917
		c2.057-1.191,4.117-2.379,6.176-3.567C50.327,53.576,50.687,53.394,51.112,53.558z"/>
	<path fill="#DA8128" d="M63.723,6.466c-1.134,4.241-2.268,8.48-3.401,12.72c-0.425-0.064-0.649-0.373-0.844-0.709
		c-1.201-2.074-2.404-4.147-3.594-6.228c-0.486-0.85-0.324-1.441,0.505-1.921c2.092-1.212,4.184-2.42,6.28-3.624
		c0.224-0.128,0.469-0.221,0.703-0.331C63.489,6.404,63.606,6.436,63.723,6.466z"/>
	<path fill="#DA8128" d="M57.401,30.059c0.388,0.014,0.608,0.252,0.788,0.566c1.243,2.161,2.498,4.313,3.735,6.477
		c0.417,0.731,0.263,1.314-0.459,1.735c-2.171,1.265-4.351,2.513-6.524,3.773c-0.303,0.176-0.596,0.224-0.912,0.059
		c-0.15-0.276-0.058-0.551,0.014-0.821c0.984-3.69,1.974-7.379,2.965-11.065C57.08,30.512,57.143,30.231,57.401,30.059z"/>
	<path fill="#DA8128" d="M57.401,30.059c-1.125,4.203-2.248,8.407-3.373,12.611c-0.401,0.003-0.61-0.265-0.785-0.568
		c-1.248-2.157-2.5-4.313-3.736-6.476c-0.379-0.667-0.207-1.322,0.451-1.707c2.153-1.258,4.315-2.498,6.473-3.743
		C56.736,30.001,57.052,29.882,57.401,30.059z"/>
</g>
</svg>
