<?xml version="1.0" encoding="utf-8"?>
<!-- Generator: Adobe Illustrator 16.0.0, SVG Export Plug-In . SVG Version: 6.00 Build 0)  -->
<!DOCTYPE svg PUBLIC "-//W3C//DTD SVG 1.1//EN" "http://www.w3.org/Graphics/SVG/1.1/DTD/svg11.dtd">
<svg version="1.1" id="Layer_1" opacity="0.7" xmlns="http://www.w3.org/2000/svg" xmlns:xlink="http://www.w3.org/1999/xlink"
	 x="0px" y="0px" width="180px" height="180px" viewBox="0 0 180 180" enable-background="new 0 0 180 180" xml:space="preserve">
<g id="Layer_1_copy_2_1_">
	<path fill="#DB8127" d="M80.354,123.152c0.234-0.078,0.47-0.152,0.713-0.223c3.038-0.822,5.698-2.271,7.753-4.695
		c5.483-6.495,5.204-16-0.644-22.236c-3.509-3.74-7.89-6.106-12.588-7.955c-0.779-0.307-0.984-0.623-0.736-1.47
		c1.248-4.23,2.365-8.499,3.666-12.713c0.393-1.275,0.05-1.654-1.13-1.938c-2.121-0.504-4.23-1.096-6.305-1.771
		c-1.105-0.358-1.571-0.191-1.891,1.016c-1.114,4.222-2.374,8.407-3.545,12.617c-0.231,0.838-0.472,1.182-1.451,0.83
		c-1.736-0.628-3.528-1.134-5.321-1.558c-0.9-0.21-0.897-0.583-0.684-1.313c1.227-4.194,2.386-8.409,3.635-12.597
		c0.316-1.063,0.294-1.597-1.009-1.872c-2.172-0.458-4.316-1.095-6.421-1.807c-1.143-0.382-1.568-0.176-1.881,1.003
		c-1.126,4.263-2.386,8.492-3.53,12.753c-0.25,0.912-0.566,1.053-1.466,0.797c-5.526-1.601-11.08-3.117-16.614-4.695
		c-0.725-0.206-1.027-0.125-1.232,0.661c-0.702,2.68-1.453,5.351-2.281,7.998c-0.275,0.879,0.042,1.089,0.763,1.271
		c2.117,0.536,4.237,1.061,6.301,1.8c2.991,1.064,4.199,3.339,3.351,6.351c-3.766,13.342-7.533,26.688-11.297,40.031
		c-0.68,2.41-2.256,3.389-4.669,2.781c-1.916-0.479-3.812-1.043-5.695-1.635c-0.706-0.221-1.012-0.057-1.315,0.616
		c-1.323,2.907-2.656,5.813-4.1,8.664c-0.487,0.971-0.171,1.139,0.674,1.372c5.501,1.547,10.988,3.149,16.492,4.668
		c0.857,0.24,1.034,0.527,0.787,1.381c-1.298,4.431-2.506,8.895-3.805,13.335c-0.245,0.823-0.04,1.103,0.729,1.31
		c2.439,0.644,4.871,1.307,7.278,2.043c0.813,0.241,1.048,0.079,1.274-0.729c1.246-4.537,2.583-9.051,3.836-13.586
		c0.208-0.754,0.455-0.902,1.196-0.661c1.795,0.589,3.611,1.11,5.444,1.587c0.842,0.21,1.003,0.555,0.757,1.373
		c-1.306,4.475-2.558,8.971-3.859,13.441c-0.192,0.664-0.153,0.957,0.604,1.152c2.516,0.665,5.017,1.389,7.511,2.148
		c0.783,0.232,0.978-0.024,1.177-0.751c1.198-4.375,2.487-8.726,3.671-13.107c0.265-1.002,0.553-1.305,1.668-0.979
		c5.278,1.514,10.636,1.992,16.095,0.978c11.087-2.056,20.104-13.61,14.516-26.584c-1.5-3.493-3.593-6.532-6.548-8.916
		C80.303,123.217,80.32,123.162,80.354,123.152z M70.585,137.879c-0.792,3.862-3.353,6.313-7.067,7.531
		c-1.532,0.503-3.124,0.641-4.735,0.596c-4.741-0.045-9.18-1.497-13.621-2.953c-0.675-0.221-1.354-0.438-2.029-0.671
		c-1.848-0.62-1.683-0.266-1.189-2.101c1.599-5.92,3.241-11.827,4.831-17.752c0.22-0.832,0.442-1.129,1.413-0.864
		c4.543,1.239,9.115,2.354,13.416,4.333c1.804,0.825,3.53,1.785,5.079,3.031C69.521,131.298,71.351,134.124,70.585,137.879z
		 M74.404,109.186c-1.06,3.414-3.625,5.477-7.184,6.157c-0.905,0.173-1.821,0.331-2.408,0.275
		c-4.439-0.113-8.277-1.351-12.104-2.619c-2.623-0.871-2.63-0.886-1.9-3.573c1.336-4.941,2.697-9.874,4.021-14.818
		c0.21-0.784,0.439-1.051,1.363-0.806c3.642,0.984,7.339,1.783,10.788,3.384c1.845,0.857,3.57,1.875,5.001,3.34
		C74.374,102.969,75.408,105.926,74.404,109.186z"/>
</g>
<g id="Layer_1_copy_2_2_">
	<path fill="#DB8127" d="M158.225,68.751c0.197-0.066,0.396-0.129,0.6-0.188c2.555-0.691,4.792-1.91,6.52-3.947
		c4.609-5.46,4.375-13.45-0.541-18.694c-2.949-3.144-6.633-5.133-10.584-6.688c-0.654-0.258-0.826-0.523-0.619-1.235
		c1.051-3.557,1.989-7.145,3.082-10.688c0.33-1.072,0.043-1.391-0.949-1.629c-1.782-0.424-3.558-0.921-5.301-1.489
		c-0.929-0.301-1.32-0.161-1.59,0.854c-0.936,3.549-1.994,7.068-2.979,10.607c-0.195,0.704-0.398,0.993-1.221,0.697
		c-1.461-0.528-2.968-0.954-4.476-1.31c-0.757-0.176-0.754-0.49-0.574-1.104c1.032-3.526,2.007-7.069,3.056-10.59
		c0.268-0.895,0.248-1.343-0.848-1.574c-1.824-0.386-3.629-0.92-5.398-1.52c-0.959-0.321-1.317-0.147-1.582,0.843
		c-0.944,3.584-2.004,7.14-2.965,10.722c-0.211,0.767-0.479,0.885-1.233,0.67c-4.646-1.346-9.313-2.621-13.968-3.947
		c-0.608-0.174-0.863-0.105-1.035,0.556c-0.592,2.253-1.223,4.499-1.918,6.724c-0.23,0.739,0.035,0.916,0.643,1.069
		c1.778,0.45,3.563,0.891,5.297,1.513c2.514,0.895,3.529,2.807,2.816,5.339c-3.165,11.216-6.332,22.436-9.498,33.654
		c-0.57,2.025-1.896,2.848-3.925,2.338c-1.609-0.402-3.204-0.877-4.787-1.375c-0.595-0.185-0.853-0.046-1.104,0.518
		c-1.113,2.445-2.233,4.887-3.447,7.284c-0.409,0.816-0.145,0.957,0.566,1.154c4.624,1.299,9.236,2.647,13.864,3.923
		c0.722,0.201,0.869,0.443,0.661,1.16c-1.092,3.726-2.105,7.478-3.198,11.209c-0.206,0.693-0.034,0.929,0.613,1.103
		c2.05,0.541,4.094,1.099,6.118,1.717c0.684,0.203,0.882,0.068,1.07-0.612c1.049-3.813,2.172-7.607,3.225-11.42
		c0.177-0.635,0.383-0.76,1.007-0.558c1.51,0.496,3.036,0.935,4.577,1.335c0.707,0.178,0.844,0.465,0.636,1.155
		c-1.099,3.76-2.149,7.539-3.244,11.301c-0.161,0.558-0.128,0.804,0.509,0.968c2.115,0.559,4.219,1.165,6.313,1.807
		c0.657,0.197,0.821-0.021,0.989-0.631c1.008-3.679,2.092-7.336,3.086-11.021c0.224-0.843,0.466-1.099,1.402-0.824
		c4.438,1.273,8.941,1.675,13.53,0.822c9.322-1.729,16.899-11.443,12.203-22.349c-1.261-2.938-3.021-5.493-5.506-7.496
		C158.184,68.805,158.195,68.759,158.225,68.751z M150.014,81.13c-0.666,3.247-2.818,5.308-5.941,6.332
		c-1.287,0.423-2.625,0.539-3.98,0.501c-3.984-0.038-7.717-1.259-11.449-2.483c-0.567-0.185-1.14-0.367-1.707-0.563
		c-1.554-0.521-1.414-0.224-0.998-1.767c1.342-4.977,2.724-9.942,4.061-14.922c0.186-0.7,0.372-0.95,1.188-0.728
		c3.819,1.042,7.662,1.979,11.278,3.643c1.517,0.693,2.968,1.5,4.271,2.548C149.118,75.598,150.657,77.974,150.014,81.13z
		 M153.225,57.009c-0.893,2.87-3.049,4.604-6.041,5.176c-0.761,0.146-1.529,0.279-2.022,0.232
		c-3.731-0.095-6.959-1.135-10.177-2.202c-2.205-0.732-2.211-0.744-1.598-3.003c1.123-4.155,2.268-8.301,3.379-12.458
		c0.178-0.66,0.369-0.884,1.146-0.678c3.063,0.828,6.17,1.5,9.068,2.845c1.552,0.721,3.002,1.576,4.205,2.807
		C153.197,51.782,154.066,54.268,153.225,57.009z"/>
</g>
</svg>
