<?xml version="1.0" encoding="utf-8"?>
<!-- Generator: Adobe Illustrator 16.0.0, SVG Export Plug-In . SVG Version: 6.00 Build 0)  -->
<!DOCTYPE svg PUBLIC "-//W3C//DTD SVG 1.1//EN" "http://www.w3.org/Graphics/SVG/1.1/DTD/svg11.dtd">
<svg version="1.1" id="Layer_1" xmlns="http://www.w3.org/2000/svg" xmlns:xlink="http://www.w3.org/1999/xlink" x="0px" y="0px"
	 width="180px" height="180px" viewBox="0 0 180 180" enable-background="new 0 0 180 180" xml:space="preserve">
<g id="Layer_1_copy_2_1_">
	<path fill="#DB8127" d="M80.354,123.153c0.234-0.079,0.47-0.153,0.713-0.224c3.038-0.822,5.698-2.271,7.753-4.695
		c5.483-6.495,5.204-15.999-0.644-22.236c-3.509-3.74-7.89-6.106-12.588-7.955c-0.779-0.307-0.984-0.623-0.736-1.47
		c1.248-4.23,2.365-8.499,3.666-12.713c0.393-1.275,0.05-1.654-1.13-1.938c-2.121-0.504-4.23-1.096-6.305-1.771
		c-1.105-0.358-1.571-0.191-1.891,1.016c-1.114,4.222-2.374,8.407-3.545,12.617c-0.231,0.838-0.472,1.182-1.451,0.83
		c-1.736-0.628-3.528-1.134-5.321-1.558c-0.9-0.21-0.897-0.583-0.684-1.313c1.227-4.194,2.386-8.409,3.635-12.597
		c0.316-1.063,0.294-1.597-1.009-1.872c-2.172-0.458-4.316-1.095-6.421-1.807c-1.143-0.382-1.568-0.176-1.881,1.003
		c-1.126,4.263-2.386,8.492-3.53,12.753c-0.25,0.912-0.566,1.053-1.466,0.797c-5.526-1.601-11.08-3.117-16.614-4.695
		c-0.725-0.206-1.027-0.125-1.232,0.661c-0.702,2.68-1.453,5.351-2.281,7.998c-0.275,0.879,0.042,1.089,0.763,1.271
		c2.117,0.536,4.237,1.061,6.301,1.8c2.991,1.064,4.199,3.339,3.351,6.351c-3.766,13.342-7.533,26.688-11.297,40.032
		c-0.68,2.409-2.256,3.388-4.669,2.781c-1.916-0.479-3.812-1.043-5.695-1.635c-0.706-0.221-1.012-0.056-1.315,0.616
		c-1.323,2.908-2.656,5.813-4.1,8.664c-0.487,0.971-0.171,1.139,0.674,1.373c5.501,1.546,10.988,3.149,16.492,4.668
		c0.857,0.24,1.034,0.526,0.787,1.38c-1.298,4.431-2.506,8.895-3.805,13.335c-0.245,0.823-0.04,1.102,0.729,1.309
		c2.439,0.644,4.871,1.308,7.278,2.044c0.813,0.241,1.048,0.079,1.274-0.729c1.246-4.537,2.583-9.05,3.836-13.586
		c0.208-0.754,0.455-0.902,1.196-0.661c1.795,0.589,3.611,1.111,5.444,1.587c0.842,0.21,1.003,0.554,0.757,1.373
		c-1.306,4.475-2.558,8.971-3.859,13.442c-0.192,0.664-0.153,0.956,0.604,1.152c2.516,0.665,5.017,1.388,7.511,2.148
		c0.783,0.233,0.978-0.024,1.177-0.751c1.198-4.375,2.487-8.726,3.671-13.107c0.265-1.002,0.553-1.305,1.668-0.98
		c5.278,1.514,10.636,1.992,16.095,0.978c11.087-2.056,20.103-13.61,14.516-26.584c-1.5-3.494-3.593-6.533-6.548-8.916
		C80.303,123.217,80.32,123.162,80.354,123.153z M70.585,137.879c-0.792,3.862-3.353,6.313-7.067,7.531
		c-1.532,0.503-3.124,0.641-4.735,0.596c-4.741-0.045-9.18-1.497-13.621-2.953c-0.675-0.221-1.354-0.438-2.029-0.671
		c-1.848-0.62-1.683-0.266-1.189-2.101c1.599-5.92,3.241-11.827,4.831-17.751c0.22-0.833,0.442-1.129,1.413-0.865
		c4.543,1.24,9.115,2.354,13.416,4.333c1.804,0.825,3.53,1.785,5.079,3.031C69.521,131.298,71.351,134.124,70.585,137.879z
		 M74.404,109.186c-1.06,3.414-3.625,5.476-7.184,6.157c-0.905,0.173-1.821,0.331-2.408,0.275
		c-4.439-0.113-8.277-1.351-12.104-2.619c-2.623-0.871-2.63-0.885-1.9-3.573c1.336-4.942,2.697-9.874,4.021-14.818
		c0.21-0.785,0.439-1.052,1.363-0.806c3.642,0.984,7.339,1.783,10.788,3.384c1.845,0.857,3.57,1.874,5.001,3.339
		C74.374,102.969,75.408,105.926,74.404,109.186z"/>
</g>
<g id="Layer_1_copy_2_2_">
	<path fill="#DB8127" d="M158.225,68.751c0.197-0.066,0.396-0.129,0.599-0.188c2.555-0.691,4.792-1.91,6.52-3.947
		c4.609-5.46,4.375-13.45-0.541-18.694c-2.949-3.144-6.633-5.133-10.584-6.688c-0.655-0.258-0.827-0.523-0.619-1.235
		c1.05-3.557,1.989-7.145,3.082-10.688c0.33-1.072,0.043-1.391-0.949-1.629c-1.783-0.424-3.558-0.921-5.301-1.489
		c-0.929-0.301-1.32-0.161-1.59,0.854c-0.936,3.549-1.995,7.068-2.979,10.607c-0.195,0.704-0.398,0.993-1.221,0.697
		c-1.46-0.528-2.967-0.954-4.475-1.31c-0.757-0.176-0.754-0.49-0.574-1.104c1.032-3.526,2.006-7.069,3.056-10.59
		c0.267-0.895,0.248-1.343-0.848-1.574c-1.825-0.386-3.629-0.92-5.398-1.52c-0.96-0.321-1.318-0.147-1.582,0.843
		c-0.945,3.584-2.004,7.14-2.966,10.722c-0.21,0.767-0.478,0.885-1.233,0.67c-4.646-1.346-9.314-2.621-13.967-3.947
		c-0.609-0.174-0.864-0.105-1.036,0.556c-0.591,2.253-1.222,4.499-1.918,6.724c-0.231,0.739,0.036,0.916,0.643,1.069
		c1.778,0.45,3.562,0.891,5.296,1.513c2.515,0.895,3.53,2.807,2.817,5.339c-3.165,11.216-6.332,22.436-9.498,33.654
		c-0.571,2.025-1.896,2.848-3.925,2.338c-1.609-0.402-3.204-0.877-4.787-1.375c-0.594-0.185-0.852-0.046-1.105,0.518
		c-1.112,2.445-2.233,4.887-3.447,7.284c-0.409,0.816-0.144,0.957,0.567,1.154c4.624,1.299,9.236,2.647,13.864,3.924
		c0.721,0.201,0.869,0.442,0.661,1.16c-1.091,3.725-2.106,7.477-3.198,11.209c-0.206,0.693-0.034,0.928,0.613,1.102
		c2.05,0.541,4.094,1.098,6.118,1.717c0.684,0.203,0.882,0.068,1.071-0.613c1.048-3.813,2.172-7.607,3.224-11.42
		c0.177-0.634,0.383-0.759,1.007-0.557c1.51,0.496,3.036,0.935,4.577,1.335c0.707,0.177,0.844,0.465,0.636,1.155
		c-1.099,3.76-2.15,7.539-3.244,11.301c-0.162,0.557-0.128,0.803,0.509,0.967c2.115,0.559,4.218,1.166,6.313,1.807
		c0.658,0.197,0.822-0.021,0.99-0.631c1.007-3.678,2.091-7.336,3.086-11.02c0.223-0.843,0.465-1.098,1.401-0.824
		c4.438,1.273,8.942,1.674,13.531,0.822c9.322-1.729,16.9-11.443,12.203-22.349c-1.261-2.938-3.021-5.493-5.506-7.496
		C158.183,68.805,158.196,68.759,158.225,68.751z M150.013,81.13c-0.666,3.247-2.818,5.308-5.941,6.332
		c-1.287,0.423-2.625,0.539-3.98,0.501c-3.984-0.038-7.717-1.259-11.45-2.483c-0.567-0.185-1.139-0.367-1.706-0.563
		c-1.554-0.521-1.415-0.224-0.999-1.767c1.343-4.977,2.724-9.942,4.061-14.922c0.186-0.7,0.372-0.95,1.188-0.728
		c3.819,1.042,7.662,1.979,11.278,3.643c1.516,0.693,2.968,1.5,4.27,2.548C149.118,75.598,150.657,77.974,150.013,81.13z
		 M153.224,57.009c-0.892,2.87-3.048,4.604-6.04,5.176c-0.761,0.146-1.53,0.279-2.023,0.232c-3.731-0.095-6.959-1.135-10.176-2.202
		c-2.205-0.732-2.212-0.744-1.598-3.003c1.123-4.155,2.268-8.301,3.379-12.458c0.178-0.66,0.369-0.884,1.146-0.678
		c3.063,0.828,6.17,1.5,9.069,2.845c1.551,0.721,3.001,1.576,4.204,2.807C153.197,51.782,154.067,54.268,153.224,57.009z"/>
</g>
</svg>
