<?xml version="1.0" encoding="utf-8"?>
<!-- Generator: Adobe Illustrator 16.0.0, SVG Export Plug-In . SVG Version: 6.00 Build 0)  -->
<!DOCTYPE svg PUBLIC "-//W3C//DTD SVG 1.1//EN" "http://www.w3.org/Graphics/SVG/1.1/DTD/svg11.dtd">
<svg version="1.1" id="Layer_1" opacity="0.9" xmlns="http://www.w3.org/2000/svg" xmlns:xlink="http://www.w3.org/1999/xlink"
	 x="0px" y="0px" width="180px" height="180px" viewBox="0 0 180 180" enable-background="new 0 0 180 180" xml:space="preserve">
<path opacity="0.7" fill="#DA8128" d="M3.6,104.758l14.162-14.161l14.162,14.161L17.761,118.92L3.6,104.758z M102.838,90.504
	L46.072,147.27l14.162,14.162L117,104.665L102.838,90.504z M24.839,125.996l56.766-56.765l14.163,14.162L39,140.159L24.839,125.996
	L24.839,125.996z M24.812,83.553l35.521-35.521l14.163,14.162L38.974,97.715L24.812,83.553L24.812,83.553z"/>
<path opacity="0.7" fill="#DA8128" d="M87.6,57.752l10.914-10.915l10.916,10.915L98.514,68.667L87.6,57.752z M164.085,46.766
	l-43.751,43.75l10.915,10.915L175,57.68L164.085,46.766z M103.969,74.121l43.752-43.75l10.915,10.915l-43.752,43.751L103.969,74.121
	L103.969,74.121z M103.949,41.409l27.376-27.377l10.916,10.915l-27.377,27.378L103.949,41.409L103.949,41.409z"/>
</svg>
