<?xml version="1.0" encoding="utf-8"?>
<!-- Generator: Adobe Illustrator 16.0.0, SVG Export Plug-In . SVG Version: 6.00 Build 0)  -->
<!DOCTYPE svg PUBLIC "-//W3C//DTD SVG 1.1//EN" "http://www.w3.org/Graphics/SVG/1.1/DTD/svg11.dtd">
<svg version="1.1" id="Layer_1" xmlns="http://www.w3.org/2000/svg" xmlns:xlink="http://www.w3.org/1999/xlink" x="0px" y="0px"
	 width="180px" height="180px" viewBox="0 0 180 180" enable-background="new 0 0 180 180" xml:space="preserve">
<g opacity="0.5">
	<path fill="#FFFFFF" d="M25.517,160.684c-3.032,0.176-6.183-2.281-6.933-5.406c-0.045-0.188-0.08-0.377-0.117-0.565
		c-3.03-15.502-6.062-31.003-9.085-46.506c-0.661-3.39,0.915-6.616,3.903-8.058c0.17-0.082,0.36-0.127,0.542-0.188
		c0.26-0.186,0.574-0.18,0.868-0.236c28.35-5.545,56.702-11.084,85.056-16.623c0.293-0.057,0.583-0.181,0.894-0.105
		c3.069-0.222,6.254,2.138,7.078,5.244c0.574,2.167,0.573,2.166-1.619,2.595c-1.541,0.3-3.084,0.598-4.623,0.908
		c-0.342,0.068-0.619,0.084-0.887-0.223c-0.758-0.869-1.716-0.932-2.794-0.721c-22.357,4.383-44.717,8.748-67.077,13.117
		c-3.759,0.734-7.511,1.502-11.277,2.188c-1.43,0.26-2.285,0.982-2.557,2.401c-0.158,0.275,0,0.538,0.048,0.798
		c0.253,1.354,0.522,2.704,0.787,4.057c0.174,0.888,0.175,0.89,1.037,0.722c3.677-0.718,7.354-1.437,11.03-2.153
		c2.46-0.48,4.919-0.972,7.383-1.431c0.247-0.047,0.56-0.33,0.798,0.052c-1.342,3.555-0.709,7.092,0.07,10.635
		c0.163,0.738,0.673,1.635,0.273,2.205c-0.365,0.521-1.366,0.396-2.089,0.541c-5.236,1.033-10.474,2.055-15.711,3.08
		c-0.169,0.211-0.037,0.426,0.002,0.631c1.517,7.783,3.038,15.566,4.562,23.348c0.041,0.209,0.015,0.449,0.22,0.602
		c0.509,0.794,1.185,1.338,2.155,1.439c0.306,0.16,0.594-0.01,0.879-0.064c4.814-0.933,9.625-1.877,14.438-2.811
		c0.29-0.057,0.579-0.201,0.887-0.088c0.5,2.257,0.957,4.521,1.321,6.802c-0.167,0.175-0.402,0.163-0.613,0.204
		c-6.067,1.189-12.136,2.375-18.204,3.559C25.952,160.672,25.74,160.764,25.517,160.684z"/>
	<path fill="#FFFFFF" d="M35.04,146.852c-1.321,0.26-2.647,0.502-3.964,0.782c-0.715,0.151-1.08-0.079-1.213-0.813
		c-0.333-1.838-0.692-3.674-1.077-5.502c-0.143-0.68,0.043-1.043,0.743-1.176c2.7-0.515,5.396-1.045,8.092-1.582
		c0.636-0.127,0.988,0.062,1.111,0.729c0.35,1.892,0.722,3.778,1.103,5.665c0.132,0.65-0.105,0.988-0.749,1.109
		C37.736,146.314,36.389,146.588,35.04,146.852z"/>
	<path fill="#FFFFFF" d="M141.479,96.813c-0.057-0.293-0.047-0.608-0.242-0.863c-0.01-0.381-0.239-0.672-0.424-0.973
		c-1.603-2.605-4.586-3.924-7.681-3.319c-28.003,5.461-56.002,10.936-84.003,16.409c-0.841,0.164-1.647,0.443-2.387,0.885
		c-2.788,1.66-4.073,4.707-3.41,8.104c2.981,15.271,5.965,30.543,8.956,45.813c0.111,0.564,0.265,1.125,0.452,1.67
		c0.946,2.764,4.035,4.904,6.718,4.676c0.338,0.066,0.655-0.057,0.976-0.119c28.41-5.549,56.82-11.1,85.228-16.654
		c0.292-0.058,0.607-0.049,0.865-0.238c2.467-0.702,4.637-3.901,4.432-6.532c0.066-0.312-0.051-0.601-0.107-0.894
		C147.73,128.785,144.605,112.798,141.479,96.813z M143.186,142.477c0.138,0.707,0.265,1.42-0.056,2.108
		c-0.33,0.714-0.86,1.202-1.651,1.364c-0.459,0.093-0.918,0.184-1.377,0.273c-15.949,3.117-31.898,6.23-47.848,9.351
		c-9.866,1.93-19.731,3.866-29.596,5.8c-2.349,0.46-3.311-0.188-3.773-2.553c-1.455-7.435-2.892-14.87-4.372-22.299
		c-0.154-0.771,0-1.029,0.787-1.183c13.737-2.659,27.468-5.351,41.2-8.034c13.706-2.678,27.412-5.349,41.111-8.055
		c0.832-0.163,1.066,0.018,1.224,0.838C140.257,127.559,141.729,135.016,143.186,142.477z M135.288,106.497
		c-2.953,0.528-5.897,1.114-8.843,1.688c-10.813,2.109-21.623,4.224-32.434,6.336c-13.137,2.566-26.271,5.133-39.407,7.701
		c-0.757,0.147-1.513,0.297-2.265,0.467c-0.382,0.086-0.546-0.037-0.618-0.422c-0.291-1.57-0.64-3.131-0.9-4.705
		c-0.214-1.293,0.625-2.479,1.893-2.799c0.24-0.062,0.485-0.102,0.729-0.148c26.027-5.088,52.054-10.174,78.083-15.258
		c2.318-0.453,3.318,0.229,3.774,2.568c0.228,1.161,0.412,2.335,0.699,3.481C136.178,106.111,136.016,106.367,135.288,106.497z"/>
	<path fill="#FFFFFF" d="M77.361,153.583c-0.416-0.104-0.421-0.47-0.483-0.781c-0.367-1.834-0.707-3.673-1.087-5.503
		c-0.142-0.688,0.088-1.033,0.773-1.164c2.675-0.51,5.346-1.029,8.015-1.566c0.699-0.143,1.019,0.119,1.145,0.799
		c0.339,1.84,0.71,3.672,1.068,5.507c0.063,0.325,0.156,0.655-0.178,0.901c-0.604,0.287-1.27,0.314-1.91,0.444
		c-2.176,0.44-4.357,0.859-6.537,1.279C77.903,153.55,77.641,153.669,77.361,153.583z"/>
	<path fill="#FFFFFF" d="M64.323,156.139c-0.397-0.084-0.487-0.398-0.553-0.732c-0.36-1.838-0.709-3.678-1.083-5.514
		c-0.146-0.722,0.116-1.076,0.836-1.211c2.653-0.496,5.303-1.012,7.949-1.539c0.625-0.125,0.999,0.01,1.126,0.697
		c0.35,1.896,0.735,3.784,1.1,5.678c0.055,0.289,0.163,0.605-0.172,0.82c-0.88,0.334-1.814,0.426-2.728,0.596
		C68.641,155.34,66.506,155.868,64.323,156.139z"/>
</g>
<g opacity="0.5">
	<path fill="#FFFFFF" d="M51.554,68.515c-2.276,0.132-4.642-1.714-5.206-4.059c-0.034-0.142-0.06-0.283-0.088-0.425
		c-2.274-11.639-4.551-23.276-6.821-34.916c-0.496-2.544,0.687-4.967,2.93-6.048c0.128-0.062,0.271-0.096,0.407-0.142
		c0.195-0.139,0.431-0.135,0.651-0.178c21.286-4.162,42.572-8.321,63.86-12.479c0.221-0.042,0.438-0.136,0.671-0.079
		c2.306-0.167,4.694,1.605,5.313,3.937c0.433,1.627,0.432,1.626-1.217,1.948c-1.156,0.225-2.313,0.449-3.471,0.682
		c-0.256,0.051-0.464,0.063-0.665-0.167c-0.567-0.652-1.288-0.699-2.099-0.54c-16.784,3.29-33.572,6.568-50.359,9.848
		c-2.822,0.551-5.639,1.127-8.467,1.642c-1.074,0.195-1.715,0.738-1.92,1.803c-0.119,0.207,0,0.404,0.037,0.599
		c0.19,1.017,0.392,2.03,0.591,3.046c0.131,0.666,0.132,0.667,0.779,0.541c2.76-0.539,5.521-1.079,8.281-1.618
		c1.847-0.36,3.693-0.729,5.543-1.073c0.186-0.035,0.42-0.248,0.599,0.039c-1.007,2.668-0.532,5.324,0.053,7.984
		c0.122,0.554,0.505,1.227,0.205,1.655c-0.274,0.391-1.025,0.298-1.568,0.406c-3.931,0.776-7.864,1.543-11.796,2.313
		c-0.127,0.158-0.028,0.32,0.002,0.473c1.139,5.844,2.281,11.688,3.425,17.529c0.03,0.157,0.011,0.338,0.165,0.452
		c0.382,0.596,0.89,1.004,1.618,1.081c0.229,0.121,0.446-0.007,0.66-0.048c3.614-0.7,7.226-1.409,10.84-2.11
		c0.218-0.042,0.435-0.151,0.667-0.065c0.375,1.694,0.718,3.393,0.992,5.106c-0.125,0.131-0.302,0.123-0.46,0.153
		c-4.555,0.893-9.111,1.783-13.667,2.672C51.88,68.506,51.721,68.574,51.554,68.515z"/>
	<path fill="#FFFFFF" d="M58.704,58.129c-0.992,0.194-1.987,0.376-2.976,0.587c-0.537,0.114-0.811-0.059-0.911-0.611
		c-0.25-1.38-0.52-2.758-0.809-4.131c-0.107-0.51,0.033-0.782,0.558-0.882c2.027-0.387,4.051-0.785,6.075-1.188
		c0.478-0.096,0.742,0.046,0.834,0.548c0.263,1.419,0.542,2.837,0.828,4.253c0.099,0.488-0.079,0.742-0.562,0.833
		C60.728,57.727,59.716,57.932,58.704,58.129z"/>
	<path fill="#FFFFFF" d="M138.616,20.561c-0.043-0.22-0.035-0.458-0.183-0.649c-0.008-0.286-0.181-0.503-0.317-0.729
		c-1.203-1.957-3.444-2.946-5.767-2.493c-21.024,4.1-42.046,8.21-63.068,12.32c-0.631,0.123-1.237,0.333-1.792,0.664
		c-2.093,1.247-3.058,3.534-2.56,6.084c2.238,11.466,4.478,22.931,6.723,34.395c0.083,0.424,0.2,0.845,0.339,1.254
		c0.71,2.075,3.03,3.683,5.044,3.511c0.253,0.05,0.492-0.043,0.733-0.09c21.33-4.166,42.659-8.333,63.987-12.504
		c0.22-0.042,0.457-0.037,0.649-0.179c1.853-0.527,3.48-2.929,3.326-4.904c0.052-0.233-0.037-0.45-0.08-0.67
		C143.311,44.565,140.964,32.563,138.616,20.561z M139.896,54.845c0.104,0.53,0.199,1.065-0.041,1.583
		c-0.248,0.536-0.646,0.903-1.24,1.024c-0.344,0.07-0.689,0.138-1.034,0.205c-11.976,2.341-23.948,4.679-35.922,7.021
		c-7.408,1.449-14.813,2.903-22.22,4.354c-1.764,0.345-2.486-0.141-2.833-1.916c-1.093-5.582-2.172-11.165-3.283-16.742
		c-0.115-0.579,0-0.773,0.59-0.887c10.314-1.997,20.624-4.017,30.933-6.032c10.291-2.011,20.58-4.016,30.865-6.047
		c0.625-0.123,0.801,0.012,0.918,0.629C137.698,43.644,138.805,49.243,139.896,54.845z M133.968,27.832
		c-2.217,0.397-4.428,0.837-6.639,1.268c-8.117,1.584-16.233,3.171-24.351,4.758c-9.862,1.927-19.725,3.854-29.585,5.781
		c-0.568,0.111-1.137,0.224-1.7,0.351c-0.287,0.064-0.41-0.028-0.464-0.317c-0.218-1.179-0.48-2.35-0.676-3.533
		c-0.161-0.971,0.47-1.86,1.421-2.101c0.181-0.045,0.365-0.076,0.548-0.111c19.541-3.819,39.082-7.638,58.623-11.456
		c1.74-0.34,2.492,0.172,2.836,1.929c0.17,0.872,0.309,1.753,0.523,2.614C134.637,27.542,134.516,27.735,133.968,27.832z"/>
	<path fill="#FFFFFF" d="M90.478,63.184c-0.313-0.078-0.316-0.353-0.362-0.587c-0.275-1.376-0.53-2.757-0.816-4.131
		c-0.106-0.517,0.065-0.776,0.581-0.874c2.008-0.383,4.014-0.773,6.018-1.177c0.523-0.106,0.765,0.09,0.858,0.6
		c0.255,1.381,0.533,2.756,0.802,4.134c0.049,0.244,0.118,0.492-0.133,0.677c-0.453,0.215-0.953,0.236-1.434,0.334
		c-1.635,0.331-3.271,0.645-4.908,0.96C90.884,63.159,90.688,63.248,90.478,63.184z"/>
	<path fill="#FFFFFF" d="M80.688,65.102c-0.297-0.063-0.365-0.3-0.415-0.55c-0.27-1.38-0.533-2.761-0.813-4.139
		c-0.11-0.542,0.086-0.808,0.627-0.91c1.992-0.372,3.981-0.759,5.968-1.156c0.469-0.093,0.75,0.007,0.846,0.524
		c0.262,1.423,0.552,2.841,0.825,4.263c0.042,0.217,0.122,0.455-0.129,0.616c-0.661,0.251-1.362,0.319-2.048,0.447
		C83.93,64.502,82.328,64.899,80.688,65.102z"/>
</g>
</svg>
