<?xml version="1.0" encoding="utf-8"?>
<!-- Generator: Adobe Illustrator 16.0.0, SVG Export Plug-In . SVG Version: 6.00 Build 0)  -->
<!DOCTYPE svg PUBLIC "-//W3C//DTD SVG 1.1//EN" "http://www.w3.org/Graphics/SVG/1.1/DTD/svg11.dtd">
<svg version="1.1" id="Layer_1" opacity="0.7" xmlns="http://www.w3.org/2000/svg" xmlns:xlink="http://www.w3.org/1999/xlink"
	 x="0px" y="0px" width="180px" height="180px" viewBox="0 0 180 180" enable-background="new 0 0 180 180" xml:space="preserve">
<path fill="#FFFFFF" d="M66.132,112.905c0.896,0.896,2.383,0.896,3.226,0l4.481-4.66c0.95-0.896,0.896-2.509-0.108-3.477
	c-3.52-3.066-7.614-5.406-12.043-6.882l1.416-6.811c0.304-1.488-0.807-2.886-2.294-2.886h-8.675c-1.118,0.011-2.074,0.804-2.294,1.9
	l-1.254,6.058c-11.542,0.591-21.327,6.451-21.327,18.459c0,10.395,8.083,14.857,16.631,17.923
	c8.083,3.082,12.367,4.229,12.367,8.566c0,4.463-4.266,7.079-10.574,7.079c-5.735,0-11.757-1.917-16.417-6.596
	c-0.909-0.91-2.384-0.911-3.294-0.002c-0.001,0-0.002,0.001-0.003,0.002l-4.839,4.839c-0.948,0.951-0.948,2.49,0,3.441
	c3.763,3.71,8.531,6.398,13.965,7.886l-1.327,6.398c-0.305,1.487,0.789,2.867,2.276,2.886l8.692,0.071
	c1.131,0.005,2.107-0.791,2.33-1.899l1.254-6.076c13.886-0.932,22.346-8.584,22.346-19.75c0-10.287-8.423-14.625-18.639-18.155
	c-5.843-2.168-10.896-3.655-10.896-8.118c0-4.337,4.714-6.059,9.445-6.059c6.022,0,11.811,2.492,15.592,5.897L66.132,112.905z"/>
<path fill="#FFFFFF" d="M104.498,34.202c0.696,0.696,1.852,0.696,2.506,0l3.48-3.621c0.738-0.696,0.696-1.948-0.083-2.701
	c-2.734-2.382-5.915-4.199-9.356-5.346l1.1-5.291c0.237-1.156-0.626-2.241-1.781-2.241h-6.738c-0.869,0.009-1.611,0.625-1.782,1.476
	l-0.975,4.706c-8.967,0.46-16.567,5.012-16.567,14.34c0,8.075,6.278,11.542,12.919,13.923c6.28,2.395,9.607,3.285,9.607,6.654
	c0,3.467-3.313,5.5-8.215,5.5c-4.454,0-9.133-1.49-12.752-5.124c-0.706-0.708-1.853-0.708-2.56-0.001
	c-0.001,0-0.002,0.001-0.002,0.001l-3.76,3.759c-0.736,0.739-0.736,1.934,0,2.673c2.923,2.882,6.627,4.971,10.849,6.126l-1.031,4.97
	c-0.236,1.155,0.613,2.228,1.769,2.241l6.752,0.056c0.879,0.004,1.638-0.615,1.81-1.476l0.976-4.719
	c10.787-0.724,17.358-6.669,17.358-15.343c0-7.991-6.544-11.361-14.479-14.104c-4.54-1.685-8.465-2.84-8.465-6.307
	c0-3.369,3.661-4.706,7.336-4.706c4.679,0,9.175,1.936,12.113,4.581L104.498,34.202z"/>
<path fill="#FFFFFF" d="M143.06,98.547c0.836,0.836,2.224,0.836,3.009,0l4.18-4.347c0.887-0.835,0.836-2.34-0.1-3.243
	c-3.283-2.86-7.104-5.042-11.234-6.419l1.321-6.353c0.283-1.388-0.753-2.692-2.141-2.692h-8.091c-1.044,0.01-1.936,0.75-2.142,1.772
	l-1.169,5.651c-10.766,0.551-19.895,6.018-19.895,17.218c0,9.696,7.54,13.859,15.515,16.719c7.539,2.875,11.535,3.945,11.535,7.99
	c0,4.163-3.979,6.604-9.863,6.604c-5.351,0-10.967-1.788-15.314-6.152c-0.847-0.849-2.225-0.85-3.073-0.002
	c-0.001,0-0.002,0.001-0.002,0.002l-4.515,4.514c-0.884,0.888-0.884,2.323,0,3.21c3.511,3.461,7.958,5.969,13.026,7.356
	l-1.237,5.968c-0.284,1.388,0.736,2.675,2.124,2.692l8.108,0.066c1.055,0.005,1.966-0.738,2.173-1.771l1.17-5.668
	c12.953-0.869,20.844-8.008,20.844-18.423c0-9.596-7.857-13.643-17.386-16.936c-5.451-2.022-10.164-3.409-10.164-7.572
	c0-4.046,4.396-5.651,8.81-5.651c5.617,0,11.018,2.324,14.545,5.501L143.06,98.547z"/>
</svg>
