<?xml version="1.0" encoding="utf-8"?>
<!-- Generator: Adobe Illustrator 16.0.0, SVG Export Plug-In . SVG Version: 6.00 Build 0)  -->
<!DOCTYPE svg PUBLIC "-//W3C//DTD SVG 1.1//EN" "http://www.w3.org/Graphics/SVG/1.1/DTD/svg11.dtd">
<svg version="1.1" id="Layer_1" xmlns="http://www.w3.org/2000/svg" xmlns:xlink="http://www.w3.org/1999/xlink" x="0px" y="0px"
	 width="180px" height="180px" viewBox="0 0 180 180" enable-background="new 0 0 180 180" xml:space="preserve">
<g opacity="0.5">
	<g>
		<path fill="#FFFFFF" d="M49.585,85.342L17.333,99.616l3.938,16.108l29.104-12.833c14.325-6.338,20.878-3.019,24.563,5.671
			c1.894,4.454,3.28,12.791,3.526,15.558c0.663,7.454-0.613,16.829-17.638,24.334l-28.281,12.494l3.946,16.126l32.169-14.238
			c11.346-5.021,15.589-8.485,19.648-13.097c9.013-10.233,10.802-24.403,7.052-40.196c-5.601-23.498-17.446-36.741-45.78-24.2
			L49.585,85.342z"/>
		<path fill="#FFFFFF" d="M50.343,126.323c-0.883-4.829-1.324-6.728-1.324-6.728L16.01,134.205
			c-8.439,3.734-7.211,9.766-6.542,13.446c0.874,4.812,1.325,6.733,1.325,6.733l33.012-14.611
			C52.241,136.039,51.013,130.009,50.343,126.323z"/>
	</g>
</g>
<g opacity="0.5">
	<g>
		<path fill="#FFFFFF" d="M136.19,44.84l-21.018,9.302l2.565,10.498l18.968-8.363c9.334-4.13,13.604-1.967,16.006,3.695
			c1.234,2.903,2.139,8.335,2.299,10.139c0.432,4.857-0.399,10.967-11.494,15.857l-18.431,8.143l2.572,10.509l20.963-9.278
			c7.394-3.272,10.159-5.53,12.805-8.535c5.873-6.669,7.039-15.903,4.595-26.194c-3.649-15.313-11.368-23.943-29.833-15.77
			L136.19,44.84z"/>
		<path fill="#FFFFFF" d="M136.685,71.546c-0.576-3.147-0.863-4.384-0.863-4.384l-21.511,9.521
			c-5.499,2.434-4.699,6.364-4.262,8.763c0.568,3.136,0.863,4.388,0.863,4.388l21.513-9.521
			C137.921,77.878,137.122,73.948,136.685,71.546z"/>
	</g>
</g>
</svg>
