<?xml version="1.0" encoding="utf-8"?>
<!-- Generator: Adobe Illustrator 16.0.0, SVG Export Plug-In . SVG Version: 6.00 Build 0)  -->
<!DOCTYPE svg PUBLIC "-//W3C//DTD SVG 1.1//EN" "http://www.w3.org/Graphics/SVG/1.1/DTD/svg11.dtd">
<svg version="1.1" id="Layer_1" xmlns="http://www.w3.org/2000/svg" xmlns:xlink="http://www.w3.org/1999/xlink" x="0px" y="0px"
	 width="180px" height="180px" viewBox="0 0 180 180" enable-background="new 0 0 180 180" xml:space="preserve">
<path opacity="0.5" fill="#FFFFFF" enable-background="new    " d="M105.441,130.3c0.681-16.391-5.453-29.677-18.326-39.818
	c-4.111-3.239-8.736-5.58-13.72-7.2c-0.254-0.082-0.486-0.232-0.727-0.35c-10.664-2.555-21.328-5.11-31.99-7.666
	c-0.082,0.035-0.161,0.096-0.244,0.1c-4.024,0.162-6.591,2.244-7.536,6.172c-2.287,9.503-4.559,19.011-6.836,28.515
	c-0.091,0.381-0.183,0.762-0.288,1.202c-1.083-0.202-2.106-0.509-3.144-0.565c-3.861-0.211-6.693,1.437-8.452,4.897
	c-0.067,0.131-0.17,0.243-0.256,0.365c-0.198,0.823-0.396,1.649-0.593,2.475c0.169,1.156,0.18,2.365,0.539,3.46
	c0.939,2.877,2.989,4.684,5.883,5.53c0.632,0.187,1.281,0.312,2.034,0.492c-0.11,0.458-0.198,0.827-0.288,1.2
	c-2.171,9.061-4.343,18.121-6.513,27.183c-1.03,4.301,0.135,7.063,3.915,9.319c0.045,0.027,0.065,0.097,0.096,0.146
	c10.663,2.557,21.327,5.11,31.991,7.665c1.649,0.149,3.295,0.339,4.947,0.442c10.583,0.672,20.315-1.905,29.121-7.818
	c8.006-5.377,13.73-12.624,17.303-21.574c0.392-0.979,0.75-1.969,1.125-2.951c0.51-2.121,1.018-4.242,1.524-6.361
	C105.156,133.54,105.374,131.924,105.441,130.3z M59.582,156.02c-2.25-0.057-4.528-0.375-6.728-0.865
	c-6-1.338-11.964-2.831-17.942-4.264c-0.293-0.07-0.585-0.142-0.949-0.229c1.497-6.245,2.98-12.438,4.494-18.755
	c3.806,0.911,7.539,1.829,11.284,2.694c2.556,0.592,4.959,0.149,7.051-1.445c2.796-2.135,3.966-5.012,3.289-8.469
	c-0.676-3.455-2.819-5.717-6.228-6.617c-3.454-0.911-6.945-1.684-10.419-2.519c-0.319-0.075-0.638-0.151-1.013-0.241
	c1.586-6.623,3.156-13.174,4.736-19.768c0.31,0.059,0.574,0.098,0.833,0.159c6.273,1.502,12.554,2.972,18.816,4.516
	c12.658,3.123,21.509,14.333,21.644,27.351C88.612,143.348,75.406,156.407,59.582,156.02z"/>
<path opacity="0.5" fill="#FFFFFF" enable-background="new    " d="M171.396,67.866c0.519-12.467-4.146-22.573-13.938-30.287
	c-3.127-2.464-6.644-4.245-10.435-5.477c-0.193-0.062-0.371-0.176-0.553-0.266c-8.111-1.943-16.224-3.887-24.334-5.831
	c-0.062,0.027-0.121,0.073-0.185,0.076c-3.062,0.123-5.015,1.707-5.733,4.695c-1.738,7.228-3.467,14.46-5.199,21.689
	c-0.068,0.29-0.138,0.579-0.217,0.915c-0.824-0.154-1.604-0.387-2.394-0.43c-2.937-0.161-5.091,1.092-6.429,3.725
	c-0.051,0.1-0.129,0.185-0.194,0.278c-0.149,0.627-0.302,1.254-0.451,1.882c0.129,0.879,0.138,1.799,0.409,2.631
	c0.714,2.188,2.273,3.563,4.475,4.207c0.48,0.141,0.975,0.237,1.549,0.375c-0.084,0.348-0.152,0.63-0.221,0.913
	c-1.65,6.892-3.304,13.784-4.954,20.676c-0.782,3.271,0.104,5.373,2.979,7.089c0.033,0.021,0.049,0.072,0.072,0.111
	c8.11,1.943,16.223,3.887,24.334,5.83c1.252,0.113,2.506,0.258,3.763,0.336c8.05,0.512,15.45-1.449,22.149-5.945
	c6.09-4.091,10.442-9.604,13.16-16.412c0.299-0.744,0.571-1.497,0.856-2.244c0.387-1.613,0.772-3.227,1.159-4.839
	C171.182,70.33,171.348,69.101,171.396,67.866z M136.518,87.429c-1.713-0.043-3.444-0.286-5.117-0.658
	c-4.564-1.018-9.102-2.154-13.647-3.244c-0.224-0.054-0.444-0.107-0.722-0.173c1.139-4.75,2.268-9.461,3.419-14.265
	c2.896,0.694,5.733,1.391,8.583,2.05c1.941,0.45,3.771,0.114,5.361-1.1c2.127-1.623,3.018-3.812,2.502-6.441
	c-0.515-2.628-2.146-4.348-4.736-5.032c-2.628-0.694-5.283-1.281-7.926-1.916c-0.242-0.058-0.485-0.116-0.771-0.184
	c1.207-5.037,2.4-10.02,3.602-15.035c0.236,0.044,0.438,0.073,0.635,0.121c4.771,1.142,9.549,2.26,14.313,3.435
	c9.627,2.375,16.36,10.902,16.463,20.803C158.598,77.79,148.553,87.724,136.518,87.429z"/>
<path opacity="0.5" fill="#FFFFFF" enable-background="new    " d="M92.518,31.893c0.321-7.758-2.581-14.045-8.675-18.846
	c-1.945-1.533-4.133-2.642-6.493-3.407c-0.12-0.039-0.23-0.11-0.344-0.166c-5.047-1.209-10.094-2.418-15.14-3.628
	c-0.039,0.018-0.076,0.045-0.115,0.048c-1.905,0.076-3.121,1.062-3.568,2.921c-1.082,4.497-2.157,8.997-3.235,13.495
	c-0.043,0.181-0.086,0.361-0.136,0.569c-0.513-0.095-0.998-0.241-1.489-0.268c-1.826-0.1-3.167,0.679-3.999,2.318
	c-0.032,0.062-0.081,0.115-0.122,0.173c-0.093,0.391-0.188,0.781-0.281,1.171c0.08,0.548,0.085,1.12,0.254,1.638
	c0.445,1.361,1.415,2.217,2.785,2.618c0.298,0.088,0.606,0.147,0.963,0.232c-0.052,0.216-0.095,0.393-0.138,0.568
	c-1.027,4.289-2.055,8.577-3.082,12.866c-0.488,2.035,0.064,3.342,1.854,4.411c0.021,0.013,0.03,0.045,0.045,0.069
	c5.046,1.21,10.094,2.418,15.141,3.628c0.779,0.07,1.559,0.161,2.34,0.209c5.01,0.317,9.615-0.902,13.783-3.7
	c3.789-2.544,6.497-5.975,8.188-10.211c0.186-0.463,0.355-0.932,0.532-1.396c0.24-1.004,0.481-2.008,0.724-3.012
	C92.382,33.426,92.484,32.662,92.518,31.893z M70.813,44.065c-1.065-0.027-2.143-0.178-3.184-0.409
	c-2.84-0.633-5.663-1.341-8.492-2.018c-0.139-0.034-0.277-0.067-0.449-0.108c0.708-2.956,1.411-5.887,2.127-8.876
	c1.801,0.432,3.568,0.865,5.34,1.275c1.209,0.28,2.348,0.07,3.337-0.685c1.323-1.01,1.877-2.372,1.556-4.008
	c-0.319-1.636-1.334-2.706-2.947-3.131c-1.635-0.432-3.287-0.797-4.932-1.192c-0.15-0.037-0.302-0.072-0.479-0.114
	c0.751-3.134,1.493-6.236,2.241-9.356c0.147,0.028,0.273,0.045,0.394,0.075c2.969,0.711,5.942,1.406,8.905,2.137
	c5.991,1.479,10.181,6.784,10.244,12.944C84.551,38.068,78.302,44.249,70.813,44.065z"/>
</svg>
