<?xml version="1.0" encoding="utf-8"?>
<!-- Generator: Adobe Illustrator 16.0.0, SVG Export Plug-In . SVG Version: 6.00 Build 0)  -->
<!DOCTYPE svg PUBLIC "-//W3C//DTD SVG 1.1//EN" "http://www.w3.org/Graphics/SVG/1.1/DTD/svg11.dtd">
<svg version="1.1" id="Layer_1" xmlns="http://www.w3.org/2000/svg" xmlns:xlink="http://www.w3.org/1999/xlink" x="0px" y="0px"
	 width="180px" height="180px" viewBox="0 0 180 180" enable-background="new 0 0 180 180" xml:space="preserve">
<g opacity="0.7">
	<path fill="#8F9DAA" d="M149.955,13.512c0.962,2.979,1.398,6.077,2.033,9.127c3.748,18.024,7.462,36.058,11.164,54.09
		c0.072,0.347,0.438,0.748,0,1.108c-0.363-0.102-0.608-0.372-0.871-0.621c-1.762-1.664-3.525-3.33-5.275-5.007
		c-4.371-4.201-8.795-8.345-13.173-12.542c-1.961-1.879-3.884-3.804-5.905-5.621c-0.354-0.318-0.791-0.629-0.658-1.23
		c3.949-12.59,7.906-25.175,11.859-37.762C149.309,14.486,149.561,13.962,149.955,13.512z"/>
	<path fill="#8398A8" d="M149.955,13.512c-4.031,12.82-8.063,25.642-12.096,38.464c-0.135,0.433-0.201,0.903-0.592,1.216
		c-0.027,0.04-0.058,0.079-0.084,0.122c-0.36,0.271-0.8,0.271-1.218,0.335c-3.202,0.502-6.411,0.982-9.614,1.492
		c-7.541,1.2-15.101,2.279-22.639,3.504c-0.441,0.07-0.96,0.372-1.352-0.161c2.695-2.581,5.373-5.176,8.082-7.74
		c12.771-12.092,25.547-24.175,38.326-36.255C149.141,14.139,149.438,13.684,149.955,13.512z"/>
	<path fill="#6A797F" d="M137.27,53.192c0.926,0.823,1.873,1.621,2.771,2.474c7.456,7.094,14.901,14.2,22.349,21.307
		c0.276,0.263,0.631,0.47,0.766,0.864c-5.512,0.857-11.021,1.713-16.531,2.566c-5.861,0.902-11.725,1.8-17.588,2.7
		c-0.254,0.04-0.512,0.04-0.768,0.055c-0.398-0.141-0.317-0.482-0.242-0.739c0.276-0.939,0.426-1.91,0.761-2.842
		c0.771-2.15,1.392-4.348,2.021-6.547c0.455-1.597,0.996-3.169,1.455-4.772c0.783-2.731,1.705-5.424,2.525-8.147
		c0.564-1.879,1.17-3.751,1.766-5.625c0.146-0.465,0.262-0.956,0.725-1.239L137.27,53.192z"/>
	<path fill="#74838C" d="M137.275,53.247c-0.871,2.75-1.851,5.472-2.572,8.261c-0.465,1.79-1.045,3.565-1.637,5.285
		c-0.67,1.963-1.127,3.996-1.825,5.955c-0.712,1.986-1.294,4.073-1.884,6.128c-0.317,1.113-0.647,2.237-0.998,3.347
		c-0.094,0.297-0.303,0.6-0.094,0.935c-0.393,0.25-0.523-0.139-0.705-0.312c-8.272-7.885-16.539-15.78-24.805-23.676
		c-0.184-0.175-0.344-0.374-0.512-0.568c-0.01-0.013,0.011-0.062,0.029-0.076c0.021-0.023,0.059-0.03,0.088-0.042
		c0.289,0.156,0.58,0.029,0.863-0.015c7.76-1.203,15.519-2.416,23.278-3.613C130.096,54.306,133.688,53.783,137.275,53.247z"/>
	<path fill="#8398A8" d="M127.199,86.552c4.134-0.633,8.268-1.269,12.398-1.898c5.559-0.851,11.119-1.695,16.682-2.54
		c0.348-0.052,0.697-0.089,1.32-0.166c-0.4,0.319-0.601,0.495-0.813,0.649c-10.126,7.339-20.25,14.678-30.375,22.019
		c-2.084,1.51-4.167,3.022-6.253,4.528c-0.067,0.045-0.184,0.028-0.276,0.041c-0.146-0.496-0.032-0.97,0.114-1.439
		c2.089-6.643,4.174-13.289,6.271-19.926C126.432,87.304,126.529,86.708,127.199,86.552z"/>
	<path fill="#8F9DAA" d="M127.199,86.552c-0.354,0.292-0.43,0.722-0.555,1.122c-2.256,7.172-4.508,14.346-6.763,21.514
		c-0.546-0.797-0.711-1.74-1.021-2.625c-4.672-13.396-9.329-26.796-13.99-40.194c-0.096-0.276-0.174-0.56-0.342-1.116
		c0.701,0.651,1.224,1.116,1.732,1.598c6.723,6.369,13.443,12.743,20.166,19.115C126.664,86.186,126.863,86.46,127.199,86.552z"/>
</g>
<g opacity="0.7">
	<path fill="#8F9DAA" d="M71.05,61.964c1.106,3.427,1.609,6.99,2.339,10.498c4.311,20.733,8.583,41.476,12.842,62.216
		c0.082,0.4,0.502,0.86,0,1.276c-0.419-0.117-0.701-0.429-1.003-0.714c-2.026-1.915-4.055-3.831-6.068-5.762
		c-5.028-4.832-10.116-9.598-15.152-14.424c-2.255-2.162-4.467-4.377-6.792-6.467c-0.408-0.365-0.91-0.725-0.758-1.416
		c4.544-14.48,9.095-28.958,13.643-43.435C70.305,63.085,70.596,62.482,71.05,61.964z"/>
	<path fill="#8398A8" d="M71.05,61.964c-4.637,14.747-9.275,29.494-13.912,44.243c-0.156,0.498-0.232,1.039-0.681,1.398
		c-0.033,0.045-0.066,0.092-0.097,0.142c-0.416,0.312-0.92,0.312-1.4,0.384c-3.685,0.578-7.375,1.131-11.06,1.717
		c-8.673,1.381-17.368,2.623-26.039,4.03c-0.509,0.081-1.104,0.431-1.553-0.185c3.099-2.971,6.18-5.954,9.295-8.902
		c14.689-13.909,29.385-27.809,44.086-41.704C70.112,62.686,70.453,62.162,71.05,61.964z"/>
	<path fill="#6A797F" d="M56.457,107.605c1.066,0.946,2.155,1.865,3.187,2.847c8.576,8.159,17.14,16.334,25.706,24.508
		c0.318,0.304,0.726,0.541,0.881,0.995c-6.341,0.984-12.677,1.971-19.016,2.951c-6.743,1.037-13.486,2.07-20.23,3.104
		c-0.292,0.046-0.588,0.046-0.883,0.063c-0.458-0.162-0.365-0.557-0.279-0.852c0.319-1.08,0.49-2.197,0.875-3.269
		c0.886-2.474,1.601-5.002,2.324-7.531c0.523-1.836,1.146-3.646,1.674-5.489c0.901-3.141,1.961-6.238,2.905-9.371
		c0.65-2.162,1.346-4.313,2.031-6.471c0.167-0.535,0.3-1.1,0.833-1.425L56.457,107.605z"/>
	<path fill="#74838C" d="M56.465,107.669c-1.002,3.163-2.127,6.295-2.958,9.503c-0.535,2.059-1.202,4.1-1.882,6.079
		c-0.771,2.258-1.297,4.595-2.1,6.851c-0.819,2.284-1.487,4.685-2.166,7.049c-0.366,1.279-0.746,2.572-1.148,3.85
		c-0.109,0.343-0.349,0.689-0.109,1.076c-0.451,0.287-0.602-0.16-0.81-0.359c-9.516-9.07-19.025-18.15-28.531-27.232
		c-0.211-0.202-0.396-0.43-0.589-0.653c-0.01-0.015,0.013-0.069,0.034-0.087c0.026-0.025,0.067-0.035,0.103-0.049
		c0.333,0.179,0.666,0.033,0.993-0.019c8.925-1.384,17.849-2.776,26.776-4.155C48.207,108.889,52.337,108.286,56.465,107.669z"/>
	<path fill="#8398A8" d="M44.875,145.979c4.755-0.729,9.51-1.459,14.261-2.184c6.394-0.979,12.791-1.949,19.188-2.922
		c0.4-0.059,0.803-0.102,1.519-0.189c-0.46,0.367-0.689,0.569-0.935,0.746c-11.647,8.443-23.292,16.885-34.938,25.327
		c-2.397,1.736-4.793,3.478-7.192,5.209c-0.078,0.054-0.211,0.033-0.318,0.048c-0.169-0.57-0.037-1.115,0.131-1.656
		c2.402-7.64,4.801-15.285,7.215-22.92C43.991,146.846,44.104,146.159,44.875,145.979z"/>
	<path fill="#8F9DAA" d="M44.875,145.979c-0.406,0.336-0.493,0.83-0.638,1.291c-2.594,8.248-5.185,16.5-7.777,24.744
		c-0.628-0.914-0.818-2.002-1.173-3.02c-5.374-15.408-10.732-30.821-16.093-46.233c-0.11-0.317-0.2-0.644-0.394-1.282
		c0.808,0.748,1.408,1.282,1.993,1.838c7.733,7.326,15.464,14.658,23.197,21.986C44.259,145.557,44.49,145.873,44.875,145.979z"/>
</g>
<g opacity="0.7">
	<path fill="#8F9DAA" d="M155.41,103.177c0.709,2.193,1.031,4.476,1.497,6.722c2.76,13.271,5.493,26.547,8.221,39.822
		c0.052,0.256,0.321,0.551,0,0.817c-0.269-0.075-0.448-0.274-0.644-0.458c-1.297-1.225-2.594-2.452-3.883-3.688
		c-3.219-3.094-6.477-6.144-9.699-9.232c-1.442-1.385-2.858-2.801-4.348-4.141c-0.261-0.232-0.582-0.463-0.484-0.904
		c2.908-9.271,5.822-18.535,8.731-27.803C154.934,103.895,155.12,103.509,155.41,103.177z"/>
	<path fill="#8398A8" d="M155.41,103.177c-2.967,9.439-5.938,18.88-8.904,28.319c-0.1,0.318-0.148,0.665-0.436,0.896
		c-0.021,0.028-0.043,0.058-0.063,0.088c-0.266,0.201-0.588,0.201-0.896,0.248c-2.359,0.371-4.723,0.724-7.079,1.099
		c-5.552,0.884-11.118,1.679-16.669,2.58c-0.324,0.052-0.705,0.274-0.993-0.118c1.983-1.9,3.956-3.811,5.95-5.699
		c9.402-8.902,18.809-17.799,28.219-26.693C154.811,103.639,155.029,103.305,155.41,103.177z"/>
	<path fill="#6A797F" d="M146.07,132.393c0.682,0.604,1.379,1.192,2.039,1.82c5.49,5.225,10.972,10.455,16.455,15.688
		c0.203,0.195,0.465,0.348,0.563,0.639c-4.059,0.63-8.113,1.261-12.172,1.889c-4.314,0.664-8.632,1.324-12.949,1.987
		c-0.188,0.028-0.376,0.028-0.564,0.041c-0.293-0.104-0.233-0.354-0.18-0.545c0.205-0.69,0.314-1.406,0.563-2.093
		c0.566-1.582,1.023-3.201,1.486-4.819c0.336-1.176,0.732-2.334,1.07-3.515c0.577-2.01,1.256-3.992,1.859-5.998
		c0.417-1.385,0.861-2.762,1.301-4.141c0.105-0.344,0.191-0.705,0.533-0.912L146.07,132.393z"/>
	<path fill="#74838C" d="M146.075,132.434c-0.642,2.023-1.362,4.027-1.894,6.08c-0.344,1.317-0.771,2.625-1.205,3.893
		c-0.494,1.445-0.83,2.941-1.345,4.385c-0.524,1.463-0.952,2.998-1.387,4.512c-0.233,0.819-0.478,1.646-0.735,2.465
		c-0.068,0.219-0.223,0.441-0.068,0.688c-0.289,0.185-0.385-0.103-0.519-0.229c-6.092-5.806-12.179-11.619-18.263-17.433
		c-0.135-0.129-0.254-0.274-0.377-0.418c-0.006-0.01,0.008-0.045,0.021-0.058c0.016-0.016,0.043-0.021,0.064-0.029
		c0.213,0.113,0.427,0.021,0.636-0.012c5.714-0.885,11.425-1.777,17.14-2.659C140.789,133.211,143.434,132.827,146.075,132.434z"/>
	<path fill="#8398A8" d="M138.656,156.953c3.044-0.467,6.088-0.934,9.129-1.396c4.093-0.627,8.188-1.248,12.281-1.871
		c0.257-0.037,0.515-0.063,0.973-0.121c-0.295,0.234-0.441,0.363-0.6,0.479c-7.453,5.402-14.907,10.807-22.362,16.211
		c-1.534,1.112-3.068,2.227-4.604,3.334c-0.05,0.033-0.135,0.021-0.203,0.031c-0.107-0.365-0.023-0.714,0.084-1.061
		c1.539-4.891,3.072-9.785,4.617-14.67C138.091,157.508,138.163,157.068,138.656,156.953z"/>
	<path fill="#8F9DAA" d="M138.656,156.953c-0.26,0.215-0.315,0.531-0.407,0.826c-1.661,5.279-3.319,10.561-4.979,15.839
		c-0.402-0.586-0.523-1.282-0.752-1.933c-3.438-9.863-6.867-19.729-10.301-29.594c-0.068-0.203-0.127-0.412-0.251-0.82
		c0.517,0.479,0.901,0.82,1.274,1.176c4.951,4.688,9.898,9.383,14.85,14.072C138.264,156.684,138.41,156.886,138.656,156.953z"/>
</g>
</svg>
