<?xml version="1.0" encoding="utf-8"?>
<!-- Generator: Adobe Illustrator 25.2.0, SVG Export Plug-In . SVG Version: 6.00 Build 0)  -->
<svg version="1.1" id="Layer_1" xmlns="http://www.w3.org/2000/svg" xmlns:xlink="http://www.w3.org/1999/xlink" x="0px" y="0px"
	 viewBox="0 0 180 180" style="enable-background:new 0 0 180 180;" xml:space="preserve">
<style type="text/css">
	.st0{opacity:0.65;}
	.st1{fill:#FFFFFF;}
</style>
<g id="Layer_2" class="st0">
	<g id="Layer_1-2">
		<path class="st1" d="M82.4,130.7c0.3,0,0.5,0.3,0.4,0.5c0,0.1,0,0.1,0,0.2l-22.3,38.6c-0.1,0.1-0.2,0.2-0.4,0.2H46.5
			c-0.2,0-0.4-0.2-0.4-0.4c0-0.1,0-0.2,0.1-0.2l22.3-38.6c0.1-0.1,0.2-0.2,0.4-0.2H82.4z M69.2,119.6c-0.2,0-0.3-0.1-0.4-0.2
			L46.1,80.2c-0.1-0.2-0.1-0.5,0.2-0.6c0.1,0,0.1-0.1,0.2-0.1h13.6c0.2,0,0.3,0.1,0.4,0.2L83.2,119c0.1,0.2,0.1,0.5-0.2,0.6
			c-0.1,0-0.1,0.1-0.2,0.1H69.2z"/>
		<path class="st1" d="M71.9,80.2c-0.1-0.2-0.1-0.5,0.2-0.6c0.1,0,0.2-0.1,0.3-0.1h13.7c0.2,0,0.3,0.1,0.4,0.2l26,44.9
			c0.1,0.1,0.1,0.3,0,0.4l-26,44.9c-0.1,0.1-0.2,0.2-0.4,0.2H72.3c-0.2,0-0.5-0.2-0.5-0.4c0-0.1,0-0.2,0.1-0.2l25.8-44.6L71.9,80.2z
			 M60.8,124.6c0.1,0.1,0.1,0.3,0,0.5l-26.1,44.9c-0.1,0.2-0.4,0.3-0.7,0.1c0,0-0.1-0.1-0.1-0.1L7.5,125.1c-0.1-0.1-0.1-0.3,0-0.5
			l26.1-44.9c0.1-0.2,0.4-0.3,0.7-0.1c0,0,0.1,0.1,0.1,0.1L60.8,124.6z"/>
	</g>
</g>
<g id="Layer_2_1_" class="st0">
	<g id="Layer_1-2_1_">
		<path class="st1" d="M91.7,35.3c0.1,0,0.3,0.1,0.2,0.3c0,0,0,0.1,0,0.1L79.4,57.4c0,0.1-0.1,0.1-0.2,0.1h-7.7
			c-0.1,0-0.3-0.1-0.3-0.3c0,0,0-0.1,0-0.1l12.6-21.8c0-0.1,0.1-0.1,0.2-0.1H91.7z M84.3,29.1c-0.1,0-0.2-0.1-0.2-0.1L71.2,6.8
			c-0.1-0.1,0-0.3,0.1-0.3c0,0,0.1,0,0.1,0h7.7c0.1,0,0.2,0.1,0.2,0.1l12.8,22.1c0.1,0.1,0,0.3-0.1,0.3c0,0-0.1,0-0.1,0H84.3z"/>
		<path class="st1" d="M85.8,6.8c-0.1-0.1,0-0.3,0.1-0.3c0,0,0.1,0,0.1,0h7.7c0.1,0,0.2,0,0.2,0.1l14.7,25.3c0,0.1,0,0.2,0,0.3
			L93.9,57.4c0,0.1-0.1,0.1-0.2,0.1H86c-0.1,0-0.3-0.1-0.3-0.2c0,0,0-0.1,0-0.1L100.4,32L85.8,6.8z M79.5,31.9c0,0.1,0,0.2,0,0.3
			L64.8,57.4c-0.1,0.1-0.3,0.2-0.4,0.1c0,0-0.1,0-0.1-0.1L49.4,32.1c0-0.1,0-0.2,0-0.3L64.2,6.5c0.1-0.1,0.3-0.2,0.4-0.1
			c0,0,0.1,0,0.1,0.1L79.5,31.9z"/>
	</g>
</g>
<g id="Layer_2_2_" class="st0">
	<g id="Layer_1-2_2_">
		<path class="st1" d="M159.1,69c0.1,0,0.3,0.1,0.2,0.3c0,0,0,0.1,0,0.1l-12.6,21.8c0,0.1-0.1,0.1-0.2,0.1h-7.7
			c-0.1,0-0.3-0.1-0.3-0.3c0,0,0-0.1,0-0.1l12.6-21.8c0-0.1,0.1-0.1,0.2-0.1H159.1z M151.6,62.7c-0.1,0-0.2-0.1-0.2-0.1l-12.8-22.1
			c-0.1-0.1,0-0.3,0.1-0.3c0,0,0.1,0,0.1,0h7.7c0.1,0,0.2,0.1,0.2,0.1l12.8,22.1c0.1,0.1,0,0.3-0.1,0.3c0,0-0.1,0-0.1,0H151.6z"/>
		<path class="st1" d="M153.1,40.5c-0.1-0.1,0-0.3,0.1-0.3c0,0,0.1,0,0.1,0h7.7c0.1,0,0.2,0,0.2,0.1l14.7,25.3c0,0.1,0,0.2,0,0.3
			l-14.7,25.3c0,0.1-0.1,0.1-0.2,0.1h-7.7c-0.1,0-0.3-0.1-0.3-0.2c0,0,0-0.1,0-0.1l14.6-25.2L153.1,40.5z M146.8,65.5
			c0,0.1,0,0.2,0,0.3l-14.7,25.3c-0.1,0.1-0.3,0.2-0.4,0.1c0,0-0.1,0-0.1-0.1l-14.9-25.3c0-0.1,0-0.2,0-0.3l14.7-25.3
			c0.1-0.1,0.3-0.2,0.4-0.1c0,0,0.1,0,0.1,0.1L146.8,65.5z"/>
	</g>
</g>
</svg>
