<?xml version="1.0" encoding="utf-8"?>
<!-- Generator: Adobe Illustrator 16.0.0, SVG Export Plug-In . SVG Version: 6.00 Build 0)  -->
<!DOCTYPE svg PUBLIC "-//W3C//DTD SVG 1.1//EN" "http://www.w3.org/Graphics/SVG/1.1/DTD/svg11.dtd">
<svg version="1.1" id="Layer_1" xmlns="http://www.w3.org/2000/svg" xmlns:xlink="http://www.w3.org/1999/xlink" x="0px" y="0px"
	 width="180px" height="180px" viewBox="0 0 180 180" enable-background="new 0 0 180 180" xml:space="preserve">
<g opacity="0.7">
	<path fill="#FFFFFF" d="M57.691,113.172c4.37-0.721,8.73-1.439,13.162-2.172c-0.409,0.936-0.79,1.811-1.175,2.684
		c-0.866,1.971-1.74,3.936-2.593,5.91c-0.112,0.26-0.26,0.348-0.529,0.387c-4.244,0.615-8.485,1.244-12.728,1.863
		c-0.204,0.029-0.334,0.084-0.425,0.288c-3.917,8.817-7.84,17.632-11.763,26.445c-0.026,0.06-0.05,0.121-0.088,0.214
		c0.195,0.025,0.365,0.048,0.535,0.07c14.577,1.914,29.153,3.84,43.734,5.728c1.505,0.194,2.74,1.595,1.936,3.485
		c-1.773,4.169-3.619,8.308-5.439,12.455c-0.616,1.404-1.766,2.039-3.296,1.839c-22.458-2.95-44.916-5.899-67.373-8.851
		c-0.159-0.021-0.316-0.041-0.522-0.067c5.49-12.425,10.965-24.813,16.481-37.296c-4.435,0.73-8.804,1.449-13.247,2.183
		c0.595-1.243,1.152-2.407,1.709-3.573c0.726-1.52,1.458-3.035,2.167-4.563c0.135-0.29,0.312-0.398,0.623-0.449
		c4.155-0.676,8.306-1.37,12.46-2.051c0.25-0.041,0.393-0.127,0.499-0.367c5.008-11.328,10.023-22.652,15.037-33.979
		c2.639-5.962,5.279-11.924,7.916-17.887c0.649-1.467,1.78-2.108,3.378-1.899c5.621,0.737,11.239,1.503,16.865,2.199
		c1.795,0.223,2.763,1.829,1.988,3.581c-6.409,14.508-12.832,29.01-19.251,43.512C57.717,112.947,57.657,113.021,57.691,113.172z"/>
</g>
<g opacity="0.7">
	<path fill="#FFFFFF" d="M132.913,59.542c3.633-0.599,7.259-1.197,10.942-1.806c-0.342,0.778-0.657,1.505-0.979,2.231
		c-0.719,1.638-1.445,3.271-2.154,4.914c-0.095,0.215-0.217,0.289-0.44,0.321c-3.528,0.512-7.056,1.035-10.581,1.549
		c-0.17,0.024-0.278,0.07-0.354,0.24c-3.257,7.331-6.519,14.659-9.779,21.986c-0.021,0.05-0.041,0.101-0.073,0.178
		c0.163,0.021,0.304,0.04,0.444,0.059c12.119,1.591,24.238,3.192,36.36,4.763c1.251,0.162,2.278,1.324,1.61,2.896
		c-1.475,3.467-3.01,6.906-4.521,10.355c-0.513,1.168-1.469,1.695-2.74,1.528c-18.672-2.452-37.342-4.905-56.015-7.358
		c-0.132-0.017-0.263-0.033-0.435-0.057c4.564-10.33,9.117-20.63,13.703-31.007c-3.688,0.608-7.319,1.206-11.014,1.814
		c0.493-1.034,0.957-2.002,1.42-2.971c0.604-1.264,1.213-2.523,1.803-3.793c0.111-0.241,0.26-0.331,0.519-0.374
		c3.454-0.562,6.905-1.139,10.358-1.705c0.207-0.034,0.326-0.105,0.414-0.305c4.164-9.418,8.334-18.834,12.502-28.25
		c2.195-4.957,4.391-9.914,6.582-14.872c0.539-1.22,1.479-1.753,2.81-1.58c4.675,0.613,9.345,1.25,14.021,1.829
		c1.494,0.186,2.297,1.521,1.654,2.977c-5.328,12.061-10.669,24.12-16.007,36.177C132.934,59.356,132.884,59.418,132.913,59.542z"/>
</g>
</svg>
