<?xml version="1.0" encoding="utf-8"?>
<!-- Generator: Adobe Illustrator 16.0.0, SVG Export Plug-In . SVG Version: 6.00 Build 0)  -->
<!DOCTYPE svg PUBLIC "-//W3C//DTD SVG 1.1//EN" "http://www.w3.org/Graphics/SVG/1.1/DTD/svg11.dtd">
<svg version="1.1" id="Layer_1" xmlns="http://www.w3.org/2000/svg" xmlns:xlink="http://www.w3.org/1999/xlink" x="0px" y="0px"
	 width="180px" height="180px" viewBox="0 0 180 180" enable-background="new 0 0 180 180" xml:space="preserve">
<g id="Layer_1_copy_2_1_" display="none">
	<path display="inline" fill="#DB8127" d="M80.354,123.153c0.234-0.079,0.47-0.153,0.713-0.224c3.038-0.822,5.698-2.271,7.753-4.695
		c5.483-6.495,5.204-15.999-0.644-22.236c-3.509-3.74-7.89-6.106-12.588-7.955c-0.779-0.307-0.984-0.623-0.736-1.47
		c1.248-4.23,2.365-8.499,3.666-12.713c0.393-1.275,0.05-1.654-1.13-1.938c-2.121-0.504-4.23-1.096-6.305-1.771
		c-1.105-0.358-1.571-0.191-1.891,1.016c-1.114,4.222-2.374,8.407-3.545,12.617c-0.231,0.838-0.472,1.182-1.451,0.83
		c-1.736-0.628-3.528-1.134-5.321-1.558c-0.9-0.21-0.897-0.583-0.684-1.313c1.227-4.194,2.386-8.409,3.635-12.597
		c0.316-1.063,0.294-1.597-1.009-1.872c-2.172-0.458-4.316-1.095-6.421-1.807c-1.143-0.382-1.568-0.176-1.881,1.003
		c-1.126,4.263-2.386,8.492-3.53,12.753c-0.25,0.912-0.566,1.053-1.466,0.797c-5.526-1.601-11.08-3.117-16.614-4.695
		c-0.725-0.206-1.027-0.125-1.232,0.661c-0.702,2.68-1.453,5.351-2.281,7.998c-0.275,0.879,0.042,1.089,0.763,1.271
		c2.117,0.536,4.237,1.061,6.301,1.8c2.991,1.064,4.199,3.339,3.351,6.351c-3.766,13.342-7.533,26.688-11.297,40.032
		c-0.68,2.409-2.256,3.388-4.669,2.781c-1.916-0.479-3.812-1.043-5.695-1.635c-0.706-0.221-1.012-0.056-1.315,0.616
		c-1.323,2.908-2.656,5.813-4.1,8.664c-0.487,0.971-0.171,1.139,0.674,1.373c5.501,1.546,10.988,3.149,16.492,4.668
		c0.857,0.24,1.034,0.526,0.787,1.38c-1.298,4.431-2.506,8.895-3.805,13.335c-0.245,0.823-0.04,1.102,0.729,1.309
		c2.439,0.644,4.871,1.308,7.278,2.044c0.813,0.241,1.048,0.079,1.274-0.729c1.246-4.537,2.583-9.05,3.836-13.586
		c0.208-0.754,0.455-0.902,1.196-0.661c1.795,0.589,3.611,1.111,5.444,1.587c0.842,0.21,1.003,0.554,0.757,1.373
		c-1.306,4.475-2.558,8.971-3.859,13.442c-0.192,0.664-0.153,0.956,0.604,1.152c2.516,0.665,5.017,1.388,7.511,2.148
		c0.783,0.233,0.978-0.024,1.177-0.751c1.198-4.375,2.487-8.726,3.671-13.107c0.265-1.002,0.553-1.305,1.668-0.98
		c5.278,1.514,10.636,1.992,16.095,0.978c11.087-2.056,20.103-13.61,14.516-26.584c-1.5-3.494-3.593-6.533-6.548-8.916
		C80.303,123.217,80.32,123.162,80.354,123.153z M70.585,137.879c-0.792,3.862-3.353,6.313-7.067,7.531
		c-1.532,0.503-3.124,0.641-4.735,0.596c-4.741-0.045-9.18-1.497-13.621-2.953c-0.675-0.221-1.354-0.438-2.029-0.671
		c-1.848-0.62-1.683-0.266-1.189-2.101c1.599-5.92,3.241-11.827,4.831-17.751c0.22-0.833,0.442-1.129,1.413-0.865
		c4.543,1.24,9.115,2.354,13.416,4.333c1.804,0.825,3.53,1.785,5.079,3.031C69.521,131.298,71.351,134.124,70.585,137.879z
		 M74.404,109.186c-1.06,3.414-3.625,5.476-7.184,6.157c-0.905,0.173-1.821,0.331-2.408,0.275
		c-4.439-0.113-8.277-1.351-12.104-2.619c-2.623-0.871-2.63-0.885-1.9-3.573c1.336-4.942,2.697-9.874,4.021-14.818
		c0.21-0.785,0.439-1.052,1.363-0.806c3.642,0.984,7.339,1.783,10.788,3.384c1.845,0.857,3.57,1.874,5.001,3.339
		C74.374,102.969,75.408,105.926,74.404,109.186z"/>
</g>
<g id="Layer_1_copy_2_2_" display="none">
	<path display="inline" fill="#DB8127" d="M158.225,68.751c0.197-0.066,0.396-0.129,0.599-0.188c2.555-0.691,4.792-1.91,6.52-3.947
		c4.609-5.46,4.375-13.45-0.541-18.694c-2.949-3.144-6.633-5.133-10.584-6.688c-0.655-0.258-0.827-0.523-0.619-1.235
		c1.05-3.557,1.989-7.145,3.082-10.688c0.33-1.072,0.043-1.391-0.949-1.629c-1.783-0.424-3.558-0.921-5.301-1.489
		c-0.929-0.301-1.32-0.161-1.59,0.854c-0.936,3.549-1.995,7.068-2.979,10.607c-0.195,0.704-0.398,0.993-1.221,0.697
		c-1.46-0.528-2.967-0.954-4.475-1.31c-0.757-0.176-0.754-0.49-0.574-1.104c1.032-3.526,2.006-7.069,3.056-10.59
		c0.267-0.895,0.248-1.343-0.848-1.574c-1.825-0.386-3.629-0.92-5.398-1.52c-0.96-0.321-1.318-0.147-1.582,0.843
		c-0.945,3.584-2.004,7.14-2.966,10.722c-0.21,0.767-0.478,0.885-1.233,0.67c-4.646-1.346-9.314-2.621-13.967-3.947
		c-0.609-0.174-0.864-0.105-1.036,0.556c-0.591,2.253-1.222,4.499-1.918,6.724c-0.231,0.739,0.036,0.916,0.643,1.069
		c1.778,0.45,3.562,0.891,5.296,1.513c2.515,0.895,3.53,2.807,2.817,5.339c-3.165,11.216-6.332,22.436-9.498,33.654
		c-0.571,2.025-1.896,2.848-3.925,2.338c-1.609-0.402-3.204-0.877-4.787-1.375c-0.594-0.185-0.852-0.046-1.105,0.518
		c-1.112,2.445-2.233,4.887-3.447,7.284c-0.409,0.816-0.144,0.957,0.567,1.154c4.624,1.299,9.236,2.647,13.864,3.924
		c0.721,0.201,0.869,0.442,0.661,1.16c-1.091,3.725-2.106,7.477-3.198,11.209c-0.206,0.693-0.034,0.928,0.613,1.102
		c2.05,0.541,4.094,1.098,6.118,1.717c0.684,0.203,0.882,0.068,1.071-0.613c1.048-3.813,2.172-7.607,3.224-11.42
		c0.177-0.634,0.383-0.759,1.007-0.557c1.51,0.496,3.036,0.935,4.577,1.335c0.707,0.177,0.844,0.465,0.636,1.155
		c-1.099,3.76-2.15,7.539-3.244,11.301c-0.162,0.557-0.128,0.803,0.509,0.967c2.115,0.559,4.218,1.166,6.313,1.807
		c0.658,0.197,0.822-0.021,0.99-0.631c1.007-3.678,2.091-7.336,3.086-11.02c0.223-0.843,0.465-1.098,1.401-0.824
		c4.438,1.273,8.942,1.674,13.531,0.822c9.322-1.729,16.9-11.443,12.203-22.349c-1.261-2.938-3.021-5.493-5.506-7.496
		C158.183,68.805,158.196,68.759,158.225,68.751z M150.013,81.13c-0.666,3.247-2.818,5.308-5.941,6.332
		c-1.287,0.423-2.625,0.539-3.98,0.501c-3.984-0.038-7.717-1.259-11.45-2.483c-0.567-0.185-1.139-0.367-1.706-0.563
		c-1.554-0.521-1.415-0.224-0.999-1.767c1.343-4.977,2.724-9.942,4.061-14.922c0.186-0.7,0.372-0.95,1.188-0.728
		c3.819,1.042,7.662,1.979,11.278,3.643c1.516,0.693,2.968,1.5,4.27,2.548C149.118,75.598,150.657,77.974,150.013,81.13z
		 M153.224,57.009c-0.892,2.87-3.048,4.604-6.04,5.176c-0.761,0.146-1.53,0.279-2.023,0.232c-3.731-0.095-6.959-1.135-10.176-2.202
		c-2.205-0.732-2.212-0.744-1.598-3.003c1.123-4.155,2.268-8.301,3.379-12.458c0.178-0.66,0.369-0.884,1.146-0.678
		c3.063,0.828,6.17,1.5,9.069,2.845c1.551,0.721,3.001,1.576,4.204,2.807C153.197,51.782,154.067,54.268,153.224,57.009z"/>
</g>
<g display="none">
	<path display="inline" fill-rule="evenodd" clip-rule="evenodd" fill="#2F51A3" d="M69.095,64.77
		c1.092,3.38,1.587,6.894,2.306,10.354c4.252,20.445,8.464,40.901,12.665,61.354c0.081,0.394,0.496,0.849,0,1.258
		c-0.413-0.115-0.691-0.422-0.989-0.704c-1.998-1.888-3.999-3.777-5.983-5.68c-4.959-4.766-9.977-9.466-14.942-14.227
		c-2.225-2.131-4.406-4.314-6.698-6.376c-0.402-0.36-0.897-0.714-0.749-1.396c4.481-14.281,8.97-28.557,13.455-42.833
		C68.359,65.875,68.647,65.28,69.095,64.77z"/>
	<path display="inline" fill-rule="evenodd" clip-rule="evenodd" fill="#2F51A3" d="M69.095,64.77
		c-4.572,14.542-9.146,29.086-13.72,43.63c-0.153,0.491-0.229,1.024-0.671,1.38c-0.032,0.045-0.064,0.09-0.096,0.139
		c-0.409,0.307-0.907,0.307-1.381,0.38c-3.634,0.569-7.273,1.114-10.907,1.692c-8.553,1.361-17.127,2.585-25.677,3.975
		c-0.503,0.08-1.089,0.422-1.533-0.183c3.055-2.928,6.094-5.871,9.167-8.78C38.763,93.286,53.255,79.58,67.752,65.877
		C68.17,65.481,68.506,64.965,69.095,64.77z"/>
	<path display="inline" fill-rule="evenodd" clip-rule="evenodd" fill="#2F51A3" d="M54.704,109.779
		c1.051,0.934,2.124,1.839,3.143,2.807c8.458,8.047,16.903,16.107,25.35,24.169c0.314,0.298,0.717,0.533,0.869,0.98
		c-6.252,0.972-12.501,1.943-18.752,2.91c-6.65,1.024-13.3,2.042-19.95,3.063c-0.289,0.045-0.581,0.045-0.871,0.063
		c-0.452-0.16-0.36-0.547-0.274-0.838c0.314-1.065,0.482-2.167,0.862-3.224c0.874-2.438,1.579-4.933,2.292-7.427
		c0.517-1.812,1.13-3.595,1.65-5.413c0.889-3.098,1.934-6.152,2.864-9.242c0.643-2.132,1.327-4.255,2.003-6.38
		c0.165-0.528,0.296-1.085,0.822-1.405L54.704,109.779z"/>
	<path display="inline" fill-rule="evenodd" clip-rule="evenodd" fill="#2F51A3" d="M54.712,109.842
		c-0.988,3.119-2.098,6.207-2.918,9.37c-0.527,2.03-1.186,4.044-1.854,5.995c-0.762,2.227-1.279,4.532-2.071,6.755
		c-0.809,2.253-1.467,4.62-2.136,6.951c-0.362,1.263-0.736,2.537-1.134,3.797c-0.106,0.338-0.343,0.681-0.106,1.061
		c-0.443,0.284-0.594-0.157-0.799-0.354c-9.385-8.944-18.762-17.899-28.136-26.856c-0.209-0.199-0.39-0.424-0.58-0.645
		c-0.01-0.014,0.011-0.069,0.032-0.086c0.025-0.025,0.067-0.033,0.101-0.048c0.328,0.177,0.657,0.033,0.979-0.017
		c8.802-1.364,17.603-2.74,26.406-4.098C46.567,111.043,50.641,110.449,54.712,109.842z"/>
	<path display="inline" fill-rule="evenodd" clip-rule="evenodd" fill="#2F51A3" d="M43.282,147.62
		c4.688-0.718,9.378-1.439,14.064-2.153c6.305-0.965,12.613-1.923,18.921-2.881c0.396-0.059,0.792-0.101,1.498-0.188
		c-0.453,0.362-0.68,0.561-0.922,0.736c-11.485,8.325-22.97,16.649-34.455,24.977c-2.363,1.712-4.726,3.43-7.092,5.137
		c-0.075,0.052-0.208,0.033-0.313,0.047c-0.166-0.563-0.037-1.1,0.13-1.634c2.369-7.535,4.734-15.073,7.115-22.603
		C42.411,148.474,42.522,147.798,43.282,147.62z"/>
	<path display="inline" fill-rule="evenodd" clip-rule="evenodd" fill="#2F51A3" d="M43.282,147.62
		c-0.399,0.331-0.486,0.818-0.629,1.272c-2.559,8.135-5.113,16.271-7.67,24.402c-0.619-0.902-0.807-1.974-1.157-2.977
		c-5.298-15.195-10.583-30.396-15.87-45.594c-0.108-0.313-0.197-0.635-0.389-1.266c0.798,0.738,1.389,1.266,1.966,1.813
		c7.627,7.225,15.25,14.455,22.875,21.683C42.676,147.205,42.902,147.516,43.282,147.62z"/>
</g>
<g display="none">
	<path display="inline" fill-rule="evenodd" clip-rule="evenodd" fill="#2F51A3" d="M149.955,13.512
		c0.962,2.979,1.399,6.077,2.033,9.127c3.748,18.024,7.462,36.058,11.165,54.09c0.071,0.347,0.437,0.748,0,1.108
		c-0.364-0.102-0.609-0.372-0.872-0.621c-1.762-1.664-3.525-3.33-5.275-5.007c-4.371-4.201-8.795-8.345-13.173-12.542
		c-1.961-1.879-3.884-3.804-5.905-5.621c-0.354-0.318-0.791-0.629-0.659-1.23c3.95-12.59,7.907-25.175,11.86-37.762
		C149.308,14.486,149.561,13.962,149.955,13.512z"/>
	<path display="inline" fill-rule="evenodd" clip-rule="evenodd" fill="#2F51A3" d="M149.955,13.512
		c-4.031,12.82-8.063,25.642-12.095,38.464c-0.136,0.433-0.202,0.903-0.592,1.216c-0.028,0.04-0.058,0.079-0.084,0.122
		c-0.361,0.271-0.8,0.271-1.218,0.335c-3.203,0.502-6.412,0.982-9.615,1.492c-7.54,1.2-15.1,2.279-22.638,3.504
		c-0.442,0.07-0.96,0.372-1.351-0.161c2.694-2.581,5.373-5.176,8.081-7.74c12.771-12.092,25.547-24.175,38.327-36.255
		C149.14,14.139,149.437,13.684,149.955,13.512z"/>
	<path display="inline" fill-rule="evenodd" clip-rule="evenodd" fill="#2F51A3" d="M137.269,53.192
		c0.927,0.823,1.873,1.621,2.771,2.474c7.456,7.094,14.901,14.2,22.349,21.307c0.276,0.263,0.631,0.47,0.766,0.864
		c-5.513,0.857-11.021,1.713-16.532,2.566c-5.862,0.902-11.725,1.8-17.588,2.7c-0.254,0.04-0.512,0.04-0.768,0.055
		c-0.398-0.141-0.317-0.482-0.242-0.739c0.277-0.939,0.426-1.91,0.761-2.842c0.771-2.15,1.392-4.348,2.021-6.547
		c0.455-1.597,0.996-3.169,1.455-4.772c0.783-2.731,1.705-5.424,2.525-8.147c0.565-1.879,1.17-3.751,1.766-5.625
		c0.145-0.465,0.261-0.956,0.725-1.239L137.269,53.192z"/>
	<path display="inline" fill-rule="evenodd" clip-rule="evenodd" fill="#2F51A3" d="M137.275,53.247
		c-0.871,2.75-1.85,5.472-2.572,8.261c-0.465,1.79-1.045,3.565-1.636,5.285c-0.671,1.963-1.128,3.996-1.826,5.955
		c-0.712,1.986-1.293,4.073-1.883,6.128c-0.318,1.113-0.648,2.237-0.998,3.347c-0.095,0.297-0.304,0.6-0.095,0.935
		c-0.392,0.25-0.523-0.139-0.704-0.312c-8.273-7.885-16.54-15.78-24.805-23.676c-0.184-0.175-0.344-0.374-0.512-0.568
		c-0.009-0.013,0.011-0.062,0.029-0.076c0.022-0.023,0.059-0.03,0.089-0.042c0.289,0.156,0.579,0.029,0.863-0.015
		c7.759-1.203,15.518-2.416,23.278-3.613C130.096,54.306,133.687,53.783,137.275,53.247z"/>
	<path display="inline" fill-rule="evenodd" clip-rule="evenodd" fill="#2F51A3" d="M127.199,86.552
		c4.134-0.633,8.268-1.269,12.398-1.898c5.559-0.851,11.12-1.695,16.682-2.54c0.348-0.052,0.698-0.089,1.32-0.166
		c-0.4,0.319-0.6,0.495-0.813,0.649c-10.126,7.339-20.25,14.679-30.375,22.019c-2.084,1.51-4.167,3.023-6.253,4.528
		c-0.067,0.046-0.184,0.029-0.276,0.042c-0.146-0.496-0.032-0.97,0.114-1.44c2.089-6.642,4.174-13.289,6.272-19.926
		C126.431,87.304,126.529,86.708,127.199,86.552z"/>
	<path display="inline" fill-rule="evenodd" clip-rule="evenodd" fill="#2F51A3" d="M127.199,86.552
		c-0.353,0.292-0.429,0.722-0.555,1.122c-2.255,7.171-4.508,14.345-6.762,21.513c-0.546-0.796-0.711-1.74-1.02-2.625
		c-4.672-13.396-9.33-26.796-13.991-40.194c-0.096-0.276-0.174-0.56-0.342-1.116c0.702,0.651,1.224,1.116,1.732,1.598
		c6.724,6.369,13.444,12.743,20.167,19.115C126.664,86.186,126.864,86.46,127.199,86.552z"/>
</g>
<g opacity="0.7">
	<path fill-rule="evenodd" clip-rule="evenodd" fill="#FFFFFF" d="M57.691,113.172c4.37-0.721,8.73-1.439,13.162-2.172
		c-0.409,0.936-0.79,1.811-1.175,2.684c-0.866,1.97-1.74,3.935-2.593,5.91c-0.112,0.259-0.26,0.348-0.529,0.387
		c-4.244,0.615-8.485,1.244-12.728,1.863c-0.204,0.029-0.334,0.084-0.425,0.288c-3.917,8.817-7.84,17.632-11.763,26.445
		c-0.026,0.06-0.05,0.121-0.088,0.214c0.195,0.025,0.365,0.048,0.535,0.07c14.577,1.914,29.153,3.84,43.734,5.728
		c1.505,0.194,2.74,1.594,1.936,3.485c-1.773,4.169-3.619,8.308-5.439,12.455c-0.616,1.405-1.766,2.04-3.296,1.839
		c-22.458-2.95-44.916-5.899-67.373-8.85c-0.159-0.021-0.316-0.041-0.522-0.068c5.49-12.425,10.965-24.813,16.481-37.296
		c-4.435,0.731-8.804,1.45-13.247,2.183c0.595-1.243,1.152-2.408,1.709-3.573c0.726-1.52,1.458-3.035,2.167-4.563
		c0.135-0.29,0.312-0.398,0.623-0.449c4.155-0.676,8.306-1.37,12.46-2.051c0.25-0.041,0.393-0.127,0.499-0.367
		c5.008-11.328,10.023-22.653,15.037-33.979c2.639-5.962,5.279-11.924,7.916-17.887c0.649-1.467,1.78-2.108,3.378-1.899
		c5.621,0.737,11.239,1.503,16.865,2.199c1.795,0.223,2.763,1.829,1.988,3.581c-6.409,14.508-12.832,29.011-19.251,43.513
		C57.717,112.947,57.657,113.022,57.691,113.172z"/>
</g>
<g opacity="0.7">
	<path fill-rule="evenodd" clip-rule="evenodd" fill="#FFFFFF" d="M132.913,59.542c3.633-0.599,7.259-1.197,10.942-1.806
		c-0.341,0.778-0.657,1.505-0.978,2.231c-0.719,1.638-1.445,3.271-2.155,4.914c-0.094,0.215-0.216,0.289-0.44,0.321
		c-3.528,0.512-7.055,1.035-10.581,1.549c-0.17,0.024-0.278,0.07-0.354,0.24c-3.256,7.331-6.518,14.659-9.778,21.986
		c-0.022,0.05-0.042,0.101-0.074,0.178c0.163,0.021,0.304,0.04,0.445,0.059c12.119,1.591,24.238,3.192,36.36,4.762
		c1.251,0.162,2.278,1.325,1.61,2.897c-1.475,3.467-3.009,6.907-4.522,10.355c-0.512,1.168-1.468,1.696-2.74,1.529
		c-18.672-2.453-37.342-4.905-56.014-7.358c-0.132-0.017-0.263-0.034-0.435-0.057c4.564-10.33,9.117-20.63,13.703-31.007
		c-3.688,0.608-7.319,1.206-11.014,1.814c0.494-1.034,0.958-2.002,1.421-2.971c0.603-1.264,1.212-2.523,1.802-3.793
		c0.112-0.241,0.26-0.331,0.519-0.374c3.454-0.562,6.905-1.139,10.359-1.705c0.207-0.034,0.326-0.105,0.414-0.305
		c4.164-9.418,8.334-18.834,12.502-28.25c2.194-4.957,4.39-9.914,6.582-14.872c0.539-1.22,1.479-1.753,2.809-1.58
		c4.674,0.613,9.344,1.25,14.021,1.829c1.493,0.186,2.297,1.521,1.653,2.977c-5.328,12.061-10.668,24.12-16.006,36.177
		C132.934,59.356,132.884,59.418,132.913,59.542z"/>
</g>
</svg>
