<?xml version="1.0" encoding="utf-8"?>
<!-- Generator: Adobe Illustrator 16.0.0, SVG Export Plug-In . SVG Version: 6.00 Build 0)  -->
<!DOCTYPE svg PUBLIC "-//W3C//DTD SVG 1.1//EN" "http://www.w3.org/Graphics/SVG/1.1/DTD/svg11.dtd">
<svg version="1.1" id="Layer_1" xmlns="http://www.w3.org/2000/svg" xmlns:xlink="http://www.w3.org/1999/xlink" x="0px" y="0px"
	 width="180px" height="180px" viewBox="0 0 180 180" enable-background="new 0 0 180 180" xml:space="preserve">
<g id="Layer_1_copy_2_1_" display="none">
	<path display="inline" fill="#DB8127" d="M80.354,123.153c0.234-0.079,0.47-0.153,0.713-0.224c3.038-0.822,5.698-2.271,7.753-4.695
		c5.483-6.495,5.204-15.999-0.644-22.236c-3.509-3.74-7.89-6.106-12.588-7.955c-0.779-0.307-0.984-0.623-0.736-1.47
		c1.248-4.23,2.365-8.499,3.666-12.713c0.393-1.275,0.05-1.654-1.13-1.938c-2.121-0.504-4.23-1.096-6.305-1.771
		c-1.105-0.358-1.571-0.191-1.891,1.016c-1.114,4.222-2.374,8.407-3.545,12.617c-0.231,0.838-0.472,1.182-1.451,0.83
		c-1.736-0.628-3.528-1.134-5.321-1.558c-0.9-0.21-0.897-0.583-0.684-1.313c1.227-4.194,2.386-8.409,3.635-12.597
		c0.316-1.063,0.294-1.597-1.009-1.872c-2.172-0.458-4.316-1.095-6.421-1.807c-1.143-0.382-1.568-0.176-1.881,1.003
		c-1.126,4.263-2.386,8.492-3.53,12.753c-0.25,0.912-0.566,1.053-1.466,0.797c-5.526-1.601-11.08-3.117-16.614-4.695
		c-0.725-0.206-1.027-0.125-1.232,0.661c-0.702,2.68-1.453,5.351-2.281,7.998c-0.275,0.879,0.042,1.089,0.763,1.271
		c2.117,0.536,4.237,1.061,6.301,1.8c2.991,1.064,4.199,3.339,3.351,6.351c-3.766,13.342-7.533,26.688-11.297,40.032
		c-0.68,2.409-2.256,3.388-4.669,2.781c-1.916-0.479-3.812-1.043-5.695-1.635c-0.706-0.221-1.012-0.056-1.315,0.616
		c-1.323,2.908-2.656,5.813-4.1,8.664c-0.487,0.971-0.171,1.139,0.674,1.373c5.501,1.546,10.988,3.149,16.492,4.668
		c0.857,0.24,1.034,0.526,0.787,1.38c-1.298,4.431-2.506,8.895-3.805,13.335c-0.245,0.823-0.04,1.102,0.729,1.309
		c2.439,0.644,4.871,1.308,7.278,2.044c0.813,0.241,1.048,0.079,1.274-0.729c1.246-4.537,2.583-9.05,3.836-13.586
		c0.208-0.754,0.455-0.902,1.196-0.661c1.795,0.589,3.611,1.111,5.444,1.587c0.842,0.21,1.003,0.554,0.757,1.373
		c-1.306,4.475-2.558,8.971-3.859,13.442c-0.192,0.664-0.153,0.956,0.604,1.152c2.516,0.665,5.017,1.388,7.511,2.148
		c0.783,0.233,0.978-0.024,1.177-0.751c1.198-4.375,2.487-8.726,3.671-13.107c0.265-1.002,0.553-1.305,1.668-0.98
		c5.278,1.514,10.636,1.992,16.095,0.978c11.087-2.056,20.103-13.61,14.516-26.584c-1.5-3.494-3.593-6.533-6.548-8.916
		C80.303,123.217,80.32,123.162,80.354,123.153z M70.585,137.879c-0.792,3.862-3.353,6.313-7.067,7.531
		c-1.532,0.503-3.124,0.641-4.735,0.596c-4.741-0.045-9.18-1.497-13.621-2.953c-0.675-0.221-1.354-0.438-2.029-0.671
		c-1.848-0.62-1.683-0.266-1.189-2.101c1.599-5.92,3.241-11.827,4.831-17.751c0.22-0.833,0.442-1.129,1.413-0.865
		c4.543,1.24,9.115,2.354,13.416,4.333c1.804,0.825,3.53,1.785,5.079,3.031C69.521,131.298,71.351,134.124,70.585,137.879z
		 M74.404,109.186c-1.06,3.414-3.625,5.476-7.184,6.157c-0.905,0.173-1.821,0.331-2.408,0.275
		c-4.439-0.113-8.277-1.351-12.104-2.619c-2.623-0.871-2.63-0.885-1.9-3.573c1.336-4.942,2.697-9.874,4.021-14.818
		c0.21-0.785,0.439-1.052,1.363-0.806c3.642,0.984,7.339,1.783,10.788,3.384c1.845,0.857,3.57,1.874,5.001,3.339
		C74.374,102.969,75.408,105.926,74.404,109.186z"/>
</g>
<g id="Layer_1_copy_2_2_" display="none">
	<path display="inline" fill="#DB8127" d="M158.225,68.751c0.197-0.066,0.396-0.129,0.599-0.188c2.555-0.691,4.792-1.91,6.52-3.947
		c4.609-5.46,4.375-13.45-0.541-18.694c-2.949-3.144-6.633-5.133-10.584-6.688c-0.655-0.258-0.827-0.523-0.619-1.235
		c1.05-3.557,1.989-7.145,3.082-10.688c0.33-1.072,0.043-1.391-0.949-1.629c-1.783-0.424-3.558-0.921-5.301-1.489
		c-0.929-0.301-1.32-0.161-1.59,0.854c-0.936,3.549-1.995,7.068-2.979,10.607c-0.195,0.704-0.398,0.993-1.221,0.697
		c-1.46-0.528-2.967-0.954-4.475-1.31c-0.757-0.176-0.754-0.49-0.574-1.104c1.032-3.526,2.006-7.069,3.056-10.59
		c0.267-0.895,0.248-1.343-0.848-1.574c-1.825-0.386-3.629-0.92-5.398-1.52c-0.96-0.321-1.318-0.147-1.582,0.843
		c-0.945,3.584-2.004,7.14-2.966,10.722c-0.21,0.767-0.478,0.885-1.233,0.67c-4.646-1.346-9.314-2.621-13.967-3.947
		c-0.609-0.174-0.864-0.105-1.036,0.556c-0.591,2.253-1.222,4.499-1.918,6.724c-0.231,0.739,0.036,0.916,0.643,1.069
		c1.778,0.45,3.562,0.891,5.296,1.513c2.515,0.895,3.53,2.807,2.817,5.339c-3.165,11.216-6.332,22.436-9.498,33.654
		c-0.571,2.025-1.896,2.848-3.925,2.338c-1.609-0.402-3.204-0.877-4.787-1.375c-0.594-0.185-0.852-0.046-1.105,0.518
		c-1.112,2.445-2.233,4.887-3.447,7.284c-0.409,0.816-0.144,0.957,0.567,1.154c4.624,1.299,9.236,2.647,13.864,3.924
		c0.721,0.201,0.869,0.442,0.661,1.16c-1.091,3.725-2.106,7.477-3.198,11.209c-0.206,0.693-0.034,0.928,0.613,1.102
		c2.05,0.541,4.094,1.098,6.118,1.717c0.684,0.203,0.882,0.068,1.071-0.613c1.048-3.813,2.172-7.607,3.224-11.42
		c0.177-0.634,0.383-0.759,1.007-0.557c1.51,0.496,3.036,0.935,4.577,1.335c0.707,0.177,0.844,0.465,0.636,1.155
		c-1.099,3.76-2.15,7.539-3.244,11.301c-0.162,0.557-0.128,0.803,0.509,0.967c2.115,0.559,4.218,1.166,6.313,1.807
		c0.658,0.197,0.822-0.021,0.99-0.631c1.007-3.678,2.091-7.336,3.086-11.02c0.223-0.843,0.465-1.098,1.401-0.824
		c4.438,1.273,8.942,1.674,13.531,0.822c9.322-1.729,16.9-11.443,12.203-22.349c-1.261-2.938-3.021-5.493-5.506-7.496
		C158.183,68.805,158.196,68.759,158.225,68.751z M150.013,81.13c-0.666,3.247-2.818,5.308-5.941,6.332
		c-1.287,0.423-2.625,0.539-3.98,0.501c-3.984-0.038-7.717-1.259-11.45-2.483c-0.567-0.185-1.139-0.367-1.706-0.563
		c-1.554-0.521-1.415-0.224-0.999-1.767c1.343-4.977,2.724-9.942,4.061-14.922c0.186-0.7,0.372-0.95,1.188-0.728
		c3.819,1.042,7.662,1.979,11.278,3.643c1.516,0.693,2.968,1.5,4.27,2.548C149.118,75.598,150.657,77.974,150.013,81.13z
		 M153.224,57.009c-0.892,2.87-3.048,4.604-6.04,5.176c-0.761,0.146-1.53,0.279-2.023,0.232c-3.731-0.095-6.959-1.135-10.176-2.202
		c-2.205-0.732-2.212-0.744-1.598-3.003c1.123-4.155,2.268-8.301,3.379-12.458c0.178-0.66,0.369-0.884,1.146-0.678
		c3.063,0.828,6.17,1.5,9.069,2.845c1.551,0.721,3.001,1.576,4.204,2.807C153.197,51.782,154.067,54.268,153.224,57.009z"/>
</g>
<g display="none" opacity="0.7">
	<path display="inline" fill-rule="evenodd" clip-rule="evenodd" fill="#8F9DAA" d="M149.955,13.512
		c0.962,2.979,1.399,6.077,2.033,9.127c3.748,18.024,7.462,36.058,11.165,54.09c0.071,0.347,0.437,0.748,0,1.108
		c-0.364-0.102-0.609-0.372-0.872-0.621c-1.762-1.664-3.525-3.33-5.275-5.007c-4.371-4.201-8.795-8.345-13.173-12.542
		c-1.961-1.879-3.884-3.804-5.905-5.621c-0.354-0.318-0.791-0.629-0.659-1.23c3.95-12.59,7.907-25.175,11.86-37.762
		C149.308,14.486,149.561,13.962,149.955,13.512z"/>
	<path display="inline" fill-rule="evenodd" clip-rule="evenodd" fill="#8398A8" d="M149.955,13.512
		c-4.031,12.82-8.063,25.642-12.095,38.464c-0.136,0.433-0.202,0.903-0.592,1.216c-0.028,0.04-0.058,0.079-0.084,0.122
		c-0.361,0.271-0.8,0.271-1.218,0.335c-3.203,0.502-6.412,0.982-9.615,1.492c-7.54,1.2-15.1,2.279-22.638,3.504
		c-0.442,0.07-0.96,0.372-1.351-0.161c2.694-2.581,5.373-5.176,8.081-7.74c12.771-12.092,25.547-24.175,38.327-36.255
		C149.14,14.139,149.437,13.684,149.955,13.512z"/>
	<path display="inline" fill-rule="evenodd" clip-rule="evenodd" fill="#6A797F" d="M137.269,53.192
		c0.927,0.823,1.873,1.621,2.771,2.474c7.456,7.094,14.901,14.2,22.349,21.307c0.276,0.263,0.631,0.47,0.766,0.864
		c-5.513,0.857-11.021,1.713-16.532,2.566c-5.862,0.902-11.725,1.8-17.588,2.7c-0.254,0.04-0.512,0.04-0.768,0.055
		c-0.398-0.141-0.317-0.482-0.242-0.739c0.277-0.939,0.426-1.91,0.761-2.842c0.771-2.15,1.392-4.348,2.021-6.547
		c0.455-1.597,0.996-3.169,1.455-4.772c0.783-2.731,1.705-5.424,2.525-8.147c0.565-1.879,1.17-3.751,1.766-5.625
		c0.145-0.465,0.261-0.956,0.725-1.239L137.269,53.192z"/>
	<path display="inline" fill-rule="evenodd" clip-rule="evenodd" fill="#74838C" d="M137.275,53.247
		c-0.871,2.75-1.85,5.472-2.572,8.261c-0.465,1.79-1.045,3.565-1.636,5.285c-0.671,1.963-1.128,3.996-1.826,5.955
		c-0.712,1.986-1.293,4.073-1.883,6.128c-0.318,1.113-0.648,2.237-0.998,3.347c-0.095,0.297-0.304,0.6-0.095,0.935
		c-0.392,0.25-0.523-0.139-0.704-0.312c-8.273-7.885-16.54-15.78-24.805-23.676c-0.184-0.175-0.344-0.374-0.512-0.568
		c-0.009-0.013,0.011-0.062,0.029-0.076c0.022-0.023,0.059-0.03,0.089-0.042c0.289,0.156,0.579,0.029,0.863-0.015
		c7.759-1.203,15.518-2.416,23.278-3.613C130.096,54.306,133.687,53.783,137.275,53.247z"/>
	<path display="inline" fill-rule="evenodd" clip-rule="evenodd" fill="#8398A8" d="M127.199,86.552
		c4.134-0.633,8.268-1.269,12.398-1.898c5.559-0.851,11.12-1.695,16.682-2.54c0.348-0.052,0.698-0.089,1.32-0.166
		c-0.4,0.319-0.6,0.495-0.813,0.649c-10.126,7.339-20.25,14.679-30.375,22.019c-2.084,1.51-4.167,3.023-6.253,4.528
		c-0.067,0.046-0.184,0.029-0.276,0.042c-0.146-0.496-0.032-0.97,0.114-1.44c2.089-6.642,4.174-13.289,6.272-19.926
		C126.431,87.304,126.529,86.708,127.199,86.552z"/>
	<path display="inline" fill-rule="evenodd" clip-rule="evenodd" fill="#8F9DAA" d="M127.199,86.552
		c-0.353,0.292-0.429,0.722-0.555,1.122c-2.255,7.171-4.508,14.345-6.762,21.513c-0.546-0.796-0.711-1.74-1.02-2.625
		c-4.672-13.396-9.33-26.796-13.991-40.194c-0.096-0.276-0.174-0.56-0.342-1.116c0.702,0.651,1.224,1.116,1.732,1.598
		c6.724,6.369,13.444,12.743,20.167,19.115C126.664,86.186,126.864,86.46,127.199,86.552z"/>
</g>
<g display="none" opacity="0.7">
	<path display="inline" fill-rule="evenodd" clip-rule="evenodd" fill="#FFFFFF" d="M57.691,113.172
		c4.37-0.721,8.73-1.439,13.162-2.172c-0.409,0.936-0.79,1.811-1.175,2.684c-0.866,1.97-1.74,3.935-2.593,5.91
		c-0.112,0.259-0.26,0.348-0.529,0.387c-4.244,0.615-8.485,1.244-12.728,1.863c-0.204,0.029-0.334,0.084-0.425,0.288
		c-3.917,8.817-7.84,17.632-11.763,26.445c-0.026,0.06-0.05,0.121-0.088,0.214c0.195,0.025,0.365,0.048,0.535,0.07
		c14.577,1.914,29.153,3.84,43.734,5.728c1.505,0.194,2.74,1.594,1.936,3.485c-1.773,4.169-3.619,8.308-5.439,12.455
		c-0.616,1.405-1.766,2.04-3.296,1.839c-22.458-2.95-44.916-5.899-67.373-8.85c-0.159-0.021-0.316-0.041-0.522-0.068
		c5.49-12.425,10.965-24.813,16.481-37.296c-4.435,0.731-8.804,1.45-13.247,2.183c0.595-1.243,1.152-2.408,1.709-3.573
		c0.726-1.52,1.458-3.035,2.167-4.563c0.135-0.29,0.312-0.398,0.623-0.449c4.155-0.676,8.306-1.37,12.46-2.051
		c0.25-0.041,0.393-0.127,0.499-0.367c5.008-11.328,10.023-22.653,15.037-33.979c2.639-5.962,5.279-11.924,7.916-17.887
		c0.649-1.467,1.78-2.108,3.378-1.899c5.621,0.737,11.239,1.503,16.865,2.199c1.795,0.223,2.763,1.829,1.988,3.581
		c-6.409,14.508-12.832,29.011-19.251,43.513C57.717,112.947,57.657,113.022,57.691,113.172z"/>
</g>
<g display="none" opacity="0.7">
	<path display="inline" fill-rule="evenodd" clip-rule="evenodd" fill="#FFFFFF" d="M132.913,59.542
		c3.633-0.599,7.259-1.197,10.942-1.806c-0.341,0.778-0.657,1.505-0.978,2.231c-0.719,1.638-1.445,3.271-2.155,4.914
		c-0.094,0.215-0.216,0.289-0.44,0.321c-3.528,0.512-7.055,1.035-10.581,1.549c-0.17,0.024-0.278,0.07-0.354,0.24
		c-3.256,7.331-6.518,14.659-9.778,21.986c-0.022,0.05-0.042,0.101-0.074,0.178c0.163,0.021,0.304,0.04,0.445,0.059
		c12.119,1.591,24.238,3.192,36.36,4.762c1.251,0.162,2.278,1.325,1.61,2.897c-1.475,3.467-3.009,6.907-4.522,10.355
		c-0.512,1.168-1.468,1.696-2.74,1.529c-18.672-2.453-37.342-4.905-56.014-7.358c-0.132-0.017-0.263-0.034-0.435-0.057
		c4.564-10.33,9.117-20.63,13.703-31.007c-3.688,0.608-7.319,1.206-11.014,1.814c0.494-1.034,0.958-2.002,1.421-2.971
		c0.603-1.264,1.212-2.523,1.802-3.793c0.112-0.241,0.26-0.331,0.519-0.374c3.454-0.562,6.905-1.139,10.359-1.705
		c0.207-0.034,0.326-0.105,0.414-0.305c4.164-9.418,8.334-18.834,12.502-28.25c2.194-4.957,4.39-9.914,6.582-14.872
		c0.539-1.22,1.479-1.753,2.809-1.58c4.674,0.613,9.344,1.25,14.021,1.829c1.493,0.186,2.297,1.521,1.653,2.977
		c-5.328,12.061-10.668,24.12-16.006,36.177C132.934,59.356,132.884,59.418,132.913,59.542z"/>
</g>
<g display="none">
	<path display="inline" fill-rule="evenodd" clip-rule="evenodd" fill="#DA8128" d="M101.308,135.53
		c-0.551,0.365-1.082,0.764-1.654,1.096c-10.774,6.228-21.553,12.449-32.332,18.672c-2.133,1.231-2.694,1.076-3.945-1.091
		c-1.772-3.066-3.546-6.132-5.311-9.203c-0.829-1.441-0.59-2.325,0.857-3.161c6.687-3.866,13.375-7.725,20.062-11.588
		c1.322-0.764,1.413-1.104,0.651-2.427c-3.811-6.605-7.626-13.21-11.438-19.815c-1.026-1.777-0.825-2.541,0.942-3.563
		c3.122-1.805,6.244-3.608,9.369-5.408c1.594-0.918,2.402-0.713,3.305,0.852c6.401,11.081,12.8,22.162,19.191,33.247
		c0.234,0.407,0.401,0.853,0.6,1.28C101.506,134.79,101.407,135.16,101.308,135.53z"/>
	<path display="inline" fill-rule="evenodd" clip-rule="evenodd" fill="#DA8128" d="M6.892,109.043
		c0.524-0.351,1.031-0.731,1.574-1.045C19.352,101.705,30.24,95.42,41.13,89.134c1.795-1.037,2.498-0.843,3.552,0.98
		c1.805,3.122,3.61,6.243,5.407,9.369c0.889,1.546,0.66,2.399-0.896,3.3c-6.658,3.85-13.32,7.691-19.979,11.538
		c-1.323,0.765-1.412,1.097-0.649,2.421c3.813,6.605,7.627,13.209,11.439,19.814c1.022,1.772,0.817,2.552-0.942,3.569
		c-3.121,1.806-6.244,3.609-9.368,5.408c-1.597,0.919-2.401,0.709-3.306-0.855c-6.383-11.054-12.766-22.108-19.143-33.166
		c-0.25-0.433-0.435-0.906-0.65-1.36C6.694,109.782,6.793,109.412,6.892,109.043z"/>
	<path display="inline" fill-rule="evenodd" clip-rule="evenodd" fill="#DA8128" d="M67.344,75.079c0.393,0.419,0.714,0.886,1,1.386
		c1.792,3.125,3.601,6.241,5.398,9.364c0.898,1.56,0.676,2.415-0.859,3.304c-3.228,1.869-6.46,3.733-9.691,5.596
		c-0.555,0.321-1.11,0.655-1.788,0.343c-0.245-0.437-0.094-0.871,0.02-1.298c1.573-5.902,3.155-11.801,4.742-17.7
		c0.115-0.428,0.212-0.875,0.624-1.145C66.974,74.979,67.159,75.029,67.344,75.079z"/>
	<path display="inline" fill-rule="evenodd" clip-rule="evenodd" fill="#DA8128" d="M46.818,149.505
		c0.617,0.045,0.954,0.465,1.231,0.944c1.965,3.393,3.934,6.785,5.88,10.19c0.708,1.238,0.451,2.161-0.802,2.893
		c-3.332,1.943-6.677,3.868-10.024,5.787c-0.354,0.202-0.757,0.316-1.138,0.472c-0.185-0.05-0.37-0.1-0.555-0.149
		c-0.221-0.44-0.083-0.873,0.032-1.302c1.575-5.902,3.156-11.803,4.744-17.7C46.302,150.213,46.389,149.761,46.818,149.505z"/>
	<path display="inline" fill-rule="evenodd" clip-rule="evenodd" fill="#DA8128" d="M46.818,149.505
		c-1.802,6.713-3.604,13.425-5.407,20.137c-0.185-0.049-0.37-0.099-0.555-0.148c-0.555-0.66-0.946-1.426-1.375-2.167
		c-1.692-2.928-3.387-5.854-5.071-8.786c-0.751-1.308-0.49-2.273,0.825-3.036c3.257-1.887,6.519-3.767,9.78-5.647
		C45.574,149.534,46.144,149.245,46.818,149.505z"/>
	<path display="inline" fill-rule="evenodd" clip-rule="evenodd" fill="#DA8128" d="M66.789,74.93
		c-1.794,6.715-3.589,13.429-5.385,20.143c-0.674-0.102-1.03-0.591-1.338-1.123c-1.901-3.285-3.807-6.569-5.691-9.863
		c-0.769-1.345-0.511-2.282,0.801-3.042c3.312-1.92,6.627-3.833,9.946-5.739c0.354-0.203,0.741-0.35,1.112-0.523
		C66.419,74.831,66.604,74.88,66.789,74.93z"/>
	<path display="inline" fill-rule="evenodd" clip-rule="evenodd" fill="#DA8128" d="M56.777,112.291
		c0.615,0.022,0.962,0.4,1.249,0.897c1.968,3.421,3.956,6.83,5.914,10.257c0.661,1.158,0.415,2.081-0.728,2.748
		c-3.438,2.003-6.89,3.979-10.332,5.976c-0.478,0.278-0.943,0.354-1.444,0.093c-0.238-0.438-0.091-0.873,0.022-1.3
		c1.558-5.844,3.124-11.686,4.695-17.524C56.27,113.008,56.369,112.564,56.777,112.291z"/>
	<path display="inline" fill-rule="evenodd" clip-rule="evenodd" fill="#DA8128" d="M56.777,112.291
		c-1.781,6.656-3.561,13.314-5.341,19.971c-0.636,0.007-0.966-0.419-1.243-0.899c-1.977-3.416-3.959-6.829-5.916-10.256
		c-0.602-1.055-0.328-2.093,0.714-2.702c3.408-1.991,6.832-3.955,10.251-5.927C55.726,112.199,56.224,112.012,56.777,112.291z"/>
</g>
<g display="none">
	<path display="inline" fill-rule="evenodd" clip-rule="evenodd" fill="#DA8128" d="M162.499,97.356
		c-0.39,0.259-0.767,0.541-1.173,0.776c-7.639,4.416-15.281,8.827-22.923,13.239c-1.513,0.873-1.91,0.763-2.798-0.773
		c-1.256-2.174-2.515-4.348-3.765-6.524c-0.588-1.022-0.419-1.649,0.607-2.242c4.74-2.741,9.482-5.478,14.224-8.217
		c0.938-0.541,1.003-0.782,0.463-1.72c-2.703-4.684-5.408-9.366-8.109-14.05c-0.729-1.26-0.586-1.801,0.667-2.526
		c2.213-1.279,4.427-2.558,6.643-3.834c1.13-0.651,1.704-0.505,2.344,0.604c4.538,7.856,9.075,15.713,13.606,23.573
		c0.166,0.288,0.285,0.604,0.426,0.907C162.64,96.831,162.57,97.095,162.499,97.356z"/>
	<path display="inline" fill-rule="evenodd" clip-rule="evenodd" fill="#DA8128" d="M95.557,78.576
		c0.372-0.249,0.73-0.519,1.117-0.741c7.717-4.462,15.438-8.918,23.158-13.375c1.272-0.735,1.771-0.598,2.519,0.695
		c1.28,2.213,2.561,4.426,3.834,6.643c0.631,1.096,0.468,1.701-0.635,2.339c-4.722,2.729-9.444,5.454-14.167,8.181
		c-0.938,0.542-1.001,0.777-0.46,1.716c2.703,4.684,5.408,9.365,8.111,14.049c0.724,1.258,0.579,1.81-0.668,2.531
		c-2.213,1.28-4.427,2.56-6.643,3.835c-1.132,0.65-1.702,0.503-2.343-0.606c-4.526-7.838-9.053-15.676-13.574-23.516
		c-0.178-0.307-0.308-0.643-0.461-0.964C95.416,79.101,95.486,78.838,95.557,78.576z"/>
	<path display="inline" fill-rule="evenodd" clip-rule="evenodd" fill="#DA8128" d="M138.418,54.495
		c0.279,0.297,0.507,0.628,0.71,0.983c1.271,2.215,2.553,4.425,3.827,6.639c0.637,1.106,0.479,1.712-0.608,2.343
		c-2.289,1.325-4.581,2.647-6.872,3.968c-0.393,0.228-0.787,0.465-1.268,0.243c-0.174-0.31-0.066-0.618,0.014-0.92
		c1.116-4.185,2.236-8.367,3.362-12.549c0.082-0.304,0.149-0.62,0.442-0.812C138.156,54.425,138.287,54.46,138.418,54.495z"/>
	<path display="inline" fill-rule="evenodd" clip-rule="evenodd" fill="#DA8128" d="M123.865,107.265
		c0.438,0.031,0.677,0.329,0.873,0.67c1.394,2.405,2.79,4.811,4.169,7.225c0.502,0.878,0.32,1.533-0.568,2.051
		c-2.362,1.378-4.733,2.743-7.107,4.104c-0.251,0.144-0.536,0.224-0.806,0.335c-0.132-0.036-0.264-0.07-0.395-0.106
		c-0.157-0.312-0.059-0.619,0.023-0.923c1.116-4.185,2.237-8.368,3.363-12.55C123.499,107.767,123.561,107.445,123.865,107.265z"/>
	<path display="inline" fill-rule="evenodd" clip-rule="evenodd" fill="#DA8128" d="M123.865,107.265
		c-1.278,4.76-2.556,9.519-3.834,14.277c-0.131-0.035-0.262-0.069-0.393-0.105c-0.395-0.468-0.671-1.011-0.976-1.536
		c-1.199-2.075-2.401-4.151-3.596-6.229c-0.533-0.927-0.348-1.612,0.585-2.152c2.31-1.338,4.622-2.671,6.935-4.005
		C122.983,107.285,123.388,107.08,123.865,107.265z"/>
	<path display="inline" fill-rule="evenodd" clip-rule="evenodd" fill="#DA8128" d="M138.025,54.389
		c-1.273,4.761-2.546,9.521-3.818,14.282c-0.478-0.072-0.729-0.419-0.948-0.796c-1.349-2.329-2.699-4.657-4.035-6.993
		c-0.546-0.954-0.363-1.618,0.567-2.157c2.349-1.361,4.698-2.717,7.052-4.069c0.252-0.144,0.526-0.248,0.789-0.371
		C137.763,54.319,137.894,54.354,138.025,54.389z"/>
	<path display="inline" fill-rule="evenodd" clip-rule="evenodd" fill="#DA8128" d="M130.927,80.879
		c0.436,0.016,0.683,0.284,0.885,0.636c1.396,2.426,2.805,4.843,4.193,7.272c0.469,0.821,0.295,1.476-0.516,1.948
		c-2.438,1.42-4.886,2.821-7.325,4.236c-0.34,0.198-0.669,0.252-1.024,0.066c-0.168-0.31-0.064-0.619,0.016-0.922
		c1.105-4.144,2.216-8.285,3.329-12.425C130.566,81.388,130.637,81.073,130.927,80.879z"/>
	<path display="inline" fill-rule="evenodd" clip-rule="evenodd" fill="#DA8128" d="M130.927,80.879
		c-1.263,4.719-2.524,9.44-3.787,14.16c-0.45,0.004-0.685-0.298-0.881-0.638c-1.401-2.422-2.808-4.842-4.195-7.271
		c-0.426-0.748-0.232-1.484,0.507-1.916c2.417-1.412,4.845-2.804,7.268-4.202C130.181,80.814,130.535,80.681,130.927,80.879z"/>
</g>
<g display="none">
	<path display="inline" fill-rule="evenodd" clip-rule="evenodd" fill="#DA8128" d="M85.52,44.734
		c-0.347,0.23-0.683,0.482-1.044,0.691c-6.803,3.933-13.61,7.861-20.416,11.791c-1.347,0.777-1.701,0.679-2.492-0.689
		c-1.119-1.936-2.24-3.872-3.353-5.811c-0.523-0.911-0.373-1.469,0.541-1.997c4.222-2.441,8.445-4.878,12.668-7.318
		c0.835-0.482,0.893-0.697,0.412-1.532c-2.407-4.171-4.816-8.342-7.222-12.513c-0.649-1.122-0.522-1.604,0.594-2.25
		c1.971-1.139,3.942-2.278,5.916-3.415c1.006-0.58,1.518-0.45,2.087,0.538c4.042,6.997,8.083,13.995,12.118,20.994
		c0.148,0.257,0.254,0.539,0.379,0.808C85.645,44.266,85.583,44.5,85.52,44.734z"/>
	<path display="inline" fill-rule="evenodd" clip-rule="evenodd" fill="#DA8128" d="M25.9,28.008c0.331-0.221,0.65-0.462,0.995-0.66
		c6.873-3.974,13.749-7.942,20.625-11.912c1.133-0.654,1.578-0.533,2.243,0.619c1.141,1.972,2.281,3.942,3.415,5.916
		c0.562,0.977,0.417,1.515-0.565,2.083c-4.205,2.431-8.412,4.857-12.618,7.287c-0.835,0.482-0.891,0.692-0.41,1.528
		c2.408,4.171,4.817,8.341,7.224,12.512c0.645,1.12,0.516,1.612-0.595,2.254c-1.971,1.14-3.942,2.28-5.916,3.416
		c-1.008,0.579-1.516,0.448-2.086-0.54c-4.031-6.981-8.063-13.961-12.089-20.944c-0.158-0.273-0.274-0.572-0.411-0.859
		C25.774,28.475,25.837,28.241,25.9,28.008z"/>
	<path display="inline" fill-rule="evenodd" clip-rule="evenodd" fill="#DA8128" d="M64.073,6.561
		c0.249,0.265,0.451,0.56,0.632,0.875c1.131,1.973,2.273,3.941,3.409,5.913c0.567,0.985,0.427,1.525-0.542,2.086
		c-2.039,1.18-4.08,2.357-6.121,3.534c-0.35,0.203-0.701,0.414-1.129,0.217c-0.155-0.276-0.059-0.55,0.012-0.82
		c0.994-3.727,1.992-7.452,2.995-11.177c0.073-0.271,0.133-0.552,0.394-0.723C63.84,6.498,63.956,6.529,64.073,6.561z"/>
	<path display="inline" fill-rule="evenodd" clip-rule="evenodd" fill="#DA8128" d="M51.112,53.558
		c0.39,0.028,0.603,0.293,0.778,0.597c1.241,2.142,2.485,4.284,3.713,6.435c0.447,0.782,0.285,1.365-0.506,1.826
		c-2.104,1.227-4.216,2.443-6.33,3.655c-0.224,0.128-0.478,0.199-0.717,0.298c-0.118-0.032-0.235-0.063-0.352-0.095
		c-0.14-0.278-0.052-0.552,0.021-0.822c0.994-3.727,1.993-7.453,2.995-11.177C50.786,54.005,50.84,53.719,51.112,53.558z"/>
	<path display="inline" fill-rule="evenodd" clip-rule="evenodd" fill="#DA8128" d="M51.112,53.558
		c-1.138,4.239-2.276,8.478-3.415,12.716c-0.117-0.031-0.233-0.062-0.35-0.094c-0.352-0.417-0.598-0.9-0.869-1.368
		c-1.068-1.848-2.139-3.697-3.203-5.548c-0.475-0.825-0.31-1.436,0.521-1.917c2.057-1.191,4.117-2.379,6.176-3.567
		C50.327,53.576,50.687,53.394,51.112,53.558z"/>
	<path display="inline" fill-rule="evenodd" clip-rule="evenodd" fill="#DA8128" d="M63.723,6.466
		c-1.134,4.241-2.268,8.48-3.401,12.72c-0.425-0.064-0.649-0.373-0.844-0.709c-1.201-2.074-2.404-4.147-3.594-6.228
		c-0.486-0.85-0.324-1.441,0.505-1.921c2.092-1.212,4.184-2.42,6.28-3.624c0.224-0.128,0.469-0.221,0.703-0.331
		C63.489,6.404,63.606,6.436,63.723,6.466z"/>
	<path display="inline" fill-rule="evenodd" clip-rule="evenodd" fill="#DA8128" d="M57.401,30.059
		c0.388,0.014,0.608,0.252,0.788,0.566c1.243,2.161,2.498,4.313,3.735,6.477c0.417,0.731,0.263,1.314-0.459,1.735
		c-2.171,1.265-4.351,2.513-6.524,3.773c-0.303,0.176-0.596,0.224-0.912,0.059c-0.15-0.276-0.058-0.551,0.014-0.821
		c0.984-3.69,1.974-7.379,2.965-11.065C57.08,30.512,57.143,30.231,57.401,30.059z"/>
	<path display="inline" fill-rule="evenodd" clip-rule="evenodd" fill="#DA8128" d="M57.401,30.059
		c-1.125,4.203-2.248,8.407-3.373,12.611c-0.401,0.003-0.61-0.265-0.785-0.568c-1.248-2.157-2.5-4.313-3.736-6.476
		c-0.379-0.667-0.207-1.322,0.451-1.707c2.153-1.258,4.315-2.498,6.473-3.743C56.736,30.001,57.052,29.882,57.401,30.059z"/>
</g>
<g display="none" opacity="0.5">
	<path display="inline" opacity="0.7" fill-rule="evenodd" clip-rule="evenodd" fill="#FFFFFF" d="M26.487,74.667
		c13.283,0,26.565,0,39.847,0c0.795,0.188,1.617,0.132,2.42,0.246c3.694,0.525,6.822,2.278,9.611,4.634
		c5.336,4.504,7.904,10.321,7.892,17.285c-0.003,1.298,0.186,2.63-0.465,3.854c-0.085,0.081-0.187,0.127-0.302,0.143
		c-0.635,0.013-1.108-0.382-1.612-0.674c-2.396-1.391-4.972-2.142-7.729-2.426c-2.659-0.272-5.317-0.137-7.974-0.15
		c-6.408-0.035-12.817-0.013-19.226-0.011c-2.005,0.001-3.826,0.438-5.252,2.006c-0.978,1.074-1.369,2.354-1.61,3.735
		c-1.336,7.655-2.512,15.338-3.893,22.985c-0.414,2.291-0.67,4.609-1.225,6.873c-0.056,0.232,0.002,0.458,0.03,0.685
		c-0.632,3.277-1.132,6.577-1.695,9.865c-0.907,5.292-1.726,10.597-2.695,15.877c-0.13,0.712-0.281,1.413-0.689,2.029
		c-1.068,1.997-2.719,2.868-4.996,2.833c-4.237-0.066-8.478-0.099-12.713,0.006c-3.21,0.082-5.677-3.236-5.18-6.139
		c1.949-11.374,3.865-22.753,5.759-34.137c1.598-9.604,3.223-19.204,4.828-28.809c0.913-5.463,1.823-10.928,2.758-16.389
		c0.116-0.678,0.303-1.343,0.621-1.966C23.728,75.594,24.887,74.806,26.487,74.667z"/>
	<path display="inline" opacity="0.7" fill-rule="evenodd" clip-rule="evenodd" fill="#E5E5E5" d="M85.689,100.735
		c3.873,2.886,6.469,6.634,7.568,11.355c0.961,4.122,0.592,8.235-0.596,12.226c-3.391,11.393-10.926,18.574-22.432,21.536
		c-2.931,0.755-5.96,0.938-8.972,0.788c-4.121-0.207-7.318,2.322-7.97,7.063c-0.631,4.585-1.505,9.139-2.275,13.706
		c-0.206,1.223-0.519,2.437-0.61,3.667c-0.164,2.199-1.174,3.73-3.202,4.589c-4.603,0-9.206,0-13.808,0
		c-2.676-0.621-3.938-2.509-3.491-5.263c0.377-2.32,0.807-4.634,1.138-6.963c0.103-0.718,0.607-1.299,0.617-2.037
		c0.814-2.064,0.939-4.274,1.315-6.425c1.16-6.639,2.248-13.291,3.375-19.936c0.069-0.413,0.242-0.81,0.367-1.212
		c0.223-1.624,1.384-2.389,2.753-2.895c0.957-0.353,1.978-0.452,3.005-0.451c3.482,0.004,6.965,0.065,10.446-0.014
		c5.04-0.112,9.768-1.494,14.247-3.774c3.25-1.652,6.164-3.778,8.673-6.408c4.735-4.965,7.863-10.788,9.088-17.586
		c0.124-0.691,0.089-1.464,0.681-2.008l0.059-0.014L85.689,100.735z"/>
	<path display="inline" opacity="0.7" fill-rule="evenodd" clip-rule="evenodd" fill="#D1D2CF" d="M85.607,100.694
		c-0.297,3.355-1.222,6.55-2.578,9.614c-2.836,6.413-7.213,11.534-13.135,15.298c-4.377,2.78-9.153,4.507-14.314,5.071
		c-4.547,0.496-9.116,0.176-13.674,0.237c-2.283,0.031-4.073,0.854-5.192,2.915c-0.296-0.959,0.118-1.866,0.268-2.774
		c1.256-7.621,2.568-15.231,3.865-22.846c0.324-1.903,0.61-3.814,0.987-5.708c0.654-3.281,3.024-5.316,6.358-5.329
		c8.873-0.04,17.747-0.075,26.619,0.016C78.73,97.228,82.357,98.451,85.607,100.694z"/>
</g>
<g display="none" opacity="0.5">
	<path display="inline" opacity="0.7" fill-rule="evenodd" clip-rule="evenodd" fill="#FFFFFF" d="M110.339,11.633
		c10.766,0,21.533,0,32.299,0c0.645,0.152,1.311,0.107,1.961,0.2c2.996,0.425,5.529,1.847,7.79,3.756
		c4.326,3.651,6.408,8.365,6.398,14.011c-0.004,1.052,0.15,2.132-0.377,3.125c-0.069,0.066-0.152,0.103-0.246,0.116
		c-0.514,0.01-0.898-0.31-1.307-0.546c-1.941-1.127-4.03-1.736-6.264-1.966c-2.155-0.222-4.311-0.111-6.464-0.123
		c-5.194-0.028-10.389-0.01-15.583-0.008c-1.626,0.001-3.102,0.355-4.258,1.625c-0.793,0.871-1.11,1.908-1.306,3.028
		c-1.083,6.206-2.036,12.433-3.156,18.632c-0.334,1.856-0.543,3.736-0.992,5.571c-0.046,0.188,0.002,0.371,0.024,0.555
		c-0.513,2.656-0.918,5.331-1.374,7.997c-0.735,4.29-1.399,8.589-2.185,12.87c-0.105,0.577-0.229,1.145-0.559,1.645
		c-0.866,1.619-2.204,2.325-4.05,2.297c-3.435-0.054-6.873-0.08-10.306,0.004c-2.603,0.067-4.602-2.623-4.198-4.976
		c1.58-9.219,3.133-18.443,4.668-27.67c1.296-7.785,2.612-15.566,3.913-23.352c0.74-4.428,1.479-8.857,2.236-13.284
		c0.095-0.549,0.246-1.089,0.503-1.594C108.102,12.384,109.041,11.746,110.339,11.633z"/>
	<path display="inline" opacity="0.7" fill-rule="evenodd" clip-rule="evenodd" fill="#E5E5E5" d="M158.327,32.764
		c3.139,2.339,5.243,5.377,6.133,9.204c0.779,3.342,0.479,6.676-0.482,9.91c-2.749,9.234-8.857,15.056-18.184,17.457
		c-2.374,0.611-4.83,0.76-7.271,0.639c-3.34-0.168-5.932,1.882-6.461,5.725c-0.511,3.716-1.22,7.407-1.845,11.109
		c-0.166,0.991-0.419,1.976-0.494,2.973c-0.132,1.782-0.95,3.023-2.595,3.72c-3.73,0-7.463,0-11.192,0
		c-2.17-0.503-3.193-2.034-2.83-4.266c0.306-1.881,0.653-3.756,0.922-5.644c0.083-0.581,0.493-1.052,0.501-1.651
		c0.66-1.673,0.761-3.465,1.066-5.208c0.94-5.381,1.821-10.773,2.735-16.16c0.056-0.334,0.197-0.656,0.298-0.982
		c0.181-1.317,1.121-1.937,2.232-2.347c0.775-0.286,1.603-0.367,2.436-0.366c2.822,0.003,5.646,0.053,8.466-0.011
		c4.087-0.091,7.919-1.211,11.549-3.059c2.634-1.339,4.996-3.063,7.03-5.195c3.839-4.024,6.374-8.744,7.367-14.254
		c0.101-0.561,0.072-1.187,0.552-1.627l0.048-0.011L158.327,32.764z"/>
	<path opacity="0.7" fill-rule="evenodd" clip-rule="evenodd" fill="#D1D2CF" d="M158.26,32.73c-0.241,2.72-0.99,5.309-2.089,7.793
		c-2.299,5.198-5.848,9.349-10.647,12.4c-3.549,2.253-7.419,3.653-11.604,4.11c-3.686,0.402-7.388,0.143-11.083,0.192
		c-1.852,0.025-3.302,0.693-4.209,2.363c-0.24-0.778,0.096-1.513,0.218-2.249c1.018-6.177,2.081-12.347,3.132-18.518
		c0.263-1.543,0.495-3.092,0.801-4.627c0.529-2.66,2.451-4.309,5.153-4.32c7.192-0.033,14.386-0.061,21.576,0.013
		C152.686,29.92,155.625,30.912,158.26,32.73z"/>
</g>
<path display="none" opacity="0.5" fill-rule="evenodd" clip-rule="evenodd" fill="#FFFFFF" d="M101.271,107.08
	c-4.908-6.512-9.813-13.024-14.747-19.519c-0.264-0.348-0.73-0.617-1.156-0.753c-1.821-0.59-3.664-1.108-5.497-1.663
	c-9.23-2.789-18.461-5.583-27.692-8.372c-8.878-2.683-17.757-5.366-26.637-8.042c-3.022-0.911-6.049-1.807-9.251-2.762
	c9.186,32.888,18.325,65.617,27.514,98.518c19.296-19.139,38.458-38.144,57.596-57.126
	C101.333,107.215,101.313,107.138,101.271,107.08z M30.267,75.618c16.149,5.029,32.298,10.059,48.725,15.176
	c-7.138,4.689-14.105,9.267-21.175,13.912c-9.268-9.659-18.469-19.252-27.671-28.844C30.186,75.781,30.227,75.699,30.267,75.618z
	 M54.369,110.215c-2.424,9.908-4.795,19.83-7.171,29.749c-0.662,2.759-1.299,5.522-1.951,8.281c-0.04,0.168-0.116,0.328-0.176,0.491
	c-0.084,0.005-0.169,0.012-0.253,0.019c-6.496-23.568-12.992-47.139-19.488-70.707c0.062-0.043,0.124-0.086,0.187-0.132
	c0.533,0.563,1.073,1.119,1.6,1.686c8.925,9.629,17.845,19.26,26.78,28.876C54.39,109.012,54.558,109.444,54.369,110.215z
	 M50.862,149.743c-0.052-0.04-0.104-0.082-0.159-0.122c0.929-3.854,1.855-7.712,2.785-11.567c1.262-5.23,2.528-10.457,3.788-15.687
	c0.786-3.261,1.58-6.519,2.326-9.786c0.163-0.706,0.592-0.833,1.181-0.854c5.777-0.219,11.554-0.434,17.331-0.659
	c4.378-0.173,8.756-0.362,13.135-0.539c0.25-0.011,0.502,0.006,0.993,0.013C78.348,123.704,64.605,136.724,50.862,149.743z
	 M65.34,106.503c-0.028-0.087-0.057-0.173-0.085-0.258c6.424-4.145,12.848-8.289,19.385-12.505
	c3.091,3.617,6.166,7.215,9.421,11.026C84.31,105.355,74.825,105.93,65.34,106.503z"/>
<path display="none" opacity="0.5" fill-rule="evenodd" clip-rule="evenodd" fill="#FFFFFF" d="M174.091,64.971
	c-4.486-5.953-8.971-11.906-13.48-17.843c-0.241-0.318-0.667-0.564-1.057-0.688c-1.665-0.539-3.35-1.013-5.024-1.52
	c-8.438-2.55-16.876-5.104-25.314-7.653c-8.116-2.453-16.233-4.905-24.351-7.352c-2.763-0.833-5.53-1.652-8.457-2.525
	c8.397,30.065,16.751,59.983,25.151,90.059c17.64-17.494,35.155-34.867,52.651-52.22C174.148,65.094,174.131,65.024,174.091,64.971z
	 M109.184,36.21c14.763,4.597,29.524,9.195,44.542,13.874c-6.526,4.287-12.895,8.471-19.357,12.717
	c-8.473-8.83-16.884-17.599-25.296-26.368C109.109,36.359,109.146,36.285,109.184,36.21z M131.217,67.837
	c-2.216,9.058-4.384,18.127-6.557,27.194c-0.604,2.522-1.188,5.049-1.782,7.57c-0.037,0.154-0.106,0.301-0.161,0.449
	c-0.077,0.005-0.154,0.011-0.231,0.018c-5.938-21.545-11.876-43.092-17.814-64.636c0.056-0.04,0.113-0.079,0.17-0.121
	c0.487,0.515,0.981,1.022,1.463,1.541c8.158,8.802,16.313,17.606,24.48,26.397C131.236,66.737,131.39,67.132,131.217,67.837z
	 M128.011,103.972c-0.048-0.037-0.096-0.075-0.146-0.112c0.85-3.523,1.696-7.049,2.546-10.574c1.154-4.781,2.313-9.559,3.463-14.339
	c0.719-2.981,1.443-5.959,2.126-8.946c0.148-0.646,0.541-0.762,1.08-0.781c5.281-0.2,10.561-0.396,15.842-0.603
	c4.003-0.158,8.004-0.331,12.007-0.493c0.229-0.01,0.459,0.005,0.908,0.011C153.137,80.168,140.574,92.07,128.011,103.972z
	 M141.245,64.443c-0.025-0.079-0.052-0.158-0.077-0.235c5.872-3.789,11.745-7.578,17.721-11.431
	c2.825,3.306,5.636,6.595,8.612,10.08C158.587,63.395,149.915,63.919,141.245,64.443z"/>
<g display="none" opacity="0.7">
	<path display="inline" fill-rule="evenodd" clip-rule="evenodd" fill="#8F9DAA" d="M71.05,61.964
		c1.106,3.427,1.609,6.99,2.339,10.498c4.311,20.734,8.583,41.476,12.842,62.216c0.082,0.4,0.502,0.86,0,1.276
		c-0.419-0.117-0.701-0.428-1.003-0.714c-2.026-1.915-4.055-3.831-6.068-5.761c-5.028-4.832-10.116-9.598-15.152-14.425
		c-2.255-2.161-4.467-4.376-6.792-6.466c-0.408-0.366-0.91-0.724-0.758-1.416c4.544-14.48,9.095-28.958,13.643-43.435
		C70.305,63.085,70.596,62.482,71.05,61.964z"/>
	<path display="inline" fill-rule="evenodd" clip-rule="evenodd" fill="#8398A8" d="M71.05,61.964
		c-4.637,14.747-9.275,29.494-13.912,44.243c-0.156,0.498-0.232,1.039-0.681,1.398c-0.033,0.046-0.066,0.092-0.097,0.142
		c-0.416,0.311-0.92,0.311-1.4,0.384c-3.685,0.578-7.375,1.131-11.06,1.717c-8.673,1.381-17.368,2.622-26.039,4.03
		c-0.509,0.081-1.104,0.43-1.553-0.185c3.099-2.97,6.18-5.954,9.295-8.902c14.689-13.909,29.385-27.809,44.086-41.704
		C70.112,62.686,70.453,62.162,71.05,61.964z"/>
	<path display="inline" fill-rule="evenodd" clip-rule="evenodd" fill="#6A797F" d="M56.457,107.605
		c1.066,0.947,2.155,1.865,3.187,2.847c8.576,8.159,17.14,16.334,25.706,24.508c0.318,0.304,0.726,0.541,0.881,0.995
		c-6.341,0.985-12.677,1.971-19.016,2.951c-6.743,1.038-13.486,2.07-20.23,3.105c-0.292,0.045-0.588,0.045-0.883,0.063
		c-0.458-0.162-0.365-0.556-0.279-0.851c0.319-1.08,0.49-2.197,0.875-3.269c0.886-2.473,1.601-5.002,2.324-7.531
		c0.523-1.836,1.146-3.645,1.674-5.489c0.901-3.141,1.961-6.238,2.905-9.371c0.65-2.163,1.346-4.314,2.031-6.471
		c0.167-0.535,0.3-1.1,0.833-1.425L56.457,107.605z"/>
	<path display="inline" fill-rule="evenodd" clip-rule="evenodd" fill="#74838C" d="M56.465,107.669
		c-1.002,3.163-2.127,6.295-2.958,9.503c-0.535,2.058-1.202,4.1-1.882,6.079c-0.771,2.258-1.297,4.595-2.1,6.85
		c-0.819,2.285-1.487,4.685-2.166,7.049c-0.366,1.28-0.746,2.573-1.148,3.85c-0.109,0.343-0.349,0.69-0.109,1.076
		c-0.451,0.287-0.602-0.16-0.81-0.359c-9.516-9.07-19.025-18.15-28.531-27.233c-0.211-0.202-0.396-0.429-0.589-0.653
		c-0.01-0.014,0.013-0.07,0.034-0.087c0.026-0.025,0.067-0.035,0.103-0.049c0.333,0.179,0.666,0.034,0.993-0.018
		c8.925-1.384,17.849-2.777,26.776-4.155C48.207,108.888,52.337,108.286,56.465,107.669z"/>
	<path display="inline" fill-rule="evenodd" clip-rule="evenodd" fill="#8398A8" d="M44.875,145.979
		c4.755-0.729,9.51-1.459,14.261-2.184c6.394-0.979,12.791-1.949,19.188-2.922c0.4-0.059,0.803-0.102,1.519-0.19
		c-0.46,0.368-0.689,0.57-0.935,0.747c-11.647,8.443-23.292,16.885-34.938,25.327c-2.397,1.736-4.793,3.478-7.192,5.209
		c-0.078,0.053-0.211,0.033-0.318,0.048c-0.169-0.57-0.037-1.115,0.131-1.656c2.402-7.64,4.801-15.286,7.215-22.92
		C43.991,146.845,44.104,146.159,44.875,145.979z"/>
	<path display="inline" fill-rule="evenodd" clip-rule="evenodd" fill="#8F9DAA" d="M44.875,145.979
		c-0.406,0.336-0.493,0.83-0.638,1.29c-2.594,8.249-5.185,16.5-7.777,24.745c-0.628-0.915-0.818-2.002-1.173-3.02
		c-5.374-15.408-10.732-30.821-16.093-46.233c-0.11-0.317-0.2-0.644-0.394-1.282c0.808,0.748,1.408,1.282,1.993,1.838
		c7.733,7.325,15.464,14.657,23.197,21.986C44.259,145.557,44.49,145.873,44.875,145.979z"/>
</g>
<g display="none" opacity="0.7">
	<path display="inline" fill-rule="evenodd" clip-rule="evenodd" fill="#8F9DAA" d="M155.41,103.177
		c0.709,2.193,1.031,4.475,1.497,6.721c2.76,13.271,5.494,26.548,8.221,39.823c0.052,0.256,0.321,0.551,0,0.817
		c-0.268-0.075-0.448-0.274-0.643-0.458c-1.297-1.225-2.595-2.452-3.884-3.687c-3.218-3.094-6.476-6.144-9.698-9.233
		c-1.443-1.384-2.859-2.801-4.348-4.14c-0.261-0.233-0.583-0.463-0.485-0.905c2.908-9.271,5.822-18.535,8.732-27.803
		C154.934,103.895,155.12,103.509,155.41,103.177z"/>
	<path display="inline" fill-rule="evenodd" clip-rule="evenodd" fill="#8398A8" d="M155.41,103.177
		c-2.967,9.439-5.937,18.879-8.904,28.319c-0.1,0.319-0.149,0.665-0.436,0.896c-0.021,0.029-0.042,0.058-0.063,0.089
		c-0.266,0.201-0.588,0.201-0.896,0.248c-2.359,0.37-4.722,0.723-7.079,1.098c-5.552,0.884-11.118,1.679-16.668,2.58
		c-0.325,0.052-0.706,0.274-0.994-0.118c1.983-1.9,3.956-3.811,5.95-5.699c9.402-8.902,18.809-17.799,28.219-26.693
		C154.811,103.639,155.029,103.304,155.41,103.177z"/>
	<path display="inline" fill-rule="evenodd" clip-rule="evenodd" fill="#6A797F" d="M146.07,132.392
		c0.682,0.605,1.379,1.193,2.04,1.821c5.489,5.224,10.971,10.455,16.454,15.688c0.203,0.194,0.465,0.347,0.563,0.638
		c-4.059,0.63-8.114,1.261-12.172,1.889c-4.315,0.664-8.632,1.324-12.949,1.987c-0.187,0.029-0.376,0.029-0.564,0.041
		c-0.294-0.104-0.234-0.355-0.18-0.545c0.205-0.691,0.314-1.406,0.562-2.092c0.566-1.583,1.024-3.202,1.486-4.82
		c0.336-1.176,0.733-2.334,1.071-3.514c0.577-2.01,1.256-3.993,1.859-5.999c0.417-1.384,0.862-2.762,1.301-4.141
		c0.105-0.343,0.192-0.705,0.533-0.912L146.07,132.392z"/>
	<path display="inline" fill-rule="evenodd" clip-rule="evenodd" fill="#74838C" d="M146.075,132.433
		c-0.642,2.024-1.362,4.028-1.894,6.081c-0.343,1.317-0.77,2.625-1.204,3.892c-0.495,1.445-0.831,2.942-1.345,4.385
		c-0.524,1.463-0.952,2.998-1.387,4.512c-0.234,0.819-0.478,1.646-0.735,2.464c-0.068,0.219-0.223,0.442-0.068,0.689
		c-0.289,0.184-0.386-0.103-0.519-0.23c-6.092-5.805-12.179-11.618-18.263-17.432c-0.135-0.129-0.254-0.274-0.377-0.418
		c-0.006-0.01,0.008-0.045,0.021-0.057c0.017-0.016,0.043-0.021,0.065-0.03c0.213,0.114,0.427,0.021,0.636-0.012
		c5.713-0.885,11.425-1.777,17.139-2.659C140.789,133.211,143.433,132.827,146.075,132.433z"/>
	<path display="inline" fill-rule="evenodd" clip-rule="evenodd" fill="#8398A8" d="M138.656,156.953
		c3.044-0.466,6.088-0.934,9.129-1.397c4.093-0.627,8.187-1.247,12.282-1.87c0.256-0.038,0.514-0.064,0.972-0.122
		c-0.295,0.235-0.441,0.364-0.599,0.479c-7.454,5.403-14.908,10.807-22.363,16.211c-1.534,1.112-3.068,2.227-4.604,3.334
		c-0.05,0.033-0.135,0.021-0.203,0.031c-0.108-0.365-0.024-0.714,0.083-1.061c1.539-4.89,3.073-9.784,4.618-14.67
		C138.091,157.508,138.163,157.068,138.656,156.953z"/>
	<path display="inline" fill-rule="evenodd" clip-rule="evenodd" fill="#8F9DAA" d="M138.656,156.953
		c-0.26,0.215-0.315,0.531-0.407,0.826c-1.661,5.279-3.32,10.561-4.979,15.839c-0.403-0.586-0.524-1.282-0.752-1.933
		c-3.438-9.863-6.868-19.729-10.301-29.593c-0.069-0.204-0.127-0.413-0.251-0.821c0.517,0.479,0.901,0.821,1.274,1.176
		c4.951,4.689,9.899,9.383,14.85,14.073C138.263,156.684,138.41,156.886,138.656,156.953z"/>
</g>
<path display="none" opacity="0.7" fill-rule="evenodd" clip-rule="evenodd" fill="#FFFFFF" d="M99.198,119.9
	c-1.877-1.271-3.969-2.079-6.126-2.729c-8.661-2.611-17.574-3.594-26.563-4.03c-1.26-0.061-1.787-0.327-1.725-1.719
	c0.118-2.638,0.143-5.291-0.003-7.926c-0.088-1.578,0.497-1.824,1.907-1.811c7.422,0.066,14.845-0.006,22.267,0.063
	c1.364,0.013,1.686-0.411,1.666-1.705c-0.071-4.609-0.08-9.223,0.004-13.832c0.026-1.392-0.346-1.794-1.769-1.786
	c-11.133,0.06-22.267,0.033-33.401,0.033c-11.19,0-22.38,0.02-33.57-0.027c-1.238-0.005-1.635,0.282-1.613,1.574
	c0.081,4.666,0.091,9.336-0.003,14.001c-0.029,1.433,0.409,1.754,1.785,1.742c7.422-0.068,14.845,0.007,22.267-0.065
	c1.439-0.014,1.811,0.427,1.758,1.804c-0.104,2.694-0.068,5.396-0.016,8.096c0.02,1.022-0.19,1.507-1.363,1.544
	c-6.295,0.196-12.549,0.877-18.735,2.053c-4.903,0.933-9.827,1.906-14.154,4.61c-3.322,2.076-3.34,4.475-0.072,6.622
	c2.419,1.592,5.15,2.479,7.919,3.214c8.014,2.128,16.203,3.068,24.461,3.456c1.428,0.067,1.977,0.462,1.964,2.053
	c-0.082,10.852-0.017,21.705-0.073,32.558c-0.007,1.419,0.412,1.8,1.803,1.78c5.116-0.079,10.235-0.079,15.351,0
	c1.343,0.02,1.689-0.363,1.683-1.694c-0.055-10.684-0.031-21.367-0.031-32.053c0-2.562,0.001-2.551,2.641-2.683
	c7.078-0.348,14.097-1.174,21.012-2.745c3.724-0.847,7.43-1.821,10.676-3.946C102.268,124.308,102.263,121.977,99.198,119.9z
	 M95.611,124.307c-2.782,1.923-6.042,2.641-9.276,3.317c-10.22,2.136-20.589,2.621-31.099,2.741
	c-10.744-0.166-21.564-0.621-32.196-3.062c-2.625-0.603-5.232-1.312-7.541-2.769c-2.333-1.473-2.325-3.214,0.059-4.645
	c3.633-2.179,7.751-2.907,11.827-3.644c5.696-1.03,11.458-1.543,17.241-1.835c1.096-0.055,1.474,0.224,1.45,1.357
	c-0.068,3.259-0.008,6.52-0.048,9.781c-0.011,0.941,0.187,1.388,1.28,1.452c5.337,0.31,10.667,0.332,16.007,0.047
	c1.313-0.069,1.546-0.561,1.519-1.735c-0.076-3.203-0.007-6.408-0.041-9.613c-0.009-0.857,0.085-1.351,1.162-1.287
	c8.583,0.505,17.134,1.194,25.411,3.756c1.5,0.464,2.977,1.024,4.258,1.964C97.5,121.507,97.532,122.979,95.611,124.307z"/>
<path display="none" opacity="0.7" fill-rule="evenodd" clip-rule="evenodd" fill="#FFFFFF" d="M162.455,60.018
	c-1.513-1.025-3.198-1.675-4.938-2.199c-6.979-2.105-14.165-2.896-21.409-3.248c-1.016-0.049-1.44-0.264-1.39-1.385
	c0.094-2.126,0.115-4.265-0.003-6.388c-0.071-1.272,0.401-1.47,1.538-1.459c5.98,0.054,11.963-0.005,17.945,0.05
	c1.101,0.01,1.359-0.332,1.343-1.374c-0.057-3.715-0.064-7.434,0.004-11.148c0.021-1.122-0.279-1.445-1.425-1.439
	c-8.973,0.048-17.948,0.026-26.923,0.026c-9.018,0-18.037,0.016-27.057-0.022c-0.997-0.004-1.316,0.227-1.3,1.269
	c0.064,3.761,0.073,7.525-0.003,11.285c-0.023,1.155,0.33,1.413,1.438,1.404c5.982-0.055,11.965,0.006,17.946-0.053
	c1.161-0.011,1.46,0.344,1.417,1.454c-0.084,2.172-0.054,4.35-0.012,6.525c0.017,0.824-0.154,1.214-1.1,1.244
	c-5.073,0.158-10.113,0.707-15.1,1.655c-3.951,0.751-7.92,1.536-11.407,3.716c-2.679,1.673-2.692,3.606-0.058,5.337
	c1.949,1.283,4.15,1.998,6.382,2.591c6.459,1.715,13.06,2.473,19.717,2.785c1.15,0.054,1.592,0.373,1.582,1.655
	c-0.066,8.746-0.015,17.494-0.059,26.24c-0.006,1.145,0.331,1.451,1.454,1.436c4.122-0.063,8.248-0.063,12.371,0
	c1.082,0.016,1.361-0.293,1.356-1.365c-0.044-8.611-0.025-17.222-0.025-25.834c0-2.064,0.002-2.056,2.13-2.162
	c5.703-0.28,11.361-0.946,16.937-2.212c3-0.683,5.987-1.468,8.604-3.181C164.93,63.57,164.925,61.691,162.455,60.018z
	 M159.563,63.569c-2.242,1.55-4.868,2.128-7.476,2.674c-8.238,1.721-16.595,2.113-25.066,2.209
	c-8.658-0.134-17.38-0.501-25.949-2.468c-2.116-0.485-4.217-1.057-6.077-2.231c-1.881-1.188-1.874-2.59,0.048-3.744
	c2.927-1.756,6.246-2.343,9.532-2.937c4.591-0.83,9.234-1.243,13.896-1.479c0.884-0.044,1.188,0.18,1.169,1.094
	c-0.055,2.626-0.007,5.255-0.04,7.883c-0.009,0.759,0.151,1.119,1.033,1.171c4.301,0.25,8.597,0.268,12.901,0.038
	c1.058-0.056,1.245-0.452,1.224-1.398c-0.061-2.582-0.006-5.166-0.033-7.749c-0.008-0.691,0.069-1.088,0.937-1.037
	c6.918,0.407,13.81,0.962,20.48,3.027c1.209,0.374,2.399,0.826,3.433,1.583C161.086,61.313,161.113,62.499,159.563,63.569z"/>
<path display="none" opacity="0.5" fill-rule="evenodd" clip-rule="evenodd" fill="#FFFFFF" d="M105.441,130.3
	c0.681-16.391-5.452-29.677-18.326-39.818c-4.111-3.239-8.736-5.58-13.72-7.2c-0.254-0.082-0.486-0.232-0.727-0.35
	c-10.664-2.555-21.328-5.11-31.99-7.666c-0.082,0.035-0.161,0.096-0.244,0.1c-4.024,0.162-6.591,2.244-7.536,6.172
	c-2.287,9.503-4.559,19.011-6.836,28.515c-0.091,0.381-0.183,0.762-0.288,1.202c-1.083-0.202-2.106-0.509-3.144-0.565
	c-3.861-0.211-6.693,1.436-8.452,4.897c-0.067,0.131-0.17,0.243-0.256,0.365c-0.198,0.824-0.396,1.649-0.593,2.475
	c0.169,1.156,0.18,2.365,0.539,3.46c0.939,2.877,2.989,4.684,5.883,5.53c0.632,0.186,1.281,0.312,2.034,0.492
	c-0.11,0.458-0.198,0.828-0.288,1.2c-2.171,9.061-4.343,18.121-6.513,27.183c-1.03,4.301,0.135,7.064,3.915,9.319
	c0.045,0.028,0.065,0.097,0.096,0.147c10.663,2.556,21.327,5.11,31.991,7.665c1.649,0.149,3.295,0.339,4.947,0.442
	c10.583,0.672,20.315-1.905,29.121-7.818c8.007-5.377,13.73-12.624,17.303-21.575c0.392-0.978,0.751-1.968,1.126-2.95
	c0.509-2.121,1.017-4.242,1.524-6.362C105.156,133.54,105.374,131.924,105.441,130.3z M59.582,156.02
	c-2.25-0.057-4.528-0.376-6.728-0.865c-6-1.338-11.964-2.832-17.942-4.265c-0.293-0.07-0.585-0.141-0.949-0.228
	c1.497-6.245,2.98-12.438,4.494-18.755c3.806,0.912,7.539,1.829,11.284,2.695c2.556,0.592,4.959,0.149,7.051-1.446
	c2.796-2.134,3.966-5.012,3.289-8.469c-0.676-3.455-2.819-5.716-6.228-6.616c-3.454-0.912-6.945-1.684-10.419-2.519
	c-0.319-0.076-0.638-0.152-1.013-0.242c1.586-6.622,3.156-13.174,4.736-19.767c0.31,0.059,0.574,0.097,0.833,0.159
	c6.273,1.502,12.554,2.972,18.816,4.516c12.658,3.123,21.509,14.333,21.644,27.35C88.612,143.348,75.406,156.407,59.582,156.02z"/>
<path display="none" opacity="0.5" fill-rule="evenodd" clip-rule="evenodd" fill="#FFFFFF" d="M171.397,67.866
	c0.518-12.467-4.146-22.573-13.939-30.287c-3.127-2.464-6.644-4.245-10.435-5.477c-0.193-0.062-0.37-0.176-0.553-0.266
	c-8.111-1.943-16.223-3.887-24.333-5.831c-0.062,0.027-0.122,0.073-0.185,0.076c-3.062,0.123-5.014,1.707-5.733,4.695
	c-1.739,7.228-3.467,14.46-5.199,21.689c-0.069,0.29-0.138,0.579-0.218,0.915c-0.824-0.154-1.604-0.387-2.393-0.43
	c-2.936-0.161-5.091,1.092-6.428,3.725c-0.052,0.1-0.13,0.185-0.195,0.278c-0.15,0.627-0.301,1.254-0.451,1.882
	c0.129,0.879,0.137,1.799,0.409,2.631c0.714,2.188,2.273,3.563,4.475,4.207c0.48,0.141,0.975,0.237,1.548,0.375
	c-0.084,0.348-0.152,0.63-0.22,0.913c-1.651,6.892-3.304,13.784-4.954,20.676c-0.783,3.271,0.104,5.373,2.979,7.089
	c0.034,0.021,0.049,0.073,0.073,0.112c8.11,1.943,16.222,3.887,24.333,5.83c1.253,0.113,2.506,0.258,3.763,0.336
	c8.05,0.511,15.451-1.449,22.15-5.946c6.09-4.09,10.442-9.603,13.16-16.411c0.298-0.744,0.571-1.497,0.856-2.244
	c0.387-1.613,0.773-3.227,1.16-4.839C171.181,70.33,171.347,69.101,171.397,67.866z M136.517,87.429
	c-1.712-0.043-3.444-0.286-5.117-0.658c-4.564-1.018-9.101-2.154-13.647-3.244c-0.223-0.054-0.445-0.107-0.722-0.173
	c1.139-4.75,2.268-9.461,3.419-14.265c2.895,0.694,5.734,1.391,8.583,2.05c1.942,0.45,3.771,0.114,5.362-1.1
	c2.126-1.623,3.017-3.812,2.501-6.441c-0.514-2.628-2.145-4.348-4.736-5.032c-2.628-0.694-5.283-1.281-7.926-1.916
	c-0.242-0.058-0.485-0.116-0.771-0.184c1.207-5.037,2.4-10.02,3.602-15.035c0.236,0.044,0.438,0.073,0.634,0.121
	c4.771,1.142,9.549,2.26,14.312,3.435c9.628,2.375,16.361,10.902,16.463,20.803C158.597,77.79,148.553,87.724,136.517,87.429z"/>
<path display="none" opacity="0.5" fill-rule="evenodd" clip-rule="evenodd" fill="#FFFFFF" d="M92.517,31.893
	c0.322-7.758-2.58-14.045-8.674-18.846c-1.945-1.533-4.133-2.642-6.493-3.407c-0.12-0.039-0.23-0.11-0.344-0.166
	c-5.047-1.209-10.094-2.418-15.14-3.628c-0.039,0.018-0.076,0.045-0.115,0.048c-1.905,0.076-3.121,1.062-3.568,2.921
	c-1.082,4.497-2.157,8.997-3.235,13.495c-0.043,0.181-0.086,0.361-0.136,0.569c-0.513-0.095-0.998-0.241-1.489-0.268
	c-1.826-0.1-3.167,0.679-3.999,2.318c-0.032,0.062-0.081,0.115-0.122,0.173c-0.093,0.391-0.188,0.781-0.281,1.171
	c0.08,0.548,0.085,1.12,0.254,1.638c0.445,1.361,1.415,2.217,2.785,2.618c0.298,0.088,0.606,0.147,0.963,0.232
	c-0.052,0.216-0.095,0.393-0.138,0.568c-1.027,4.289-2.055,8.577-3.082,12.866c-0.488,2.035,0.064,3.342,1.854,4.411
	c0.021,0.013,0.03,0.045,0.045,0.069c5.046,1.21,10.094,2.418,15.141,3.628c0.779,0.07,1.559,0.161,2.34,0.209
	c5.01,0.317,9.615-0.902,13.783-3.7c3.789-2.544,6.497-5.975,8.189-10.211c0.185-0.463,0.355-0.932,0.532-1.396
	c0.24-1.004,0.481-2.008,0.723-3.012C92.382,33.426,92.485,32.662,92.517,31.893z M70.813,44.065
	c-1.065-0.027-2.143-0.178-3.184-0.409c-2.84-0.633-5.663-1.341-8.492-2.018c-0.139-0.034-0.277-0.067-0.449-0.108
	c0.708-2.956,1.411-5.887,2.127-8.876c1.801,0.432,3.568,0.865,5.34,1.275c1.209,0.28,2.348,0.07,3.337-0.685
	c1.323-1.01,1.877-2.372,1.556-4.008c-0.319-1.636-1.334-2.706-2.947-3.131c-1.635-0.432-3.287-0.797-4.932-1.192
	c-0.15-0.037-0.302-0.072-0.479-0.114c0.751-3.134,1.493-6.236,2.241-9.356c0.147,0.028,0.273,0.045,0.394,0.075
	c2.969,0.711,5.942,1.406,8.905,2.137c5.991,1.479,10.181,6.784,10.244,12.944C84.551,38.068,78.302,44.249,70.813,44.065z"/>
<g opacity="0.3">
	<path fill-rule="evenodd" clip-rule="evenodd" fill="#FFFFFF" d="M10.646,134.856c0-1.067,0-2.136,0-3.204
		c0.098-0.774,0.088-1.556,0.129-2.333c0.094-1.801,0.501-3.54,0.982-5.262c1.433-5.13,3.898-9.714,7.434-13.703
		c5.324-6.007,11.93-9.791,19.808-11.351c1.451-0.287,2.919-0.367,4.394-0.382c0.33-0.026,0.665,0.054,0.991-0.048
		c0.786,0,1.57,0,2.356,0c0.327,0.102,0.663,0.021,0.994,0.048c2.824-0.052,5.549,0.511,8.231,1.34
		c3.755,1.161,7.208,2.926,10.378,5.244c0.301,0.22,0.646,0.399,0.808,0.769c0.013,0.049,0.016,0.1,0.008,0.15
		c-0.063,0.226-0.24,0.36-0.41,0.501c-3.277,2.708-5.971,5.908-8.089,9.59c-2.249,3.91-3.664,8.103-4.297,12.57
		c-0.321,2.264-0.363,4.54-0.253,6.809c0.201,4.111,1.171,8.062,2.808,11.842c1.541,3.561,3.629,6.772,6.244,9.635
		c1.101,1.205,2.285,2.33,3.559,3.355c0.206,0.167,0.435,0.325,0.431,0.637c-0.063,0.247-0.252,0.392-0.44,0.531
		c-2.829,2.12-5.892,3.807-9.219,5.009c-2.054,0.744-4.159,1.287-6.313,1.642c-0.944,0.155-1.901,0.136-2.851,0.209
		c-0.152,0.011-0.313-0.048-0.457,0.046c-1.131,0-2.262,0-3.393,0c-0.325-0.102-0.658-0.021-0.985-0.047
		c-4.161,0.049-8.07-1.053-11.859-2.65c-3.207-1.354-6.125-3.194-8.769-5.452c-3.192-2.728-5.842-5.91-7.902-9.579
		c-2.076-3.695-3.438-7.637-4.082-11.822c-0.162-1.053-0.172-2.122-0.188-3.188C10.666,135.46,10.75,135.153,10.646,134.856z"/>
	<path fill-rule="evenodd" clip-rule="evenodd" fill="#FFFFFF" d="M67.113,106.106c0.003-0.021,0.01-0.039,0.02-0.058
		c0.035-0.188,0.184-0.285,0.319-0.389c4.568-3.524,9.708-5.752,15.379-6.77c1.188-0.213,2.395-0.235,3.598-0.271
		c0.184-0.005,0.375,0.054,0.551-0.045c1.005,0,2.011,0,3.016,0c0.648,0.124,1.309,0.061,1.961,0.079
		c2.438,0.07,4.792,0.587,7.107,1.295c4.799,1.466,9.081,3.879,12.857,7.176c3.068,2.678,5.568,5.823,7.555,9.377
		c2.053,3.67,3.39,7.587,4.012,11.743c0.188,1.257,0.198,2.529,0.198,3.799c0.001,0.091-0.025,0.189,0.047,0.27
		c0,1.036,0,2.073,0,3.11c-0.099,0.773-0.085,1.556-0.128,2.333c-0.099,1.801-0.505,3.541-0.982,5.264
		c-1.374,4.945-3.721,9.395-7.063,13.285c-5.366,6.243-12.104,10.175-20.192,11.77c-1.452,0.285-2.921,0.371-4.396,0.38
		c-0.106,0.001-0.222-0.035-0.317,0.046c-1.225,0-2.45,0-3.675,0c-0.822-0.097-1.65-0.084-2.475-0.129
		c-1.53-0.082-3.012-0.416-4.482-0.796c-4.349-1.124-8.331-3.031-11.954-5.685c-0.326-0.239-0.702-0.426-0.901-0.808
		c-0.029-0.271,0.192-0.373,0.355-0.509c1.756-1.456,3.385-3.042,4.84-4.799c2.475-2.985,4.415-6.283,5.778-9.92
		c1.053-2.809,1.714-5.709,2.035-8.683c0.147-1.37,0.244-2.751,0.204-4.131c-0.168-5.973-1.625-11.592-4.616-16.793
		c-1.767-3.071-3.951-5.809-6.526-8.233c-0.582-0.548-1.175-1.088-1.817-1.567C67.296,106.355,67.156,106.273,67.113,106.106z"/>
	<path fill-rule="evenodd" clip-rule="evenodd" fill="#C6C6C5" d="M67.22,161.023c-0.041,0.006-0.082,0.011-0.123,0.017
		c-0.493-0.574-1.125-0.994-1.683-1.494c-1.113-0.995-2.157-2.057-3.13-3.183c-1.21-1.399-2.29-2.898-3.256-4.478
		c-1.19-1.944-2.188-3.982-2.978-6.12c-0.79-2.136-1.367-4.328-1.748-6.572c-0.443-2.607-0.518-5.243-0.375-7.869
		c0.175-3.215,0.826-6.354,1.91-9.396c1.311-3.68,3.162-7.052,5.591-10.112c0.996-1.254,2.046-2.456,3.206-3.557
		c0.794-0.752,1.6-1.496,2.479-2.152c0.558,0.115,0.892,0.568,1.282,0.907c2.525,2.19,4.708,4.686,6.521,7.496
		c2.582,4.003,4.307,8.34,5.104,13.042c0.257,1.515,0.403,3.035,0.471,4.571c0.273,6.196-1.033,12.044-3.856,17.554
		c-1.27,2.479-2.827,4.771-4.681,6.855C70.504,158.164,68.963,159.701,67.22,161.023z"/>
</g>
<g opacity="0.3">
	<path fill-rule="evenodd" clip-rule="evenodd" fill="#FFFFFF" d="M12.546,33.555c0-0.823,0-1.647,0-2.471
		c0.076-0.597,0.068-1.2,0.1-1.799c0.072-1.389,0.386-2.73,0.757-4.058c1.105-3.956,3.007-7.491,5.733-10.567
		c4.105-4.632,9.2-7.551,15.275-8.753c1.119-0.222,2.251-0.283,3.389-0.294c0.254-0.021,0.512,0.041,0.764-0.037
		c0.606,0,1.211,0,1.817,0c0.252,0.078,0.511,0.017,0.766,0.037c2.178-0.04,4.28,0.394,6.348,1.033
		c2.896,0.896,5.559,2.256,8.003,4.044c0.232,0.169,0.499,0.308,0.624,0.593c0.01,0.038,0.012,0.077,0.006,0.116
		c-0.05,0.174-0.186,0.278-0.316,0.386c-2.527,2.088-4.604,4.556-6.239,7.396c-1.734,3.016-2.825,6.249-3.314,9.694
		c-0.247,1.746-0.28,3.501-0.194,5.251c0.155,3.17,0.903,6.217,2.166,9.132c1.188,2.746,2.798,5.223,4.814,7.43
		c0.85,0.929,1.762,1.797,2.744,2.587c0.159,0.129,0.336,0.251,0.333,0.491c-0.048,0.19-0.194,0.302-0.339,0.41
		c-2.182,1.635-4.544,2.936-7.11,3.863c-1.584,0.574-3.208,0.993-4.869,1.266c-0.728,0.12-1.466,0.105-2.199,0.162
		c-0.117,0.008-0.241-0.037-0.352,0.035c-0.872,0-1.744,0-2.616,0c-0.25-0.078-0.507-0.017-0.76-0.036
		c-3.209,0.038-6.224-0.812-9.146-2.044c-2.473-1.044-4.724-2.463-6.762-4.205c-2.461-2.104-4.505-4.558-6.094-7.387
		c-1.601-2.85-2.651-5.89-3.148-9.117c-0.125-0.812-0.133-1.637-0.145-2.459C12.562,34.02,12.627,33.784,12.546,33.555z"/>
	<path fill-rule="evenodd" clip-rule="evenodd" fill="#FFFFFF" d="M56.093,11.383c0.001-0.017,0.007-0.03,0.015-0.044
		c0.026-0.145,0.142-0.22,0.246-0.3c3.523-2.718,7.487-4.436,11.86-5.22c0.916-0.165,1.847-0.182,2.774-0.209
		c0.142-0.004,0.289,0.042,0.426-0.035c0.774,0,1.55,0,2.325,0c0.5,0.096,1.009,0.047,1.512,0.061
		c1.881,0.054,3.696,0.453,5.481,0.999c3.701,1.13,7.003,2.991,9.916,5.534c2.366,2.065,4.294,4.491,5.826,7.231
		c1.583,2.831,2.613,5.851,3.094,9.056c0.145,0.969,0.152,1.951,0.152,2.93c0.001,0.07-0.02,0.146,0.036,0.208
		c0,0.799,0,1.599,0,2.398c-0.076,0.597-0.065,1.2-0.099,1.799c-0.076,1.389-0.39,2.731-0.758,4.059
		c-1.06,3.814-2.869,7.245-5.446,10.246c-4.139,4.814-9.335,7.847-15.572,9.077c-1.12,0.22-2.252,0.286-3.39,0.293
		c-0.082,0-0.171-0.027-0.245,0.035c-0.944,0-1.889,0-2.833,0c-0.634-0.075-1.273-0.065-1.909-0.1
		c-1.18-0.063-2.323-0.321-3.456-0.614c-3.354-0.867-6.425-2.337-9.219-4.384c-0.251-0.185-0.542-0.328-0.695-0.623
		c-0.022-0.209,0.148-0.288,0.274-0.393c1.355-1.123,2.61-2.346,3.732-3.701c1.909-2.302,3.405-4.846,4.456-7.65
		c0.812-2.166,1.322-4.402,1.57-6.696c0.113-1.057,0.188-2.122,0.157-3.186c-0.13-4.606-1.253-8.939-3.56-12.951
		c-1.362-2.368-3.047-4.479-5.032-6.349c-0.449-0.423-0.907-0.839-1.402-1.209C56.235,11.575,56.126,11.512,56.093,11.383z"/>
	<path fill-rule="evenodd" clip-rule="evenodd" fill="#C6C6C5" d="M56.175,53.734c-0.032,0.004-0.063,0.008-0.095,0.013
		c-0.38-0.443-0.867-0.767-1.297-1.152c-0.858-0.768-1.665-1.586-2.415-2.455c-0.933-1.079-1.765-2.235-2.511-3.453
		c-0.918-1.5-1.687-3.071-2.297-4.72c-0.609-1.647-1.054-3.338-1.348-5.069c-0.342-2.011-0.399-4.043-0.29-6.068
		c0.136-2.479,0.637-4.9,1.473-7.247c1.011-2.837,2.438-5.438,4.313-7.798c0.768-0.967,1.578-1.894,2.472-2.743
		c0.613-0.58,1.234-1.154,1.913-1.66c0.43,0.089,0.687,0.438,0.988,0.7c1.948,1.689,3.632,3.613,5.029,5.781
		c1.991,3.087,3.321,6.432,3.936,10.058c0.199,1.168,0.312,2.341,0.364,3.525c0.21,4.778-0.796,9.288-2.974,13.537
		c-0.979,1.911-2.18,3.679-3.61,5.287C58.708,51.529,57.52,52.714,56.175,53.734z"/>
</g>
<g opacity="0.3">
	<path fill-rule="evenodd" clip-rule="evenodd" fill="#FFFFFF" d="M95.796,77.464c0-0.675,0-1.351,0-2.027
		c0.062-0.491,0.056-0.985,0.081-1.477c0.061-1.14,0.318-2.241,0.622-3.331c0.907-3.247,2.468-6.148,4.706-8.673
		c3.369-3.802,7.551-6.197,12.536-7.185c0.919-0.182,1.848-0.232,2.781-0.242c0.209-0.017,0.421,0.034,0.628-0.03
		c0.497,0,0.994,0,1.49,0c0.207,0.064,0.42,0.014,0.629,0.03c1.788-0.033,3.513,0.323,5.21,0.848
		c2.377,0.735,4.563,1.852,6.568,3.319c0.191,0.139,0.409,0.253,0.512,0.487c0.008,0.031,0.011,0.063,0.006,0.095
		c-0.041,0.143-0.152,0.228-0.26,0.317c-2.074,1.714-3.779,3.74-5.121,6.07c-1.423,2.475-2.317,5.128-2.72,7.956
		c-0.202,1.433-0.229,2.875-0.159,4.31c0.127,2.603,0.741,5.102,1.777,7.496c0.976,2.254,2.297,4.286,3.952,6.098
		c0.697,0.762,1.445,1.475,2.252,2.123c0.13,0.105,0.275,0.207,0.272,0.404c-0.039,0.156-0.158,0.246-0.277,0.336
		c-1.79,1.342-3.73,2.408-5.836,3.17c-1.3,0.471-2.633,0.814-3.996,1.039c-0.597,0.1-1.203,0.086-1.804,0.133
		c-0.097,0.006-0.198-0.031-0.29,0.029c-0.716,0-1.431,0-2.146,0c-0.206-0.064-0.417-0.016-0.624-0.031
		c-2.634,0.033-5.107-0.664-7.506-1.676c-2.03-0.857-3.877-2.021-5.551-3.451c-2.02-1.727-3.697-3.742-5.001-6.063
		c-1.313-2.339-2.177-4.835-2.584-7.484c-0.103-0.667-0.108-1.343-0.118-2.019C95.809,77.846,95.862,77.652,95.796,77.464z"/>
	<path fill-rule="evenodd" clip-rule="evenodd" fill="#FFFFFF" d="M131.537,59.267c0.001-0.013,0.006-0.024,0.012-0.036
		c0.022-0.119,0.116-0.181,0.201-0.246c2.893-2.23,6.145-3.641,9.734-4.285c0.752-0.135,1.516-0.149,2.277-0.172
		c0.116-0.003,0.237,0.034,0.35-0.028c0.636,0,1.271,0,1.908,0c0.41,0.079,0.828,0.039,1.24,0.05
		c1.544,0.044,3.034,0.371,4.499,0.819c3.038,0.928,5.748,2.455,8.139,4.542c1.942,1.695,3.524,3.687,4.781,5.935
		c1.3,2.323,2.146,4.802,2.54,7.433c0.118,0.795,0.125,1.601,0.125,2.404c0,0.058-0.017,0.12,0.029,0.171c0,0.655,0,1.312,0,1.968
		c-0.063,0.49-0.054,0.985-0.081,1.477c-0.063,1.14-0.319,2.241-0.622,3.332c-0.869,3.131-2.354,5.945-4.47,8.41
		c-3.396,3.951-7.661,6.439-12.781,7.449c-0.919,0.18-1.848,0.234-2.781,0.24c-0.067,0-0.141-0.023-0.201,0.029
		c-0.775,0-1.551,0-2.325,0c-0.521-0.061-1.045-0.053-1.567-0.082c-0.968-0.051-1.906-0.264-2.836-0.504
		c-2.753-0.711-5.274-1.918-7.566-3.598c-0.207-0.152-0.445-0.27-0.57-0.512c-0.02-0.172,0.121-0.236,0.224-0.322
		c1.113-0.922,2.144-1.926,3.063-3.037c1.568-1.889,2.795-3.977,3.658-6.278c0.666-1.778,1.084-3.614,1.288-5.497
		c0.093-0.867,0.154-1.742,0.129-2.615c-0.106-3.78-1.028-7.337-2.922-10.629c-1.117-1.944-2.501-3.677-4.13-5.211
		c-0.368-0.347-0.744-0.689-1.15-0.992C131.652,59.425,131.563,59.373,131.537,59.267z"/>
	<path fill-rule="evenodd" clip-rule="evenodd" fill="#C6C6C5" d="M131.604,94.027c-0.026,0.004-0.053,0.006-0.078,0.01
		c-0.313-0.363-0.712-0.629-1.064-0.945c-0.706-0.631-1.367-1.303-1.982-2.014c-0.766-0.887-1.448-1.836-2.061-2.834
		c-0.754-1.232-1.385-2.522-1.886-3.875c-0.5-1.352-0.864-2.738-1.105-4.16c-0.281-1.649-0.329-3.318-0.238-4.98
		c0.111-2.035,0.523-4.021,1.21-5.947c0.828-2.329,2-4.463,3.539-6.4c0.63-0.793,1.294-1.555,2.027-2.251
		c0.504-0.476,1.014-0.947,1.571-1.363c0.353,0.073,0.563,0.36,0.811,0.575c1.599,1.386,2.98,2.965,4.128,4.744
		c1.634,2.534,2.726,5.279,3.229,8.255c0.164,0.958,0.256,1.92,0.299,2.894c0.173,3.921-0.653,7.623-2.441,11.111
		c-0.803,1.568-1.789,3.018-2.962,4.338C133.683,92.217,132.707,93.189,131.604,94.027z"/>
</g>
</svg>
