<?xml version="1.0" encoding="utf-8"?>
<!-- Generator: Adobe Illustrator 16.0.0, SVG Export Plug-In . SVG Version: 6.00 Build 0)  -->
<!DOCTYPE svg PUBLIC "-//W3C//DTD SVG 1.1//EN" "http://www.w3.org/Graphics/SVG/1.1/DTD/svg11.dtd">
<svg version="1.1" id="Layer_1" xmlns="http://www.w3.org/2000/svg" xmlns:xlink="http://www.w3.org/1999/xlink" x="0px" y="0px"
	 width="180px" height="180px" viewBox="0 0 180 180" enable-background="new 0 0 180 180" xml:space="preserve">
<g opacity="0.3">
	<path fill="#FFFFFF" d="M10.646,134.855c0-1.066,0-2.135,0-3.203c0.098-0.774,0.088-1.557,0.129-2.334
		c0.094-1.801,0.501-3.539,0.982-5.262c1.433-5.13,3.898-9.714,7.434-13.703c5.324-6.006,11.93-9.791,19.808-11.351
		c1.451-0.287,2.919-0.366,4.394-0.382c0.33-0.025,0.665,0.054,0.991-0.048c0.786,0,1.57,0,2.356,0
		c0.327,0.102,0.663,0.021,0.994,0.048c2.824-0.053,5.549,0.511,8.231,1.34c3.755,1.161,7.208,2.926,10.378,5.244
		c0.301,0.22,0.646,0.398,0.808,0.77c0.013,0.049,0.016,0.1,0.008,0.149c-0.063,0.226-0.24,0.36-0.41,0.501
		c-3.277,2.708-5.971,5.908-8.089,9.59c-2.249,3.91-3.664,8.104-4.297,12.57c-0.321,2.264-0.363,4.54-0.253,6.809
		c0.201,4.111,1.171,8.063,2.808,11.842c1.541,3.562,3.629,6.772,6.244,9.635c1.101,1.205,2.285,2.33,3.559,3.355
		c0.206,0.167,0.435,0.325,0.431,0.637c-0.063,0.248-0.252,0.393-0.44,0.531c-2.829,2.12-5.892,3.807-9.219,5.01
		c-2.054,0.744-4.159,1.287-6.313,1.642c-0.944,0.155-1.901,0.136-2.851,0.209c-0.152,0.011-0.313-0.048-0.457,0.046
		c-1.131,0-2.262,0-3.393,0c-0.325-0.102-0.658-0.021-0.985-0.047c-4.161,0.049-8.07-1.053-11.859-2.65
		c-3.207-1.354-6.125-3.193-8.769-5.451c-3.192-2.729-5.842-5.91-7.902-9.58c-2.076-3.694-3.438-7.637-4.082-11.821
		c-0.162-1.054-0.172-2.122-0.188-3.188C10.666,135.46,10.75,135.152,10.646,134.855z"/>
	<path fill="#FFFFFF" d="M67.113,106.105c0.003-0.021,0.01-0.039,0.02-0.058c0.035-0.188,0.184-0.284,0.319-0.389
		c4.568-3.524,9.708-5.752,15.379-6.771c1.188-0.213,2.395-0.234,3.598-0.271c0.184-0.005,0.375,0.054,0.551-0.045
		c1.005,0,2.011,0,3.016,0c0.648,0.124,1.309,0.061,1.961,0.079c2.438,0.07,4.792,0.587,7.107,1.295
		c4.799,1.466,9.08,3.879,12.856,7.176c3.067,2.678,5.567,5.822,7.556,9.377c2.053,3.67,3.39,7.587,4.012,11.743
		c0.188,1.257,0.197,2.528,0.197,3.799c0.002,0.091-0.024,0.188,0.047,0.271c0,1.035,0,2.072,0,3.109
		c-0.099,0.773-0.084,1.557-0.127,2.333c-0.1,1.802-0.506,3.541-0.982,5.265c-1.374,4.944-3.721,9.395-7.063,13.285
		c-5.367,6.242-12.104,10.174-20.192,11.77c-1.452,0.285-2.921,0.371-4.396,0.38c-0.106,0.001-0.223-0.035-0.318,0.046
		c-1.224,0-2.449,0-3.674,0c-0.822-0.098-1.65-0.084-2.475-0.129c-1.53-0.082-3.012-0.416-4.482-0.796
		c-4.349-1.124-8.331-3.031-11.954-5.685c-0.326-0.24-0.702-0.427-0.901-0.809c-0.029-0.271,0.192-0.373,0.355-0.509
		c1.756-1.456,3.385-3.042,4.84-4.8c2.475-2.984,4.415-6.282,5.778-9.92c1.053-2.809,1.714-5.709,2.035-8.683
		c0.147-1.37,0.244-2.751,0.204-4.131c-0.168-5.974-1.625-11.592-4.616-16.793c-1.767-3.071-3.951-5.81-6.526-8.233
		c-0.582-0.548-1.175-1.088-1.817-1.566C67.296,106.355,67.156,106.273,67.113,106.105z"/>
	<path fill="#C6C6C5" d="M67.22,161.023c-0.041,0.006-0.082,0.011-0.123,0.017c-0.493-0.574-1.125-0.994-1.683-1.494
		c-1.113-0.995-2.157-2.058-3.13-3.183c-1.21-1.399-2.29-2.898-3.256-4.479c-1.19-1.943-2.188-3.982-2.978-6.119
		s-1.367-4.328-1.748-6.572c-0.443-2.607-0.518-5.243-0.375-7.869c0.175-3.215,0.826-6.354,1.91-9.396
		c1.311-3.68,3.162-7.052,5.591-10.111c0.996-1.254,2.046-2.457,3.206-3.558c0.794-0.752,1.6-1.495,2.479-2.151
		c0.558,0.115,0.892,0.567,1.282,0.906c2.525,2.19,4.708,4.687,6.521,7.496c2.582,4.004,4.307,8.34,5.104,13.042
		c0.257,1.515,0.403,3.035,0.471,4.571c0.273,6.195-1.033,12.044-3.856,17.554c-1.27,2.479-2.827,4.771-4.681,6.855
		C70.504,158.164,68.963,159.701,67.22,161.023z"/>
</g>
<g opacity="0.3">
	<path fill="#FFFFFF" d="M12.546,33.555c0-0.823,0-1.647,0-2.471c0.076-0.597,0.068-1.2,0.1-1.799
		c0.072-1.389,0.386-2.73,0.757-4.058c1.105-3.956,3.007-7.491,5.733-10.567c4.105-4.632,9.2-7.551,15.275-8.753
		c1.119-0.222,2.251-0.283,3.389-0.294c0.254-0.021,0.512,0.041,0.764-0.037c0.606,0,1.211,0,1.817,0
		c0.252,0.078,0.511,0.017,0.766,0.037c2.178-0.04,4.28,0.394,6.348,1.033c2.896,0.896,5.559,2.256,8.003,4.044
		c0.232,0.169,0.499,0.308,0.624,0.593c0.01,0.038,0.012,0.077,0.006,0.116c-0.05,0.174-0.186,0.278-0.316,0.386
		c-2.527,2.088-4.604,4.556-6.239,7.396c-1.734,3.016-2.825,6.249-3.314,9.694c-0.247,1.746-0.28,3.501-0.194,5.251
		c0.155,3.17,0.903,6.217,2.166,9.132c1.188,2.746,2.798,5.223,4.814,7.43c0.85,0.929,1.762,1.797,2.744,2.587
		c0.159,0.129,0.336,0.251,0.333,0.491c-0.048,0.19-0.194,0.302-0.339,0.41c-2.182,1.635-4.544,2.936-7.11,3.863
		c-1.584,0.574-3.208,0.993-4.869,1.266c-0.728,0.12-1.466,0.105-2.199,0.162c-0.117,0.008-0.241-0.037-0.352,0.035
		c-0.872,0-1.744,0-2.616,0c-0.25-0.078-0.507-0.017-0.76-0.036c-3.209,0.038-6.224-0.812-9.146-2.044
		c-2.473-1.044-4.724-2.463-6.762-4.205c-2.461-2.104-4.505-4.558-6.094-7.387c-1.601-2.85-2.651-5.89-3.148-9.117
		c-0.125-0.812-0.133-1.637-0.145-2.459C12.562,34.02,12.627,33.784,12.546,33.555z"/>
	<path fill="#FFFFFF" d="M56.093,11.383c0.001-0.017,0.007-0.03,0.015-0.044c0.026-0.145,0.142-0.22,0.246-0.3
		c3.523-2.718,7.487-4.436,11.86-5.22c0.916-0.165,1.847-0.182,2.774-0.209c0.142-0.004,0.289,0.042,0.426-0.035
		c0.774,0,1.55,0,2.325,0c0.5,0.096,1.009,0.047,1.512,0.061c1.881,0.054,3.696,0.453,5.481,0.999
		c3.701,1.13,7.003,2.991,9.917,5.534c2.365,2.065,4.293,4.491,5.826,7.231c1.582,2.831,2.612,5.851,3.094,9.056
		c0.145,0.969,0.152,1.951,0.152,2.93c0,0.07-0.021,0.146,0.035,0.208c0,0.799,0,1.599,0,2.398c-0.076,0.597-0.064,1.2-0.099,1.799
		c-0.076,1.389-0.39,2.731-0.759,4.059c-1.06,3.814-2.869,7.245-5.445,10.246c-4.139,4.814-9.335,7.847-15.572,9.077
		c-1.12,0.22-2.252,0.286-3.39,0.293c-0.082,0-0.171-0.027-0.245,0.035c-0.944,0-1.889,0-2.833,0
		c-0.634-0.075-1.273-0.065-1.909-0.1c-1.18-0.063-2.323-0.321-3.456-0.614c-3.354-0.867-6.425-2.337-9.219-4.384
		c-0.251-0.185-0.542-0.328-0.695-0.623c-0.022-0.209,0.148-0.288,0.274-0.393c1.355-1.123,2.61-2.346,3.732-3.701
		c1.909-2.302,3.405-4.846,4.456-7.65c0.812-2.166,1.322-4.402,1.57-6.696c0.113-1.057,0.188-2.122,0.157-3.186
		c-0.13-4.606-1.253-8.939-3.56-12.951c-1.362-2.368-3.047-4.479-5.032-6.349c-0.449-0.423-0.907-0.839-1.402-1.209
		C56.235,11.575,56.126,11.512,56.093,11.383z"/>
	<path fill="#C6C6C5" d="M56.175,53.734c-0.032,0.004-0.063,0.008-0.095,0.013c-0.38-0.443-0.867-0.767-1.297-1.152
		c-0.858-0.768-1.665-1.586-2.415-2.455c-0.933-1.079-1.765-2.235-2.511-3.453c-0.918-1.5-1.687-3.071-2.297-4.72
		c-0.609-1.647-1.054-3.338-1.348-5.069c-0.342-2.011-0.399-4.043-0.29-6.068c0.136-2.479,0.637-4.9,1.473-7.247
		c1.011-2.837,2.438-5.438,4.313-7.798c0.768-0.967,1.578-1.894,2.472-2.743c0.613-0.58,1.234-1.154,1.913-1.66
		c0.43,0.089,0.687,0.438,0.988,0.7c1.948,1.689,3.632,3.613,5.029,5.781c1.991,3.087,3.321,6.432,3.936,10.058
		c0.199,1.168,0.312,2.341,0.364,3.525c0.21,4.778-0.796,9.288-2.974,13.537c-0.979,1.911-2.18,3.679-3.61,5.287
		C58.708,51.529,57.52,52.714,56.175,53.734z"/>
</g>
<g opacity="0.3">
	<path fill="#FFFFFF" d="M95.796,77.464c0-0.675,0-1.351,0-2.027c0.062-0.491,0.056-0.985,0.081-1.477
		c0.061-1.14,0.318-2.241,0.622-3.331c0.907-3.247,2.468-6.148,4.706-8.673c3.369-3.802,7.551-6.197,12.536-7.185
		c0.919-0.182,1.848-0.232,2.78-0.242c0.209-0.017,0.422,0.034,0.629-0.03c0.496,0,0.994,0,1.49,0
		c0.207,0.064,0.42,0.014,0.629,0.03c1.787-0.033,3.513,0.323,5.209,0.848c2.377,0.735,4.563,1.852,6.568,3.319
		c0.191,0.139,0.409,0.253,0.512,0.487c0.008,0.031,0.012,0.063,0.006,0.095c-0.041,0.143-0.151,0.228-0.26,0.317
		c-2.074,1.714-3.779,3.74-5.121,6.07c-1.422,2.475-2.316,5.128-2.72,7.956c-0.202,1.433-0.229,2.875-0.159,4.31
		c0.127,2.603,0.741,5.102,1.777,7.496c0.977,2.254,2.297,4.286,3.952,6.099c0.696,0.762,1.444,1.475,2.252,2.123
		c0.13,0.104,0.274,0.207,0.272,0.403c-0.039,0.156-0.158,0.246-0.277,0.337c-1.79,1.342-3.73,2.407-5.836,3.17
		c-1.301,0.471-2.633,0.813-3.996,1.039c-0.598,0.1-1.203,0.086-1.805,0.133c-0.097,0.006-0.197-0.031-0.289,0.028
		c-0.717,0-1.432,0-2.146,0c-0.206-0.063-0.417-0.016-0.624-0.03c-2.634,0.032-5.106-0.664-7.506-1.677
		c-2.03-0.856-3.877-2.021-5.552-3.45c-2.02-1.728-3.696-3.743-5-6.063c-1.313-2.339-2.178-4.835-2.584-7.484
		c-0.104-0.667-0.108-1.343-0.118-2.019C95.809,77.846,95.861,77.652,95.796,77.464z"/>
	<path fill="#FFFFFF" d="M131.537,59.267c0.001-0.013,0.006-0.024,0.012-0.036c0.021-0.119,0.116-0.181,0.201-0.246
		c2.893-2.23,6.145-3.641,9.734-4.285c0.752-0.135,1.516-0.149,2.276-0.172c0.116-0.003,0.237,0.034,0.351-0.028
		c0.636,0,1.271,0,1.908,0c0.41,0.079,0.828,0.039,1.239,0.05c1.544,0.044,3.034,0.371,4.499,0.819
		c3.038,0.928,5.748,2.455,8.139,4.542c1.942,1.695,3.524,3.687,4.781,5.935c1.301,2.323,2.146,4.802,2.54,7.433
		c0.118,0.795,0.125,1.601,0.125,2.404c0,0.058-0.017,0.12,0.029,0.171c0,0.655,0,1.312,0,1.968
		c-0.063,0.49-0.054,0.985-0.081,1.477c-0.063,1.14-0.318,2.241-0.622,3.332c-0.869,3.131-2.354,5.945-4.47,8.41
		c-3.396,3.951-7.661,6.439-12.781,7.449c-0.919,0.18-1.848,0.234-2.781,0.24c-0.066,0-0.141-0.023-0.201,0.028
		c-0.774,0-1.551,0-2.324,0c-0.521-0.061-1.045-0.053-1.567-0.082c-0.968-0.051-1.905-0.264-2.836-0.504
		c-2.753-0.711-5.274-1.918-7.565-3.598c-0.207-0.152-0.445-0.271-0.57-0.513c-0.021-0.172,0.121-0.235,0.224-0.321
		c1.113-0.923,2.144-1.927,3.063-3.037c1.567-1.889,2.795-3.977,3.658-6.278c0.666-1.778,1.084-3.614,1.287-5.497
		c0.094-0.867,0.154-1.742,0.129-2.615c-0.105-3.78-1.027-7.337-2.922-10.629c-1.117-1.944-2.5-3.677-4.13-5.211
		c-0.368-0.347-0.743-0.689-1.149-0.992C131.652,59.425,131.563,59.373,131.537,59.267z"/>
	<path fill="#C6C6C5" d="M131.604,94.027c-0.025,0.004-0.053,0.006-0.078,0.01c-0.313-0.363-0.711-0.629-1.063-0.945
		c-0.706-0.631-1.366-1.303-1.981-2.014c-0.767-0.887-1.448-1.836-2.062-2.834c-0.754-1.232-1.385-2.522-1.886-3.875
		c-0.5-1.352-0.864-2.738-1.105-4.16c-0.281-1.649-0.328-3.318-0.238-4.98c0.111-2.035,0.523-4.021,1.211-5.947
		c0.828-2.329,2-4.463,3.539-6.4c0.629-0.793,1.293-1.555,2.026-2.251c0.505-0.476,1.015-0.947,1.571-1.363
		c0.354,0.073,0.563,0.36,0.811,0.575c1.6,1.386,2.98,2.965,4.129,4.744c1.633,2.534,2.726,5.279,3.229,8.255
		c0.164,0.958,0.256,1.92,0.299,2.894c0.174,3.921-0.652,7.623-2.441,11.111c-0.803,1.568-1.789,3.018-2.961,4.338
		C133.684,92.217,132.707,93.189,131.604,94.027z"/>
</g>
</svg>
