<?xml version="1.0" encoding="utf-8"?>
<!-- Generator: Adobe Illustrator 16.0.0, SVG Export Plug-In . SVG Version: 6.00 Build 0)  -->
<!DOCTYPE svg PUBLIC "-//W3C//DTD SVG 1.1//EN" "http://www.w3.org/Graphics/SVG/1.1/DTD/svg11.dtd">
<svg version="1.1" id="Layer_1" xmlns="http://www.w3.org/2000/svg" xmlns:xlink="http://www.w3.org/1999/xlink" x="0px" y="0px"
	 width="180px" height="180px" viewBox="0 0 180 180" enable-background="new 0 0 180 180" xml:space="preserve">
<g opacity="0.4">
	<path fill-rule="evenodd" clip-rule="evenodd" fill="#FFFFFF" d="M68.878,128.149c0,3.084,0.038,5.953-0.011,8.818
		c-0.059,3.434,1.34,5.943,4.367,7.638c3.943,2.203,7.814,4.533,11.726,6.788c2.819,1.626,5.633,1.716,8.475-0.008
		c3.864-2.34,7.754-4.64,11.64-6.941c2.737-1.621,4.115-3.962,4.078-7.187c-0.057-4.69-0.045-9.382-0.005-14.071
		c0.027-3.214-1.324-5.563-4.104-7.157c-3.986-2.29-7.946-4.626-11.931-6.92c-2.862-1.647-5.674-1.65-8.587,0.052
		c-14.484,8.462-28.999,16.876-43.512,25.291c-2.766,1.604-5.543,1.685-8.374,0.027c-7.833-4.579-15.698-9.103-23.544-13.662
		c-2.701-1.567-4.091-3.895-4.085-7.061c0.018-9.179,0.013-18.357,0.002-27.536c-0.004-3.016,1.253-5.175,3.92-6.707
		c7.972-4.581,15.883-9.266,23.814-13.92c2.898-1.702,5.763-1.783,8.699-0.044c7.632,4.525,15.283,9.02,22.94,13.5
		c2.832,1.657,4.28,4.031,4.211,7.355c-0.062,2.95-0.017,5.903-0.01,8.854c0.001,0.451,0,0.815-0.498,1.1
		c-3.604,2.051-7.185,4.14-10.979,6.336c0-1.182,0-2.202,0-3.222c0-2.104,0.005-4.207-0.002-6.309
		c-0.011-3.075-1.282-5.418-3.967-7.01c-4.06-2.407-8.072-4.893-12.125-7.31c-2.761-1.646-5.551-1.714-8.368-0.057
		c-3.961,2.332-7.942,4.63-11.925,6.925c-2.799,1.613-4.231,3.978-4.207,7.242c0.035,4.65,0.035,9.301,0,13.95
		c-0.024,3.24,1.296,5.64,4.111,7.296c4.033,2.369,8.001,4.852,12.025,7.238c2.719,1.612,5.532,1.749,8.258,0.054
		c14.424-8.966,29.465-16.871,43.991-25.658c2.792-1.689,5.613-1.754,8.476-0.085c7.771,4.53,15.553,9.037,23.339,13.536
		c2.879,1.664,4.29,4.092,4.272,7.454c-0.049,9.099-0.044,18.196-0.004,27.295c0.014,3.394-1.38,5.829-4.343,7.522
		c-7.666,4.384-15.296,8.828-22.921,13.291c-3.072,1.797-6.009,1.833-9.124-0.014c-7.63-4.525-15.327-8.941-23.009-13.377
		c-2.85-1.646-4.271-4.036-4.197-7.355c0.062-2.829,0.014-5.659,0.011-8.49c0-0.441-0.033-0.825,0.471-1.113
		C61.478,132.447,65.062,130.357,68.878,128.149z"/>
</g>
<g opacity="0.4">
	<path fill-rule="evenodd" clip-rule="evenodd" fill="#FFFFFF" d="M130.454,68.629c0,2.34,0.027,4.517-0.01,6.689
		c-0.044,2.604,1.017,4.508,3.313,5.795c2.991,1.67,5.928,3.438,8.895,5.148c2.139,1.232,4.272,1.301,6.429-0.006
		c2.932-1.775,5.882-3.52,8.829-5.266c2.077-1.23,3.122-3.005,3.094-5.452c-0.043-3.559-0.034-7.117-0.004-10.674
		c0.021-2.438-1.004-4.22-3.112-5.429c-3.024-1.737-6.028-3.509-9.051-5.25c-2.171-1.25-4.304-1.252-6.514,0.04
		c-10.987,6.419-21.998,12.801-33.008,19.185c-2.098,1.218-4.204,1.278-6.352,0.021c-5.941-3.474-11.908-6.905-17.859-10.364
		c-2.049-1.189-3.104-2.954-3.099-5.356c0.014-6.962,0.01-13.925,0.001-20.888c-0.003-2.288,0.95-3.925,2.974-5.088
		c6.048-3.475,12.049-7.029,18.065-10.559c2.198-1.291,4.37-1.353,6.598-0.033c5.79,3.433,11.594,6.842,17.402,10.24
		c2.148,1.257,3.246,3.058,3.194,5.579c-0.047,2.238-0.014,4.479-0.008,6.717c0.001,0.342,0,0.619-0.377,0.834
		c-2.734,1.556-5.451,3.14-8.328,4.806c0-0.896,0-1.67,0-2.444c0-1.596,0.004-3.191-0.002-4.786
		c-0.009-2.333-0.973-4.11-3.009-5.317c-3.08-1.826-6.123-3.712-9.198-5.545c-2.095-1.248-4.211-1.3-6.348-0.043
		c-3.005,1.769-6.025,3.513-9.047,5.253c-2.123,1.224-3.209,3.018-3.191,5.494c0.026,3.528,0.026,7.056,0,10.583
		c-0.018,2.458,0.983,4.278,3.118,5.535c3.06,1.797,6.07,3.68,9.123,5.491c2.062,1.223,4.196,1.327,6.264,0.041
		c10.941-6.801,22.352-12.798,33.37-19.464c2.118-1.281,4.259-1.33,6.43-0.064c5.895,3.437,11.798,6.855,17.704,10.268
		c2.185,1.262,3.255,3.104,3.241,5.654c-0.037,6.902-0.033,13.804-0.003,20.706c0.011,2.574-1.047,4.422-3.294,5.705
		c-5.815,3.326-11.604,6.697-17.388,10.082c-2.33,1.363-4.558,1.393-6.92-0.01c-5.789-3.434-11.627-6.783-17.455-10.146
		c-2.161-1.25-3.24-3.063-3.184-5.58c0.047-2.146,0.01-4.292,0.009-6.441c-0.001-0.334-0.025-0.626,0.356-0.844
		C124.839,71.89,127.559,70.305,130.454,68.629z"/>
</g>
</svg>
