<?xml version="1.0" encoding="utf-8"?>
<!-- Generator: Adobe Illustrator 16.0.0, SVG Export Plug-In . SVG Version: 6.00 Build 0)  -->
<!DOCTYPE svg PUBLIC "-//W3C//DTD SVG 1.1//EN" "http://www.w3.org/Graphics/SVG/1.1/DTD/svg11.dtd">
<svg version="1.1" id="Layer_1" xmlns="http://www.w3.org/2000/svg" xmlns:xlink="http://www.w3.org/1999/xlink" x="0px" y="0px"
	 width="180px" height="180px" viewBox="0 0 180 180" enable-background="new 0 0 180 180" xml:space="preserve">
<g opacity="0.5">
	<path opacity="0.7" fill="#FFFFFF" enable-background="new    " d="M26.487,74.667c13.283,0,26.565,0,39.847,0
		c0.795,0.188,1.617,0.132,2.42,0.246c3.694,0.525,6.822,2.278,9.611,4.634c5.336,4.504,7.904,10.321,7.892,17.285
		c-0.003,1.298,0.186,2.63-0.465,3.854c-0.085,0.082-0.187,0.127-0.302,0.144c-0.635,0.013-1.108-0.382-1.612-0.675
		c-2.396-1.391-4.972-2.141-7.729-2.426c-2.659-0.271-5.317-0.137-7.974-0.149c-6.408-0.035-12.817-0.013-19.226-0.011
		c-2.005,0-3.826,0.438-5.252,2.006c-0.978,1.074-1.369,2.354-1.61,3.734c-1.336,7.655-2.512,15.338-3.893,22.985
		c-0.414,2.291-0.67,4.608-1.225,6.873c-0.056,0.231,0.002,0.458,0.03,0.685c-0.632,3.277-1.132,6.578-1.695,9.865
		c-0.907,5.292-1.726,10.598-2.695,15.877c-0.13,0.713-0.281,1.413-0.689,2.029c-1.068,1.997-2.719,2.868-4.996,2.833
		c-4.237-0.065-8.478-0.099-12.713,0.006c-3.21,0.082-5.677-3.235-5.18-6.139c1.949-11.374,3.865-22.753,5.759-34.138
		c1.598-9.604,3.223-19.203,4.828-28.809c0.913-5.463,1.823-10.928,2.758-16.389c0.116-0.678,0.303-1.343,0.621-1.966
		C23.728,75.594,24.887,74.806,26.487,74.667z"/>
	<path opacity="0.7" fill="#E5E5E5" enable-background="new    " d="M85.689,100.734c3.873,2.887,6.469,6.635,7.568,11.355
		c0.961,4.122,0.593,8.235-0.596,12.227c-3.391,11.393-10.926,18.574-22.432,21.535c-2.931,0.756-5.96,0.938-8.972,0.789
		c-4.121-0.207-7.318,2.321-7.97,7.063c-0.631,4.585-1.505,9.139-2.275,13.706c-0.206,1.223-0.519,2.437-0.61,3.667
		c-0.164,2.199-1.174,3.73-3.202,4.589c-4.603,0-9.206,0-13.808,0c-2.676-0.621-3.938-2.509-3.491-5.263
		c0.377-2.32,0.807-4.635,1.138-6.963c0.103-0.719,0.607-1.299,0.617-2.037c0.814-2.064,0.939-4.274,1.315-6.426
		c1.16-6.639,2.248-13.291,3.375-19.936c0.069-0.413,0.242-0.811,0.367-1.212c0.223-1.624,1.384-2.39,2.753-2.896
		c0.957-0.353,1.978-0.451,3.005-0.451c3.482,0.004,6.965,0.065,10.446-0.014c5.04-0.111,9.768-1.494,14.247-3.773
		c3.25-1.652,6.164-3.778,8.673-6.408c4.735-4.965,7.863-10.788,9.088-17.586c0.124-0.691,0.089-1.465,0.681-2.008l0.059-0.015
		L85.689,100.734z"/>
	<path opacity="0.7" fill="#D1D2CF" enable-background="new    " d="M85.607,100.693c-0.297,3.355-1.222,6.551-2.578,9.615
		c-2.836,6.412-7.213,11.533-13.135,15.297c-4.377,2.78-9.153,4.508-14.314,5.071c-4.547,0.496-9.116,0.177-13.674,0.237
		c-2.283,0.031-4.073,0.854-5.192,2.915c-0.296-0.959,0.118-1.866,0.268-2.774c1.256-7.621,2.568-15.23,3.865-22.846
		c0.324-1.902,0.61-3.814,0.987-5.708c0.654-3.28,3.024-5.315,6.358-5.329c8.873-0.04,17.747-0.074,26.619,0.016
		C78.73,97.229,82.357,98.451,85.607,100.693z"/>
</g>
<g opacity="0.5">
	<path opacity="0.7" fill="#FFFFFF" enable-background="new    " d="M110.339,11.633c10.767,0,21.533,0,32.3,0
		c0.645,0.152,1.311,0.107,1.961,0.2c2.996,0.425,5.528,1.847,7.789,3.756c4.326,3.651,6.408,8.365,6.398,14.011
		c-0.004,1.052,0.15,2.132-0.377,3.125c-0.069,0.066-0.152,0.103-0.246,0.116c-0.514,0.01-0.898-0.31-1.307-0.546
		c-1.941-1.127-4.03-1.736-6.265-1.966c-2.155-0.222-4.311-0.111-6.464-0.123c-5.193-0.028-10.389-0.01-15.583-0.008
		c-1.626,0.001-3.103,0.355-4.258,1.625c-0.793,0.871-1.11,1.908-1.306,3.028c-1.084,6.206-2.037,12.433-3.156,18.632
		c-0.334,1.856-0.543,3.736-0.992,5.571c-0.046,0.188,0.002,0.371,0.023,0.555c-0.512,2.656-0.918,5.331-1.373,7.997
		c-0.735,4.29-1.399,8.589-2.186,12.87c-0.105,0.577-0.229,1.145-0.559,1.645c-0.866,1.619-2.204,2.325-4.051,2.297
		c-3.435-0.054-6.873-0.08-10.306,0.004c-2.603,0.067-4.602-2.623-4.198-4.976c1.58-9.219,3.133-18.443,4.668-27.67
		c1.297-7.785,2.612-15.566,3.914-23.352c0.739-4.428,1.479-8.857,2.235-13.284c0.095-0.549,0.246-1.089,0.503-1.594
		C108.102,12.384,109.041,11.746,110.339,11.633z"/>
	<path opacity="0.7" fill="#E5E5E5" enable-background="new    " d="M158.327,32.764c3.139,2.339,5.243,5.377,6.133,9.204
		c0.778,3.342,0.479,6.676-0.481,9.91c-2.75,9.234-8.857,15.056-18.185,17.457c-2.374,0.611-4.83,0.76-7.271,0.639
		c-3.34-0.168-5.933,1.882-6.461,5.725c-0.512,3.716-1.221,7.407-1.846,11.109c-0.166,0.991-0.419,1.976-0.494,2.973
		c-0.132,1.781-0.949,3.023-2.595,3.72c-3.729,0-7.463,0-11.192,0c-2.17-0.503-3.192-2.034-2.83-4.266
		c0.307-1.881,0.653-3.756,0.922-5.644c0.084-0.581,0.494-1.052,0.502-1.651c0.66-1.673,0.761-3.465,1.066-5.208
		c0.939-5.381,1.82-10.773,2.734-16.16c0.056-0.334,0.197-0.656,0.298-0.982c0.181-1.317,1.121-1.937,2.231-2.347
		c0.775-0.286,1.604-0.367,2.437-0.366c2.822,0.003,5.646,0.053,8.466-0.011c4.088-0.091,7.92-1.211,11.549-3.059
		c2.635-1.339,4.996-3.063,7.03-5.195c3.839-4.024,6.374-8.744,7.367-14.254c0.101-0.561,0.071-1.187,0.552-1.627l0.049-0.011
		L158.327,32.764z"/>
	<path opacity="0.7" fill="#D1D2CF" enable-background="new    " d="M158.26,32.73c-0.24,2.72-0.99,5.309-2.089,7.793
		c-2.299,5.198-5.849,9.349-10.647,12.4c-3.549,2.253-7.418,3.653-11.604,4.11c-3.686,0.402-7.388,0.143-11.083,0.192
		c-1.853,0.025-3.302,0.693-4.209,2.363c-0.239-0.778,0.097-1.513,0.218-2.249c1.018-6.177,2.081-12.347,3.133-18.518
		c0.263-1.543,0.494-3.092,0.801-4.627c0.529-2.66,2.451-4.309,5.152-4.32c7.192-0.033,14.387-0.061,21.576,0.013
		C152.686,29.92,155.625,30.912,158.26,32.73z"/>
</g>
</svg>
