<?xml version="1.0" encoding="utf-8"?>
<!-- Generator: Adobe Illustrator 16.0.0, SVG Export Plug-In . SVG Version: 6.00 Build 0)  -->
<!DOCTYPE svg PUBLIC "-//W3C//DTD SVG 1.1//EN" "http://www.w3.org/Graphics/SVG/1.1/DTD/svg11.dtd">
<svg version="1.1" id="Layer_1" opacity="0.7" xmlns="http://www.w3.org/2000/svg" xmlns:xlink="http://www.w3.org/1999/xlink"
	 x="0px" y="0px" width="180px" height="180px" viewBox="0 0 180 180" enable-background="new 0 0 180 180" xml:space="preserve">
<g opacity="0.6">
	<path fill="#898888" d="M107.463,138.508l-9.024-9.032l-2.02-2.015l-19.366,19.367c5.974,3.149,12.611,4.834,19.366,4.916
		c16.737,0,28.624-10.715,30.849-12.866l0.051-0.045l0.326-0.325C122.069,144.073,113.038,144.073,107.463,138.508z"/>
	<path fill="#878686" d="M149.593,87.336c-5.583-2.314-12.012-1.035-16.286,3.237l-36.888,36.883l0.006,0.006
		c33.607,6.831,58.012-15.759,58.012-15.759c2.807-2.797,4.382-6.598,4.377-10.559C158.815,95.101,155.177,89.65,149.593,87.336z"/>
	<path fill="#706F6F" d="M107.463,138.5l-9.024-9.031l-2.014-2.007c-0.002,0-0.004-0.001-0.006-0.001l2.02,2.015l9.024,9.032
		c5.575,5.565,14.606,5.565,20.182,0l26.792-26.805L127.645,138.5C122.069,144.065,113.038,144.065,107.463,138.5z"/>
	<path fill="#706F6F" d="M96.425,127.462l2.014,2.007l9.024,9.031c5.575,5.565,14.606,5.565,20.182,0l26.792-26.797
		C154.437,111.703,130.032,134.293,96.425,127.462z"/>
	<path fill="#AFAFAF" d="M77.053,146.828l-1.763,1.763l10.467,10.476c5.89,5.89,15.438,5.89,21.328,0l20.183-20.188
		c-2.225,2.151-14.111,12.866-30.849,12.866C89.664,151.662,83.027,149.978,77.053,146.828z"/>
	<path fill="#DDDDDD" d="M58.231,138.508l-9.03-9.032l-2.014-2.015l-10.57-10.57c-5.837-5.833-15.298-5.832-21.132,0.006
		c-5.834,5.834-5.833,15.295,0.003,21.131l0.499,0.499c2.556,2.446,14.708,13.218,31.201,13.218
		c16.866,0,28.811-10.879,30.888-12.918l-20.233,20.24c-2.944,2.944-6.802,4.416-10.66,4.417c3.86,0.001,7.721-1.472,10.666-4.417
		l20.56-20.559C72.833,144.072,63.806,144.072,58.231,138.508z"/>
	<path fill="#C1C0BF" d="M105.2,111.703c2.807-2.797,4.381-6.598,4.377-10.559c0.001-6.044-3.638-11.494-9.222-13.809
		s-12.011-1.035-16.284,3.237l-36.884,36.888C80.773,134.296,105.2,111.703,105.2,111.703z"/>
	<path fill="#898888" d="M58.231,138.508c5.574,5.564,14.602,5.564,20.176,0l26.792-26.805c0,0-24.427,22.593-58.013,15.758
		l2.014,2.015L58.231,138.508z"/>
	<path fill="#D1D1D1" d="M26.052,148.591l-10.065-10.064c-0.059-0.056-0.118-0.113-0.167-0.16l10.226,10.225l10.469,10.476
		c2.946,2.945,6.807,4.418,10.667,4.417c-3.858-0.001-7.716-1.473-10.661-4.417L26.052,148.591z"/>
	<path fill="#D1D1D1" d="M78.075,138.826c-2.077,2.039-14.021,12.918-30.888,12.918c-16.493,0-28.645-10.771-31.201-13.218
		l10.065,10.064l10.469,10.476c2.944,2.944,6.802,4.416,10.661,4.417c3.858-0.001,7.716-1.473,10.66-4.417L78.075,138.826z"/>
</g>
<g opacity="0.6">
	<path fill="#898888" d="M88.486,56.736l-6.492-6.498l-1.453-1.449L66.609,62.722c4.298,2.266,9.073,3.478,13.932,3.537
		c12.041,0,20.592-7.708,22.192-9.256l0.037-0.032l0.234-0.234C98.994,60.74,92.497,60.74,88.486,56.736z"/>
	<path fill="#878686" d="M118.795,19.923c-4.017-1.665-8.642-0.745-11.717,2.329L80.542,48.786l0.004,0.004
		c24.177,4.914,41.734-11.337,41.734-11.337c2.019-2.012,3.152-4.747,3.148-7.596C125.429,25.509,122.812,21.588,118.795,19.923z"/>
	<path fill="#706F6F" d="M88.486,56.73l-6.492-6.497l-1.449-1.443c-0.001,0-0.002-0.001-0.004-0.001l1.453,1.449l6.492,6.498
		c4.011,4.004,10.508,4.004,14.519,0l19.274-19.283L103.005,56.73C98.994,60.734,92.497,60.734,88.486,56.73z"/>
	<path fill="#706F6F" d="M80.545,48.79l1.449,1.443l6.492,6.497c4.011,4.004,10.508,4.004,14.519,0l19.274-19.277
		C122.279,37.453,104.723,53.704,80.545,48.79z"/>
	<path fill="#AFAFAF" d="M66.609,62.722l-1.268,1.268l7.53,7.536c4.237,4.237,11.106,4.237,15.343,0l14.519-14.523
		c-1.6,1.548-10.151,9.256-22.192,9.256C75.682,66.199,70.908,64.987,66.609,62.722z"/>
	<path fill="#DDDDDD" d="M53.069,56.736l-6.496-6.498l-1.449-1.449l-7.604-7.604c-4.199-4.196-11.006-4.196-15.203,0.004
		c-4.197,4.197-4.196,11.003,0.003,15.202l0.358,0.359c1.839,1.76,10.581,9.509,22.446,9.509c12.133,0,20.726-7.826,22.22-9.293
		L52.789,71.526c-2.117,2.118-4.893,3.177-7.669,3.178c2.777,0,5.554-1.059,7.673-3.178l14.791-14.79
		C63.574,60.739,57.08,60.739,53.069,56.736z"/>
	<path fill="#C1C0BF" d="M86.858,37.453c2.02-2.012,3.151-4.747,3.149-7.596c0-4.348-2.617-8.269-6.634-9.934
		s-8.642-0.745-11.715,2.329L45.125,48.789C69.286,53.706,86.858,37.453,86.858,37.453z"/>
	<path fill="#898888" d="M53.069,56.736c4.01,4.003,10.505,4.003,14.515,0l19.274-19.283c0,0-17.572,16.253-41.734,11.336
		l1.449,1.449L53.069,56.736z"/>
	<path fill="#D1D1D1" d="M29.92,63.99l-7.242-7.24c-0.042-0.04-0.084-0.082-0.119-0.115l7.356,7.355l7.531,7.536
		c2.12,2.119,4.897,3.178,7.674,3.178c-2.775,0-5.551-1.06-7.669-3.178L29.92,63.99z"/>
	<path fill="#D1D1D1" d="M67.345,56.965c-1.494,1.467-10.087,9.293-22.22,9.293c-11.865,0-20.607-7.749-22.446-9.509l7.242,7.24
		l7.531,7.536c2.118,2.118,4.894,3.177,7.669,3.178c2.776,0,5.552-1.06,7.669-3.178L67.345,56.965z"/>
</g>
</svg>
