<?xml version="1.0" encoding="utf-8"?>
<!-- Generator: Adobe Illustrator 16.0.0, SVG Export Plug-In . SVG Version: 6.00 Build 0)  -->
<!DOCTYPE svg PUBLIC "-//W3C//DTD SVG 1.1//EN" "http://www.w3.org/Graphics/SVG/1.1/DTD/svg11.dtd">
<svg version="1.1" id="Layer_1" opacity="0.5" xmlns="http://www.w3.org/2000/svg" xmlns:xlink="http://www.w3.org/1999/xlink"
	 x="0px" y="0px" width="180px" height="180px" viewBox="0 0 180 180" enable-background="new 0 0 180 180" xml:space="preserve">
<g>
	<path fill="#FFFFFF" d="M118.525,131.73l-81.952,21.834c-0.889,0.238-1.646,0.816-2.107,1.611l-11.883,20.496
		c-0.775,1.336,0.453,2.943,1.946,2.545l81.951-21.834c0.891-0.236,1.647-0.816,2.108-1.611l11.882-20.496
		C121.246,132.941,120.018,131.334,118.525,131.73z"/>
	<path fill="#FFFFFF" d="M8.424,117.768l81.952-21.834c0.89-0.236,1.646-0.816,2.107-1.611l11.883-20.496
		c0.774-1.336-0.454-2.942-1.945-2.545L20.468,93.115c-0.888,0.236-1.646,0.816-2.107,1.611L6.479,115.221
		C5.703,116.559,6.932,118.164,8.424,117.768z"/>
	<path fill="#FFFFFF" d="M95.673,106.293c-0.795-0.461-1.739-0.586-2.63-0.35l-81.952,21.834c-1.493,0.398-1.759,2.402-0.421,3.176
		l20.504,11.865c0.796,0.463,1.742,0.588,2.629,0.352l81.953-21.834c1.492-0.398,1.759-2.402,0.421-3.178L95.673,106.293z"/>
</g>
<g>
	<path fill="#FFFFFF" d="M130.719,43.439l-54.74,14.584c-0.593,0.159-1.1,0.545-1.408,1.076l-7.937,13.69
		c-0.518,0.892,0.303,1.966,1.3,1.7l54.74-14.584c0.595-0.158,1.101-0.546,1.408-1.077l7.937-13.69
		C132.536,44.248,131.716,43.174,130.719,43.439z"/>
	<path fill="#FFFFFF" d="M57.177,34.113l54.739-14.584c0.595-0.158,1.1-0.545,1.408-1.076l7.938-13.691
		c0.518-0.893-0.304-1.965-1.3-1.7L65.221,17.646c-0.593,0.158-1.099,0.546-1.407,1.077l-7.937,13.689
		C55.359,33.305,56.179,34.377,57.177,34.113z"/>
	<path fill="#FFFFFF" d="M115.455,26.448c-0.531-0.308-1.162-0.392-1.757-0.233l-54.74,14.584c-0.997,0.266-1.175,1.604-0.282,2.122
		l13.696,7.925c0.532,0.31,1.163,0.393,1.756,0.235l54.741-14.584c0.997-0.266,1.175-1.604,0.281-2.123L115.455,26.448z"/>
</g>
</svg>
