<?xml version="1.0" encoding="utf-8"?>
<!-- Generator: Adobe Illustrator 16.0.0, SVG Export Plug-In . SVG Version: 6.00 Build 0)  -->
<!DOCTYPE svg PUBLIC "-//W3C//DTD SVG 1.1//EN" "http://www.w3.org/Graphics/SVG/1.1/DTD/svg11.dtd">
<svg version="1.1" id="Layer_1" opacity="0.7" xmlns="http://www.w3.org/2000/svg" xmlns:xlink="http://www.w3.org/1999/xlink"
	 x="0px" y="0px" width="180px" height="180px" viewBox="0 0 180 180" enable-background="new 0 0 180 180" xml:space="preserve">
<path fill="#FFFFFF" d="M17.086,89.454l55.63-7.847c1.968-0.277,3.974-0.264,6.165,0.406c2.628,0.798,4.188,2.425,5.293,3.634
	c0.087,0.099,0.168,0.192,0.247,0.293c1.346,1.766,2.191,3.756,2.505,5.979c0.298,2.115,0.122,4.489-0.723,6.654
	c-0.008,0.022-0.02,0.041-0.024,0.061l-26.628,65.337c-0.587,1.438-1.901,2.457-3.443,2.667c-1.54,0.214-3.079-0.413-4.031-1.64
	L9.075,109.617c-0.013-0.013-0.023-0.028-0.036-0.045c-0.974-1.188-2.479-3.029-3.058-5.595c-0.534-2.359-0.333-4.828,0.572-7.073
	c0.907-2.245,2.479-4.157,4.509-5.477C13.237,90.009,15.597,89.665,17.086,89.454z M41.591,94.799l-23.287,3.285
	c-1.531,0.216-2.104,0.392-2.489,0.64c-0.53,0.347-0.945,0.851-1.187,1.444c-0.24,0.599-0.295,1.255-0.151,1.891
	c0.081,0.363,0.288,0.757,1.376,2.09c0.022,0.027,0.044,0.057,0.066,0.086l32.996,42.491L41.591,94.799z M50.213,93.582
	l7.358,52.157l20.521-50.354c0.23-0.597,0.324-1.428,0.208-2.249c-0.094-0.667-0.313-1.222-0.705-1.772
	c-0.39-0.419-0.619-0.64-0.809-0.783c-0.163-0.125-0.281-0.187-0.443-0.241c-0.685-0.206-1.362-0.251-2.41-0.104L50.213,93.582z"/>
<path fill="#FFFFFF" d="M74.27,20.492l43.903-6.193c1.553-0.219,3.136-0.208,4.864,0.32c2.075,0.63,3.306,1.914,4.178,2.868
	c0.069,0.078,0.133,0.152,0.195,0.231c1.063,1.394,1.729,2.964,1.977,4.719c0.235,1.669,0.096,3.542-0.57,5.251
	c-0.006,0.018-0.016,0.032-0.019,0.047l-21.016,51.563c-0.464,1.135-1.5,1.938-2.717,2.104c-1.215,0.169-2.43-0.326-3.182-1.294
	L67.947,36.404c-0.009-0.01-0.019-0.022-0.028-0.035c-0.769-0.938-1.958-2.391-2.414-4.416c-0.421-1.862-0.263-3.81,0.452-5.582
	c0.716-1.771,1.957-3.281,3.559-4.322C71.232,20.929,73.095,20.658,74.27,20.492z M93.608,24.709l-18.377,2.593
	c-1.208,0.17-1.661,0.309-1.965,0.505c-0.418,0.273-0.746,0.671-0.936,1.14c-0.189,0.473-0.233,0.99-0.119,1.492
	c0.064,0.287,0.227,0.597,1.086,1.649c0.019,0.021,0.035,0.044,0.052,0.067l26.04,33.534L93.608,24.709z M100.413,23.75
	l5.808,41.162l16.195-39.739c0.182-0.471,0.256-1.126,0.164-1.775c-0.074-0.526-0.247-0.964-0.557-1.398
	c-0.308-0.331-0.488-0.505-0.639-0.618c-0.128-0.099-0.221-0.147-0.35-0.19c-0.54-0.163-1.074-0.198-1.902-0.082L100.413,23.75z"/>
<path fill="#FFFFFF" d="M107.071,107.738l36.529-5.153c1.292-0.183,2.609-0.173,4.047,0.267c1.727,0.524,2.751,1.593,3.477,2.386
	c0.058,0.065,0.11,0.127,0.162,0.192c0.884,1.16,1.438,2.466,1.645,3.927c0.196,1.389,0.08,2.947-0.475,4.369
	c-0.005,0.015-0.013,0.027-0.016,0.04l-17.485,42.902c-0.386,0.944-1.248,1.614-2.261,1.752c-1.011,0.14-2.021-0.271-2.647-1.077
	l-28.236-36.365c-0.008-0.008-0.016-0.019-0.022-0.029c-0.641-0.78-1.63-1.988-2.009-3.674c-0.352-1.549-0.22-3.171,0.375-4.645
	c0.596-1.474,1.629-2.73,2.961-3.597C104.544,108.103,106.094,107.876,107.071,107.738z M123.162,111.247l-15.291,2.158
	c-1.005,0.141-1.382,0.257-1.635,0.419c-0.348,0.228-0.621,0.559-0.779,0.949c-0.157,0.394-0.193,0.824-0.099,1.241
	c0.054,0.238,0.188,0.497,0.903,1.372c0.016,0.018,0.029,0.037,0.044,0.057l21.666,27.901L123.162,111.247z M128.823,110.449
	l4.832,34.248l13.476-33.065c0.151-0.392,0.213-0.938,0.137-1.477c-0.062-0.438-0.206-0.802-0.463-1.164
	c-0.256-0.274-0.406-0.419-0.532-0.514c-0.106-0.083-0.184-0.123-0.29-0.159c-0.45-0.135-0.895-0.164-1.583-0.068L128.823,110.449z"
	/>
</svg>
