<?xml version="1.0" encoding="utf-8"?>
<!-- Generator: Adobe Illustrator 16.0.0, SVG Export Plug-In . SVG Version: 6.00 Build 0)  -->
<!DOCTYPE svg PUBLIC "-//W3C//DTD SVG 1.1//EN" "http://www.w3.org/Graphics/SVG/1.1/DTD/svg11.dtd">
<svg version="1.1" id="Layer_1" xmlns="http://www.w3.org/2000/svg" xmlns:xlink="http://www.w3.org/1999/xlink" x="0px" y="0px"
	 width="180px" height="180px" viewBox="0 0 180 180" enable-background="new 0 0 180 180" xml:space="preserve">
<path opacity="0.5" fill="#FFFFFF" enable-background="new    " d="M101.271,107.08c-4.908-6.512-9.813-13.023-14.748-19.519
	c-0.264-0.348-0.73-0.617-1.156-0.753c-1.821-0.59-3.664-1.108-5.497-1.663c-9.23-2.789-18.461-5.583-27.692-8.372
	c-8.878-2.683-17.757-5.366-26.637-8.042c-3.022-0.911-6.049-1.807-9.251-2.762c9.186,32.889,18.325,65.617,27.514,98.518
	c19.296-19.139,38.458-38.144,57.595-57.125C101.333,107.215,101.313,107.139,101.271,107.08z M30.267,75.618
	c16.149,5.029,32.298,10.059,48.725,15.176c-7.138,4.688-14.105,9.267-21.175,13.912c-9.268-9.659-18.469-19.252-27.671-28.844
	C30.186,75.781,30.227,75.699,30.267,75.618z M54.369,110.215c-2.424,9.908-4.795,19.83-7.171,29.749
	c-0.662,2.759-1.299,5.522-1.951,8.281c-0.04,0.168-0.116,0.328-0.176,0.491c-0.084,0.005-0.169,0.012-0.253,0.019
	c-6.496-23.567-12.992-47.139-19.488-70.707c0.062-0.043,0.124-0.086,0.187-0.132c0.533,0.563,1.073,1.119,1.6,1.686
	c8.925,9.629,17.845,19.259,26.78,28.876C54.39,109.012,54.558,109.443,54.369,110.215z M50.862,149.743
	c-0.052-0.04-0.104-0.082-0.159-0.122c0.929-3.854,1.855-7.712,2.785-11.566c1.262-5.23,2.528-10.457,3.788-15.688
	c0.786-3.262,1.58-6.52,2.326-9.786c0.163-0.706,0.592-0.833,1.181-0.854c5.777-0.219,11.554-0.434,17.331-0.658
	c4.378-0.174,8.756-0.362,13.135-0.539c0.25-0.012,0.502,0.006,0.993,0.013C78.348,123.704,64.605,136.725,50.862,149.743z
	 M65.34,106.503c-0.028-0.087-0.057-0.173-0.085-0.258c6.424-4.146,12.848-8.289,19.385-12.505c3.091,3.617,6.167,7.215,9.42,11.025
	C84.31,105.355,74.825,105.93,65.34,106.503z"/>
<path opacity="0.5" fill="#FFFFFF" enable-background="new    " d="M174.091,64.971c-4.485-5.953-8.971-11.906-13.479-17.843
	c-0.241-0.318-0.668-0.564-1.057-0.688c-1.666-0.539-3.351-1.013-5.025-1.52c-8.438-2.55-16.875-5.104-25.313-7.653
	c-8.116-2.453-16.233-4.905-24.351-7.352c-2.764-0.833-5.53-1.652-8.457-2.525c8.396,30.065,16.751,59.983,25.15,90.059
	c17.641-17.494,35.155-34.867,52.651-52.22C174.148,65.094,174.131,65.024,174.091,64.971z M109.184,36.21
	c14.764,4.597,29.524,9.195,44.543,13.874c-6.526,4.287-12.896,8.471-19.357,12.717c-8.473-8.83-16.885-17.599-25.296-26.368
	C109.109,36.359,109.146,36.285,109.184,36.21z M131.217,67.837c-2.216,9.058-4.384,18.127-6.557,27.194
	c-0.604,2.521-1.188,5.049-1.782,7.57c-0.037,0.153-0.106,0.301-0.161,0.448c-0.076,0.005-0.154,0.011-0.23,0.019
	c-5.938-21.545-11.877-43.092-17.814-64.636c0.057-0.04,0.113-0.079,0.17-0.121c0.487,0.515,0.981,1.022,1.463,1.541
	c8.158,8.802,16.313,17.606,24.48,26.397C131.236,66.737,131.391,67.132,131.217,67.837z M128.012,103.973
	c-0.049-0.037-0.097-0.076-0.146-0.113c0.85-3.522,1.695-7.049,2.546-10.573c1.153-4.781,2.313-9.559,3.463-14.339
	c0.719-2.981,1.442-5.959,2.126-8.946c0.148-0.646,0.541-0.762,1.08-0.781c5.281-0.2,10.561-0.396,15.842-0.603
	c4.003-0.158,8.004-0.331,12.008-0.493c0.229-0.01,0.459,0.005,0.907,0.011C153.137,80.168,140.574,92.07,128.012,103.973z
	 M141.245,64.443c-0.024-0.079-0.052-0.158-0.077-0.235c5.872-3.789,11.745-7.578,17.721-11.431
	c2.825,3.306,5.637,6.595,8.612,10.08C158.587,63.395,149.915,63.919,141.245,64.443z"/>
</svg>
