<?xml version="1.0" encoding="utf-8"?>
<!-- Generator: Adobe Illustrator 16.0.0, SVG Export Plug-In . SVG Version: 6.00 Build 0)  -->
<!DOCTYPE svg PUBLIC "-//W3C//DTD SVG 1.1//EN" "http://www.w3.org/Graphics/SVG/1.1/DTD/svg11.dtd">
<svg version="1.1" id="Layer_1" xmlns="http://www.w3.org/2000/svg" xmlns:xlink="http://www.w3.org/1999/xlink" x="0px" y="0px"
	 width="180px" height="180px" viewBox="0 0 180 180" enable-background="new 0 0 180 180" xml:space="preserve">
<path opacity="0.7" fill="#FFFFFF" enable-background="new    " d="M99.198,119.9c-1.878-1.271-3.97-2.08-6.126-2.729
	c-8.661-2.61-17.574-3.594-26.563-4.03c-1.26-0.061-1.787-0.326-1.725-1.719c0.118-2.638,0.143-5.291-0.003-7.926
	c-0.088-1.578,0.497-1.824,1.907-1.811c7.422,0.065,14.845-0.006,22.267,0.063c1.364,0.014,1.686-0.411,1.666-1.705
	c-0.071-4.609-0.08-9.223,0.004-13.832c0.025-1.392-0.346-1.794-1.769-1.786c-11.133,0.06-22.267,0.033-33.401,0.033
	c-11.19,0-22.38,0.02-33.57-0.027c-1.238-0.005-1.635,0.282-1.613,1.574c0.081,4.666,0.091,9.336-0.003,14.001
	c-0.029,1.434,0.409,1.754,1.785,1.742c7.422-0.068,14.845,0.007,22.267-0.064c1.439-0.015,1.811,0.426,1.758,1.803
	c-0.104,2.695-0.068,5.396-0.016,8.097c0.02,1.022-0.19,1.507-1.363,1.544c-6.295,0.196-12.549,0.877-18.735,2.053
	c-4.903,0.934-9.827,1.906-14.154,4.61c-3.322,2.076-3.34,4.476-0.072,6.622c2.419,1.592,5.15,2.479,7.919,3.214
	c8.014,2.128,16.203,3.067,24.461,3.456c1.428,0.066,1.977,0.462,1.964,2.053c-0.082,10.852-0.017,21.705-0.073,32.559
	c-0.007,1.418,0.412,1.8,1.803,1.779c5.116-0.078,10.235-0.078,15.351,0c1.343,0.021,1.689-0.363,1.683-1.693
	c-0.055-10.685-0.031-21.367-0.031-32.053c0-2.563,0.001-2.552,2.641-2.684c7.078-0.348,14.097-1.174,21.012-2.745
	c3.724-0.847,7.429-1.821,10.675-3.946C102.268,124.309,102.264,121.977,99.198,119.9z M95.611,124.307
	c-2.782,1.924-6.042,2.642-9.276,3.317c-10.22,2.136-20.589,2.621-31.099,2.741c-10.744-0.166-21.564-0.621-32.196-3.063
	c-2.625-0.603-5.232-1.312-7.541-2.769c-2.333-1.474-2.325-3.214,0.059-4.646c3.633-2.179,7.751-2.906,11.827-3.644
	c5.696-1.03,11.458-1.543,17.241-1.835c1.096-0.055,1.474,0.224,1.45,1.357c-0.068,3.258-0.008,6.52-0.048,9.78
	c-0.011,0.941,0.187,1.388,1.28,1.452c5.337,0.311,10.667,0.332,16.007,0.047c1.313-0.068,1.546-0.561,1.519-1.734
	c-0.076-3.203-0.007-6.408-0.041-9.613c-0.009-0.857,0.085-1.352,1.162-1.287c8.583,0.505,17.134,1.193,25.411,3.756
	c1.5,0.464,2.977,1.023,4.258,1.964C97.5,121.507,97.532,122.979,95.611,124.307z"/>
<path opacity="0.7" fill="#FFFFFF" enable-background="new    " d="M162.455,60.018c-1.514-1.025-3.198-1.675-4.938-2.199
	c-6.979-2.105-14.166-2.896-21.41-3.248c-1.016-0.049-1.439-0.264-1.39-1.385c0.095-2.126,0.115-4.265-0.003-6.388
	c-0.07-1.272,0.401-1.47,1.538-1.459c5.979,0.054,11.963-0.005,17.945,0.05c1.101,0.01,1.358-0.332,1.343-1.374
	c-0.057-3.715-0.064-7.434,0.004-11.148c0.021-1.122-0.279-1.445-1.425-1.439c-8.974,0.048-17.948,0.026-26.923,0.026
	c-9.018,0-18.037,0.016-27.057-0.022c-0.998-0.004-1.316,0.227-1.301,1.269c0.064,3.761,0.073,7.525-0.003,11.285
	c-0.022,1.155,0.33,1.413,1.438,1.404c5.981-0.055,11.965,0.006,17.945-0.053c1.161-0.011,1.461,0.344,1.418,1.454
	c-0.084,2.172-0.055,4.35-0.013,6.525c0.017,0.824-0.153,1.214-1.101,1.244c-5.072,0.158-10.112,0.707-15.1,1.655
	c-3.951,0.751-7.92,1.536-11.406,3.716c-2.68,1.673-2.692,3.606-0.059,5.337c1.949,1.283,4.15,1.998,6.382,2.591
	c6.459,1.715,13.06,2.473,19.718,2.785c1.149,0.054,1.592,0.373,1.582,1.655c-0.066,8.746-0.016,17.494-0.06,26.24
	c-0.006,1.145,0.331,1.451,1.454,1.436c4.122-0.063,8.248-0.063,12.371,0c1.082,0.017,1.361-0.293,1.355-1.365
	c-0.043-8.61-0.024-17.221-0.024-25.833c0-2.064,0.002-2.056,2.13-2.162c5.703-0.28,11.361-0.946,16.938-2.212
	c3-0.683,5.986-1.468,8.604-3.181C164.93,63.57,164.925,61.691,162.455,60.018z M159.563,63.569
	c-2.242,1.55-4.867,2.128-7.476,2.674c-8.237,1.721-16.595,2.113-25.065,2.209c-8.658-0.134-17.381-0.501-25.949-2.468
	c-2.116-0.485-4.217-1.057-6.077-2.231c-1.882-1.188-1.874-2.59,0.048-3.744c2.928-1.756,6.246-2.343,9.532-2.937
	c4.591-0.83,9.233-1.243,13.896-1.479c0.885-0.044,1.188,0.18,1.17,1.094c-0.056,2.626-0.008,5.255-0.041,7.883
	c-0.009,0.759,0.151,1.119,1.033,1.171c4.301,0.25,8.598,0.268,12.901,0.038c1.058-0.056,1.245-0.452,1.224-1.398
	c-0.061-2.582-0.006-5.166-0.033-7.749c-0.008-0.691,0.069-1.088,0.938-1.037c6.918,0.407,13.811,0.962,20.48,3.027
	c1.209,0.374,2.398,0.826,3.433,1.583C161.086,61.313,161.113,62.499,159.563,63.569z"/>
</svg>
