<?xml version="1.0" encoding="utf-8"?>
<!-- Generator: Adobe Illustrator 16.0.0, SVG Export Plug-In . SVG Version: 6.00 Build 0)  -->
<!DOCTYPE svg PUBLIC "-//W3C//DTD SVG 1.1//EN" "http://www.w3.org/Graphics/SVG/1.1/DTD/svg11.dtd">
<svg version="1.1" id="Layer_1" xmlns="http://www.w3.org/2000/svg" xmlns:xlink="http://www.w3.org/1999/xlink" x="0px" y="0px"
	 width="180px" height="180px" viewBox="0 0 180 180" enable-background="new 0 0 180 180" xml:space="preserve">
<g opacity="0.7">
	<path fill="#8DB3DF" d="M92.45,169.782c-3.604,0.063-7.67-0.599-11.674-1.779c-1.097-0.323-1.446-0.808-1.211-1.953
		c0.485-2.36,0.912-4.741,1.218-7.134c0.168-1.313,0.482-1.6,1.766-0.992c3.857,1.825,7.947,2.641,12.23,2.458
		c1.639-0.069,3.211-0.387,4.645-1.168c2.701-1.471,2.906-4.267,0.495-6.161c-1.646-1.293-3.569-2.095-5.423-3.018
		c-1.755-0.87-3.446-1.833-5.036-2.991c-7.957-5.798-5.294-14.535-0.266-18.78c3.46-2.922,7.598-4.349,12.007-4.804
		c4.658-0.479,9.313-0.289,13.837,1.218c1.06,0.354,1.313,0.754,1.071,1.846c-0.496,2.242-0.907,4.515-1.174,6.793
		c-0.149,1.277-0.424,1.543-1.683,1.029c-3.854-1.576-7.858-2.166-11.995-1.31c-0.505,0.104-1.006,0.261-1.477,0.469
		c-3.049,1.341-3.334,3.791-0.674,5.796c1.761,1.327,3.807,2.141,5.752,3.129c1.748,0.889,3.478,1.803,5,3.057
		c5.771,4.742,6.266,12.455,1.186,17.966c-3.201,3.472-7.334,5.041-11.826,5.899C97.174,169.742,95.102,169.773,92.45,169.782z"/>
	<path fill="#8DB3DF" d="M18.908,131.494c8.018,6.121,15.343,12.518,17.983,22.738c0.679-0.246,0.648-0.973,0.86-1.512
		c3.58-9.091,7.166-18.18,10.674-27.298c0.433-1.124,0.974-1.438,2.125-1.417c3.741,0.075,7.485,0.028,11.223,0.028
		c0.159,0.717-0.235,1.188-0.455,1.7c-5.99,13.945-12,27.885-17.95,41.848c-0.478,1.12-1.012,1.564-2.258,1.531
		c-3.398-0.086-6.801-0.031-10.201-0.006c-0.812,0.006-1.322-0.086-1.608-1.075c-3.46-11.974-6.987-23.929-10.49-35.892
		C18.783,132.048,18.839,131.93,18.908,131.494z"/>
	<path fill="#8DB3DF" d="M65.599,169.125c-1.556,0-3.115-0.073-4.664,0.021c-1.285,0.08-1.592-0.41-1.382-1.598
		c0.849-4.807,1.65-9.619,2.475-14.43c1.582-9.225,3.189-18.442,4.724-27.674c0.177-1.066,0.495-1.479,1.608-1.455
		c3.167,0.064,6.336,0.064,9.502,0c1.144-0.023,1.519,0.281,1.315,1.461c-2.432,14.088-4.838,28.179-7.227,42.273
		c-0.175,1.025-0.576,1.488-1.688,1.422C68.714,169.057,67.154,169.125,65.599,169.125z"/>
	<path fill="#F8B966" d="M34.6,145.674c-0.6-1.091-1.011-1.889-1.467-2.662c-5.142-8.724-12.927-14.027-22.33-17.229
		c-1.141-0.389-2.309-0.707-3.473-1.023c-0.408-0.109-0.841-0.16-0.762-0.713c0.067-0.469,0.489-0.404,0.819-0.404
		c6.458,0.017,12.918-0.037,19.374,0.101c2.133,0.045,3.727,1.315,4.201,3.487c1.265,5.785,2.433,11.59,3.631,17.389
		C34.639,144.833,34.6,145.066,34.6,145.674z"/>
	<path fill="#8DB3DF" d="M157.607,167.915c-3.125-13.957-6.207-27.924-9.219-41.906c-0.35-1.612-0.996-2.204-2.621-2.003
		c-1.193,0.148-2.418,0.029-3.629,0.031c-1.326,0-2.652,0.011-3.978-0.003c-3.009-0.028-5.142,1.222-6.388,4.055
		c-5.83,13.263-11.694,26.515-17.584,39.753c-0.559,1.256-0.168,1.453,1.014,1.436c3.343-0.049,6.688-0.053,10.029,0.002
		c1.047,0.017,1.539-0.377,1.851-1.356c0.485-1.53,1.149-3.007,1.69-4.521c0.244-0.683,0.598-0.983,1.373-0.979
		c4.553,0.035,9.107,0.039,13.66-0.002c0.858-0.008,1.213,0.284,1.362,1.104c0.278,1.526,0.655,3.033,0.965,4.553
		c0.175,0.85,0.567,1.229,1.521,1.205c2.939-0.065,5.881-0.049,8.82-0.01C157.504,169.286,157.88,169.137,157.607,167.915z
		 M141.471,153.139c-2.527-0.072-5.059-0.021-7.587-0.025c-0.6-0.002-1.188,0.084-0.797-0.913c2.011-5.114,3.968-10.25,6.146-15.896
		c1.191,5.479,2.233,10.455,3.381,15.407C142.883,152.885,142.643,153.174,141.471,153.139z"/>
</g>
<g opacity="0.7">
	<path fill="#8DB3DF" d="M127.516,107.631c-2.158,0.037-4.595-0.357-6.994-1.066c-0.655-0.191-0.864-0.482-0.726-1.17
		c0.291-1.414,0.547-2.84,0.729-4.272c0.102-0.785,0.289-0.958,1.059-0.595c2.311,1.094,4.762,1.582,7.327,1.473
		c0.981-0.041,1.923-0.23,2.782-0.699c1.617-0.881,1.74-2.557,0.297-3.691c-0.987-0.773-2.141-1.254-3.249-1.808
		c-1.052-0.521-2.064-1.098-3.019-1.792c-4.767-3.474-3.172-8.708-0.158-11.252c2.072-1.75,4.552-2.604,7.192-2.877
		c2.791-0.288,5.578-0.173,8.29,0.729c0.635,0.211,0.787,0.452,0.643,1.105c-0.297,1.344-0.545,2.705-0.703,4.07
		c-0.09,0.766-0.254,0.925-1.008,0.617c-2.31-0.945-4.709-1.298-7.188-0.785c-0.303,0.063-0.604,0.156-0.884,0.281
		c-1.827,0.803-1.998,2.271-0.404,3.472c1.056,0.795,2.281,1.282,3.446,1.875c1.048,0.532,2.083,1.08,2.996,1.831
		c3.455,2.841,3.753,7.462,0.709,10.764c-1.918,2.079-4.395,3.02-7.084,3.534C130.346,107.607,129.104,107.626,127.516,107.631z"/>
	<path fill="#8DB3DF" d="M83.457,84.693c4.804,3.667,9.191,7.5,10.773,13.624c0.406-0.147,0.389-0.582,0.516-0.905
		c2.145-5.446,4.293-10.891,6.395-16.354c0.26-0.673,0.584-0.862,1.272-0.849c2.241,0.045,4.485,0.017,6.724,0.017
		c0.096,0.43-0.141,0.713-0.271,1.019c-3.588,8.355-7.188,16.705-10.754,25.07c-0.286,0.67-0.606,0.937-1.354,0.916
		c-2.035-0.051-4.074-0.019-6.111-0.002c-0.485,0.002-0.792-0.052-0.962-0.645c-2.073-7.174-4.186-14.336-6.284-21.503
		C83.382,85.025,83.416,84.953,83.457,84.693z"/>
	<path fill="#8DB3DF" d="M111.43,107.236c-0.932,0-1.865-0.043-2.793,0.014c-0.771,0.049-0.955-0.245-0.83-0.957
		c0.51-2.879,0.989-5.764,1.483-8.645c0.948-5.525,1.911-11.048,2.83-16.58c0.104-0.639,0.296-0.885,0.964-0.872
		c1.896,0.039,3.795,0.039,5.691,0c0.686-0.014,0.91,0.168,0.789,0.875c-1.457,8.44-2.898,16.882-4.33,25.327
		c-0.104,0.613-0.344,0.892-1.012,0.853C113.295,107.195,112.361,107.236,111.43,107.236z"/>
	<path fill="#F8B966" d="M92.857,93.188c-0.358-0.652-0.604-1.131-0.879-1.594c-3.08-5.227-7.745-8.405-13.376-10.323
		c-0.684-0.233-1.383-0.423-2.081-0.613c-0.244-0.066-0.504-0.096-0.457-0.427c0.041-0.281,0.293-0.243,0.491-0.242
		c3.869,0.009,7.739-0.022,11.607,0.06c1.278,0.027,2.233,0.789,2.518,2.09c0.758,3.465,1.457,6.943,2.176,10.417
		C92.881,92.684,92.857,92.824,92.857,93.188z"/>
	<path fill="#8DB3DF" d="M166.551,106.512c-1.871-8.361-3.718-16.728-5.521-25.104c-0.209-0.966-0.598-1.32-1.57-1.2
		c-0.715,0.089-1.448,0.017-2.174,0.019c-0.794,0-1.59,0.006-2.383-0.002c-1.803-0.017-3.079,0.732-3.827,2.429
		c-3.491,7.947-7.007,15.884-10.533,23.816c-0.335,0.752-0.101,0.871,0.606,0.859c2.002-0.029,4.006-0.031,6.009,0.001
		c0.628,0.011,0.923-0.226,1.108-0.813c0.291-0.916,0.688-1.802,1.014-2.709c0.146-0.408,0.357-0.588,0.82-0.584
		c2.729,0.021,5.457,0.022,8.186-0.002c0.515-0.005,0.727,0.17,0.816,0.661c0.166,0.914,0.393,1.816,0.578,2.728
		c0.104,0.509,0.34,0.736,0.91,0.722c1.762-0.038,3.521-0.028,5.283-0.005C166.488,107.334,166.714,107.244,166.551,106.512z
		 M156.883,97.66c-1.514-0.044-3.029-0.014-4.544-0.016c-0.358-0.002-0.713,0.049-0.478-0.547c1.203-3.064,2.377-6.142,3.682-9.524
		c0.714,3.282,1.338,6.264,2.023,9.231C157.729,97.508,157.585,97.682,156.883,97.66z"/>
</g>
<g opacity="0.7">
	<path fill="#8DB3DF" d="M83.872,55.54c-2.728,0.047-5.805-0.452-8.835-1.347c-0.83-0.245-1.095-0.61-0.917-1.478
		c0.368-1.787,0.69-3.589,0.922-5.399c0.127-0.993,0.365-1.21,1.336-0.751c2.919,1.381,6.015,1.999,9.256,1.86
		c1.239-0.053,2.429-0.293,3.514-0.884c2.043-1.113,2.2-3.229,0.375-4.663c-1.246-0.979-2.702-1.585-4.104-2.284
		c-1.328-0.659-2.608-1.387-3.811-2.264c-6.022-4.388-4.007-11-0.201-14.214c2.619-2.21,5.75-3.291,9.087-3.635
		c3.525-0.364,7.047-0.219,10.473,0.921c0.801,0.267,0.994,0.571,0.811,1.396c-0.375,1.698-0.687,3.417-0.887,5.141
		c-0.115,0.967-0.322,1.168-1.273,0.779c-2.917-1.193-5.948-1.639-9.079-0.991c-0.382,0.08-0.761,0.197-1.117,0.354
		c-2.308,1.015-2.523,2.869-0.51,4.387c1.333,1.004,2.881,1.619,4.354,2.367c1.323,0.672,2.631,1.365,3.784,2.313
		c4.366,3.589,4.741,9.427,0.896,13.597c-2.424,2.627-5.551,3.815-8.95,4.466C87.447,55.51,85.878,55.534,83.872,55.54z"/>
	<path fill="#8DB3DF" d="M28.213,26.563c6.068,4.632,11.612,9.474,13.61,17.208c0.515-0.186,0.491-0.735,0.651-1.143
		c2.709-6.88,5.423-13.759,8.078-20.66c0.327-0.851,0.737-1.089,1.607-1.072c2.832,0.057,5.666,0.021,8.494,0.021
		c0.121,0.542-0.178,0.9-0.344,1.287c-4.533,10.555-9.081,21.104-13.585,31.671c-0.362,0.848-0.766,1.184-1.709,1.159
		c-2.572-0.065-5.147-0.024-7.72-0.004c-0.614,0.004-1-0.064-1.217-0.814c-2.619-9.062-5.288-18.11-7.938-27.164
		C28.119,26.982,28.162,26.892,28.213,26.563z"/>
	<path fill="#8DB3DF" d="M63.551,55.042c-1.178,0-2.357-0.055-3.53,0.017c-0.973,0.061-1.206-0.311-1.046-1.209
		c0.643-3.638,1.249-7.281,1.873-10.921c1.197-6.98,2.414-13.958,3.576-20.944c0.133-0.807,0.374-1.119,1.217-1.102
		c2.397,0.049,4.795,0.05,7.192,0c0.866-0.018,1.149,0.213,0.996,1.106c-1.841,10.662-3.662,21.326-5.469,31.994
		c-0.133,0.776-0.436,1.126-1.278,1.076C65.908,54.99,64.728,55.042,63.551,55.042z"/>
	<path fill="#F8B966" d="M40.09,37.294c-0.454-0.826-0.765-1.43-1.11-2.015c-3.891-6.603-9.783-10.617-16.899-13.04
		c-0.863-0.294-1.747-0.535-2.628-0.774c-0.309-0.083-0.637-0.122-0.577-0.54c0.051-0.354,0.371-0.307,0.62-0.306
		c4.888,0.012,9.777-0.028,14.663,0.076c1.614,0.034,2.82,0.996,3.179,2.64c0.958,4.377,1.842,8.771,2.749,13.159
		C40.119,36.658,40.09,36.835,40.09,37.294z"/>
	<path fill="#8DB3DF" d="M133.186,54.127c-2.365-10.563-4.697-21.133-6.979-31.716c-0.264-1.22-0.754-1.668-1.982-1.516
		c-0.904,0.112-1.83,0.022-2.746,0.023c-1.004,0-2.008,0.008-3.011-0.002c-2.276-0.021-3.891,0.924-4.834,3.069
		c-4.411,10.037-8.851,20.066-13.308,30.085c-0.424,0.95-0.127,1.1,0.767,1.086c2.529-0.037,5.062-0.039,7.591,0.001
		c0.793,0.013,1.166-0.285,1.4-1.026c0.368-1.159,0.869-2.276,1.279-3.421c0.185-0.516,0.451-0.744,1.039-0.74
		c3.445,0.026,6.894,0.029,10.339-0.001c0.649-0.006,0.918,0.215,1.03,0.835c0.211,1.155,0.496,2.295,0.729,3.445
		c0.132,0.643,0.431,0.929,1.151,0.912c2.225-0.049,4.449-0.036,6.675-0.007C133.105,55.165,133.391,55.052,133.186,54.127z
		 M120.971,42.944c-1.912-0.056-3.826-0.016-5.74-0.02c-0.453,0-0.899,0.063-0.604-0.691c1.521-3.871,3.003-7.757,4.65-12.031
		c0.902,4.147,1.689,7.913,2.559,11.661C122.04,42.751,121.857,42.971,120.971,42.944z"/>
</g>
</svg>
