<?xml version="1.0" encoding="utf-8"?>
<!-- Generator: Adobe Illustrator 25.2.0, SVG Export Plug-In . SVG Version: 6.00 Build 0)  -->
<svg version="1.1" id="Layer_1" xmlns="http://www.w3.org/2000/svg" xmlns:xlink="http://www.w3.org/1999/xlink" x="0px" y="0px"
	 viewBox="0 0 180 180" style="enable-background:new 0 0 180 180;" xml:space="preserve">
<style type="text/css">
	.st0{opacity:0.65;}
</style>
<path class="st0" d="M40.2,140l36.9,8l-4,18.5l-21.8-4.7L48,177.4L29,173.3l3.3-15.1l-22.7-4.9c1.3-6.2,1.7-12.5,4.4-17.9
	c1.1-2.7,5-4.9,8-7.2c8.9-7,17.9-14,27.3-20.9c3.6-2.7,7-4.9,11.2-8l-35.5-7.7l4-18.5l20.8,4.5l3.4-15.6l18.5,4l-3.3,15.1L91,86.1
	c-1.3,6.2-1.7,12.5-4.4,17.9c-1.1,2.7-5,4.9-8,7.2c-8.9,7-17.9,14-27.3,20.9C47.8,134.7,44.2,137.4,40.2,140z"/>
<path class="st0" d="M144.8,112.9l24.1,5.2l-2.6,12l-14.2-3.1l-2.2,10.2l-12.4-2.7l2.1-9.9l-14.8-3.2c0.9-4,1.1-8.1,2.8-11.7
	c0.7-1.8,3.3-3.2,5.2-4.7c5.8-4.6,11.7-9.1,17.8-13.6c2.3-1.8,4.6-3.2,7.3-5.2l-23.1-5l2.6-12l13.6,2.9l2.2-10.2l12,2.6l-2.1,9.9
	l14.8,3.2c-0.9,4-1.1,8.1-2.8,11.7c-0.7,1.8-3.3,3.2-5.2,4.7c-5.8,4.6-11.7,9.1-17.8,13.6C149.7,109.4,147.4,111.2,144.8,112.9z"/>
<path class="st0" d="M102.7,43.7l18.2,3.9l-2,9.1l-10.7-2.3l-1.7,7.7l-9.3-2l1.6-7.5l-11.2-2.4c0.7-3,0.8-6.2,2.1-8.8
	c0.5-1.3,2.5-2.4,3.9-3.5c4.4-3.4,8.8-6.9,13.4-10.3c1.8-1.3,3.5-2.4,5.5-3.9l-17.5-3.8l2-9.1l10.2,2.2l1.7-7.7l9.1,2l-1.6,7.4
	l11.2,2.4c-0.7,3-0.8,6.2-2.1,8.8c-0.5,1.3-2.5,2.4-3.9,3.5c-4.4,3.4-8.8,6.9-13.4,10.3C106.4,41.1,104.6,42.4,102.7,43.7z"/>
</svg>
