<?xml version="1.0" encoding="utf-8"?>
<!-- Generator: Adobe Illustrator 16.0.0, SVG Export Plug-In . SVG Version: 6.00 Build 0)  -->
<!DOCTYPE svg PUBLIC "-//W3C//DTD SVG 1.1//EN" "http://www.w3.org/Graphics/SVG/1.1/DTD/svg11.dtd">
<svg version="1.1" id="Layer_1" xmlns="http://www.w3.org/2000/svg" xmlns:xlink="http://www.w3.org/1999/xlink" x="0px" y="0px"
	 width="180px" height="180px" viewBox="0 0 180 180" enable-background="new 0 0 180 180" xml:space="preserve">
<g>
	<path opacity="0.7" fill-rule="evenodd" clip-rule="evenodd" fill="#775CA7" d="M55.935,143.238
		c5.369,1.085,10.738,2.169,16.106,3.258c2.316,0.468,3.215,1.828,2.746,4.147c-0.68,3.365-1.36,6.73-2.045,10.095
		c-0.453,2.228-1.805,3.119-4.058,2.666c-5.936-1.195-11.872-2.384-17.799-3.613c-0.737-0.154-0.987-0.001-1.129,0.744
		c-0.704,3.681-1.465,7.351-2.208,11.024c-0.335,1.658-1.274,2.282-2.944,1.945c-4.008-0.806-8.016-1.616-12.022-2.429
		c-1.563-0.317-2.209-1.281-1.896-2.841c0.749-3.727,1.488-7.453,2.273-11.172c0.145-0.682-0.021-0.9-0.697-1.033
		c-6.324-1.254-12.641-2.54-18.96-3.82c-2.456-0.497-3.304-1.776-2.812-4.231c0.599-2.98,1.211-5.957,1.797-8.94
		c0.184-0.938,0.601-1.685,1.342-2.316c8.087-6.887,16.158-13.795,24.236-20.692c6.626-5.658,13.258-11.311,19.888-16.965
		c0.139-0.118,0.287-0.232,0.407-0.369c0.111-0.126,0.374-0.181,0.286-0.409c-0.075-0.198-0.313-0.144-0.479-0.195
		c-0.125-0.038-0.256-0.053-0.384-0.079c-10.198-2.063-20.396-4.124-30.593-6.191c-1.766-0.358-2.768-1.44-2.785-2.998
		c-0.003-0.336,0.062-0.679,0.128-1.011c0.679-3.392,1.359-6.784,2.051-10.173c0.461-2.255,1.787-3.144,4.029-2.694
		c5.833,1.171,11.666,2.34,17.492,3.546c0.714,0.147,0.945-0.009,1.083-0.724c0.717-3.73,1.486-7.452,2.244-11.176
		c0.31-1.522,1.277-2.176,2.788-1.873c4.06,0.814,8.118,1.635,12.175,2.463c1.536,0.313,2.181,1.316,1.868,2.876
		c-0.711,3.546-1.431,7.091-2.147,10.635c-0.277,1.369-0.277,1.369,1.13,1.653c5.805,1.173,11.612,2.346,17.417,3.521
		c2.134,0.432,3.048,1.79,2.623,3.941c-0.584,2.957-1.205,5.907-1.783,8.864c-0.174,0.895-0.603,1.595-1.287,2.181
		c-12.05,10.313-24.097,20.628-36.144,30.942c-2.863,2.45-5.731,4.896-8.59,7.352c-0.168,0.144-0.491,0.257-0.432,0.501
		c0.073,0.3,0.434,0.226,0.672,0.274c5.47,1.113,10.941,2.218,16.414,3.324C55.935,143.242,55.935,143.24,55.935,143.238z"/>
</g>
<g>
	<path opacity="0.7" fill-rule="evenodd" clip-rule="evenodd" fill="#775CA7" d="M141.016,76.854
		c4.392,0.888,8.786,1.774,13.178,2.666c1.895,0.383,2.63,1.496,2.246,3.394c-0.556,2.753-1.111,5.507-1.673,8.26
		c-0.37,1.822-1.477,2.552-3.319,2.182c-4.856-0.979-9.714-1.951-14.564-2.957c-0.603-0.126-0.808-0.001-0.924,0.609
		c-0.575,3.012-1.199,6.014-1.806,9.021c-0.274,1.356-1.043,1.867-2.409,1.591c-3.28-0.659-6.559-1.322-9.837-1.986
		c-1.279-0.26-1.808-1.049-1.552-2.325c0.613-3.049,1.218-6.098,1.859-9.141c0.118-0.558-0.017-0.736-0.569-0.846
		c-5.175-1.025-10.344-2.078-15.514-3.126c-2.01-0.406-2.703-1.453-2.3-3.462c0.489-2.438,0.991-4.874,1.47-7.315
		c0.151-0.767,0.491-1.378,1.099-1.895c6.617-5.635,13.221-11.288,19.831-16.931c5.421-4.63,10.848-9.254,16.271-13.881
		c0.114-0.097,0.235-0.19,0.334-0.302c0.091-0.103,0.306-0.148,0.233-0.334c-0.061-0.163-0.256-0.118-0.392-0.16
		c-0.103-0.031-0.21-0.043-0.314-0.064c-8.345-1.688-16.689-3.375-25.033-5.066c-1.444-0.293-2.264-1.178-2.278-2.453
		c-0.003-0.275,0.051-0.556,0.105-0.828c0.555-2.775,1.112-5.551,1.678-8.324c0.377-1.845,1.462-2.572,3.297-2.204
		c4.772,0.958,9.546,1.915,14.313,2.902c0.583,0.121,0.773-0.007,0.886-0.592c0.586-3.052,1.216-6.097,1.836-9.145
		c0.253-1.246,1.044-1.78,2.28-1.533c3.322,0.666,6.643,1.338,9.962,2.015c1.257,0.257,1.784,1.077,1.528,2.354
		c-0.581,2.901-1.171,5.802-1.758,8.702c-0.226,1.12-0.226,1.12,0.926,1.352c4.749,0.96,9.5,1.919,14.25,2.881
		c1.746,0.353,2.494,1.464,2.146,3.225c-0.479,2.419-0.985,4.833-1.459,7.253c-0.142,0.732-0.493,1.305-1.053,1.784
		c-9.859,8.438-19.717,16.878-29.573,25.318c-2.343,2.004-4.69,4.005-7.029,6.015c-0.138,0.117-0.402,0.21-0.354,0.41
		c0.061,0.246,0.355,0.185,0.551,0.225c4.476,0.911,8.952,1.814,13.43,2.72C141.015,76.857,141.015,76.855,141.016,76.854z"/>
</g>
</svg>
