<?xml version="1.0" encoding="utf-8"?>
<!-- Generator: Adobe Illustrator 25.2.0, SVG Export Plug-In . SVG Version: 6.00 Build 0)  -->
<svg version="1.1" id="Layer_1" xmlns="http://www.w3.org/2000/svg" xmlns:xlink="http://www.w3.org/1999/xlink" x="0px" y="0px"
	 viewBox="0 0 180 180" style="enable-background:new 0 0 180 180;" xml:space="preserve">
<style type="text/css">
	.st0{opacity:0.65;fill:#32CB95;}
</style>
<path class="st0" d="M64.7,96.2c-12.4,0-23.2,0.1-33.9,0C16.6,96,18.2,97.9,18.1,83.3c0-8.5,0-8.5,8.5-8.5c24.4,0,48.8,0,73.2,0
	c2.3,0,5.4-1,6.7,1.8c1.4,2.8-1.5,4.4-3,6.1c-21.8,25.3-43.7,50.5-65.3,76c-3.8,4.5-7.8,6.8-13.7,6.1c-3-0.4-6.1,0-9.2-0.1
	c-2-0.1-4.4,0.4-5.4-2c-1-2.3,0.9-3.8,2.2-5.3c13.2-15.4,26.5-30.7,39.7-46.1C55.8,106.7,59.7,102.1,64.7,96.2z"/>
<path class="st0" d="M46.2,164.3c6.3-7.2,11.6-13.2,16.7-19.2c1.5-1.7,3.3-2.2,5.5-2.1c11.1,0,22.1,0.1,33.2,0c4.1-0.1,6,1.4,6,5.7
	c-0.2,19,2.1,15.9-15.2,16.1c-12.9,0.2-25.8,0-38.7,0C51.7,164.6,49.7,164.5,46.2,164.3z"/>
<path class="st0" d="M148.1,33.3c-6.8,0-12.8,0-18.7,0c-7.8-0.1-7,1-7-7.1c0-4.7,0-4.7,4.7-4.7c13.4,0,26.9,0,40.3,0
	c1.3,0,3-0.5,3.7,1c0.8,1.6-0.8,2.4-1.7,3.4c-12,13.9-24.1,27.8-36,41.8c-2.1,2.5-4.3,3.7-7.5,3.4c-1.7-0.2-3.4,0-5.1-0.1
	c-1.1,0-2.4,0.2-3-1.1c-0.5-1.3,0.5-2.1,1.2-2.9c7.3-8.5,14.6-16.9,21.9-25.4C143.2,39.1,145.3,36.6,148.1,33.3z"/>
<path class="st0" d="M137.9,70.8c3.5-4,6.4-7.3,9.2-10.6c0.8-1,1.8-1.2,3-1.2c6.1,0,12.2,0.1,18.3,0c2.3,0,3.3,0.8,3.3,3.1
	c-0.1,10.5,1.1,8.7-8.4,8.8c-7.1,0.1-14.2,0-21.3,0C141,71,139.9,70.9,137.9,70.8z"/>
</svg>
