<?xml version="1.0" encoding="utf-8"?>
<!-- Generator: Adobe Illustrator 16.0.0, SVG Export Plug-In . SVG Version: 6.00 Build 0)  -->
<!DOCTYPE svg PUBLIC "-//W3C//DTD SVG 1.1//EN" "http://www.w3.org/Graphics/SVG/1.1/DTD/svg11.dtd">
<svg version="1.1" xmlns="http://www.w3.org/2000/svg" xmlns:xlink="http://www.w3.org/1999/xlink" x="0px" y="0px" width="100px"
	 height="100px" viewBox="0 0 100 100" enable-background="new 0 0 100 100" xml:space="preserve">
<g id="Layer_1">
	<path fill-rule="evenodd" clip-rule="evenodd" fill="#070707" d="M87.941,77.795c0.094-0.031,0.187-0.061,0.282-0.087
		c1.2-0.326,2.252-0.898,3.064-1.858c2.168-2.565,2.058-6.324-0.254-8.788c-1.388-1.478-3.118-2.412-4.976-3.144
		c-0.309-0.121-0.389-0.246-0.291-0.579c0.493-1.673,0.936-3.359,1.449-5.025c0.155-0.504,0.021-0.653-0.446-0.766
		c-0.839-0.199-1.672-0.434-2.492-0.7c-0.437-0.141-0.621-0.075-0.747,0.401c-0.44,1.669-0.938,3.324-1.401,4.988
		c-0.091,0.329-0.187,0.467-0.574,0.327c-0.686-0.248-1.393-0.447-2.103-0.614c-0.355-0.084-0.354-0.231-0.27-0.521
		c0.484-1.657,0.943-3.323,1.437-4.979c0.125-0.421,0.115-0.631-0.398-0.739c-0.858-0.182-1.706-0.434-2.539-0.715
		c-0.45-0.151-0.619-0.069-0.742,0.396c-0.444,1.686-0.942,3.356-1.396,5.041c-0.098,0.36-0.224,0.416-0.578,0.314
		c-2.185-0.634-4.38-1.232-6.567-1.856c-0.286-0.082-0.405-0.05-0.487,0.261c-0.278,1.06-0.574,2.115-0.901,3.161
		c-0.108,0.346,0.016,0.43,0.302,0.503c0.837,0.211,1.675,0.42,2.49,0.711c1.183,0.422,1.659,1.32,1.324,2.51
		c-1.487,5.273-2.978,10.549-4.466,15.821c-0.269,0.953-0.892,1.338-1.845,1.101c-0.757-0.189-1.506-0.412-2.251-0.646
		c-0.279-0.088-0.399-0.022-0.52,0.243c-0.522,1.149-1.05,2.298-1.62,3.424c-0.193,0.383-0.068,0.449,0.267,0.544
		c2.175,0.608,4.343,1.241,6.519,1.844c0.339,0.095,0.408,0.207,0.311,0.544c-0.513,1.753-0.99,3.517-1.504,5.27
		c-0.097,0.327-0.016,0.437,0.288,0.518c0.963,0.255,1.925,0.516,2.877,0.809c0.32,0.097,0.415,0.032,0.504-0.288
		c0.492-1.794,1.021-3.577,1.517-5.37c0.082-0.298,0.179-0.356,0.473-0.261c0.71,0.232,1.428,0.439,2.151,0.626
		c0.332,0.085,0.396,0.22,0.301,0.544c-0.518,1.769-1.011,3.545-1.525,5.314c-0.077,0.261-0.062,0.376,0.238,0.454
		c0.994,0.262,1.983,0.548,2.969,0.849c0.31,0.094,0.387-0.011,0.465-0.297c0.474-1.729,0.982-3.449,1.451-5.181
		c0.105-0.396,0.219-0.515,0.659-0.389c2.086,0.598,4.204,0.787,6.36,0.388c4.383-0.813,7.945-5.381,5.738-10.509
		c-0.594-1.38-1.421-2.581-2.589-3.523C87.922,77.821,87.929,77.799,87.941,77.795z M84.081,83.616
		c-0.313,1.526-1.324,2.495-2.792,2.976c-0.606,0.2-1.236,0.254-1.873,0.234c-1.873-0.017-3.628-0.592-5.382-1.166
		c-0.268-0.088-0.536-0.174-0.804-0.265c-0.73-0.244-0.664-0.104-0.469-0.83c0.632-2.34,1.28-4.675,1.908-7.017
		c0.088-0.329,0.175-0.447,0.559-0.341c1.795,0.489,3.603,0.93,5.303,1.71c0.713,0.328,1.395,0.706,2.007,1.198
		C83.66,81.016,84.384,82.131,84.081,83.616z M85.591,72.273c-0.419,1.352-1.432,2.166-2.84,2.435
		c-0.356,0.068-0.72,0.13-0.951,0.108c-1.754-0.045-3.271-0.532-4.784-1.035c-1.037-0.344-1.039-0.35-0.751-1.412
		c0.527-1.952,1.065-3.902,1.589-5.855c0.082-0.311,0.174-0.418,0.538-0.32c1.439,0.391,2.9,0.705,4.264,1.339
		c0.729,0.337,1.411,0.74,1.978,1.318C85.579,69.817,85.988,70.986,85.591,72.273z"/>
</g>
<g id="Layer_1_copy">
	<path fill-rule="evenodd" clip-rule="evenodd" fill="#070707" d="M30.941,26.795c0.094-0.031,0.187-0.061,0.282-0.087
		c1.2-0.326,2.252-0.898,3.064-1.858c2.168-2.565,2.058-6.324-0.254-8.788c-1.388-1.478-3.118-2.412-4.976-3.144
		c-0.309-0.121-0.389-0.246-0.291-0.579c0.493-1.673,0.936-3.359,1.449-5.025c0.155-0.504,0.021-0.653-0.446-0.766
		c-0.839-0.199-1.672-0.434-2.492-0.7c-0.437-0.141-0.621-0.075-0.747,0.401c-0.44,1.669-0.938,3.324-1.401,4.988
		c-0.091,0.329-0.187,0.467-0.574,0.327c-0.686-0.248-1.393-0.447-2.103-0.614c-0.355-0.084-0.354-0.231-0.27-0.521
		c0.484-1.657,0.943-3.323,1.437-4.979c0.125-0.421,0.115-0.631-0.398-0.739c-0.858-0.182-1.706-0.434-2.539-0.715
		c-0.45-0.151-0.619-0.069-0.742,0.396c-0.444,1.686-0.942,3.356-1.396,5.041c-0.098,0.36-0.224,0.416-0.578,0.314
		c-2.185-0.634-4.38-1.232-6.567-1.856c-0.286-0.082-0.405-0.05-0.487,0.261c-0.278,1.06-0.574,2.115-0.901,3.161
		c-0.108,0.346,0.016,0.43,0.302,0.503c0.837,0.211,1.675,0.42,2.49,0.711c1.183,0.422,1.659,1.32,1.324,2.51
		c-1.487,5.273-2.978,10.549-4.466,15.821c-0.269,0.953-0.892,1.338-1.845,1.101c-0.757-0.189-1.506-0.412-2.251-0.646
		c-0.279-0.088-0.399-0.022-0.52,0.243c-0.522,1.149-1.05,2.298-1.62,3.424c-0.193,0.383-0.068,0.449,0.267,0.544
		c2.175,0.608,4.343,1.241,6.519,1.844c0.339,0.095,0.408,0.207,0.311,0.544c-0.513,1.753-0.99,3.517-1.504,5.27
		c-0.097,0.327-0.016,0.437,0.288,0.518c0.963,0.255,1.925,0.516,2.877,0.809c0.32,0.097,0.415,0.032,0.504-0.288
		c0.492-1.794,1.021-3.577,1.517-5.37c0.082-0.298,0.179-0.356,0.473-0.261c0.71,0.232,1.428,0.439,2.151,0.626
		c0.332,0.085,0.396,0.22,0.301,0.544c-0.518,1.769-1.011,3.545-1.525,5.314c-0.077,0.261-0.062,0.376,0.238,0.454
		c0.994,0.262,1.983,0.548,2.969,0.849c0.31,0.094,0.387-0.011,0.465-0.297c0.474-1.729,0.982-3.449,1.451-5.181
		c0.105-0.396,0.219-0.515,0.659-0.389c2.086,0.598,4.204,0.787,6.36,0.388c4.383-0.813,7.945-5.381,5.738-10.509
		c-0.594-1.38-1.421-2.581-2.589-3.523C30.922,26.821,30.929,26.799,30.941,26.795z M27.081,32.616
		c-0.313,1.526-1.324,2.495-2.792,2.976c-0.606,0.2-1.236,0.254-1.873,0.234c-1.873-0.017-3.628-0.592-5.382-1.166
		c-0.268-0.088-0.536-0.174-0.804-0.265c-0.73-0.244-0.664-0.104-0.469-0.83c0.632-2.34,1.28-4.675,1.908-7.017
		c0.088-0.329,0.175-0.447,0.559-0.341c1.795,0.489,3.603,0.93,5.303,1.71c0.713,0.328,1.395,0.706,2.007,1.198
		C26.66,30.016,27.384,31.131,27.081,32.616z M28.591,21.273c-0.419,1.352-1.432,2.166-2.84,2.435
		c-0.356,0.068-0.72,0.13-0.951,0.108c-1.754-0.045-3.271-0.532-4.784-1.035c-1.037-0.344-1.039-0.35-0.751-1.412
		c0.527-1.952,1.065-3.902,1.589-5.855c0.082-0.311,0.174-0.418,0.538-0.32c1.439,0.391,2.9,0.705,4.264,1.339
		c0.729,0.337,1.411,0.74,1.978,1.318C28.579,18.817,28.988,19.986,28.591,21.273z"/>
</g>
<g id="Layer_1_copy_3">
	<path fill-rule="evenodd" clip-rule="evenodd" fill="#070707" d="M68.428,43.975c0.067-0.022,0.133-0.043,0.201-0.062
		c0.855-0.232,1.605-0.64,2.185-1.325c1.546-1.829,1.467-4.509-0.181-6.265c-0.989-1.053-2.223-1.72-3.547-2.241
		c-0.221-0.086-0.277-0.175-0.208-0.413c0.352-1.193,0.667-2.395,1.033-3.583c0.111-0.359,0.015-0.466-0.318-0.546
		c-0.598-0.142-1.191-0.309-1.776-0.5c-0.312-0.1-0.442-0.053-0.532,0.286c-0.314,1.19-0.669,2.37-0.999,3.557
		c-0.065,0.234-0.134,0.333-0.41,0.233c-0.488-0.177-0.992-0.319-1.498-0.438c-0.254-0.06-0.253-0.165-0.192-0.371
		c0.345-1.181,0.672-2.369,1.023-3.549c0.09-0.3,0.083-0.45-0.283-0.527c-0.612-0.129-1.217-0.309-1.811-0.51
		c-0.321-0.108-0.441-0.049-0.529,0.283c-0.316,1.202-0.672,2.393-0.995,3.594c-0.069,0.257-0.159,0.297-0.412,0.225
		c-1.557-0.452-3.122-0.879-4.682-1.324c-0.204-0.059-0.289-0.036-0.348,0.186c-0.198,0.755-0.409,1.508-0.643,2.253
		c-0.077,0.247,0.012,0.307,0.215,0.358c0.598,0.15,1.194,0.3,1.776,0.507c0.843,0.301,1.183,0.941,0.943,1.79
		c-1.061,3.759-2.122,7.521-3.184,11.279c-0.191,0.679-0.636,0.954-1.315,0.785c-0.539-0.135-1.073-0.294-1.604-0.461
		c-0.199-0.063-0.285-0.016-0.37,0.173c-0.373,0.819-0.749,1.638-1.155,2.441c-0.138,0.273-0.049,0.32,0.19,0.388
		c1.55,0.434,3.096,0.885,4.646,1.315c0.242,0.066,0.291,0.146,0.222,0.387c-0.365,1.25-0.706,2.508-1.071,3.758
		c-0.07,0.232-0.012,0.311,0.205,0.368c0.686,0.183,1.372,0.368,2.051,0.577c0.229,0.068,0.296,0.022,0.359-0.206
		c0.351-1.278,0.728-2.55,1.081-3.828c0.059-0.212,0.127-0.255,0.337-0.187c0.506,0.166,1.018,0.314,1.533,0.447
		c0.237,0.061,0.283,0.156,0.215,0.387c-0.369,1.262-0.721,2.527-1.088,3.789c-0.055,0.186-0.043,0.269,0.17,0.324
		c0.709,0.187,1.414,0.391,2.117,0.605c0.221,0.066,0.275-0.008,0.331-0.213c0.338-1.232,0.7-2.459,1.034-3.693
		c0.075-0.282,0.156-0.366,0.471-0.276c1.486,0.426,2.997,0.562,4.534,0.276c3.124-0.58,5.664-3.836,4.091-7.492
		c-0.424-0.983-1.013-1.84-1.846-2.512C68.414,43.994,68.419,43.978,68.428,43.975z M65.676,48.125
		c-0.223,1.088-0.944,1.779-1.99,2.121c-0.433,0.143-0.882,0.181-1.336,0.167c-1.335-0.012-2.586-0.422-3.836-0.831
		c-0.191-0.063-0.383-0.124-0.573-0.188c-0.521-0.174-0.474-0.075-0.334-0.592c0.45-1.668,0.912-3.333,1.36-5.002
		c0.063-0.234,0.124-0.319,0.397-0.243c1.28,0.349,2.568,0.663,3.781,1.219c0.508,0.234,0.994,0.503,1.431,0.854
		C65.376,46.271,65.892,47.066,65.676,48.125z M66.752,40.039c-0.299,0.963-1.021,1.544-2.024,1.735
		c-0.254,0.049-0.513,0.093-0.678,0.078c-1.251-0.032-2.333-0.379-3.411-0.738c-0.739-0.245-0.74-0.249-0.535-1.007
		c0.376-1.392,0.76-2.782,1.133-4.174c0.059-0.221,0.124-0.298,0.384-0.228c1.025,0.278,2.067,0.502,3.039,0.954
		c0.52,0.24,1.006,0.528,1.41,0.94C66.744,38.288,67.035,39.122,66.752,40.039z"/>
</g>
<g id="Layer_1_copy_5">
	<path fill-rule="evenodd" clip-rule="evenodd" fill="#070707" d="M94.718,24.882c0.078-0.025,0.153-0.05,0.232-0.072
		c0.991-0.27,1.859-0.742,2.53-1.535c1.791-2.118,1.699-5.222-0.209-7.256c-1.146-1.22-2.574-1.992-4.108-2.596
		c-0.255-0.1-0.321-0.203-0.24-0.478c0.407-1.381,0.772-2.774,1.196-4.149c0.129-0.416,0.017-0.54-0.369-0.632
		c-0.691-0.165-1.38-0.358-2.057-0.578c-0.361-0.116-0.513-0.062-0.617,0.331c-0.364,1.378-0.774,2.745-1.156,4.12
		c-0.076,0.271-0.155,0.385-0.476,0.27c-0.565-0.205-1.149-0.369-1.735-0.507c-0.294-0.069-0.293-0.191-0.223-0.43
		c0.399-1.368,0.778-2.744,1.186-4.111c0.104-0.347,0.097-0.521-0.328-0.61c-0.709-0.15-1.409-0.358-2.097-0.59
		C85.875,5.932,85.735,6,85.634,6.385c-0.366,1.392-0.778,2.771-1.152,4.162c-0.08,0.298-0.185,0.344-0.478,0.26
		c-1.803-0.524-3.616-1.018-5.422-1.533c-0.237-0.068-0.335-0.042-0.403,0.215c-0.229,0.875-0.474,1.747-0.744,2.61
		c-0.089,0.286,0.014,0.355,0.249,0.416c0.692,0.174,1.383,0.347,2.058,0.587c0.976,0.348,1.369,1.09,1.093,2.073
		c-1.229,4.354-2.458,8.71-3.688,13.064c-0.222,0.787-0.736,1.104-1.523,0.909c-0.625-0.157-1.243-0.34-1.858-0.534
		c-0.231-0.073-0.331-0.019-0.429,0.201c-0.432,0.949-0.868,1.897-1.338,2.827c-0.16,0.316-0.057,0.371,0.22,0.449
		c1.795,0.502,3.586,1.025,5.382,1.523c0.28,0.077,0.337,0.17,0.257,0.448c-0.423,1.448-0.817,2.904-1.24,4.352
		c-0.082,0.27-0.014,0.36,0.237,0.427c0.794,0.211,1.589,0.426,2.375,0.668c0.265,0.079,0.343,0.026,0.416-0.239
		c0.406-1.48,0.843-2.953,1.252-4.434c0.068-0.246,0.147-0.295,0.391-0.216c0.586,0.192,1.179,0.364,1.775,0.518
		c0.275,0.07,0.328,0.181,0.249,0.448c-0.428,1.461-0.835,2.927-1.26,4.389c-0.063,0.215-0.05,0.311,0.197,0.375
		c0.82,0.216,1.638,0.453,2.452,0.701c0.255,0.077,0.318-0.009,0.383-0.247c0.392-1.427,0.812-2.848,1.198-4.277
		c0.087-0.327,0.181-0.424,0.545-0.32c1.722,0.493,3.472,0.65,5.252,0.32c3.618-0.672,6.56-4.444,4.737-8.678
		c-0.49-1.139-1.173-2.131-2.138-2.909C94.702,24.904,94.707,24.885,94.718,24.882z M91.53,29.689
		c-0.258,1.26-1.094,2.06-2.306,2.457c-0.501,0.166-1.021,0.21-1.547,0.193c-1.546-0.014-2.995-0.489-4.443-0.962
		c-0.222-0.073-0.443-0.144-0.663-0.218c-0.604-0.202-0.549-0.087-0.388-0.686c0.521-1.933,1.057-3.86,1.576-5.794
		c0.072-0.271,0.144-0.369,0.46-0.282c1.483,0.404,2.975,0.768,4.38,1.412c0.588,0.271,1.151,0.583,1.657,0.99
		C91.183,27.542,91.78,28.462,91.53,29.689z M92.776,20.323c-0.346,1.116-1.182,1.789-2.345,2.01
		c-0.294,0.056-0.594,0.107-0.785,0.09c-1.448-0.038-2.702-0.439-3.95-0.855c-0.856-0.284-0.857-0.288-0.62-1.166
		c0.436-1.612,0.88-3.222,1.313-4.834c0.067-0.256,0.144-0.345,0.444-0.264c1.188,0.322,2.395,0.582,3.52,1.105
		c0.602,0.278,1.165,0.611,1.634,1.088C92.768,18.295,93.104,19.26,92.776,20.323z"/>
</g>
<g id="Layer_1_copy_4">
	<path fill-rule="evenodd" clip-rule="evenodd" fill="#070707" d="M14.895,66.737c0.045-0.016,0.09-0.029,0.136-0.041
		c0.577-0.158,1.083-0.433,1.474-0.895c1.042-1.233,0.989-3.04-0.122-4.226c-0.667-0.709-1.499-1.159-2.392-1.512
		c-0.149-0.057-0.188-0.118-0.14-0.278c0.236-0.804,0.45-1.614,0.697-2.415c0.075-0.242,0.01-0.314-0.215-0.369
		c-0.403-0.096-0.804-0.208-1.198-0.336c-0.21-0.068-0.298-0.036-0.359,0.192c-0.212,0.803-0.451,1.6-0.674,2.399
		c-0.044,0.157-0.09,0.224-0.276,0.156c-0.33-0.119-0.669-0.215-1.011-0.295c-0.171-0.04-0.17-0.111-0.129-0.25
		c0.232-0.797,0.453-1.598,0.69-2.395c0.06-0.202,0.056-0.304-0.191-0.355c-0.413-0.086-0.821-0.208-1.221-0.344
		c-0.217-0.072-0.298-0.032-0.357,0.191c-0.213,0.811-0.453,1.613-0.671,2.424c-0.047,0.173-0.107,0.2-0.278,0.151
		c-1.05-0.306-2.105-0.592-3.158-0.894c-0.138-0.039-0.195-0.023-0.234,0.126c-0.134,0.51-0.276,1.017-0.433,1.52
		c-0.052,0.167,0.008,0.207,0.145,0.241c0.403,0.103,0.806,0.203,1.198,0.343c0.568,0.203,0.798,0.635,0.636,1.206
		c-0.716,2.536-1.431,5.073-2.147,7.607c-0.129,0.458-0.429,0.645-0.887,0.529c-0.363-0.091-0.724-0.198-1.082-0.311
		c-0.134-0.043-0.192-0.01-0.25,0.118c-0.251,0.552-0.505,1.104-0.779,1.645c-0.093,0.184-0.033,0.216,0.128,0.262
		c1.045,0.293,2.087,0.597,3.133,0.887c0.164,0.045,0.196,0.1,0.15,0.261c-0.246,0.843-0.477,1.69-0.723,2.535
		c-0.048,0.156-0.008,0.209,0.138,0.248c0.462,0.122,0.926,0.248,1.383,0.389c0.154,0.047,0.2,0.016,0.242-0.139
		c0.237-0.863,0.491-1.72,0.729-2.582c0.04-0.144,0.086-0.172,0.228-0.125c0.341,0.11,0.687,0.212,1.034,0.301
		c0.16,0.041,0.19,0.106,0.145,0.261c-0.249,0.851-0.486,1.705-0.733,2.556c-0.037,0.125-0.029,0.183,0.114,0.219
		c0.479,0.126,0.954,0.264,1.428,0.408c0.149,0.045,0.186-0.005,0.223-0.144c0.228-0.831,0.472-1.658,0.697-2.49
		c0.051-0.19,0.105-0.247,0.318-0.187c1.002,0.287,2.021,0.379,3.058,0.187c2.106-0.392,3.82-2.588,2.759-5.054
		c-0.286-0.662-0.683-1.241-1.245-1.693C14.886,66.75,14.889,66.739,14.895,66.737z M13.039,69.536
		c-0.15,0.733-0.637,1.199-1.342,1.431c-0.292,0.097-0.595,0.123-0.901,0.112c-0.9-0.008-1.744-0.284-2.587-0.56
		c-0.129-0.043-0.259-0.084-0.387-0.128c-0.352-0.116-0.32-0.049-0.226-0.398c0.304-1.126,0.615-2.249,0.918-3.373
		c0.042-0.159,0.083-0.216,0.268-0.166c0.863,0.237,1.732,0.449,2.55,0.823c0.343,0.157,0.671,0.339,0.965,0.577
		C12.837,68.286,13.185,68.822,13.039,69.536z M13.765,64.083c-0.202,0.649-0.688,1.041-1.365,1.171
		c-0.171,0.032-0.346,0.062-0.457,0.052c-0.843-0.022-1.574-0.256-2.301-0.498c-0.498-0.165-0.499-0.168-0.36-0.68
		c0.253-0.938,0.512-1.875,0.764-2.813c0.04-0.15,0.084-0.202,0.259-0.155c0.691,0.188,1.394,0.339,2.049,0.644
		c0.35,0.163,0.678,0.356,0.951,0.635C13.76,62.902,13.956,63.464,13.765,64.083z"/>
</g>
<g id="Layer_1_copy_6">
	<path fill-rule="evenodd" clip-rule="evenodd" fill="#070707" d="M55.459,16.995c0.045-0.016,0.09-0.029,0.135-0.041
		c0.578-0.158,1.083-0.433,1.475-0.895c1.042-1.233,0.988-3.04-0.123-4.226c-0.666-0.709-1.498-1.159-2.392-1.512
		c-0.149-0.057-0.188-0.118-0.14-0.278c0.236-0.804,0.449-1.614,0.696-2.415c0.075-0.242,0.01-0.314-0.215-0.369
		c-0.403-0.096-0.804-0.208-1.198-0.336c-0.21-0.068-0.299-0.036-0.359,0.192c-0.212,0.803-0.451,1.6-0.674,2.399
		c-0.043,0.157-0.09,0.224-0.275,0.156c-0.33-0.119-0.67-0.215-1.012-0.295c-0.171-0.04-0.17-0.111-0.129-0.25
		c0.232-0.797,0.453-1.598,0.69-2.395c0.06-0.202,0.056-0.304-0.191-0.355c-0.413-0.086-0.821-0.208-1.221-0.344
		C50.309,5.96,50.229,6,50.169,6.224c-0.213,0.811-0.453,1.613-0.671,2.424c-0.047,0.173-0.107,0.2-0.278,0.151
		c-1.05-0.306-2.105-0.592-3.158-0.894c-0.138-0.039-0.195-0.023-0.234,0.126c-0.134,0.51-0.276,1.017-0.433,1.52
		c-0.052,0.167,0.008,0.207,0.145,0.241c0.403,0.103,0.806,0.203,1.198,0.343c0.568,0.203,0.798,0.635,0.636,1.206
		c-0.716,2.536-1.431,5.073-2.147,7.607c-0.129,0.458-0.429,0.645-0.887,0.529c-0.363-0.091-0.724-0.198-1.082-0.311
		c-0.134-0.043-0.192-0.01-0.25,0.118c-0.251,0.552-0.505,1.104-0.779,1.645c-0.093,0.184-0.033,0.216,0.128,0.262
		c1.045,0.293,2.087,0.597,3.133,0.887c0.164,0.045,0.196,0.1,0.15,0.261c-0.246,0.843-0.477,1.69-0.723,2.535
		c-0.048,0.156-0.008,0.209,0.138,0.248c0.462,0.122,0.926,0.248,1.383,0.389c0.154,0.047,0.2,0.016,0.242-0.139
		c0.237-0.863,0.491-1.72,0.729-2.582c0.04-0.144,0.086-0.172,0.228-0.125c0.341,0.11,0.687,0.212,1.034,0.301
		c0.16,0.041,0.19,0.106,0.145,0.261c-0.249,0.851-0.486,1.705-0.733,2.556c-0.037,0.125-0.029,0.183,0.114,0.219
		c0.479,0.126,0.954,0.264,1.428,0.408c0.149,0.045,0.186-0.005,0.223-0.144c0.228-0.831,0.472-1.658,0.697-2.49
		c0.051-0.19,0.105-0.247,0.318-0.187c1.003,0.287,2.021,0.379,3.058,0.187c2.106-0.392,3.82-2.588,2.759-5.054
		c-0.286-0.662-0.683-1.241-1.245-1.693C55.449,17.007,55.453,16.997,55.459,16.995z M53.603,19.793
		c-0.149,0.733-0.637,1.199-1.343,1.431c-0.291,0.097-0.594,0.123-0.9,0.112c-0.9-0.008-1.744-0.284-2.587-0.56
		c-0.129-0.043-0.259-0.084-0.387-0.128c-0.352-0.116-0.32-0.049-0.226-0.398c0.304-1.126,0.615-2.249,0.918-3.373
		c0.042-0.159,0.083-0.216,0.268-0.166c0.863,0.237,1.732,0.449,2.55,0.823c0.343,0.157,0.671,0.339,0.965,0.577
		C53.4,18.543,53.748,19.08,53.603,19.793z M54.328,14.34c-0.201,0.649-0.688,1.041-1.365,1.171
		c-0.172,0.032-0.346,0.062-0.457,0.052c-0.844-0.022-1.574-0.256-2.301-0.498c-0.498-0.165-0.499-0.168-0.36-0.68
		c0.253-0.938,0.512-1.875,0.764-2.813c0.04-0.15,0.084-0.202,0.259-0.155c0.691,0.188,1.394,0.339,2.049,0.644
		c0.351,0.163,0.679,0.356,0.951,0.635C54.323,13.16,54.52,13.721,54.328,14.34z"/>
</g>
<g id="Layer_1_copy_2">
	<path fill-rule="evenodd" clip-rule="evenodd" fill="#070707" d="M43.867,75.462c0.117-0.039,0.233-0.076,0.353-0.11
		c1.502-0.407,2.818-1.124,3.834-2.323c2.712-3.211,2.574-7.912-0.318-10.996c-1.736-1.847-3.901-3.018-6.225-3.932
		c-0.386-0.151-0.486-0.308-0.364-0.726c0.617-2.092,1.17-4.203,1.813-6.287c0.194-0.63,0.025-0.817-0.559-0.958
		c-1.049-0.249-2.092-0.542-3.118-0.876c-0.546-0.176-0.777-0.094-0.935,0.502c-0.551,2.088-1.174,4.158-1.753,6.239
		c-0.114,0.414-0.233,0.585-0.718,0.411c-0.858-0.31-1.743-0.56-2.631-0.77c-0.444-0.104-0.443-0.288-0.337-0.649
		c0.606-2.075,1.18-4.159,1.797-6.23c0.157-0.526,0.145-0.789-0.498-0.925c-1.074-0.227-2.135-0.542-3.177-0.894
		c-0.563-0.189-0.774-0.087-0.929,0.496c-0.556,2.108-1.179,4.199-1.746,6.306c-0.123,0.452-0.28,0.521-0.724,0.394
		c-2.733-0.791-5.479-1.541-8.216-2.322c-0.358-0.102-0.507-0.063-0.609,0.326c-0.348,1.326-0.719,2.646-1.128,3.956
		c-0.136,0.433,0.02,0.538,0.377,0.628c1.047,0.264,2.096,0.525,3.116,0.889c1.479,0.528,2.076,1.652,1.657,3.141
		c-1.861,6.598-3.725,13.197-5.587,19.795c-0.336,1.192-1.115,1.674-2.308,1.376c-0.947-0.237-1.884-0.516-2.816-0.809
		c-0.349-0.11-0.5-0.027-0.65,0.305c-0.654,1.438-1.313,2.874-2.027,4.284c-0.242,0.479-0.085,0.562,0.333,0.679
		c2.721,0.763,5.433,1.555,8.155,2.307c0.424,0.12,0.511,0.26,0.389,0.682c-0.642,2.192-1.239,4.398-1.882,6.593
		c-0.121,0.408-0.02,0.545,0.361,0.647c1.205,0.318,2.408,0.646,3.599,1.012c0.401,0.12,0.519,0.039,0.63-0.361
		c0.616-2.243,1.277-4.475,1.897-6.718c0.103-0.373,0.224-0.446,0.591-0.327c0.888,0.291,1.786,0.55,2.691,0.784
		c0.416,0.105,0.496,0.274,0.376,0.68c-0.647,2.214-1.265,4.435-1.908,6.648c-0.097,0.328-0.077,0.472,0.298,0.569
		c1.244,0.328,2.481,0.685,3.714,1.061c0.387,0.117,0.484-0.012,0.582-0.371c0.592-2.162,1.229-4.315,1.815-6.48
		c0.132-0.496,0.273-0.645,0.825-0.486c2.61,0.748,5.26,0.985,7.958,0.484c5.483-1.017,9.94-6.732,7.179-13.146
		c-0.743-1.728-1.778-3.23-3.239-4.408C43.842,75.494,43.851,75.467,43.867,75.462z M39.037,82.744
		c-0.391,1.91-1.657,3.122-3.493,3.724c-0.758,0.249-1.546,0.317-2.343,0.293c-2.343-0.021-4.539-0.74-6.733-1.459
		c-0.335-0.109-0.671-0.217-1.005-0.332c-0.914-0.306-0.831-0.13-0.587-1.038c0.791-2.928,1.602-5.848,2.388-8.777
		c0.11-0.413,0.219-0.56,0.699-0.428c2.246,0.613,4.507,1.163,6.634,2.141c0.892,0.41,1.745,0.882,2.511,1.498
		C38.511,79.491,39.416,80.887,39.037,82.744z M40.926,68.554c-0.524,1.691-1.792,2.71-3.553,3.045
		c-0.446,0.086-0.9,0.164-1.19,0.137c-2.194-0.056-4.093-0.667-5.985-1.295c-1.297-0.43-1.3-0.438-0.939-1.767
		c0.66-2.443,1.333-4.882,1.988-7.326c0.103-0.389,0.217-0.522,0.673-0.4c1.801,0.488,3.629,0.883,5.334,1.674
		c0.912,0.423,1.766,0.926,2.474,1.649C40.911,65.48,41.423,66.943,40.926,68.554z"/>
</g>
</svg>
